<svg xmlns="http://www.w3.org/2000/svg" xmlns:xlink="http://www.w3.org/1999/xlink" contentStyleType="text/css" height="2642px" preserveAspectRatio="none" style="width:1316px;height:2642px;background:#0F172A;" version="1.1" viewBox="0 0 1316 2642" width="1316px" zoomAndPan="magnify"><title>Complete Connection Lifecycle &#8212; Portal to P2P</title><defs/><g><rect fill="#0F172A" height="2642" style="stroke:none;stroke-width:1;" width="1316" x="0" y="0"/><text fill="#F8FAFC" font-family="Segoe UI" font-size="22" font-weight="bold" lengthAdjust="spacing" textLength="582.2803" x="365.4648" y="35.4209">Complete Connection Lifecycle &#8212; Portal to P2P</text><line style="stroke:#334155;stroke-width:1;" x1="26" x2="26" y1="126.5781" y2="2563.8594"/><line style="stroke:#334155;stroke-width:1;" x1="196.9492" x2="196.9492" y1="126.5781" y2="2563.8594"/><line style="stroke:#334155;stroke-width:1;" x1="558.8398" x2="558.8398" y1="126.5781" y2="2563.8594"/><line style="stroke:#334155;stroke-width:1;" x1="661.8672" x2="661.8672" y1="126.5781" y2="2563.8594"/><line style="stroke:#334155;stroke-width:1;" x1="900.9932" x2="900.9932" y1="126.5781" y2="2563.8594"/><line style="stroke:#334155;stroke-width:1;" x1="1161.4502" x2="1161.4502" y1="126.5781" y2="2563.8594"/><line style="stroke:#334155;stroke-width:1;" x1="1260.4717" x2="1260.4717" y1="126.5781" y2="2563.8594"/><text fill="#F8FAFC" font-family="Segoe UI" font-size="12" lengthAdjust="spacing" textLength="27.3516" x="10" y="123.748">User</text><ellipse cx="26.6758" cy="60.6094" fill="#3B82F6" rx="8" ry="8" style="stroke:#000000;stroke-width:1;"/><path d="M26.6758,68.6094 L26.6758,95.6094 M13.6758,76.6094 L39.6758,76.6094 M26.6758,95.6094 L13.6758,110.6094 M26.6758,95.6094 L39.6758,110.6094 " fill="none" style="stroke:#000000;stroke-width:1;"/><text fill="#F8FAFC" font-family="Segoe UI" font-size="12" lengthAdjust="spacing" textLength="27.3516" x="10" y="2573.998">User</text><ellipse cx="26.6758" cy="2585.8281" fill="#3B82F6" rx="8" ry="8" style="stroke:#000000;stroke-width:1;"/><path d="M26.6758,2593.8281 L26.6758,2620.8281 M13.6758,2601.8281 L39.6758,2601.8281 M26.6758,2620.8281 L13.6758,2635.8281 M26.6758,2620.8281 L39.6758,2635.8281 " fill="none" style="stroke:#000000;stroke-width:1;"/><rect fill="#1E293B" height="27.9688" rx="2.5" ry="2.5" style="stroke:#3B82F6;stroke-width:1;" width="62.8906" x="165.9492" y="97.6094"/><text fill="#F8FAFC" font-family="Segoe UI" font-size="12" lengthAdjust="spacing" textLength="48.8906" x="172.9492" y="115.748">Browser</text><rect fill="#1E293B" height="27.9688" rx="2.5" ry="2.5" style="stroke:#3B82F6;stroke-width:1;" width="62.8906" x="165.9492" y="2562.8594"/><text fill="#F8FAFC" font-family="Segoe UI" font-size="12" lengthAdjust="spacing" textLength="48.8906" x="172.9492" y="2580.998">Browser</text><rect fill="#1E293B" height="27.9688" rx="2.5" ry="2.5" style="stroke:#3B82F6;stroke-width:1;" width="94.0273" x="511.8398" y="97.6094"/><text fill="#F8FAFC" font-family="Segoe UI" font-size="12" lengthAdjust="spacing" textLength="80.0273" x="518.8398" y="115.748">Signal Server</text><rect fill="#1E293B" height="27.9688" rx="2.5" ry="2.5" style="stroke:#3B82F6;stroke-width:1;" width="94.0273" x="511.8398" y="2562.8594"/><text fill="#F8FAFC" font-family="Segoe UI" font-size="12" lengthAdjust="spacing" textLength="80.0273" x="518.8398" y="2580.998">Signal Server</text><rect fill="#1E293B" height="27.9688" rx="2.5" ry="2.5" style="stroke:#3B82F6;stroke-width:1;" width="52.7891" x="635.8672" y="97.6094"/><text fill="#F8FAFC" font-family="Segoe UI" font-size="12" lengthAdjust="spacing" textLength="38.7891" x="642.8672" y="115.748">coturn</text><rect fill="#1E293B" height="27.9688" rx="2.5" ry="2.5" style="stroke:#3B82F6;stroke-width:1;" width="52.7891" x="635.8672" y="2562.8594"/><text fill="#F8FAFC" font-family="Segoe UI" font-size="12" lengthAdjust="spacing" textLength="38.7891" x="642.8672" y="2580.998">coturn</text><rect fill="#1E293B" height="27.9688" rx="2.5" ry="2.5" style="stroke:#3B82F6;stroke-width:1;" width="67.0098" x="867.9932" y="97.6094"/><text fill="#F8FAFC" font-family="Segoe UI" font-size="12" lengthAdjust="spacing" textLength="53.0098" x="874.9932" y="115.748">Gateway</text><rect fill="#1E293B" height="27.9688" rx="2.5" ry="2.5" style="stroke:#3B82F6;stroke-width:1;" width="67.0098" x="867.9932" y="2562.8594"/><text fill="#F8FAFC" font-family="Segoe UI" font-size="12" lengthAdjust="spacing" textLength="53.0098" x="874.9932" y="2580.998">Gateway</text><rect fill="#1E293B" height="27.9688" rx="2.5" ry="2.5" style="stroke:#3B82F6;stroke-width:1;" width="73.0215" x="1125.4502" y="97.6094"/><text fill="#F8FAFC" font-family="Segoe UI" font-size="12" lengthAdjust="spacing" textLength="59.0215" x="1132.4502" y="115.748">TideCloak</text><rect fill="#1E293B" height="27.9688" rx="2.5" ry="2.5" style="stroke:#3B82F6;stroke-width:1;" width="73.0215" x="1125.4502" y="2562.8594"/><text fill="#F8FAFC" font-family="Segoe UI" font-size="12" lengthAdjust="spacing" textLength="59.0215" x="1132.4502" y="2580.998">TideCloak</text><rect fill="#1E293B" height="27.9688" rx="2.5" ry="2.5" style="stroke:#3B82F6;stroke-width:1;" width="65.7383" x="1228.4717" y="97.6094"/><text fill="#F8FAFC" font-family="Segoe UI" font-size="12" lengthAdjust="spacing" textLength="51.7383" x="1235.4717" y="115.748">Backend</text><rect fill="#1E293B" height="27.9688" rx="2.5" ry="2.5" style="stroke:#3B82F6;stroke-width:1;" width="65.7383" x="1228.4717" y="2562.8594"/><text fill="#F8FAFC" font-family="Segoe UI" font-size="12" lengthAdjust="spacing" textLength="51.7383" x="1235.4717" y="2580.998">Backend</text><rect fill="#334155" height="3" style="stroke:#334155;stroke-width:1;" width="1304.21" x="5" y="156.5625"/><line style="stroke:#000000;stroke-width:0.5;" x1="5" x2="1309.21" y1="156.5625" y2="156.5625"/><line style="stroke:#000000;stroke-width:0.5;" x1="5" x2="1309.21" y1="159.5625" y2="159.5625"/><rect fill="#334155" height="21.9688" style="stroke:#000000;stroke-width:1;" width="121.3027" x="596.4536" y="146.5781"/><text fill="#F8FAFC" font-family="Segoe UI" font-size="12" font-weight="bold" lengthAdjust="spacing" textLength="103.125" x="602.4536" y="161.7168">Phase 1: Portal</text><polygon fill="#94A3B8" points="185.3945,194.5156,195.3945,198.5156,185.3945,202.5156,189.3945,198.5156" style="stroke:#94A3B8;stroke-width:1;"/><line style="stroke:#94A3B8;stroke-width:1;" x1="26.6758" x2="191.3945" y1="198.5156" y2="198.5156"/><text fill="#94A3B8" font-family="Segoe UI" font-size="12" lengthAdjust="spacing" textLength="135.082" x="33.6758" y="193.6855">Visit signal-server URL</text><polygon fill="#94A3B8" points="546.8535,222.4844,556.8535,226.4844,546.8535,230.4844,550.8535,226.4844" style="stroke:#94A3B8;stroke-width:1;"/><line style="stroke:#94A3B8;stroke-width:1;" x1="197.3945" x2="552.8535" y1="226.4844" y2="226.4844"/><text fill="#94A3B8" font-family="Segoe UI" font-size="12" lengthAdjust="spacing" textLength="67.3535" x="204.3945" y="221.6543">GET /portal</text><polygon fill="#94A3B8" points="208.3945,250.4531,198.3945,254.4531,208.3945,258.4531,204.3945,254.4531" style="stroke:#94A3B8;stroke-width:1;"/><line style="stroke:#94A3B8;stroke-width:1;stroke-dasharray:2.0,2.0;" x1="202.3945" x2="557.8535" y1="254.4531" y2="254.4531"/><text fill="#94A3B8" font-family="Segoe UI" font-size="12" lengthAdjust="spacing" textLength="66.4336" x="214.3945" y="249.623">portal.html</text><polygon fill="#94A3B8" points="546.8535,278.4219,556.8535,282.4219,546.8535,286.4219,550.8535,282.4219" style="stroke:#94A3B8;stroke-width:1;"/><line style="stroke:#94A3B8;stroke-width:1;" x1="197.3945" x2="552.8535" y1="282.4219" y2="282.4219"/><text fill="#94A3B8" font-family="Segoe UI" font-size="12" lengthAdjust="spacing" textLength="111.9961" x="204.3945" y="277.5918">GET /api/gateways</text><polygon fill="#94A3B8" points="208.3945,306.3906,198.3945,310.3906,208.3945,314.3906,204.3945,310.3906" style="stroke:#94A3B8;stroke-width:1;"/><line style="stroke:#94A3B8;stroke-width:1;stroke-dasharray:2.0,2.0;" x1="202.3945" x2="557.8535" y1="310.3906" y2="310.3906"/><text fill="#94A3B8" font-family="Segoe UI" font-size="12" lengthAdjust="spacing" textLength="333.8906" x="214.3945" y="305.5605">[{ id: "gw-x", displayName: "My App", backends: [...] }]</text><polygon fill="#94A3B8" points="185.3945,334.3594,195.3945,338.3594,185.3945,342.3594,189.3945,338.3594" style="stroke:#94A3B8;stroke-width:1;"/><line style="stroke:#94A3B8;stroke-width:1;" x1="26.6758" x2="191.3945" y1="338.3594" y2="338.3594"/><text fill="#94A3B8" font-family="Segoe UI" font-size="12" lengthAdjust="spacing" textLength="146.7188" x="33.6758" y="333.5293">Click "Connect" on App1</text><polygon fill="#94A3B8" points="546.8535,362.3281,556.8535,366.3281,546.8535,370.3281,550.8535,366.3281" style="stroke:#94A3B8;stroke-width:1;"/><line style="stroke:#94A3B8;stroke-width:1;" x1="197.3945" x2="552.8535" y1="366.3281" y2="366.3281"/><text fill="#94A3B8" font-family="Segoe UI" font-size="12" lengthAdjust="spacing" textLength="288.2988" x="204.3945" y="361.498">GET /api/select?gateway=gw-x&amp;backend=App1</text><polygon fill="#94A3B8" points="208.3945,390.2969,198.3945,394.2969,208.3945,398.2969,204.3945,394.2969" style="stroke:#94A3B8;stroke-width:1;"/><line style="stroke:#94A3B8;stroke-width:1;stroke-dasharray:2.0,2.0;" x1="202.3945" x2="557.8535" y1="394.2969" y2="394.2969"/><text fill="#94A3B8" font-family="Segoe UI" font-size="12" lengthAdjust="spacing" textLength="152.4258" x="214.3945" y="389.4668">302 /__b/App1/ + cookies</text><rect fill="#334155" height="3" style="stroke:#334155;stroke-width:1;" width="1304.21" x="5" y="422.2813"/><line style="stroke:#000000;stroke-width:0.5;" x1="5" x2="1309.21" y1="422.2813" y2="422.2813"/><line style="stroke:#000000;stroke-width:0.5;" x1="5" x2="1309.21" y1="425.2813" y2="425.2813"/><rect fill="#334155" height="21.9688" style="stroke:#000000;stroke-width:1;" width="207.7168" x="553.2466" y="412.2969"/><text fill="#F8FAFC" font-family="Segoe UI" font-size="12" font-weight="bold" lengthAdjust="spacing" textLength="189.5391" x="559.2466" y="427.4355">Phase 2: HTTP Relay + Auth</text><polygon fill="#94A3B8" points="546.8535,460.2344,556.8535,464.2344,546.8535,468.2344,550.8535,464.2344" style="stroke:#94A3B8;stroke-width:1;"/><line style="stroke:#94A3B8;stroke-width:1;" x1="197.3945" x2="552.8535" y1="464.2344" y2="464.2344"/><text fill="#94A3B8" font-family="Segoe UI" font-size="12" lengthAdjust="spacing" textLength="278.9648" x="204.3945" y="459.4043">GET /__b/App1/ (Cookie: gateway_relay=gw-x)</text><polygon fill="#94A3B8" points="889.498,488.2031,899.498,492.2031,889.498,496.2031,893.498,492.2031" style="stroke:#94A3B8;stroke-width:1;"/><line style="stroke:#94A3B8;stroke-width:1;" x1="558.8535" x2="895.498" y1="492.2031" y2="492.2031"/><text fill="#94A3B8" font-family="Segoe UI" font-size="12" lengthAdjust="spacing" textLength="147.1348" x="565.8535" y="487.373">WS: http_request (relay)</text><polygon fill="#94A3B8" points="569.8535,516.1719,559.8535,520.1719,569.8535,524.1719,565.8535,520.1719" style="stroke:#94A3B8;stroke-width:1;"/><line style="stroke:#94A3B8;stroke-width:1;stroke-dasharray:2.0,2.0;" x1="563.8535" x2="900.498" y1="520.1719" y2="520.1719"/><text fill="#94A3B8" font-family="Segoe UI" font-size="12" lengthAdjust="spacing" textLength="221.7305" x="575.8535" y="515.3418">WS: http_response 302 &#8594; /auth/login</text><polygon fill="#94A3B8" points="208.3945,544.1406,198.3945,548.1406,208.3945,552.1406,204.3945,548.1406" style="stroke:#94A3B8;stroke-width:1;"/><line style="stroke:#94A3B8;stroke-width:1;stroke-dasharray:2.0,2.0;" x1="202.3945" x2="557.8535" y1="548.1406" y2="548.1406"/><text fill="#94A3B8" font-family="Segoe UI" font-size="12" lengthAdjust="spacing" textLength="91.3066" x="214.3945" y="543.3105">302 /auth/login</text><polygon fill="#94A3B8" points="546.8535,572.1094,556.8535,576.1094,546.8535,580.1094,550.8535,576.1094" style="stroke:#94A3B8;stroke-width:1;"/><line style="stroke:#94A3B8;stroke-width:1;" x1="197.3945" x2="552.8535" y1="576.1094" y2="576.1094"/><text fill="#94A3B8" font-family="Segoe UI" font-size="12" lengthAdjust="spacing" textLength="314.5195" x="204.3945" y="571.2793">GET /auth/login &#8594; relay &#8594; Gateway &#8594; 302 TideCloak</text><polygon fill="#94A3B8" points="546.8535,600.0781,556.8535,604.0781,546.8535,608.0781,550.8535,604.0781" style="stroke:#94A3B8;stroke-width:1;"/><line style="stroke:#94A3B8;stroke-width:1;" x1="197.3945" x2="552.8535" y1="604.0781" y2="604.0781"/><text fill="#94A3B8" font-family="Segoe UI" font-size="12" lengthAdjust="spacing" textLength="337.459" x="204.3945" y="599.248">GET /realms/... &#8594; relay &#8594; Gateway &#8594; proxy to TideCloak</text><polygon fill="#94A3B8" points="208.3945,628.0469,198.3945,632.0469,208.3945,636.0469,204.3945,632.0469" style="stroke:#94A3B8;stroke-width:1;"/><polygon fill="#94A3B8" points="1149.9609,628.0469,1159.9609,632.0469,1149.9609,636.0469,1153.9609,632.0469" style="stroke:#94A3B8;stroke-width:1;"/><line style="stroke:#94A3B8;stroke-width:1;" x1="202.3945" x2="1155.9609" y1="632.0469" y2="632.0469"/><text fill="#94A3B8" font-family="Segoe UI" font-size="12" lengthAdjust="spacing" textLength="199.1426" x="214.3945" y="627.2168">Login (proxied through Gateway)</text><polygon fill="#94A3B8" points="546.8535,656.0156,556.8535,660.0156,546.8535,664.0156,550.8535,660.0156" style="stroke:#94A3B8;stroke-width:1;"/><line style="stroke:#94A3B8;stroke-width:1;" x1="197.3945" x2="552.8535" y1="660.0156" y2="660.0156"/><text fill="#94A3B8" font-family="Segoe UI" font-size="12" lengthAdjust="spacing" textLength="296.8652" x="204.3945" y="655.1855">GET /auth/callback?code=xyz &#8594; relay &#8594; Gateway</text><polygon fill="#94A3B8" points="1149.9609,683.9844,1159.9609,687.9844,1149.9609,691.9844,1153.9609,687.9844" style="stroke:#94A3B8;stroke-width:1;"/><line style="stroke:#94A3B8;stroke-width:1;" x1="901.498" x2="1155.9609" y1="687.9844" y2="687.9844"/><text fill="#94A3B8" font-family="Segoe UI" font-size="12" lengthAdjust="spacing" textLength="155.9648" x="908.498" y="683.1543">Exchange code for tokens</text><polygon fill="#94A3B8" points="569.8535,711.9531,559.8535,715.9531,569.8535,719.9531,565.8535,715.9531" style="stroke:#94A3B8;stroke-width:1;"/><line style="stroke:#94A3B8;stroke-width:1;stroke-dasharray:2.0,2.0;" x1="563.8535" x2="900.498" y1="715.9531" y2="715.9531"/><text fill="#94A3B8" font-family="Segoe UI" font-size="12" lengthAdjust="spacing" textLength="318.6445" x="575.8535" y="711.123">302 + Set-Cookie: gateway_access, gateway_refresh</text><polygon fill="#94A3B8" points="208.3945,739.9219,198.3945,743.9219,208.3945,747.9219,204.3945,743.9219" style="stroke:#94A3B8;stroke-width:1;"/><line style="stroke:#94A3B8;stroke-width:1;stroke-dasharray:2.0,2.0;" x1="202.3945" x2="557.8535" y1="743.9219" y2="743.9219"/><text fill="#94A3B8" font-family="Segoe UI" font-size="12" lengthAdjust="spacing" textLength="183.5098" x="214.3945" y="739.0918">302 /__b/App1/ + auth cookies</text><polygon fill="#94A3B8" points="546.8535,767.8906,556.8535,771.8906,546.8535,775.8906,550.8535,771.8906" style="stroke:#94A3B8;stroke-width:1;"/><line style="stroke:#94A3B8;stroke-width:1;" x1="197.3945" x2="552.8535" y1="771.8906" y2="771.8906"/><text fill="#94A3B8" font-family="Segoe UI" font-size="12" lengthAdjust="spacing" textLength="198.7969" x="204.3945" y="767.0605">GET /__b/App1/ (with JWT cookie)</text><polygon fill="#94A3B8" points="889.498,795.8594,899.498,799.8594,889.498,803.8594,893.498,799.8594" style="stroke:#94A3B8;stroke-width:1;"/><line style="stroke:#94A3B8;stroke-width:1;" x1="558.8535" x2="895.498" y1="799.8594" y2="799.8594"/><text fill="#94A3B8" font-family="Segoe UI" font-size="12" lengthAdjust="spacing" textLength="147.1348" x="565.8535" y="795.0293">WS: http_request (relay)</text><line style="stroke:#94A3B8;stroke-width:1;" x1="901.498" x2="943.498" y1="827.8281" y2="827.8281"/><line style="stroke:#94A3B8;stroke-width:1;" x1="943.498" x2="943.498" y1="827.8281" y2="840.8281"/><line style="stroke:#94A3B8;stroke-width:1;" x1="902.498" x2="943.498" y1="840.8281" y2="840.8281"/><polygon fill="#94A3B8" points="912.498,836.8281,902.498,840.8281,912.498,844.8281,908.498,840.8281" style="stroke:#94A3B8;stroke-width:1;"/><text fill="#94A3B8" font-family="Segoe UI" font-size="12" lengthAdjust="spacing" textLength="139.8633" x="908.498" y="822.998">Validate method + JWT</text><polygon fill="#94A3B8" points="1249.3408,864.7969,1259.3408,868.7969,1249.3408,872.7969,1253.3408,868.7969" style="stroke:#94A3B8;stroke-width:1;"/><line style="stroke:#94A3B8;stroke-width:1;" x1="901.498" x2="1255.3408" y1="868.7969" y2="868.7969"/><text fill="#94A3B8" font-family="Segoe UI" font-size="12" lengthAdjust="spacing" textLength="212.7422" x="908.498" y="863.9668">GET / (authenticated, 30 s timeout)</text><polygon fill="#94A3B8" points="912.498,892.7656,902.498,896.7656,912.498,900.7656,908.498,896.7656" style="stroke:#94A3B8;stroke-width:1;"/><line style="stroke:#94A3B8;stroke-width:1;stroke-dasharray:2.0,2.0;" x1="906.498" x2="1260.3408" y1="896.7656" y2="896.7656"/><text fill="#94A3B8" font-family="Segoe UI" font-size="12" lengthAdjust="spacing" textLength="60.1113" x="918.498" y="891.9355">200 HTML</text><line style="stroke:#94A3B8;stroke-width:1;" x1="901.498" x2="943.498" y1="924.7344" y2="924.7344"/><line style="stroke:#94A3B8;stroke-width:1;" x1="943.498" x2="943.498" y1="924.7344" y2="937.7344"/><line style="stroke:#94A3B8;stroke-width:1;" x1="902.498" x2="943.498" y1="937.7344" y2="937.7344"/><polygon fill="#94A3B8" points="912.498,933.7344,902.498,937.7344,912.498,941.7344,908.498,937.7344" style="stroke:#94A3B8;stroke-width:1;"/><text fill="#94A3B8" font-family="Segoe UI" font-size="12" lengthAdjust="spacing" textLength="246.4629" x="908.498" y="919.9043">Rewrite HTML + inject webrtc-upgrade.js</text><polygon fill="#94A3B8" points="569.8535,961.7031,559.8535,965.7031,569.8535,969.7031,565.8535,965.7031" style="stroke:#94A3B8;stroke-width:1;"/><line style="stroke:#94A3B8;stroke-width:1;stroke-dasharray:2.0,2.0;" x1="563.8535" x2="900.498" y1="965.7031" y2="965.7031"/><text fill="#94A3B8" font-family="Segoe UI" font-size="12" lengthAdjust="spacing" textLength="112.7402" x="575.8535" y="960.873">WS: http_response</text><polygon fill="#94A3B8" points="208.3945,989.6719,198.3945,993.6719,208.3945,997.6719,204.3945,993.6719" style="stroke:#94A3B8;stroke-width:1;"/><line style="stroke:#94A3B8;stroke-width:1;stroke-dasharray:2.0,2.0;" x1="202.3945" x2="557.8535" y1="993.6719" y2="993.6719"/><text fill="#94A3B8" font-family="Segoe UI" font-size="12" lengthAdjust="spacing" textLength="197.5195" x="214.3945" y="988.8418">200 (app page + upgrade script)</text><rect fill="#334155" height="3" style="stroke:#334155;stroke-width:1;" width="1304.21" x="5" y="1021.6563"/><line style="stroke:#000000;stroke-width:0.5;" x1="5" x2="1309.21" y1="1021.6563" y2="1021.6563"/><line style="stroke:#000000;stroke-width:0.5;" x1="5" x2="1309.21" y1="1024.6563" y2="1024.6563"/><rect fill="#334155" height="21.9688" style="stroke:#000000;stroke-width:1;" width="341.252" x="486.479" y="1011.6719"/><text fill="#F8FAFC" font-family="Segoe UI" font-size="12" font-weight="bold" lengthAdjust="spacing" textLength="323.0742" x="492.479" y="1026.8105">Phase 3: WebRTC Upgrade (async, background)</text><line style="stroke:#94A3B8;stroke-width:1;" x1="197.3945" x2="239.3945" y1="1063.6094" y2="1063.6094"/><line style="stroke:#94A3B8;stroke-width:1;" x1="239.3945" x2="239.3945" y1="1063.6094" y2="1076.6094"/><line style="stroke:#94A3B8;stroke-width:1;" x1="198.3945" x2="239.3945" y1="1076.6094" y2="1076.6094"/><polygon fill="#94A3B8" points="208.3945,1072.6094,198.3945,1076.6094,208.3945,1080.6094,204.3945,1076.6094" style="stroke:#94A3B8;stroke-width:1;"/><text fill="#94A3B8" font-family="Segoe UI" font-size="12" lengthAdjust="spacing" textLength="167.1328" x="204.3945" y="1058.7793">webrtc-upgrade.js executes</text><polygon fill="#94A3B8" points="546.8535,1100.5781,556.8535,1104.5781,546.8535,1108.5781,550.8535,1104.5781" style="stroke:#94A3B8;stroke-width:1;"/><line style="stroke:#94A3B8;stroke-width:1;" x1="197.3945" x2="552.8535" y1="1104.5781" y2="1104.5781"/><text fill="#94A3B8" font-family="Segoe UI" font-size="12" lengthAdjust="spacing" textLength="211.002" x="204.3945" y="1099.748">GET /auth/session-token (via relay)</text><polygon fill="#94A3B8" points="208.3945,1128.5469,198.3945,1132.5469,208.3945,1136.5469,204.3945,1132.5469" style="stroke:#94A3B8;stroke-width:1;"/><line style="stroke:#94A3B8;stroke-width:1;stroke-dasharray:2.0,2.0;" x1="202.3945" x2="557.8535" y1="1132.5469" y2="1132.5469"/><text fill="#94A3B8" font-family="Segoe UI" font-size="12" lengthAdjust="spacing" textLength="118.623" x="214.3945" y="1127.7168">{ token: "&lt;JWT&gt;" }</text><polygon fill="#94A3B8" points="546.8535,1170.4844,556.8535,1174.4844,546.8535,1178.4844,550.8535,1174.4844" style="stroke:#94A3B8;stroke-width:1;"/><line style="stroke:#94A3B8;stroke-width:1;" x1="197.3945" x2="552.8535" y1="1174.4844" y2="1174.4844"/><text fill="#94A3B8" font-family="Segoe UI" font-size="12" lengthAdjust="spacing" textLength="167.8066" x="204.3945" y="1155.6855">WS: register { role: "client",</text><text fill="#94A3B8" font-family="Segoe UI" font-size="12" lengthAdjust="spacing" textLength="153.9258" x="212.0234" y="1169.6543">token, targetGatewayId }</text><polygon fill="#94A3B8" points="208.3945,1198.4531,198.3945,1202.4531,208.3945,1206.4531,204.3945,1202.4531" style="stroke:#94A3B8;stroke-width:1;"/><line style="stroke:#94A3B8;stroke-width:1;stroke-dasharray:2.0,2.0;" x1="202.3945" x2="557.8535" y1="1202.4531" y2="1202.4531"/><text fill="#94A3B8" font-family="Segoe UI" font-size="12" lengthAdjust="spacing" textLength="164.0391" x="214.3945" y="1197.623">paired { gateway: "gw-x" }</text><polygon fill="#94A3B8" points="889.498,1226.4219,899.498,1230.4219,889.498,1234.4219,893.498,1230.4219" style="stroke:#94A3B8;stroke-width:1;"/><line style="stroke:#94A3B8;stroke-width:1;stroke-dasharray:2.0,2.0;" x1="558.8535" x2="895.498" y1="1230.4219" y2="1230.4219"/><text fill="#94A3B8" font-family="Segoe UI" font-size="12" lengthAdjust="spacing" textLength="175.6641" x="565.8535" y="1225.5918">paired { client: "client-abc" }</text><line style="stroke:#94A3B8;stroke-width:1;" x1="197.3945" x2="239.3945" y1="1300.2969" y2="1300.2969"/><line style="stroke:#94A3B8;stroke-width:1;" x1="239.3945" x2="239.3945" y1="1300.2969" y2="1313.2969"/><line style="stroke:#94A3B8;stroke-width:1;" x1="198.3945" x2="239.3945" y1="1313.2969" y2="1313.2969"/><polygon fill="#94A3B8" points="208.3945,1309.2969,198.3945,1313.2969,208.3945,1317.2969,204.3945,1313.2969" style="stroke:#94A3B8;stroke-width:1;"/><text fill="#94A3B8" font-family="Segoe UI" font-size="12" font-weight="bold" lengthAdjust="spacing" textLength="114.8555" x="204.3945" y="1253.5605">Browser creates:</text><text fill="#94A3B8" font-family="Segoe UI" font-size="12" lengthAdjust="spacing" textLength="147.498" x="204.3945" y="1267.5293">new RTCPeerConnection</text><text fill="#94A3B8" font-family="Segoe UI" font-size="12" lengthAdjust="spacing" textLength="217.7461" x="204.3945" y="1281.498">+ createDataChannel("http-tunnel")</text><text fill="#94A3B8" font-family="Segoe UI" font-size="12" lengthAdjust="spacing" textLength="91.7988" x="204.3945" y="1295.4668">+ createOffer()</text><polygon fill="#94A3B8" points="546.8535,1337.2656,556.8535,1341.2656,546.8535,1345.2656,550.8535,1341.2656" style="stroke:#94A3B8;stroke-width:1;"/><line style="stroke:#94A3B8;stroke-width:1;" x1="197.3945" x2="552.8535" y1="1341.2656" y2="1341.2656"/><text fill="#94A3B8" font-family="Segoe UI" font-size="12" lengthAdjust="spacing" textLength="206.25" x="204.3945" y="1336.4355">sdp_offer { sdp, fromId, targetId }</text><polygon fill="#94A3B8" points="889.498,1365.2344,899.498,1369.2344,889.498,1373.2344,893.498,1369.2344" style="stroke:#94A3B8;stroke-width:1;"/><line style="stroke:#94A3B8;stroke-width:1;" x1="558.8535" x2="895.498" y1="1369.2344" y2="1369.2344"/><text fill="#94A3B8" font-family="Segoe UI" font-size="12" lengthAdjust="spacing" textLength="105.627" x="565.8535" y="1364.4043">forward sdp_offer</text><line style="stroke:#94A3B8;stroke-width:1;" x1="901.498" x2="943.498" y1="1439.1094" y2="1439.1094"/><line style="stroke:#94A3B8;stroke-width:1;" x1="943.498" x2="943.498" y1="1439.1094" y2="1452.1094"/><line style="stroke:#94A3B8;stroke-width:1;" x1="902.498" x2="943.498" y1="1452.1094" y2="1452.1094"/><polygon fill="#94A3B8" points="912.498,1448.1094,902.498,1452.1094,912.498,1456.1094,908.498,1452.1094" style="stroke:#94A3B8;stroke-width:1;"/><text fill="#94A3B8" font-family="Segoe UI" font-size="12" font-weight="bold" lengthAdjust="spacing" textLength="118.0898" x="908.498" y="1392.373">Gateway creates:</text><text fill="#94A3B8" font-family="Segoe UI" font-size="12" lengthAdjust="spacing" textLength="123.4512" x="908.498" y="1406.3418">new PeerConnection</text><text fill="#94A3B8" font-family="Segoe UI" font-size="12" lengthAdjust="spacing" textLength="170.9941" x="908.498" y="1420.3105">setRemoteDescription(offer)</text><text fill="#94A3B8" font-family="Segoe UI" font-size="12" lengthAdjust="spacing" textLength="152.9766" x="908.498" y="1434.2793">&#8594; auto-generates answer</text><polygon fill="#94A3B8" points="569.8535,1476.0781,559.8535,1480.0781,569.8535,1484.0781,565.8535,1480.0781" style="stroke:#94A3B8;stroke-width:1;"/><line style="stroke:#94A3B8;stroke-width:1;" x1="563.8535" x2="900.498" y1="1480.0781" y2="1480.0781"/><text fill="#94A3B8" font-family="Segoe UI" font-size="12" lengthAdjust="spacing" textLength="166.002" x="575.8535" y="1475.248">sdp_answer { sdp, fromId }</text><polygon fill="#94A3B8" points="208.3945,1504.0469,198.3945,1508.0469,208.3945,1512.0469,204.3945,1508.0469" style="stroke:#94A3B8;stroke-width:1;"/><line style="stroke:#94A3B8;stroke-width:1;" x1="202.3945" x2="557.8535" y1="1508.0469" y2="1508.0469"/><text fill="#94A3B8" font-family="Segoe UI" font-size="12" lengthAdjust="spacing" textLength="120.8613" x="214.3945" y="1503.2168">forward sdp_answer</text><line style="stroke:#94A3B8;stroke-width:1;" x1="197.3945" x2="239.3945" y1="1536.0156" y2="1536.0156"/><line style="stroke:#94A3B8;stroke-width:1;" x1="239.3945" x2="239.3945" y1="1536.0156" y2="1549.0156"/><line style="stroke:#94A3B8;stroke-width:1;" x1="198.3945" x2="239.3945" y1="1549.0156" y2="1549.0156"/><polygon fill="#94A3B8" points="208.3945,1545.0156,198.3945,1549.0156,208.3945,1553.0156,204.3945,1549.0156" style="stroke:#94A3B8;stroke-width:1;"/><text fill="#94A3B8" font-family="Segoe UI" font-size="12" lengthAdjust="spacing" textLength="186.2285" x="204.3945" y="1531.1855">setRemoteDescription(answer)</text><polygon fill="#94A3B8" points="208.3945,1586.9531,198.3945,1590.9531,208.3945,1594.9531,204.3945,1590.9531" style="stroke:#94A3B8;stroke-width:1;"/><polygon fill="#94A3B8" points="650.2617,1586.9531,660.2617,1590.9531,650.2617,1594.9531,654.2617,1590.9531" style="stroke:#94A3B8;stroke-width:1;"/><line style="stroke:#94A3B8;stroke-width:1;" x1="202.3945" x2="656.2617" y1="1590.9531" y2="1590.9531"/><text fill="#94A3B8" font-family="Segoe UI" font-size="12" lengthAdjust="spacing" textLength="153.9961" x="214.3945" y="1572.1543">STUN Binding (port 3478)</text><text fill="#94A3B8" font-family="Segoe UI" font-size="12" lengthAdjust="spacing" textLength="185.2793" x="214.3945" y="1586.123">&#8594; discover reflexive addresses</text><polygon fill="#94A3B8" points="208.3945,1614.9219,198.3945,1618.9219,208.3945,1622.9219,204.3945,1618.9219" style="stroke:#94A3B8;stroke-width:1;"/><polygon fill="#94A3B8" points="546.8535,1614.9219,556.8535,1618.9219,546.8535,1622.9219,550.8535,1618.9219" style="stroke:#94A3B8;stroke-width:1;"/><line style="stroke:#94A3B8;stroke-width:1;" x1="202.3945" x2="552.8535" y1="1618.9219" y2="1618.9219"/><text fill="#94A3B8" font-family="Segoe UI" font-size="12" lengthAdjust="spacing" textLength="258.8379" x="214.3945" y="1614.0918">ICE candidates &#8592;&#8594; forwarded &#8592;&#8594; Gateway</text><polygon fill="#94A3B8" points="208.3945,1642.8906,198.3945,1646.8906,208.3945,1650.8906,204.3945,1646.8906" style="stroke:#94A3B8;stroke-width:1;"/><polygon fill="#94A3B8" points="889.498,1642.8906,899.498,1646.8906,889.498,1650.8906,893.498,1646.8906" style="stroke:#94A3B8;stroke-width:1;"/><line style="stroke:#94A3B8;stroke-width:1;" x1="202.3945" x2="895.498" y1="1646.8906" y2="1646.8906"/><text fill="#94A3B8" font-family="Segoe UI" font-size="12" font-weight="bold" lengthAdjust="spacing" textLength="266.9121" x="214.3945" y="1642.0605">ICE connectivity check &#8594; hole punched!</text><line style="stroke:#94A3B8;stroke-width:1;" x1="901.498" x2="943.498" y1="1688.8281" y2="1688.8281"/><line style="stroke:#94A3B8;stroke-width:1;" x1="943.498" x2="943.498" y1="1688.8281" y2="1701.8281"/><line style="stroke:#94A3B8;stroke-width:1;" x1="902.498" x2="943.498" y1="1701.8281" y2="1701.8281"/><polygon fill="#94A3B8" points="912.498,1697.8281,902.498,1701.8281,912.498,1705.8281,908.498,1701.8281" style="stroke:#94A3B8;stroke-width:1;"/><text fill="#94A3B8" font-family="Segoe UI" font-size="12" lengthAdjust="spacing" textLength="180.4688" x="908.498" y="1670.0293">onDataChannel("http-tunnel")</text><text fill="#94A3B8" font-family="Segoe UI" font-size="12" lengthAdjust="spacing" textLength="142.8047" x="908.498" y="1683.998">(receives browser's DC)</text><polygon fill="#94A3B8" points="208.3945,1725.7969,198.3945,1729.7969,208.3945,1733.7969,204.3945,1729.7969" style="stroke:#94A3B8;stroke-width:1;"/><polygon fill="#94A3B8" points="889.498,1725.7969,899.498,1729.7969,889.498,1733.7969,893.498,1729.7969" style="stroke:#94A3B8;stroke-width:1;"/><line style="stroke:#94A3B8;stroke-width:1;" x1="202.3945" x2="895.498" y1="1729.7969" y2="1729.7969"/><text fill="#94A3B8" font-family="Segoe UI" font-size="12" font-weight="bold" lengthAdjust="spacing" textLength="128.0918" x="214.3945" y="1724.9668">DataChannel OPEN</text><rect fill="#334155" height="3" style="stroke:#334155;stroke-width:1;" width="1304.21" x="5" y="1757.7813"/><line style="stroke:#000000;stroke-width:0.5;" x1="5" x2="1309.21" y1="1757.7813" y2="1757.7813"/><line style="stroke:#000000;stroke-width:0.5;" x1="5" x2="1309.21" y1="1760.7813" y2="1760.7813"/><rect fill="#334155" height="21.9688" style="stroke:#000000;stroke-width:1;" width="250.6016" x="531.8042" y="1747.7969"/><text fill="#F8FAFC" font-family="Segoe UI" font-size="12" font-weight="bold" lengthAdjust="spacing" textLength="232.4238" x="537.8042" y="1762.9355">Phase 4: Service Worker Takeover</text><line style="stroke:#94A3B8;stroke-width:1;" x1="197.3945" x2="239.3945" y1="1799.7344" y2="1799.7344"/><line style="stroke:#94A3B8;stroke-width:1;" x1="239.3945" x2="239.3945" y1="1799.7344" y2="1812.7344"/><line style="stroke:#94A3B8;stroke-width:1;" x1="198.3945" x2="239.3945" y1="1812.7344" y2="1812.7344"/><polygon fill="#94A3B8" points="208.3945,1808.7344,198.3945,1812.7344,208.3945,1816.7344,204.3945,1812.7344" style="stroke:#94A3B8;stroke-width:1;"/><text fill="#94A3B8" font-family="Segoe UI" font-size="12" lengthAdjust="spacing" textLength="145.3301" x="204.3945" y="1794.9043">Register Service Worker</text><line style="stroke:#94A3B8;stroke-width:1;" x1="197.3945" x2="239.3945" y1="1840.7031" y2="1840.7031"/><line style="stroke:#94A3B8;stroke-width:1;" x1="239.3945" x2="239.3945" y1="1840.7031" y2="1853.7031"/><line style="stroke:#94A3B8;stroke-width:1;" x1="198.3945" x2="239.3945" y1="1853.7031" y2="1853.7031"/><polygon fill="#94A3B8" points="208.3945,1849.7031,198.3945,1853.7031,208.3945,1857.7031,204.3945,1853.7031" style="stroke:#94A3B8;stroke-width:1;"/><text fill="#94A3B8" font-family="Segoe UI" font-size="12" lengthAdjust="spacing" textLength="176.8125" x="204.3945" y="1835.873">SW.postMessage("dc_ready")</text><path d="M157,1866.7031 L157,1945.7031 L941,1945.7031 L941,1876.7031 L931,1866.7031 L157,1866.7031 " fill="#334155" style="stroke:#334155;stroke-width:1;"/><path d="M931,1866.7031 L931,1876.7031 L941,1876.7031 L931,1866.7031 " fill="#334155" style="stroke:#334155;stroke-width:1;"/><text fill="#F8FAFC" font-family="Segoe UI" font-size="12" lengthAdjust="spacing" textLength="95.0391" x="374.6958" y="1882.8418">From this point:</text><text fill="#F8FAFC" font-family="Segoe UI" font-size="12" lengthAdjust="spacing" textLength="317.4375" x="374.6958" y="1896.8105">- Page navigations &#8594; HTTP relay (cookie-based auth)</text><text fill="#F8FAFC" font-family="Segoe UI" font-size="12" lengthAdjust="spacing" textLength="339.6621" x="374.6958" y="1910.7793">- Sub-resource fetches &#8594; DataChannel (only if dc_ready)</text><text fill="#F8FAFC" font-family="Segoe UI" font-size="12" lengthAdjust="spacing" textLength="251.5371" x="374.6958" y="1924.748">- No dc_ready &#8594; browser handles natively</text><text fill="#F8FAFC" font-family="Segoe UI" font-size="12" lengthAdjust="spacing" textLength="219.7207" x="374.6958" y="1938.7168">- 10 s DC timeout &#8594; fallback to relay</text><polygon fill="#94A3B8" points="185.3945,1967.5156,195.3945,1971.5156,185.3945,1975.5156,189.3945,1971.5156" style="stroke:#94A3B8;stroke-width:1;"/><line style="stroke:#94A3B8;stroke-width:1;" x1="26.6758" x2="191.3945" y1="1971.5156" y2="1971.5156"/><text fill="#94A3B8" font-family="Segoe UI" font-size="12" lengthAdjust="spacing" textLength="108.7207" x="33.6758" y="1966.6855">Click link / API call</text><polygon fill="#94A3B8" points="889.498,1995.4844,899.498,1999.4844,889.498,2003.4844,893.498,1999.4844" style="stroke:#94A3B8;stroke-width:1;"/><line style="stroke:#94A3B8;stroke-width:1;" x1="197.3945" x2="895.498" y1="1999.4844" y2="1999.4844"/><text fill="#94A3B8" font-family="Segoe UI" font-size="12" font-weight="bold" lengthAdjust="spacing" textLength="182.4668" x="204.3945" y="1994.6543">DataChannel: http_request</text><line style="stroke:#94A3B8;stroke-width:1;" x1="901.498" x2="943.498" y1="2041.4219" y2="2041.4219"/><line style="stroke:#94A3B8;stroke-width:1;" x1="943.498" x2="943.498" y1="2041.4219" y2="2054.4219"/><line style="stroke:#94A3B8;stroke-width:1;" x1="902.498" x2="943.498" y1="2054.4219" y2="2054.4219"/><polygon fill="#94A3B8" points="912.498,2050.4219,902.498,2054.4219,912.498,2058.4219,908.498,2054.4219" style="stroke:#94A3B8;stroke-width:1;"/><text fill="#94A3B8" font-family="Segoe UI" font-size="12" lengthAdjust="spacing" textLength="150.2988" x="908.498" y="2022.623">Inject backend cookie jar</text><text fill="#94A3B8" font-family="Segoe UI" font-size="12" lengthAdjust="spacing" textLength="116.168" x="908.498" y="2036.5918">(keyed by JWT sub)</text><polygon fill="#94A3B8" points="1249.3408,2078.3906,1259.3408,2082.3906,1249.3408,2086.3906,1253.3408,2082.3906" style="stroke:#94A3B8;stroke-width:1;"/><line style="stroke:#94A3B8;stroke-width:1;" x1="901.498" x2="1255.3408" y1="2082.3906" y2="2082.3906"/><text fill="#94A3B8" font-family="Segoe UI" font-size="12" lengthAdjust="spacing" textLength="214.3887" x="908.498" y="2077.5605">Proxy (authenticated, 30 s timeout)</text><polygon fill="#94A3B8" points="912.498,2106.3594,902.498,2110.3594,912.498,2114.3594,908.498,2110.3594" style="stroke:#94A3B8;stroke-width:1;"/><line style="stroke:#94A3B8;stroke-width:1;stroke-dasharray:2.0,2.0;" x1="906.498" x2="1260.3408" y1="2110.3594" y2="2110.3594"/><text fill="#94A3B8" font-family="Segoe UI" font-size="12" lengthAdjust="spacing" textLength="140.6191" x="918.498" y="2105.5293">Response + Set-Cookie</text><line style="stroke:#94A3B8;stroke-width:1;" x1="901.498" x2="943.498" y1="2152.2969" y2="2152.2969"/><line style="stroke:#94A3B8;stroke-width:1;" x1="943.498" x2="943.498" y1="2152.2969" y2="2165.2969"/><line style="stroke:#94A3B8;stroke-width:1;" x1="902.498" x2="943.498" y1="2165.2969" y2="2165.2969"/><polygon fill="#94A3B8" points="912.498,2161.2969,902.498,2165.2969,912.498,2169.2969,908.498,2165.2969" style="stroke:#94A3B8;stroke-width:1;"/><text fill="#94A3B8" font-family="Segoe UI" font-size="12" lengthAdjust="spacing" textLength="100.5586" x="908.498" y="2133.498">Store Set-Cookie</text><text fill="#94A3B8" font-family="Segoe UI" font-size="12" lengthAdjust="spacing" textLength="128.0742" x="908.498" y="2147.4668">in backend cookie jar</text><polygon fill="#94A3B8" points="208.3945,2189.2656,198.3945,2193.2656,208.3945,2197.2656,204.3945,2193.2656" style="stroke:#94A3B8;stroke-width:1;"/><line style="stroke:#94A3B8;stroke-width:1;" x1="202.3945" x2="900.498" y1="2193.2656" y2="2193.2656"/><text fill="#94A3B8" font-family="Segoe UI" font-size="12" font-weight="bold" lengthAdjust="spacing" textLength="192.1172" x="214.3945" y="2188.4355">DataChannel: http_response</text><rect fill="#334155" height="3" style="stroke:#334155;stroke-width:1;" width="1304.21" x="5" y="2221.25"/><line style="stroke:#000000;stroke-width:0.5;" x1="5" x2="1309.21" y1="2221.25" y2="2221.25"/><line style="stroke:#000000;stroke-width:0.5;" x1="5" x2="1309.21" y1="2224.25" y2="2224.25"/><rect fill="#334155" height="21.9688" style="stroke:#000000;stroke-width:1;" width="262.1973" x="526.0063" y="2211.2656"/><text fill="#F8FAFC" font-family="Segoe UI" font-size="12" font-weight="bold" lengthAdjust="spacing" textLength="244.0195" x="532.0063" y="2226.4043">Phase 5: Reconnection (if DC drops)</text><line style="stroke:#94A3B8;stroke-width:1;" x1="197.3945" x2="239.3945" y1="2277.1719" y2="2277.1719"/><line style="stroke:#94A3B8;stroke-width:1;" x1="239.3945" x2="239.3945" y1="2277.1719" y2="2290.1719"/><line style="stroke:#94A3B8;stroke-width:1;" x1="198.3945" x2="239.3945" y1="2290.1719" y2="2290.1719"/><polygon fill="#94A3B8" points="208.3945,2286.1719,198.3945,2290.1719,208.3945,2294.1719,204.3945,2290.1719" style="stroke:#94A3B8;stroke-width:1;"/><text fill="#94A3B8" font-family="Segoe UI" font-size="12" lengthAdjust="spacing" textLength="134.9824" x="204.3945" y="2258.373">DataChannel closes or</text><text fill="#94A3B8" font-family="Segoe UI" font-size="12" lengthAdjust="spacing" textLength="159.3457" x="204.3945" y="2272.3418">ICE fails or signaling drops</text><line style="stroke:#94A3B8;stroke-width:1;" x1="197.3945" x2="239.3945" y1="2332.1094" y2="2332.1094"/><line style="stroke:#94A3B8;stroke-width:1;" x1="239.3945" x2="239.3945" y1="2332.1094" y2="2345.1094"/><line style="stroke:#94A3B8;stroke-width:1;" x1="198.3945" x2="239.3945" y1="2345.1094" y2="2345.1094"/><polygon fill="#94A3B8" points="208.3945,2341.1094,198.3945,2345.1094,208.3945,2349.1094,204.3945,2345.1094" style="stroke:#94A3B8;stroke-width:1;"/><text fill="#94A3B8" font-family="Segoe UI" font-size="12" lengthAdjust="spacing" textLength="188.4082" x="204.3945" y="2313.3105">cleanupPeer() &#8594; reject pending</text><text fill="#94A3B8" font-family="Segoe UI" font-size="12" lengthAdjust="spacing" textLength="180.9492" x="204.3945" y="2327.2793">SW.postMessage("dc_closed")</text><line style="stroke:#94A3B8;stroke-width:1;" x1="197.3945" x2="239.3945" y1="2387.0469" y2="2387.0469"/><line style="stroke:#94A3B8;stroke-width:1;" x1="239.3945" x2="239.3945" y1="2387.0469" y2="2400.0469"/><line style="stroke:#94A3B8;stroke-width:1;" x1="198.3945" x2="239.3945" y1="2400.0469" y2="2400.0469"/><polygon fill="#94A3B8" points="208.3945,2396.0469,198.3945,2400.0469,208.3945,2404.0469,204.3945,2400.0469" style="stroke:#94A3B8;stroke-width:1;"/><text fill="#94A3B8" font-family="Segoe UI" font-size="12" lengthAdjust="spacing" textLength="123.1289" x="204.3945" y="2368.248">Exponential backoff:</text><text fill="#94A3B8" font-family="Segoe UI" font-size="12" lengthAdjust="spacing" textLength="140.6016" x="204.3945" y="2382.2168">5 s &#215; 1.5^n (max 60 s)</text><polygon fill="#94A3B8" points="546.8535,2437.9844,556.8535,2441.9844,546.8535,2445.9844,550.8535,2441.9844" style="stroke:#94A3B8;stroke-width:1;"/><line style="stroke:#94A3B8;stroke-width:1;" x1="197.3945" x2="552.8535" y1="2441.9844" y2="2441.9844"/><text fill="#94A3B8" font-family="Segoe UI" font-size="12" lengthAdjust="spacing" textLength="146.1152" x="204.3945" y="2423.1855">GET /auth/session-token</text><text fill="#94A3B8" font-family="Segoe UI" font-size="12" lengthAdjust="spacing" textLength="77.5605" x="204.3945" y="2437.1543">(fresh token)</text><polygon fill="#94A3B8" points="546.8535,2465.9531,556.8535,2469.9531,546.8535,2473.9531,550.8535,2469.9531" style="stroke:#94A3B8;stroke-width:1;"/><line style="stroke:#94A3B8;stroke-width:1;" x1="197.3945" x2="552.8535" y1="2469.9531" y2="2469.9531"/><text fill="#94A3B8" font-family="Segoe UI" font-size="12" lengthAdjust="spacing" textLength="173.3262" x="204.3945" y="2465.123">WS: register { new clientId }</text><polygon fill="#94A3B8" points="208.3945,2493.9219,198.3945,2497.9219,208.3945,2501.9219,204.3945,2497.9219" style="stroke:#94A3B8;stroke-width:1;"/><line style="stroke:#94A3B8;stroke-width:1;stroke-dasharray:2.0,2.0;" x1="202.3945" x2="557.8535" y1="2497.9219" y2="2497.9219"/><text fill="#94A3B8" font-family="Segoe UI" font-size="12" lengthAdjust="spacing" textLength="146.3906" x="214.3945" y="2493.0918">paired &#8594; repeat Phase 3</text><path d="M157,2510.9219 L157,2547.9219 L941,2547.9219 L941,2520.9219 L931,2510.9219 L157,2510.9219 " fill="#334155" style="stroke:#334155;stroke-width:1;"/><path d="M931,2510.9219 L931,2520.9219 L941,2520.9219 L931,2510.9219 " fill="#334155" style="stroke:#334155;stroke-width:1;"/><text fill="#F8FAFC" font-family="Segoe UI" font-size="12" lengthAdjust="spacing" textLength="225.7324" x="404.7017" y="2527.0605">Reconnect resets backoff on success.</text><text fill="#F8FAFC" font-family="Segoe UI" font-size="12" lengthAdjust="spacing" textLength="279.6504" x="404.7017" y="2541.0293">During reconnect: all requests use HTTP relay.</text><!--SRC=[bLZTRXit5hwVfpZL0gtaM79insqgn2aIsSbwuRY2PJSNwsv0pL0Ien4v9JcMLID0htfTB1Re0_LDyYJxaSEHHlR8Jk_6vCTpllD_vA_iXCyuPIaJChB2ffnwQfQbtBeFANbiXP9qAaOyNiIu_VpR_wYlj6KfMKNzlNuKcQcG6TDiHhSHqP35qx5MkKnwAbMQ_l5qjFlT7iDDmaSiJ-qR9Msu6ZqViL6yVdN6mASnu6F5wVAaiNuv4Bzosjt3uO3_adCPSyViL4Z-Mkc4wo1tV__Pxi517UekkLs-z_t-4CW-qrR48cFIVXbeJT_m-TxestL0dPclj5RpSFZzCuPdvM45lRmuK_O1mlwsrcXtKwUzTCPRoCis2rw7FUZM8t4jS7rFrYRWVLQVeeZ55WUDIyDrWvYX71zBbsOhXrBZDHnLeeR5zvBt6d0WnX89Ek3wEi2DpMKzDbOsrzA3Yizws5jc-PmjF6uyhyTSmCPUgjZKesnSZtBUuZ8fh2Y-by3ey93w4sQGvDsop0uFeyZxfFroQNMNVX96M3BUqBRnXjBb-MbK8W3sDdVfxV45xMHULkIFsck2YflEnCxIJOzP9dR6XVscJiI_RqaaNMgCv-sRnZObmg2VB5mXu_3TWbvb6Ow3hGRuJgVpCttwkSQiNYhYAJL2wsaGUWzUxpx4pF0Kq1y2mKD7ukkWwz2_hM6y_tIFTZvy6Euum0uzGUZLL71J2S1Ub_vvST6dSmvRW7YLsucFnGOgAsdDdXVMfK3fWtOYFB5M8FFIvL2NtW-wDB4s0m9rOYmrFRGLuRQzab-1cKn9a7FyF__-NpW0h7PIDKRttcHc1RBHZKk8b-f9-A-GzVxR2Ljc-2P9chDqPdOGu0SaPLhTBDpuk2_k1UIXSBfqwjaq7LJmXEm4_MKyASMq7hGaPcdgCk27M2Nyy6RnQpqNx-MWxlWcdZ0vvkIUq0WDoIfaaBaJ2UU39-WhjdqtnYoEkJ7RbPYF4At95oMV8xtAmCVpQow0_zVxY_3cxoHLmFp4Kf60ASsudQW4720k0CgU5FHIqz7Z4WqC3v9jq2SqDp7ZAhU8Gq2tIz5xJv-YSDwTLjMTyxaMqEREeKl8ZwXOclEXjd4xpyQQ9RppqJoMzdNETEgQBCieOuZU4mhIoCHQPE2tAkXzIEJ3yuiUNGPCavc5ZBShAqlhReMl5DrZI_o6nxb5o1xAHOEim0RLzkb4pMl1A8IZnfZR8klGDLyW7YyRzAak7PnVD1yBOt5yIrgbhi_6gK2G6jjNaWefssIP7dCRilqaWRIw_i-4He7TbfbRzl4gsWTn2ImqBLMssJ2-otGbVcihJ6sAqHlWhUxMrXMQ-vmGYJvtkqMvPLx99m5qn2pheHubJviDbm9jCC4VZTOAy-Den7MphX6O9FkWt2suudkRHbhDJfBI7nL71CjGxdEcazN3g9gyMrjbxxfhmLtwXjjpFiFsTSIBzCDfqmi4RzTua16gFUQIQoU7c3HpA2jqLSWNv-liAvnNpgqI3y9gWr1Bh7ZGYjPwRrY1kZIuk3oZrq8cGexHXh4aqFwpxvu7Gp3YO-LM3hIvbD-8QquiIL2dfb8EBrPMdVIEAMOGbdZ3F__-XvCIw2Efma7PcAiIGWoyXE3hQs4HZ0d7fk1UJL00bEKI9ybNMrjhmLFoeLn2Pumvo2_NoMyC7VLQTVehOkZ7_l6PqxDiBS-wVjSKCQVtIa_nye9DkNVGndvoNbRm-ijwyE1z9rF6leE3qUQQZIH6KsJ9ee7mISILlAw0t_OBwd87VuFymVmK1gkUGDtYg8qVAkYMabqBL3sImNX7-dsd69FDOhIqXp0lyGEgvTyDyc4ROLQv1kCHj_1vyRRgdwQIwOB4Y4gQnTipjJpmJqhpy2f98KQ2oZLF5nwywwRCKQySDFx1ACnrjpfucf6RFCx-QECgcGevnH1xrJyXjnPKtNi_ikk34o6kPD99CRJAULVuXpuoZJIQyWMyD5pueMpoOUlUAEtxbUTlZjBpSjshhXnLJWFySkALkok9dUa-mv9DfIdN6LqeMqli0qSYNlqVe8cW8YY9LfbvO5PMao5E5Pe2AVZ9rV28YTJz5NwwkExYfTKBYbFEP9wvHjjiXItEXo7ZlZDToPhAy1gJHgjUvF4Dp7Gnm4yhvohqv-wLF40W_lgJTZi7_u6LCtP3to8shUZBPplIm6zynV1jFJwttGGf9kWZexamEyFiAJUPnuj-6JMyHFStfQdk1vN9_QxQ0Umerou2kaHt2JL28V_zJ_5AK-Yiokt_]--></g></svg>