<svg xmlns="http://www.w3.org/2000/svg" xmlns:xlink="http://www.w3.org/1999/xlink" contentStyleType="text/css" height="1916px" preserveAspectRatio="none" style="width:1256px;height:1916px;background:#0F172A;" version="1.1" viewBox="0 0 1256 1916" width="1256px" zoomAndPan="magnify"><title>Complete Connection Lifecycle &#8212; Portal to P2P</title><defs/><g><rect fill="#0F172A" height="1916" style="stroke:none;stroke-width:1;" width="1256" x="0" y="0"/><text fill="#F8FAFC" font-family="Segoe UI" font-size="22" font-weight="bold" lengthAdjust="spacing" textLength="582.2803" x="335.7256" y="35.4209">Complete Connection Lifecycle &#8212; Portal to P2P</text><line style="stroke:#334155;stroke-width:1;" x1="26" x2="26" y1="126.5781" y2="1837.7969"/><line style="stroke:#334155;stroke-width:1;" x1="196.9492" x2="196.9492" y1="126.5781" y2="1837.7969"/><line style="stroke:#334155;stroke-width:1;" x1="558.3096" x2="558.3096" y1="126.5781" y2="1837.7969"/><line style="stroke:#334155;stroke-width:1;" x1="660.1826" x2="660.1826" y1="126.5781" y2="1837.7969"/><line style="stroke:#334155;stroke-width:1;" x1="841.5313" x2="841.5313" y1="126.5781" y2="1837.7969"/><line style="stroke:#334155;stroke-width:1;" x1="1101.9717" x2="1101.9717" y1="126.5781" y2="1837.7969"/><line style="stroke:#334155;stroke-width:1;" x1="1200.9932" x2="1200.9932" y1="126.5781" y2="1837.7969"/><text fill="#F8FAFC" font-family="Segoe UI" font-size="12" lengthAdjust="spacing" textLength="27.3516" x="10" y="123.748">User</text><ellipse cx="26.6758" cy="60.6094" fill="#3B82F6" rx="8" ry="8" style="stroke:#000000;stroke-width:1;"/><path d="M26.6758,68.6094 L26.6758,95.6094 M13.6758,76.6094 L39.6758,76.6094 M26.6758,95.6094 L13.6758,110.6094 M26.6758,95.6094 L39.6758,110.6094 " fill="none" style="stroke:#000000;stroke-width:1;"/><text fill="#F8FAFC" font-family="Segoe UI" font-size="12" lengthAdjust="spacing" textLength="27.3516" x="10" y="1847.9355">User</text><ellipse cx="26.6758" cy="1859.7656" fill="#3B82F6" rx="8" ry="8" style="stroke:#000000;stroke-width:1;"/><path d="M26.6758,1867.7656 L26.6758,1894.7656 M13.6758,1875.7656 L39.6758,1875.7656 M26.6758,1894.7656 L13.6758,1909.7656 M26.6758,1894.7656 L39.6758,1909.7656 " fill="none" style="stroke:#000000;stroke-width:1;"/><rect fill="#1E293B" height="27.9688" rx="2.5" ry="2.5" style="stroke:#3B82F6;stroke-width:1;" width="62.8906" x="165.9492" y="97.6094"/><text fill="#F8FAFC" font-family="Segoe UI" font-size="12" lengthAdjust="spacing" textLength="48.8906" x="172.9492" y="115.748">Browser</text><rect fill="#1E293B" height="27.9688" rx="2.5" ry="2.5" style="stroke:#3B82F6;stroke-width:1;" width="62.8906" x="165.9492" y="1836.7969"/><text fill="#F8FAFC" font-family="Segoe UI" font-size="12" lengthAdjust="spacing" textLength="48.8906" x="172.9492" y="1854.9355">Browser</text><rect fill="#1E293B" height="27.9688" rx="2.5" ry="2.5" style="stroke:#3B82F6;stroke-width:1;" width="89.873" x="514.3096" y="97.6094"/><text fill="#F8FAFC" font-family="Segoe UI" font-size="12" lengthAdjust="spacing" textLength="75.873" x="521.3096" y="115.748">STUN Server</text><rect fill="#1E293B" height="27.9688" rx="2.5" ry="2.5" style="stroke:#3B82F6;stroke-width:1;" width="89.873" x="514.3096" y="1836.7969"/><text fill="#F8FAFC" font-family="Segoe UI" font-size="12" lengthAdjust="spacing" textLength="75.873" x="521.3096" y="1854.9355">STUN Server</text><rect fill="#1E293B" height="27.9688" rx="2.5" ry="2.5" style="stroke:#3B82F6;stroke-width:1;" width="52.7891" x="634.1826" y="97.6094"/><text fill="#F8FAFC" font-family="Segoe UI" font-size="12" lengthAdjust="spacing" textLength="38.7891" x="641.1826" y="115.748">coturn</text><rect fill="#1E293B" height="27.9688" rx="2.5" ry="2.5" style="stroke:#3B82F6;stroke-width:1;" width="52.7891" x="634.1826" y="1836.7969"/><text fill="#F8FAFC" font-family="Segoe UI" font-size="12" lengthAdjust="spacing" textLength="38.7891" x="641.1826" y="1854.9355">coturn</text><rect fill="#1E293B" height="27.9688" rx="2.5" ry="2.5" style="stroke:#3B82F6;stroke-width:1;" width="40.9766" x="821.5313" y="97.6094"/><text fill="#F8FAFC" font-family="Segoe UI" font-size="12" lengthAdjust="spacing" textLength="26.9766" x="828.5313" y="115.748">WAF</text><rect fill="#1E293B" height="27.9688" rx="2.5" ry="2.5" style="stroke:#3B82F6;stroke-width:1;" width="40.9766" x="821.5313" y="1836.7969"/><text fill="#F8FAFC" font-family="Segoe UI" font-size="12" lengthAdjust="spacing" textLength="26.9766" x="828.5313" y="1854.9355">WAF</text><rect fill="#1E293B" height="27.9688" rx="2.5" ry="2.5" style="stroke:#3B82F6;stroke-width:1;" width="73.0215" x="1065.9717" y="97.6094"/><text fill="#F8FAFC" font-family="Segoe UI" font-size="12" lengthAdjust="spacing" textLength="59.0215" x="1072.9717" y="115.748">TideCloak</text><rect fill="#1E293B" height="27.9688" rx="2.5" ry="2.5" style="stroke:#3B82F6;stroke-width:1;" width="73.0215" x="1065.9717" y="1836.7969"/><text fill="#F8FAFC" font-family="Segoe UI" font-size="12" lengthAdjust="spacing" textLength="59.0215" x="1072.9717" y="1854.9355">TideCloak</text><rect fill="#1E293B" height="27.9688" rx="2.5" ry="2.5" style="stroke:#3B82F6;stroke-width:1;" width="65.7383" x="1168.9932" y="97.6094"/><text fill="#F8FAFC" font-family="Segoe UI" font-size="12" lengthAdjust="spacing" textLength="51.7383" x="1175.9932" y="115.748">Backend</text><rect fill="#1E293B" height="27.9688" rx="2.5" ry="2.5" style="stroke:#3B82F6;stroke-width:1;" width="65.7383" x="1168.9932" y="1836.7969"/><text fill="#F8FAFC" font-family="Segoe UI" font-size="12" lengthAdjust="spacing" textLength="51.7383" x="1175.9932" y="1854.9355">Backend</text><rect fill="#334155" height="3" style="stroke:#334155;stroke-width:1;" width="1244.7314" x="5" y="156.5625"/><line style="stroke:#000000;stroke-width:0.5;" x1="5" x2="1249.7314" y1="156.5625" y2="156.5625"/><line style="stroke:#000000;stroke-width:0.5;" x1="5" x2="1249.7314" y1="159.5625" y2="159.5625"/><rect fill="#334155" height="21.9688" style="stroke:#000000;stroke-width:1;" width="121.3027" x="566.7144" y="146.5781"/><text fill="#F8FAFC" font-family="Segoe UI" font-size="12" font-weight="bold" lengthAdjust="spacing" textLength="103.125" x="572.7144" y="161.7168">Phase 1: Portal</text><polygon fill="#94A3B8" points="185.3945,194.5156,195.3945,198.5156,185.3945,202.5156,189.3945,198.5156" style="stroke:#94A3B8;stroke-width:1;"/><line style="stroke:#94A3B8;stroke-width:1;" x1="26.6758" x2="191.3945" y1="198.5156" y2="198.5156"/><text fill="#94A3B8" font-family="Segoe UI" font-size="12" lengthAdjust="spacing" textLength="125.7539" x="33.6758" y="193.6855">Visit stun-server URL</text><polygon fill="#94A3B8" points="547.2461,222.4844,557.2461,226.4844,547.2461,230.4844,551.2461,226.4844" style="stroke:#94A3B8;stroke-width:1;"/><line style="stroke:#94A3B8;stroke-width:1;" x1="197.3945" x2="553.2461" y1="226.4844" y2="226.4844"/><text fill="#94A3B8" font-family="Segoe UI" font-size="12" lengthAdjust="spacing" textLength="67.3535" x="204.3945" y="221.6543">GET /portal</text><polygon fill="#94A3B8" points="208.3945,250.4531,198.3945,254.4531,208.3945,258.4531,204.3945,254.4531" style="stroke:#94A3B8;stroke-width:1;"/><line style="stroke:#94A3B8;stroke-width:1;stroke-dasharray:2.0,2.0;" x1="202.3945" x2="558.2461" y1="254.4531" y2="254.4531"/><text fill="#94A3B8" font-family="Segoe UI" font-size="12" lengthAdjust="spacing" textLength="66.4336" x="214.3945" y="249.623">portal.html</text><polygon fill="#94A3B8" points="547.2461,278.4219,557.2461,282.4219,547.2461,286.4219,551.2461,282.4219" style="stroke:#94A3B8;stroke-width:1;"/><line style="stroke:#94A3B8;stroke-width:1;" x1="197.3945" x2="553.2461" y1="282.4219" y2="282.4219"/><text fill="#94A3B8" font-family="Segoe UI" font-size="12" lengthAdjust="spacing" textLength="82.0605" x="204.3945" y="277.5918">GET /api/wafs</text><polygon fill="#94A3B8" points="208.3945,306.3906,198.3945,310.3906,208.3945,314.3906,204.3945,310.3906" style="stroke:#94A3B8;stroke-width:1;"/><line style="stroke:#94A3B8;stroke-width:1;stroke-dasharray:2.0,2.0;" x1="202.3945" x2="558.2461" y1="310.3906" y2="310.3906"/><text fill="#94A3B8" font-family="Segoe UI" font-size="12" lengthAdjust="spacing" textLength="337.8516" x="214.3945" y="305.5605">[{ id: "waf-x", displayName: "My App", backends: [...] }]</text><polygon fill="#94A3B8" points="185.3945,334.3594,195.3945,338.3594,185.3945,342.3594,189.3945,338.3594" style="stroke:#94A3B8;stroke-width:1;"/><line style="stroke:#94A3B8;stroke-width:1;" x1="26.6758" x2="191.3945" y1="338.3594" y2="338.3594"/><text fill="#94A3B8" font-family="Segoe UI" font-size="12" lengthAdjust="spacing" textLength="146.7188" x="33.6758" y="333.5293">Click "Connect" on App1</text><polygon fill="#94A3B8" points="547.2461,362.3281,557.2461,366.3281,547.2461,370.3281,551.2461,366.3281" style="stroke:#94A3B8;stroke-width:1;"/><line style="stroke:#94A3B8;stroke-width:1;" x1="197.3945" x2="553.2461" y1="366.3281" y2="366.3281"/><text fill="#94A3B8" font-family="Segoe UI" font-size="12" lengthAdjust="spacing" textLength="262.3242" x="204.3945" y="361.498">GET /api/select?waf=waf-x&amp;backend=App1</text><polygon fill="#94A3B8" points="208.3945,390.2969,198.3945,394.2969,208.3945,398.2969,204.3945,394.2969" style="stroke:#94A3B8;stroke-width:1;"/><line style="stroke:#94A3B8;stroke-width:1;stroke-dasharray:2.0,2.0;" x1="202.3945" x2="558.2461" y1="394.2969" y2="394.2969"/><text fill="#94A3B8" font-family="Segoe UI" font-size="12" lengthAdjust="spacing" textLength="152.4258" x="214.3945" y="389.4668">302 /__b/App1/ + cookies</text><rect fill="#334155" height="3" style="stroke:#334155;stroke-width:1;" width="1244.7314" x="5" y="422.2813"/><line style="stroke:#000000;stroke-width:0.5;" x1="5" x2="1249.7314" y1="422.2813" y2="422.2813"/><line style="stroke:#000000;stroke-width:0.5;" x1="5" x2="1249.7314" y1="425.2813" y2="425.2813"/><rect fill="#334155" height="21.9688" style="stroke:#000000;stroke-width:1;" width="207.7168" x="523.5073" y="412.2969"/><text fill="#F8FAFC" font-family="Segoe UI" font-size="12" font-weight="bold" lengthAdjust="spacing" textLength="189.5391" x="529.5073" y="427.4355">Phase 2: HTTP Relay + Auth</text><polygon fill="#94A3B8" points="547.2461,460.2344,557.2461,464.2344,547.2461,468.2344,551.2461,464.2344" style="stroke:#94A3B8;stroke-width:1;"/><line style="stroke:#94A3B8;stroke-width:1;" x1="197.3945" x2="553.2461" y1="464.2344" y2="464.2344"/><text fill="#94A3B8" font-family="Segoe UI" font-size="12" lengthAdjust="spacing" textLength="252.9902" x="204.3945" y="459.4043">GET /__b/App1/ (Cookie: waf_relay=waf-x)</text><polygon fill="#94A3B8" points="830.0195,488.2031,840.0195,492.2031,830.0195,496.2031,834.0195,492.2031" style="stroke:#94A3B8;stroke-width:1;"/><line style="stroke:#94A3B8;stroke-width:1;" x1="559.2461" x2="836.0195" y1="492.2031" y2="492.2031"/><text fill="#94A3B8" font-family="Segoe UI" font-size="12" lengthAdjust="spacing" textLength="147.1348" x="566.2461" y="487.373">WS: http_request (relay)</text><polygon fill="#94A3B8" points="570.2461,516.1719,560.2461,520.1719,570.2461,524.1719,566.2461,520.1719" style="stroke:#94A3B8;stroke-width:1;"/><line style="stroke:#94A3B8;stroke-width:1;stroke-dasharray:2.0,2.0;" x1="564.2461" x2="841.0195" y1="520.1719" y2="520.1719"/><text fill="#94A3B8" font-family="Segoe UI" font-size="12" lengthAdjust="spacing" textLength="221.7305" x="576.2461" y="515.3418">WS: http_response 302 &#8594; /auth/login</text><polygon fill="#94A3B8" points="208.3945,544.1406,198.3945,548.1406,208.3945,552.1406,204.3945,548.1406" style="stroke:#94A3B8;stroke-width:1;"/><line style="stroke:#94A3B8;stroke-width:1;stroke-dasharray:2.0,2.0;" x1="202.3945" x2="558.2461" y1="548.1406" y2="548.1406"/><text fill="#94A3B8" font-family="Segoe UI" font-size="12" lengthAdjust="spacing" textLength="91.3066" x="214.3945" y="543.3105">302 /auth/login</text><polygon fill="#94A3B8" points="547.2461,572.1094,557.2461,576.1094,547.2461,580.1094,551.2461,576.1094" style="stroke:#94A3B8;stroke-width:1;"/><line style="stroke:#94A3B8;stroke-width:1;" x1="197.3945" x2="553.2461" y1="576.1094" y2="576.1094"/><text fill="#94A3B8" font-family="Segoe UI" font-size="12" lengthAdjust="spacing" textLength="288.4863" x="204.3945" y="571.2793">GET /auth/login &#8594; relay &#8594; WAF &#8594; 302 TideCloak</text><polygon fill="#94A3B8" points="547.2461,600.0781,557.2461,604.0781,547.2461,608.0781,551.2461,604.0781" style="stroke:#94A3B8;stroke-width:1;"/><line style="stroke:#94A3B8;stroke-width:1;" x1="197.3945" x2="553.2461" y1="604.0781" y2="604.0781"/><text fill="#94A3B8" font-family="Segoe UI" font-size="12" lengthAdjust="spacing" textLength="311.4258" x="204.3945" y="599.248">GET /realms/... &#8594; relay &#8594; WAF &#8594; proxy to TideCloak</text><polygon fill="#94A3B8" points="208.3945,628.0469,198.3945,632.0469,208.3945,636.0469,204.3945,632.0469" style="stroke:#94A3B8;stroke-width:1;"/><polygon fill="#94A3B8" points="1090.4824,628.0469,1100.4824,632.0469,1090.4824,636.0469,1094.4824,632.0469" style="stroke:#94A3B8;stroke-width:1;"/><line style="stroke:#94A3B8;stroke-width:1;" x1="202.3945" x2="1096.4824" y1="632.0469" y2="632.0469"/><text fill="#94A3B8" font-family="Segoe UI" font-size="12" lengthAdjust="spacing" textLength="173.1094" x="214.3945" y="627.2168">Login (proxied through WAF)</text><polygon fill="#94A3B8" points="547.2461,656.0156,557.2461,660.0156,547.2461,664.0156,551.2461,660.0156" style="stroke:#94A3B8;stroke-width:1;"/><line style="stroke:#94A3B8;stroke-width:1;" x1="197.3945" x2="553.2461" y1="660.0156" y2="660.0156"/><text fill="#94A3B8" font-family="Segoe UI" font-size="12" lengthAdjust="spacing" textLength="270.832" x="204.3945" y="655.1855">GET /auth/callback?code=xyz &#8594; relay &#8594; WAF</text><polygon fill="#94A3B8" points="1090.4824,683.9844,1100.4824,687.9844,1090.4824,691.9844,1094.4824,687.9844" style="stroke:#94A3B8;stroke-width:1;"/><line style="stroke:#94A3B8;stroke-width:1;" x1="842.0195" x2="1096.4824" y1="687.9844" y2="687.9844"/><text fill="#94A3B8" font-family="Segoe UI" font-size="12" lengthAdjust="spacing" textLength="155.9648" x="849.0195" y="683.1543">Exchange code for tokens</text><polygon fill="#94A3B8" points="570.2461,711.9531,560.2461,715.9531,570.2461,719.9531,566.2461,715.9531" style="stroke:#94A3B8;stroke-width:1;"/><line style="stroke:#94A3B8;stroke-width:1;stroke-dasharray:2.0,2.0;" x1="564.2461" x2="841.0195" y1="715.9531" y2="715.9531"/><text fill="#94A3B8" font-family="Segoe UI" font-size="12" lengthAdjust="spacing" textLength="258.7734" x="576.2461" y="711.123">302 + Set-Cookie: waf_access, waf_refresh</text><polygon fill="#94A3B8" points="208.3945,739.9219,198.3945,743.9219,208.3945,747.9219,204.3945,743.9219" style="stroke:#94A3B8;stroke-width:1;"/><line style="stroke:#94A3B8;stroke-width:1;stroke-dasharray:2.0,2.0;" x1="202.3945" x2="558.2461" y1="743.9219" y2="743.9219"/><text fill="#94A3B8" font-family="Segoe UI" font-size="12" lengthAdjust="spacing" textLength="183.5098" x="214.3945" y="739.0918">302 /__b/App1/ + auth cookies</text><polygon fill="#94A3B8" points="547.2461,767.8906,557.2461,771.8906,547.2461,775.8906,551.2461,771.8906" style="stroke:#94A3B8;stroke-width:1;"/><line style="stroke:#94A3B8;stroke-width:1;" x1="197.3945" x2="553.2461" y1="771.8906" y2="771.8906"/><text fill="#94A3B8" font-family="Segoe UI" font-size="12" lengthAdjust="spacing" textLength="198.7969" x="204.3945" y="767.0605">GET /__b/App1/ (with JWT cookie)</text><polygon fill="#94A3B8" points="830.0195,795.8594,840.0195,799.8594,830.0195,803.8594,834.0195,799.8594" style="stroke:#94A3B8;stroke-width:1;"/><line style="stroke:#94A3B8;stroke-width:1;" x1="559.2461" x2="836.0195" y1="799.8594" y2="799.8594"/><text fill="#94A3B8" font-family="Segoe UI" font-size="12" lengthAdjust="spacing" textLength="147.1348" x="566.2461" y="795.0293">WS: http_request (relay)</text><line style="stroke:#94A3B8;stroke-width:1;" x1="842.0195" x2="884.0195" y1="827.8281" y2="827.8281"/><line style="stroke:#94A3B8;stroke-width:1;" x1="884.0195" x2="884.0195" y1="827.8281" y2="840.8281"/><line style="stroke:#94A3B8;stroke-width:1;" x1="843.0195" x2="884.0195" y1="840.8281" y2="840.8281"/><polygon fill="#94A3B8" points="853.0195,836.8281,843.0195,840.8281,853.0195,844.8281,849.0195,840.8281" style="stroke:#94A3B8;stroke-width:1;"/><text fill="#94A3B8" font-family="Segoe UI" font-size="12" lengthAdjust="spacing" textLength="139.8633" x="849.0195" y="822.998">Validate method + JWT</text><polygon fill="#94A3B8" points="1189.8623,864.7969,1199.8623,868.7969,1189.8623,872.7969,1193.8623,868.7969" style="stroke:#94A3B8;stroke-width:1;"/><line style="stroke:#94A3B8;stroke-width:1;" x1="842.0195" x2="1195.8623" y1="868.7969" y2="868.7969"/><text fill="#94A3B8" font-family="Segoe UI" font-size="12" lengthAdjust="spacing" textLength="212.7422" x="849.0195" y="863.9668">GET / (authenticated, 30 s timeout)</text><polygon fill="#94A3B8" points="853.0195,892.7656,843.0195,896.7656,853.0195,900.7656,849.0195,896.7656" style="stroke:#94A3B8;stroke-width:1;"/><line style="stroke:#94A3B8;stroke-width:1;stroke-dasharray:2.0,2.0;" x1="847.0195" x2="1200.8623" y1="896.7656" y2="896.7656"/><text fill="#94A3B8" font-family="Segoe UI" font-size="12" lengthAdjust="spacing" textLength="60.1113" x="859.0195" y="891.9355">200 HTML</text><line style="stroke:#94A3B8;stroke-width:1;" x1="842.0195" x2="884.0195" y1="924.7344" y2="924.7344"/><line style="stroke:#94A3B8;stroke-width:1;" x1="884.0195" x2="884.0195" y1="924.7344" y2="937.7344"/><line style="stroke:#94A3B8;stroke-width:1;" x1="843.0195" x2="884.0195" y1="937.7344" y2="937.7344"/><polygon fill="#94A3B8" points="853.0195,933.7344,843.0195,937.7344,853.0195,941.7344,849.0195,937.7344" style="stroke:#94A3B8;stroke-width:1;"/><text fill="#94A3B8" font-family="Segoe UI" font-size="12" lengthAdjust="spacing" textLength="246.4629" x="849.0195" y="919.9043">Rewrite HTML + inject webrtc-upgrade.js</text><polygon fill="#94A3B8" points="570.2461,961.7031,560.2461,965.7031,570.2461,969.7031,566.2461,965.7031" style="stroke:#94A3B8;stroke-width:1;"/><line style="stroke:#94A3B8;stroke-width:1;stroke-dasharray:2.0,2.0;" x1="564.2461" x2="841.0195" y1="965.7031" y2="965.7031"/><text fill="#94A3B8" font-family="Segoe UI" font-size="12" lengthAdjust="spacing" textLength="112.7402" x="576.2461" y="960.873">WS: http_response</text><polygon fill="#94A3B8" points="208.3945,989.6719,198.3945,993.6719,208.3945,997.6719,204.3945,993.6719" style="stroke:#94A3B8;stroke-width:1;"/><line style="stroke:#94A3B8;stroke-width:1;stroke-dasharray:2.0,2.0;" x1="202.3945" x2="558.2461" y1="993.6719" y2="993.6719"/><text fill="#94A3B8" font-family="Segoe UI" font-size="12" lengthAdjust="spacing" textLength="197.5195" x="214.3945" y="988.8418">200 (app page + upgrade script)</text><rect fill="#334155" height="3" style="stroke:#334155;stroke-width:1;" width="1244.7314" x="5" y="1021.6563"/><line style="stroke:#000000;stroke-width:0.5;" x1="5" x2="1249.7314" y1="1021.6563" y2="1021.6563"/><line style="stroke:#000000;stroke-width:0.5;" x1="5" x2="1249.7314" y1="1024.6563" y2="1024.6563"/><rect fill="#334155" height="21.9688" style="stroke:#000000;stroke-width:1;" width="341.252" x="456.7397" y="1011.6719"/><text fill="#F8FAFC" font-family="Segoe UI" font-size="12" font-weight="bold" lengthAdjust="spacing" textLength="323.0742" x="462.7397" y="1026.8105">Phase 3: WebRTC Upgrade (async, background)</text><line style="stroke:#94A3B8;stroke-width:1;" x1="197.3945" x2="239.3945" y1="1063.6094" y2="1063.6094"/><line style="stroke:#94A3B8;stroke-width:1;" x1="239.3945" x2="239.3945" y1="1063.6094" y2="1076.6094"/><line style="stroke:#94A3B8;stroke-width:1;" x1="198.3945" x2="239.3945" y1="1076.6094" y2="1076.6094"/><polygon fill="#94A3B8" points="208.3945,1072.6094,198.3945,1076.6094,208.3945,1080.6094,204.3945,1076.6094" style="stroke:#94A3B8;stroke-width:1;"/><text fill="#94A3B8" font-family="Segoe UI" font-size="12" lengthAdjust="spacing" textLength="167.1328" x="204.3945" y="1058.7793">webrtc-upgrade.js executes</text><polygon fill="#94A3B8" points="547.2461,1100.5781,557.2461,1104.5781,547.2461,1108.5781,551.2461,1104.5781" style="stroke:#94A3B8;stroke-width:1;"/><line style="stroke:#94A3B8;stroke-width:1;" x1="197.3945" x2="553.2461" y1="1104.5781" y2="1104.5781"/><text fill="#94A3B8" font-family="Segoe UI" font-size="12" lengthAdjust="spacing" textLength="175.4414" x="204.3945" y="1099.748">WS: register { role: "client" }</text><polygon fill="#94A3B8" points="208.3945,1128.5469,198.3945,1132.5469,208.3945,1136.5469,204.3945,1132.5469" style="stroke:#94A3B8;stroke-width:1;"/><line style="stroke:#94A3B8;stroke-width:1;stroke-dasharray:2.0,2.0;" x1="202.3945" x2="558.2461" y1="1132.5469" y2="1132.5469"/><text fill="#94A3B8" font-family="Segoe UI" font-size="12" lengthAdjust="spacing" textLength="138.0645" x="214.3945" y="1127.7168">paired { waf: "waf-x" }</text><polygon fill="#94A3B8" points="830.0195,1156.5156,840.0195,1160.5156,830.0195,1164.5156,834.0195,1160.5156" style="stroke:#94A3B8;stroke-width:1;"/><line style="stroke:#94A3B8;stroke-width:1;stroke-dasharray:2.0,2.0;" x1="559.2461" x2="836.0195" y1="1160.5156" y2="1160.5156"/><text fill="#94A3B8" font-family="Segoe UI" font-size="12" lengthAdjust="spacing" textLength="175.6641" x="566.2461" y="1155.6855">paired { client: "client-abc" }</text><line style="stroke:#94A3B8;stroke-width:1;" x1="197.3945" x2="239.3945" y1="1188.4844" y2="1188.4844"/><line style="stroke:#94A3B8;stroke-width:1;" x1="239.3945" x2="239.3945" y1="1188.4844" y2="1201.4844"/><line style="stroke:#94A3B8;stroke-width:1;" x1="198.3945" x2="239.3945" y1="1201.4844" y2="1201.4844"/><polygon fill="#94A3B8" points="208.3945,1197.4844,198.3945,1201.4844,208.3945,1205.4844,204.3945,1201.4844" style="stroke:#94A3B8;stroke-width:1;"/><text fill="#94A3B8" font-family="Segoe UI" font-size="12" lengthAdjust="spacing" textLength="233.748" x="204.3945" y="1183.6543">new RTCPeerConnection + createOffer</text><polygon fill="#94A3B8" points="547.2461,1225.4531,557.2461,1229.4531,547.2461,1233.4531,551.2461,1229.4531" style="stroke:#94A3B8;stroke-width:1;"/><line style="stroke:#94A3B8;stroke-width:1;" x1="197.3945" x2="553.2461" y1="1229.4531" y2="1229.4531"/><text fill="#94A3B8" font-family="Segoe UI" font-size="12" lengthAdjust="spacing" textLength="55.5938" x="204.3945" y="1224.623">sdp_offer</text><polygon fill="#94A3B8" points="830.0195,1253.4219,840.0195,1257.4219,830.0195,1261.4219,834.0195,1257.4219" style="stroke:#94A3B8;stroke-width:1;"/><line style="stroke:#94A3B8;stroke-width:1;" x1="559.2461" x2="836.0195" y1="1257.4219" y2="1257.4219"/><text fill="#94A3B8" font-family="Segoe UI" font-size="12" lengthAdjust="spacing" textLength="105.627" x="566.2461" y="1252.5918">forward sdp_offer</text><polygon fill="#94A3B8" points="570.2461,1281.3906,560.2461,1285.3906,570.2461,1289.3906,566.2461,1285.3906" style="stroke:#94A3B8;stroke-width:1;"/><line style="stroke:#94A3B8;stroke-width:1;" x1="564.2461" x2="841.0195" y1="1285.3906" y2="1285.3906"/><text fill="#94A3B8" font-family="Segoe UI" font-size="12" lengthAdjust="spacing" textLength="70.8281" x="576.2461" y="1280.5605">sdp_answer</text><polygon fill="#94A3B8" points="208.3945,1309.3594,198.3945,1313.3594,208.3945,1317.3594,204.3945,1313.3594" style="stroke:#94A3B8;stroke-width:1;"/><line style="stroke:#94A3B8;stroke-width:1;" x1="202.3945" x2="558.2461" y1="1313.3594" y2="1313.3594"/><text fill="#94A3B8" font-family="Segoe UI" font-size="12" lengthAdjust="spacing" textLength="120.8613" x="214.3945" y="1308.5293">forward sdp_answer</text><polygon fill="#94A3B8" points="208.3945,1351.2969,198.3945,1355.2969,208.3945,1359.2969,204.3945,1355.2969" style="stroke:#94A3B8;stroke-width:1;"/><polygon fill="#94A3B8" points="648.5771,1351.2969,658.5771,1355.2969,648.5771,1359.2969,652.5771,1355.2969" style="stroke:#94A3B8;stroke-width:1;"/><line style="stroke:#94A3B8;stroke-width:1;" x1="202.3945" x2="654.5771" y1="1355.2969" y2="1355.2969"/><text fill="#94A3B8" font-family="Segoe UI" font-size="12" lengthAdjust="spacing" textLength="153.9961" x="214.3945" y="1336.498">STUN Binding (port 3478)</text><text fill="#94A3B8" font-family="Segoe UI" font-size="12" lengthAdjust="spacing" textLength="171.6445" x="214.3945" y="1350.4668">&#8594; discover reflexive address</text><polygon fill="#94A3B8" points="208.3945,1379.2656,198.3945,1383.2656,208.3945,1387.2656,204.3945,1383.2656" style="stroke:#94A3B8;stroke-width:1;"/><polygon fill="#94A3B8" points="547.2461,1379.2656,557.2461,1383.2656,547.2461,1387.2656,551.2461,1383.2656" style="stroke:#94A3B8;stroke-width:1;"/><line style="stroke:#94A3B8;stroke-width:1;" x1="202.3945" x2="553.2461" y1="1383.2656" y2="1383.2656"/><text fill="#94A3B8" font-family="Segoe UI" font-size="12" lengthAdjust="spacing" textLength="232.8047" x="214.3945" y="1378.4355">ICE candidates &#8592;&#8594; forwarded &#8592;&#8594; WAF</text><polygon fill="#94A3B8" points="208.3945,1407.2344,198.3945,1411.2344,208.3945,1415.2344,204.3945,1411.2344" style="stroke:#94A3B8;stroke-width:1;"/><polygon fill="#94A3B8" points="830.0195,1407.2344,840.0195,1411.2344,830.0195,1415.2344,834.0195,1411.2344" style="stroke:#94A3B8;stroke-width:1;"/><line style="stroke:#94A3B8;stroke-width:1;" x1="202.3945" x2="836.0195" y1="1411.2344" y2="1411.2344"/><text fill="#94A3B8" font-family="Segoe UI" font-size="12" font-weight="bold" lengthAdjust="spacing" textLength="266.9121" x="214.3945" y="1406.4043">ICE connectivity check &#8594; hole punched!</text><polygon fill="#94A3B8" points="208.3945,1435.2031,198.3945,1439.2031,208.3945,1443.2031,204.3945,1439.2031" style="stroke:#94A3B8;stroke-width:1;"/><polygon fill="#94A3B8" points="830.0195,1435.2031,840.0195,1439.2031,830.0195,1443.2031,834.0195,1439.2031" style="stroke:#94A3B8;stroke-width:1;"/><line style="stroke:#94A3B8;stroke-width:1;" x1="202.3945" x2="836.0195" y1="1439.2031" y2="1439.2031"/><text fill="#94A3B8" font-family="Segoe UI" font-size="12" font-weight="bold" lengthAdjust="spacing" textLength="128.0918" x="214.3945" y="1434.373">DataChannel OPEN</text><rect fill="#334155" height="3" style="stroke:#334155;stroke-width:1;" width="1244.7314" x="5" y="1467.1875"/><line style="stroke:#000000;stroke-width:0.5;" x1="5" x2="1249.7314" y1="1467.1875" y2="1467.1875"/><line style="stroke:#000000;stroke-width:0.5;" x1="5" x2="1249.7314" y1="1470.1875" y2="1470.1875"/><rect fill="#334155" height="21.9688" style="stroke:#000000;stroke-width:1;" width="250.6016" x="502.0649" y="1457.2031"/><text fill="#F8FAFC" font-family="Segoe UI" font-size="12" font-weight="bold" lengthAdjust="spacing" textLength="232.4238" x="508.0649" y="1472.3418">Phase 4: Service Worker Takeover</text><line style="stroke:#94A3B8;stroke-width:1;" x1="197.3945" x2="239.3945" y1="1509.1406" y2="1509.1406"/><line style="stroke:#94A3B8;stroke-width:1;" x1="239.3945" x2="239.3945" y1="1509.1406" y2="1522.1406"/><line style="stroke:#94A3B8;stroke-width:1;" x1="198.3945" x2="239.3945" y1="1522.1406" y2="1522.1406"/><polygon fill="#94A3B8" points="208.3945,1518.1406,198.3945,1522.1406,208.3945,1526.1406,204.3945,1522.1406" style="stroke:#94A3B8;stroke-width:1;"/><text fill="#94A3B8" font-family="Segoe UI" font-size="12" lengthAdjust="spacing" textLength="211.002" x="204.3945" y="1504.3105">GET /auth/session-token (via relay)</text><line style="stroke:#94A3B8;stroke-width:1;" x1="197.3945" x2="239.3945" y1="1550.1094" y2="1550.1094"/><line style="stroke:#94A3B8;stroke-width:1;" x1="239.3945" x2="239.3945" y1="1550.1094" y2="1563.1094"/><line style="stroke:#94A3B8;stroke-width:1;" x1="198.3945" x2="239.3945" y1="1563.1094" y2="1563.1094"/><polygon fill="#94A3B8" points="208.3945,1559.1094,198.3945,1563.1094,208.3945,1567.1094,204.3945,1563.1094" style="stroke:#94A3B8;stroke-width:1;"/><text fill="#94A3B8" font-family="Segoe UI" font-size="12" lengthAdjust="spacing" textLength="145.3301" x="204.3945" y="1545.2793">Register Service Worker</text><line style="stroke:#94A3B8;stroke-width:1;" x1="197.3945" x2="239.3945" y1="1591.0781" y2="1591.0781"/><line style="stroke:#94A3B8;stroke-width:1;" x1="239.3945" x2="239.3945" y1="1591.0781" y2="1604.0781"/><line style="stroke:#94A3B8;stroke-width:1;" x1="198.3945" x2="239.3945" y1="1604.0781" y2="1604.0781"/><polygon fill="#94A3B8" points="208.3945,1600.0781,198.3945,1604.0781,208.3945,1608.0781,204.3945,1604.0781" style="stroke:#94A3B8;stroke-width:1;"/><text fill="#94A3B8" font-family="Segoe UI" font-size="12" lengthAdjust="spacing" textLength="176.8125" x="204.3945" y="1586.248">SW.postMessage("dc_ready")</text><path d="M163,1617.0781 L163,1682.0781 L874,1682.0781 L874,1627.0781 L864,1617.0781 L163,1617.0781 " fill="#334155" style="stroke:#334155;stroke-width:1;"/><path d="M864,1617.0781 L864,1627.0781 L874,1627.0781 L864,1617.0781 " fill="#334155" style="stroke:#334155;stroke-width:1;"/><text fill="#F8FAFC" font-family="Segoe UI" font-size="12" lengthAdjust="spacing" textLength="95.0391" x="354.7813" y="1633.2168">From this point:</text><text fill="#F8FAFC" font-family="Segoe UI" font-size="12" lengthAdjust="spacing" textLength="317.4375" x="354.7813" y="1647.1855">- Page navigations &#8594; HTTP relay (cookie-based auth)</text><text fill="#F8FAFC" font-family="Segoe UI" font-size="12" lengthAdjust="spacing" textLength="318.9961" x="354.7813" y="1661.1543">- Sub-resource fetches &#8594; DataChannel (JWT injected)</text><text fill="#F8FAFC" font-family="Segoe UI" font-size="12" lengthAdjust="spacing" textLength="219.7207" x="354.7813" y="1675.123">- 10 s DC timeout &#8594; fallback to relay</text><polygon fill="#94A3B8" points="185.3945,1703.9219,195.3945,1707.9219,185.3945,1711.9219,189.3945,1707.9219" style="stroke:#94A3B8;stroke-width:1;"/><line style="stroke:#94A3B8;stroke-width:1;" x1="26.6758" x2="191.3945" y1="1707.9219" y2="1707.9219"/><text fill="#94A3B8" font-family="Segoe UI" font-size="12" lengthAdjust="spacing" textLength="108.7207" x="33.6758" y="1703.0918">Click link / API call</text><polygon fill="#94A3B8" points="830.0195,1731.8906,840.0195,1735.8906,830.0195,1739.8906,834.0195,1735.8906" style="stroke:#94A3B8;stroke-width:1;"/><line style="stroke:#94A3B8;stroke-width:1;" x1="197.3945" x2="836.0195" y1="1735.8906" y2="1735.8906"/><text fill="#94A3B8" font-family="Segoe UI" font-size="12" font-weight="bold" lengthAdjust="spacing" textLength="182.4668" x="204.3945" y="1731.0605">DataChannel: http_request</text><polygon fill="#94A3B8" points="1189.8623,1759.8594,1199.8623,1763.8594,1189.8623,1767.8594,1193.8623,1763.8594" style="stroke:#94A3B8;stroke-width:1;"/><line style="stroke:#94A3B8;stroke-width:1;" x1="842.0195" x2="1195.8623" y1="1763.8594" y2="1763.8594"/><text fill="#94A3B8" font-family="Segoe UI" font-size="12" lengthAdjust="spacing" textLength="214.3887" x="849.0195" y="1759.0293">Proxy (authenticated, 30 s timeout)</text><polygon fill="#94A3B8" points="853.0195,1787.8281,843.0195,1791.8281,853.0195,1795.8281,849.0195,1791.8281" style="stroke:#94A3B8;stroke-width:1;"/><line style="stroke:#94A3B8;stroke-width:1;stroke-dasharray:2.0,2.0;" x1="847.0195" x2="1200.8623" y1="1791.8281" y2="1791.8281"/><text fill="#94A3B8" font-family="Segoe UI" font-size="12" lengthAdjust="spacing" textLength="58.1719" x="859.0195" y="1786.998">Response</text><polygon fill="#94A3B8" points="208.3945,1815.7969,198.3945,1819.7969,208.3945,1823.7969,204.3945,1819.7969" style="stroke:#94A3B8;stroke-width:1;"/><line style="stroke:#94A3B8;stroke-width:1;" x1="202.3945" x2="841.0195" y1="1819.7969" y2="1819.7969"/><text fill="#94A3B8" font-family="Segoe UI" font-size="12" font-weight="bold" lengthAdjust="spacing" textLength="192.1172" x="214.3945" y="1814.9668">DataChannel: http_response</text><!--SRC=[bLRTRjis5BxNKvnwmE2aKPmuwTeQSul4IRiEQMh4JdEn5G5DKJPhcLH9AeuR5DZLheTXJzWdsI55or8if-sL19xl_9_paO_CXCqOf0dX8Z3S90nwSfOcpDWV8HWrN0euup6Z2uhIht_z1tsf34d0IEYt-q6WfroaH94Pt0K08qAdOoKp4VLa8XNyj1VlFsqJb4Gi9bbYNabXl2X-5fEOLaNd1EDf3DXOChXyqwWA1_mpW_qs7WxOfum9ocnaPromOwaYfhpTWuF3_ITFwb3tWzjdxUS78qJsYJASyfG8ytsWYh_HitRyInLGb-QHKdBk3vyV4bHR7fRGXU1ScWS2TjBQfAsaplko6A_HNhhPS1NsO5bF-0r7yPgjJS3rgBu40Q463ngNcga640qP_XGbJLS5XSOn5cg96kN_HTmLu61uUOw-rOq7QvE9UYIL9bF2WVBVUjZLqIk7cPEu7Z34z7g995C7CxGUPGl5H9GdaFyNmA3RXVw4Q9plpdB3kjqWSEK8NnG9T-0zrzoud4BjSeJBYxDWAKUeIxS3hq-7q4gTfS0TXHKpkMHtOcR99cMIyXQchElK_xW37dMWWVBmjh434TV88WkxldZwTW57QOh7FasD2hkxkn_WouUQZ7e9frDeUC9f038EQky_59Pc2K9VelUkY-1dxwZh56lYFTXhG-lwUjIoW1OyndxBAMUwLFXs1tuR3ljmmJ0HH1nbPk9wi26EbRLcpndhs06vLbOzZshBH_B2JKu7hWOTc1YJ8WONGnjeEl1MOCNXodm9frCfC3OR_jU__yNaCQXM8iV8rvkoB44sbh20EAik2lU7a-w-rb0nr9kiA4QIcMvXOpTOIPMyNTYBOjtKhsWBzwG3PowAfeLo5e6P89EC9zR4reFHKv8ajkalgOnOztRnUJs6lApUp-ajdH0nPc3n42Fd68aJe-_NtcR-6Dd3XEMc4agPrZk-mJ7sPV9TKsP3NOtQjmTfpX7_-zNGw_pO02rHxqd28u9N-8oPYOmm3BIuX2o9n_k6fWsH2MGfr8XsC0L01kCp9ZE37V3ei33Utjl3DNbxLdLvmUQAeqShGNzSVCJrX3aRAKF3B1qh4h7TZ_gRWrvNLEknIT8KKeBjUmpU76YgU8enhZRu02soqSMm1vSUqoHw8UXEwLcoTN-bLuxMmWLsosXci7NhdREXApRcsk3n7IYPMEAZ2STQDk1BBUKIhd34xspD2keiG_DQ5h3SM64r92DguVN12pO7pBpFx7rTlDoGvt1B3NiNnqpLPA6Zz5ewMNNGS3_cH4KbkMztIOy8FIyfha8fAtjGPU_zLTi1Tr4VSn5nCKOAm1i93WwVFjlwKzWDnYk5Idk_uS8bx9RVC21HX9EYAzPyH6zwfq09chAJhv42_h4sV2XOJdzWQQ6idQUxlUtKVTrkk5a0dJ2ybApA15iBQIRm97gqlHtKwfyGGtf8C88byAv_UcvnnLmUTjnpX5C6Lr9DKNL8fipbjd4OLqodCMFiPUZu2fetd83V-bh5Y-LGLbtMWmTNkwdKvYswmELgDYAAgqYYHGFNIk134boG7h-JFu2Avzqh9MT8s5pZOuBZeE9HY6zWN591RlYOs0dKheJkNisvkPapMpZ2maIE7xUStY0RXTXRcIaCEMO6gvthbYlRjDIOamkBShrzorSdlILbEPNOtmtswd5U0yjXDfzWu_CZuMAAT7ZKVmFsQYcNgwR7LHh6Pg-nQz_TVJ_AhXTB7bpQAwAiTv-ZqV__]--></g></svg>