<svg xmlns="http://www.w3.org/2000/svg" xmlns:xlink="http://www.w3.org/1999/xlink" contentStyleType="text/css" height="849px" preserveAspectRatio="none" style="width:628px;height:849px;background:#0F172A;" version="1.1" viewBox="0 0 628 849" width="628px" zoomAndPan="magnify"><defs/><g><rect fill="#0F172A" height="849" style="stroke:none;stroke-width:1.0;" width="628" x="0" y="0"/><text fill="#F8FAFC" font-family="Segoe UI" font-size="22" font-weight="bold" lengthAdjust="spacing" textLength="471.6035" x="77.1929" y="35.4209">Gateway Registration &amp; Client Pairing</text><rect fill="#1E293B" height="618.0938" style="stroke:#334155;stroke-width:1.0;" width="10" x="332.5146" y="166.4844"/><rect fill="#1E293B" height="277.5938" style="stroke:#334155;stroke-width:1.0;" width="10" x="570.5439" y="506.9844"/><line style="stroke:#334155;stroke-width:1.0;" x1="57" x2="57" y1="94.5469" y2="802.5781"/><line style="stroke:#334155;stroke-width:1.0;" x1="337.501" x2="337.501" y1="94.5469" y2="802.5781"/><line style="stroke:#334155;stroke-width:1.0;" x1="575.0986" x2="575.0986" y1="94.5469" y2="802.5781"/><rect fill="#1E293B" height="27.9688" rx="2.5" ry="2.5" style="stroke:#3B82F6;stroke-width:1.0;" width="67.0098" x="24" y="65.5781"/><text fill="#F8FAFC" font-family="Segoe UI" font-size="12" lengthAdjust="spacing" textLength="53.0098" x="31" y="83.7168">Gateway</text><rect fill="#1E293B" height="27.9688" rx="2.5" ry="2.5" style="stroke:#3B82F6;stroke-width:1.0;" width="67.0098" x="24" y="801.5781"/><text fill="#F8FAFC" font-family="Segoe UI" font-size="12" lengthAdjust="spacing" textLength="53.0098" x="31" y="819.7168">Gateway</text><rect fill="#1E293B" height="41.9375" rx="2.5" ry="2.5" style="stroke:#3B82F6;stroke-width:1.0;" width="94.0273" x="290.501" y="51.6094"/><text fill="#F8FAFC" font-family="Segoe UI" font-size="12" lengthAdjust="spacing" textLength="80.0273" x="297.501" y="69.748">Signal Server</text><text fill="#F8FAFC" font-family="Segoe UI" font-size="12" lengthAdjust="spacing" textLength="63.416" x="305.8066" y="83.7168">(signaling)</text><rect fill="#1E293B" height="41.9375" rx="2.5" ry="2.5" style="stroke:#3B82F6;stroke-width:1.0;" width="94.0273" x="290.501" y="801.5781"/><text fill="#F8FAFC" font-family="Segoe UI" font-size="12" lengthAdjust="spacing" textLength="80.0273" x="297.501" y="819.7168">Signal Server</text><text fill="#F8FAFC" font-family="Segoe UI" font-size="12" lengthAdjust="spacing" textLength="63.416" x="305.8066" y="833.6855">(signaling)</text><rect fill="#1E293B" height="27.9688" rx="2.5" ry="2.5" style="stroke:#3B82F6;stroke-width:1.0;" width="62.8906" x="544.0986" y="65.5781"/><text fill="#F8FAFC" font-family="Segoe UI" font-size="12" lengthAdjust="spacing" textLength="48.8906" x="551.0986" y="83.7168">Browser</text><rect fill="#1E293B" height="27.9688" rx="2.5" ry="2.5" style="stroke:#3B82F6;stroke-width:1.0;" width="62.8906" x="544.0986" y="801.5781"/><text fill="#F8FAFC" font-family="Segoe UI" font-size="12" lengthAdjust="spacing" textLength="48.8906" x="551.0986" y="819.7168">Browser</text><rect fill="#1E293B" height="618.0938" style="stroke:#334155;stroke-width:1.0;" width="10" x="332.5146" y="166.4844"/><rect fill="#1E293B" height="277.5938" style="stroke:#334155;stroke-width:1.0;" width="10" x="570.5439" y="506.9844"/><rect fill="#334155" height="3" style="stroke:#334155;stroke-width:1.0;" width="616.9893" x="5" y="124.5313"/><line style="stroke:#000000;stroke-width:0.5;" x1="5" x2="621.9893" y1="124.5313" y2="124.5313"/><line style="stroke:#000000;stroke-width:0.5;" x1="5" x2="621.9893" y1="127.5313" y2="127.5313"/><rect fill="#334155" height="21.9688" style="stroke:#000000;stroke-width:1.0;" width="164.7969" x="231.0962" y="114.5469"/><text fill="#F8FAFC" font-family="Segoe UI" font-size="12" font-weight="bold" lengthAdjust="spacing" textLength="146.6191" x="237.0962" y="129.6855">Gateway Registration</text><polygon fill="#94A3B8" points="320.5146,162.4844,330.5146,166.4844,320.5146,170.4844,324.5146,166.4844" style="stroke:#94A3B8;stroke-width:1.0;"/><line style="stroke:#94A3B8;stroke-width:1.0;" x1="57.5049" x2="326.5146" y1="166.4844" y2="166.4844"/><text fill="#94A3B8" font-family="Segoe UI" font-size="12" lengthAdjust="spacing" textLength="119.1094" x="64.5049" y="161.6543">WebSocket connect</text><polygon fill="#94A3B8" points="320.5146,246.3281,330.5146,250.3281,320.5146,254.3281,324.5146,250.3281" style="stroke:#94A3B8;stroke-width:1.0;"/><line style="stroke:#94A3B8;stroke-width:1.0;" x1="57.5049" x2="326.5146" y1="250.3281" y2="250.3281"/><text fill="#94A3B8" font-family="Segoe UI" font-size="12" lengthAdjust="spacing" textLength="46.541" x="64.5049" y="189.623">register</text><text fill="#94A3B8" font-family="Segoe UI" font-size="12" lengthAdjust="spacing" textLength="223.6348" x="64.5049" y="203.5918">{ role: "gateway", id: "gw-a1b2c3...",</text><text fill="#94A3B8" font-family="Segoe UI" font-size="12" lengthAdjust="spacing" textLength="71.4082" x="72.1338" y="217.5605">secret: "...",</text><text fill="#94A3B8" font-family="Segoe UI" font-size="12" lengthAdjust="spacing" textLength="177.3164" x="72.1338" y="231.5293">addresses: ["10.0.0.5:7891"],</text><text fill="#94A3B8" font-family="Segoe UI" font-size="12" lengthAdjust="spacing" textLength="243.3809" x="72.1338" y="245.498">metadata: { displayName, backends } }</text><line style="stroke:#94A3B8;stroke-width:1.0;" x1="342.5146" x2="384.5146" y1="306.2344" y2="306.2344"/><line style="stroke:#94A3B8;stroke-width:1.0;" x1="384.5146" x2="384.5146" y1="306.2344" y2="319.2344"/><line style="stroke:#94A3B8;stroke-width:1.0;" x1="343.5146" x2="384.5146" y1="319.2344" y2="319.2344"/><polygon fill="#94A3B8" points="353.5146,315.2344,343.5146,319.2344,353.5146,323.2344,349.5146,319.2344" style="stroke:#94A3B8;stroke-width:1.0;"/><text fill="#94A3B8" font-family="Segoe UI" font-size="12" lengthAdjust="spacing" textLength="122.4492" x="349.5146" y="273.4668">Timing-safe validate</text><text fill="#94A3B8" font-family="Segoe UI" font-size="12" lengthAdjust="spacing" textLength="178.0195" x="349.5146" y="287.4355">API_SECRET &#8594; add to registry</text><text fill="#94A3B8" font-family="Segoe UI" font-size="12" lengthAdjust="spacing" textLength="123.6211" x="349.5146" y="301.4043">(max 100 gateways)</text><polygon fill="#94A3B8" points="68.5049,357.1719,58.5049,361.1719,68.5049,365.1719,64.5049,361.1719" style="stroke:#94A3B8;stroke-width:1.0;"/><line style="stroke:#94A3B8;stroke-width:1.0;stroke-dasharray:2.0,2.0;" x1="62.5049" x2="331.5146" y1="361.1719" y2="361.1719"/><text fill="#94A3B8" font-family="Segoe UI" font-size="12" lengthAdjust="spacing" textLength="61.541" x="74.5049" y="342.373">registered</text><text fill="#94A3B8" font-family="Segoe UI" font-size="12" lengthAdjust="spacing" textLength="231.2695" x="74.5049" y="356.3418">{ role: "gateway", id: "gw-a1b2c3..." }</text><path d="M10,374.1719 L10,439.1719 L385,439.1719 L385,384.1719 L375,374.1719 L10,374.1719 " fill="#1E293B" style="stroke:#334155;stroke-width:1.0;"/><path d="M375,374.1719 L375,384.1719 L385,384.1719 L375,374.1719 " fill="#1E293B" style="stroke:#334155;stroke-width:1.0;"/><text fill="#F8FAFC" font-family="Segoe UI" font-size="12" lengthAdjust="spacing" textLength="201.2578" x="51.1978" y="390.3105">Gateway keeps WebSocket open.</text><text fill="#F8FAFC" font-family="Segoe UI" font-size="12" lengthAdjust="spacing" textLength="221.7832" x="51.1978" y="404.2793">Reconnects with exponential backoff</text><text fill="#F8FAFC" font-family="Segoe UI" font-size="12" lengthAdjust="spacing" textLength="284.1328" x="51.1978" y="418.248">(1 s &#8594; 2 s &#8594; 4 s &#8594; ... &#8594; 30 s max, &#177;20 % jitter).</text><text fill="#F8FAFC" font-family="Segoe UI" font-size="12" lengthAdjust="spacing" textLength="236.1152" x="51.1978" y="432.2168">Resets to 1 s on successful connection.</text><rect fill="#334155" height="3" style="stroke:#334155;stroke-width:1.0;" width="616.9893" x="5" y="465.0313"/><line style="stroke:#000000;stroke-width:0.5;" x1="5" x2="621.9893" y1="465.0313" y2="465.0313"/><line style="stroke:#000000;stroke-width:0.5;" x1="5" x2="621.9893" y1="468.0313" y2="468.0313"/><rect fill="#334155" height="21.9688" style="stroke:#000000;stroke-width:1.0;" width="124.0742" x="251.4575" y="455.0469"/><text fill="#F8FAFC" font-family="Segoe UI" font-size="12" font-weight="bold" lengthAdjust="spacing" textLength="105.8965" x="257.4575" y="470.1855">Client Connects</text><polygon fill="#94A3B8" points="353.5146,502.9844,343.5146,506.9844,353.5146,510.9844,349.5146,506.9844" style="stroke:#94A3B8;stroke-width:1.0;"/><line style="stroke:#94A3B8;stroke-width:1.0;" x1="347.5146" x2="569.5439" y1="506.9844" y2="506.9844"/><text fill="#94A3B8" font-family="Segoe UI" font-size="12" lengthAdjust="spacing" textLength="119.1094" x="359.5146" y="502.1543">WebSocket connect</text><line style="stroke:#94A3B8;stroke-width:1.0;" x1="342.5146" x2="384.5146" y1="548.9219" y2="548.9219"/><line style="stroke:#94A3B8;stroke-width:1.0;" x1="384.5146" x2="384.5146" y1="548.9219" y2="561.9219"/><line style="stroke:#94A3B8;stroke-width:1.0;" x1="343.5146" x2="384.5146" y1="561.9219" y2="561.9219"/><polygon fill="#94A3B8" points="353.5146,557.9219,343.5146,561.9219,353.5146,565.9219,349.5146,561.9219" style="stroke:#94A3B8;stroke-width:1.0;"/><text fill="#94A3B8" font-family="Segoe UI" font-size="12" lengthAdjust="spacing" textLength="134.8008" x="349.5146" y="530.123">Per-IP connection limit</text><text fill="#94A3B8" font-family="Segoe UI" font-size="12" lengthAdjust="spacing" textLength="92.9297" x="349.5146" y="544.0918">(max 20 per IP)</text><polygon fill="#94A3B8" points="353.5146,599.8594,343.5146,603.8594,353.5146,607.8594,349.5146,603.8594" style="stroke:#94A3B8;stroke-width:1.0;"/><line style="stroke:#94A3B8;stroke-width:1.0;" x1="347.5146" x2="569.5439" y1="603.8594" y2="603.8594"/><text fill="#94A3B8" font-family="Segoe UI" font-size="12" lengthAdjust="spacing" textLength="46.541" x="359.5146" y="585.0605">register</text><text fill="#94A3B8" font-family="Segoe UI" font-size="12" lengthAdjust="spacing" textLength="194.0801" x="359.5146" y="599.0293">{ role: "client", id: "client-abc" }</text><line style="stroke:#94A3B8;stroke-width:1.0;" x1="342.5146" x2="384.5146" y1="659.7656" y2="659.7656"/><line style="stroke:#94A3B8;stroke-width:1.0;" x1="384.5146" x2="384.5146" y1="659.7656" y2="672.7656"/><line style="stroke:#94A3B8;stroke-width:1.0;" x1="343.5146" x2="384.5146" y1="672.7656" y2="672.7656"/><polygon fill="#94A3B8" points="353.5146,668.7656,343.5146,672.7656,353.5146,676.7656,349.5146,672.7656" style="stroke:#94A3B8;stroke-width:1.0;"/><text fill="#94A3B8" font-family="Segoe UI" font-size="12" lengthAdjust="spacing" textLength="174.5039" x="349.5146" y="626.998">Add to registry (max 10 000)</text><text fill="#94A3B8" font-family="Segoe UI" font-size="12" lengthAdjust="spacing" textLength="158.4199" x="349.5146" y="640.9668">Find least-loaded gateway</text><text fill="#94A3B8" font-family="Segoe UI" font-size="12" lengthAdjust="spacing" textLength="144.0469" x="349.5146" y="654.9355">Pair client with gateway</text><polygon fill="#94A3B8" points="558.5439,724.6719,568.5439,728.6719,558.5439,732.6719,562.5439,728.6719" style="stroke:#94A3B8;stroke-width:1.0;"/><line style="stroke:#94A3B8;stroke-width:1.0;stroke-dasharray:2.0,2.0;" x1="342.5146" x2="564.5439" y1="728.6719" y2="728.6719"/><text fill="#94A3B8" font-family="Segoe UI" font-size="12" lengthAdjust="spacing" textLength="38.2383" x="349.5146" y="695.9043">paired</text><text fill="#94A3B8" font-family="Segoe UI" font-size="12" lengthAdjust="spacing" textLength="193.4238" x="349.5146" y="709.873">{ gateway: { id: "gw-a1b2c3...",</text><text fill="#94A3B8" font-family="Segoe UI" font-size="12" lengthAdjust="spacing" textLength="196.4004" x="357.1436" y="723.8418">addresses: ["10.0.0.5:7891"] } }</text><polygon fill="#94A3B8" points="68.5049,780.5781,58.5049,784.5781,68.5049,788.5781,64.5049,784.5781" style="stroke:#94A3B8;stroke-width:1.0;"/><line style="stroke:#94A3B8;stroke-width:1.0;stroke-dasharray:2.0,2.0;" x1="62.5049" x2="336.5146" y1="784.5781" y2="784.5781"/><text fill="#94A3B8" font-family="Segoe UI" font-size="12" lengthAdjust="spacing" textLength="38.2383" x="74.5049" y="751.8105">paired</text><text fill="#94A3B8" font-family="Segoe UI" font-size="12" lengthAdjust="spacing" textLength="156.2344" x="74.5049" y="765.7793">{ client: { id: "client-abc",</text><text fill="#94A3B8" font-family="Segoe UI" font-size="12" lengthAdjust="spacing" textLength="184.2188" x="82.1338" y="779.748">reflexiveAddress: "1.2.3.4" } }</text><!--SRC=[ZLLjRjf04FtlKqnTjGeIM3QG9a6Y4acJ2AcAK4ZL7wMg5djCjfXTTtU1f57-zW2zIQ_Ge_Ga7TjhFeA38eJCxhnzysRchNbbRd66a2QC2yTmao1SCeDBTW_NEE7QA6Qu5F0MpXAEmi20SSN5n77qb8kKAJQ31mTWpCBfHCcvYCva8XMyzkFWgCae4c7CvecvaCBOK7mSipZS3bqnKk4ESI8HFlNTxU2G_qG8chGvn1zp525-v35z1PvA5Q6olArMEpWyh48z5HTWywGr9kI0ASD3dZ9XNWRQoZS-RiRljW5LPVQKaakxUT9cTApSt42l0bVIx16SHokBpY9LsSjcN19V-ZpnDcnlMtF8lbGV-8BJ-PraEqmMkClrw3ZfkgdWMa-wm3HCbYlPMvWXdmYM4BTQe1g90vsloQkr_9WsSr5zy9GceL7bg77nUmLqkjtg2z7jEWufQRmlY3lm6ST36KxHG2Y5mD0uB3HyGMTpn1EqohaodG-WP88TS2UsnZhmA5ik6omODyEMvtbkVIG0D8OA3OLMEooA56gDkWDVtC3tiizXv-Zu972_ve0P6XOnmphm017NTCtlivjMp-yhYaZ38r2lSr5hSJTyHcrhQ1OZBAY5n80ZqHlqlmtFpwxFR-3VhzzPRZ3I5gBkgU4pTWU1xuCjHDTAOcAcujT5O_J2iZDjWdmDaaPA7FMYbR0QoHGnrHkjboaAZ-BNQ8UWOSdDBU1TAWMzlZWP92jTnZ6X3WBGUIrD-spR9-NEdosVDgYiElpzq_JX3NpdXlJNYXGQYPvQaB6G8_Gy36aOyJmf7K0-yHpgCcGrv5QoBz6pKbpcej9oBxAI1U-CR82gqHzi98Q4XcZiL4XxIXdwWrfLkWelXhdESYR5gi76eLlXbjws4S3w07pVhut41QVw4sJQD1B98enAUun4zbS21NSn9HlPi4qfjWCfWGlVM5HcwMSkohvhiMduqfThxaBDYdgZy9nOOPpW7LzWhyX0aC1hUYslxHQy4MvV-errERd_]--></g></svg>