<svg xmlns="http://www.w3.org/2000/svg" xmlns:xlink="http://www.w3.org/1999/xlink" contentStyleType="text/css" height="849px" preserveAspectRatio="none" style="width:620px;height:849px;background:#0F172A;" version="1.1" viewBox="0 0 620 849" width="620px" zoomAndPan="magnify"><title>WAF Registration &amp; Client Pairing</title><defs/><g><rect fill="#0F172A" height="849" style="stroke:none;stroke-width:1;" width="620" x="0" y="0"/><text fill="#F8FAFC" font-family="Segoe UI" font-size="22" font-weight="bold" lengthAdjust="spacing" textLength="420.0732" x="98.9497" y="35.4209">WAF Registration &amp; Client Pairing</text><rect fill="#1E293B" height="618.0938" style="stroke:#334155;stroke-width:1;" width="10" x="324.498" y="166.4844"/><rect fill="#1E293B" height="277.5938" style="stroke:#334155;stroke-width:1;" width="10" x="562.5273" y="506.9844"/><line style="stroke:#334155;stroke-width:1;" x1="49" x2="49" y1="94.5469" y2="802.5781"/><line style="stroke:#334155;stroke-width:1;" x1="328.5615" x2="328.5615" y1="94.5469" y2="802.5781"/><line style="stroke:#334155;stroke-width:1;" x1="567.082" x2="567.082" y1="94.5469" y2="802.5781"/><rect fill="#1E293B" height="27.9688" rx="2.5" ry="2.5" style="stroke:#3B82F6;stroke-width:1;" width="40.9766" x="29" y="65.5781"/><text fill="#F8FAFC" font-family="Segoe UI" font-size="12" lengthAdjust="spacing" textLength="26.9766" x="36" y="83.7168">WAF</text><rect fill="#1E293B" height="27.9688" rx="2.5" ry="2.5" style="stroke:#3B82F6;stroke-width:1;" width="40.9766" x="29" y="801.5781"/><text fill="#F8FAFC" font-family="Segoe UI" font-size="12" lengthAdjust="spacing" textLength="26.9766" x="36" y="819.7168">WAF</text><rect fill="#1E293B" height="41.9375" rx="2.5" ry="2.5" style="stroke:#3B82F6;stroke-width:1;" width="89.873" x="284.5615" y="51.6094"/><text fill="#F8FAFC" font-family="Segoe UI" font-size="12" lengthAdjust="spacing" textLength="75.873" x="291.5615" y="69.748">STUN Server</text><text fill="#F8FAFC" font-family="Segoe UI" font-size="12" lengthAdjust="spacing" textLength="63.416" x="297.79" y="83.7168">(signaling)</text><rect fill="#1E293B" height="41.9375" rx="2.5" ry="2.5" style="stroke:#3B82F6;stroke-width:1;" width="89.873" x="284.5615" y="801.5781"/><text fill="#F8FAFC" font-family="Segoe UI" font-size="12" lengthAdjust="spacing" textLength="75.873" x="291.5615" y="819.7168">STUN Server</text><text fill="#F8FAFC" font-family="Segoe UI" font-size="12" lengthAdjust="spacing" textLength="63.416" x="297.79" y="833.6855">(signaling)</text><rect fill="#1E293B" height="27.9688" rx="2.5" ry="2.5" style="stroke:#3B82F6;stroke-width:1;" width="62.8906" x="536.082" y="65.5781"/><text fill="#F8FAFC" font-family="Segoe UI" font-size="12" lengthAdjust="spacing" textLength="48.8906" x="543.082" y="83.7168">Browser</text><rect fill="#1E293B" height="27.9688" rx="2.5" ry="2.5" style="stroke:#3B82F6;stroke-width:1;" width="62.8906" x="536.082" y="801.5781"/><text fill="#F8FAFC" font-family="Segoe UI" font-size="12" lengthAdjust="spacing" textLength="48.8906" x="543.082" y="819.7168">Browser</text><rect fill="#1E293B" height="618.0938" style="stroke:#334155;stroke-width:1;" width="10" x="324.498" y="166.4844"/><rect fill="#1E293B" height="277.5938" style="stroke:#334155;stroke-width:1;" width="10" x="562.5273" y="506.9844"/><rect fill="#334155" height="3" style="stroke:#334155;stroke-width:1;" width="608.9727" x="5" y="124.5313"/><line style="stroke:#000000;stroke-width:0.5;" x1="5" x2="613.9727" y1="124.5313" y2="124.5313"/><line style="stroke:#000000;stroke-width:0.5;" x1="5" x2="613.9727" y1="127.5313" y2="127.5313"/><rect fill="#334155" height="21.9688" style="stroke:#000000;stroke-width:1;" width="136.6895" x="241.1416" y="114.5469"/><text fill="#F8FAFC" font-family="Segoe UI" font-size="12" font-weight="bold" lengthAdjust="spacing" textLength="118.5117" x="247.1416" y="129.6855">WAF Registration</text><polygon fill="#94A3B8" points="312.498,162.4844,322.498,166.4844,312.498,170.4844,316.498,166.4844" style="stroke:#94A3B8;stroke-width:1;"/><line style="stroke:#94A3B8;stroke-width:1;" x1="49.4883" x2="318.498" y1="166.4844" y2="166.4844"/><text fill="#94A3B8" font-family="Segoe UI" font-size="12" lengthAdjust="spacing" textLength="119.1094" x="56.4883" y="161.6543">WebSocket connect</text><polygon fill="#94A3B8" points="312.498,246.3281,322.498,250.3281,312.498,254.3281,316.498,250.3281" style="stroke:#94A3B8;stroke-width:1;"/><line style="stroke:#94A3B8;stroke-width:1;" x1="49.4883" x2="318.498" y1="250.3281" y2="250.3281"/><text fill="#94A3B8" font-family="Segoe UI" font-size="12" lengthAdjust="spacing" textLength="46.541" x="56.4883" y="189.623">register</text><text fill="#94A3B8" font-family="Segoe UI" font-size="12" lengthAdjust="spacing" textLength="197.6602" x="56.4883" y="203.5918">{ role: "waf", id: "waf-a1b2c3...",</text><text fill="#94A3B8" font-family="Segoe UI" font-size="12" lengthAdjust="spacing" textLength="71.4082" x="64.1172" y="217.5605">secret: "...",</text><text fill="#94A3B8" font-family="Segoe UI" font-size="12" lengthAdjust="spacing" textLength="177.3164" x="64.1172" y="231.5293">addresses: ["10.0.0.5:7891"],</text><text fill="#94A3B8" font-family="Segoe UI" font-size="12" lengthAdjust="spacing" textLength="243.3809" x="64.1172" y="245.498">metadata: { displayName, backends } }</text><line style="stroke:#94A3B8;stroke-width:1;" x1="334.498" x2="376.498" y1="306.2344" y2="306.2344"/><line style="stroke:#94A3B8;stroke-width:1;" x1="376.498" x2="376.498" y1="306.2344" y2="319.2344"/><line style="stroke:#94A3B8;stroke-width:1;" x1="335.498" x2="376.498" y1="319.2344" y2="319.2344"/><polygon fill="#94A3B8" points="345.498,315.2344,335.498,319.2344,345.498,323.2344,341.498,319.2344" style="stroke:#94A3B8;stroke-width:1;"/><text fill="#94A3B8" font-family="Segoe UI" font-size="12" lengthAdjust="spacing" textLength="122.4492" x="341.498" y="273.4668">Timing-safe validate</text><text fill="#94A3B8" font-family="Segoe UI" font-size="12" lengthAdjust="spacing" textLength="178.0195" x="341.498" y="287.4355">API_SECRET &#8594; add to registry</text><text fill="#94A3B8" font-family="Segoe UI" font-size="12" lengthAdjust="spacing" textLength="99.2695" x="341.498" y="301.4043">(max 100 WAFs)</text><polygon fill="#94A3B8" points="60.4883,357.1719,50.4883,361.1719,60.4883,365.1719,56.4883,361.1719" style="stroke:#94A3B8;stroke-width:1;"/><line style="stroke:#94A3B8;stroke-width:1;stroke-dasharray:2.0,2.0;" x1="54.4883" x2="323.498" y1="361.1719" y2="361.1719"/><text fill="#94A3B8" font-family="Segoe UI" font-size="12" lengthAdjust="spacing" textLength="61.541" x="66.4883" y="342.373">registered</text><text fill="#94A3B8" font-family="Segoe UI" font-size="12" lengthAdjust="spacing" textLength="205.2949" x="66.4883" y="356.3418">{ role: "waf", id: "waf-a1b2c3..." }</text><path d="M10,374.1719 L10,439.1719 L370,439.1719 L370,384.1719 L360,374.1719 L10,374.1719 " fill="#1E293B" style="stroke:#334155;stroke-width:1;"/><path d="M360,374.1719 L360,384.1719 L370,384.1719 L360,374.1719 " fill="#1E293B" style="stroke:#334155;stroke-width:1;"/><text fill="#F8FAFC" font-family="Segoe UI" font-size="12" lengthAdjust="spacing" textLength="175.2246" x="43.6509" y="390.3105">WAF keeps WebSocket open.</text><text fill="#F8FAFC" font-family="Segoe UI" font-size="12" lengthAdjust="spacing" textLength="221.7832" x="43.6509" y="404.2793">Reconnects with exponential backoff</text><text fill="#F8FAFC" font-family="Segoe UI" font-size="12" lengthAdjust="spacing" textLength="284.1328" x="43.6509" y="418.248">(1 s &#8594; 2 s &#8594; 4 s &#8594; ... &#8594; 30 s max, &#177;20 % jitter).</text><text fill="#F8FAFC" font-family="Segoe UI" font-size="12" lengthAdjust="spacing" textLength="236.1152" x="43.6509" y="432.2168">Resets to 1 s on successful connection.</text><rect fill="#334155" height="3" style="stroke:#334155;stroke-width:1;" width="608.9727" x="5" y="465.0313"/><line style="stroke:#000000;stroke-width:0.5;" x1="5" x2="613.9727" y1="465.0313" y2="465.0313"/><line style="stroke:#000000;stroke-width:0.5;" x1="5" x2="613.9727" y1="468.0313" y2="468.0313"/><rect fill="#334155" height="21.9688" style="stroke:#000000;stroke-width:1;" width="124.0742" x="247.4492" y="455.0469"/><text fill="#F8FAFC" font-family="Segoe UI" font-size="12" font-weight="bold" lengthAdjust="spacing" textLength="105.8965" x="253.4492" y="470.1855">Client Connects</text><polygon fill="#94A3B8" points="345.498,502.9844,335.498,506.9844,345.498,510.9844,341.498,506.9844" style="stroke:#94A3B8;stroke-width:1;"/><line style="stroke:#94A3B8;stroke-width:1;" x1="339.498" x2="561.5273" y1="506.9844" y2="506.9844"/><text fill="#94A3B8" font-family="Segoe UI" font-size="12" lengthAdjust="spacing" textLength="119.1094" x="351.498" y="502.1543">WebSocket connect</text><line style="stroke:#94A3B8;stroke-width:1;" x1="334.498" x2="376.498" y1="548.9219" y2="548.9219"/><line style="stroke:#94A3B8;stroke-width:1;" x1="376.498" x2="376.498" y1="548.9219" y2="561.9219"/><line style="stroke:#94A3B8;stroke-width:1;" x1="335.498" x2="376.498" y1="561.9219" y2="561.9219"/><polygon fill="#94A3B8" points="345.498,557.9219,335.498,561.9219,345.498,565.9219,341.498,561.9219" style="stroke:#94A3B8;stroke-width:1;"/><text fill="#94A3B8" font-family="Segoe UI" font-size="12" lengthAdjust="spacing" textLength="134.8008" x="341.498" y="530.123">Per-IP connection limit</text><text fill="#94A3B8" font-family="Segoe UI" font-size="12" lengthAdjust="spacing" textLength="92.9297" x="341.498" y="544.0918">(max 20 per IP)</text><polygon fill="#94A3B8" points="345.498,599.8594,335.498,603.8594,345.498,607.8594,341.498,603.8594" style="stroke:#94A3B8;stroke-width:1;"/><line style="stroke:#94A3B8;stroke-width:1;" x1="339.498" x2="561.5273" y1="603.8594" y2="603.8594"/><text fill="#94A3B8" font-family="Segoe UI" font-size="12" lengthAdjust="spacing" textLength="46.541" x="351.498" y="585.0605">register</text><text fill="#94A3B8" font-family="Segoe UI" font-size="12" lengthAdjust="spacing" textLength="194.0801" x="351.498" y="599.0293">{ role: "client", id: "client-abc" }</text><line style="stroke:#94A3B8;stroke-width:1;" x1="334.498" x2="376.498" y1="659.7656" y2="659.7656"/><line style="stroke:#94A3B8;stroke-width:1;" x1="376.498" x2="376.498" y1="659.7656" y2="672.7656"/><line style="stroke:#94A3B8;stroke-width:1;" x1="335.498" x2="376.498" y1="672.7656" y2="672.7656"/><polygon fill="#94A3B8" points="345.498,668.7656,335.498,672.7656,345.498,676.7656,341.498,672.7656" style="stroke:#94A3B8;stroke-width:1;"/><text fill="#94A3B8" font-family="Segoe UI" font-size="12" lengthAdjust="spacing" textLength="174.5039" x="341.498" y="626.998">Add to registry (max 10 000)</text><text fill="#94A3B8" font-family="Segoe UI" font-size="12" lengthAdjust="spacing" textLength="134.0684" x="341.498" y="640.9668">Find least-loaded WAF</text><text fill="#94A3B8" font-family="Segoe UI" font-size="12" lengthAdjust="spacing" textLength="114.1113" x="341.498" y="654.9355">Pair client with waf</text><polygon fill="#94A3B8" points="550.5273,724.6719,560.5273,728.6719,550.5273,732.6719,554.5273,728.6719" style="stroke:#94A3B8;stroke-width:1;"/><line style="stroke:#94A3B8;stroke-width:1;stroke-dasharray:2.0,2.0;" x1="334.498" x2="556.5273" y1="728.6719" y2="728.6719"/><text fill="#94A3B8" font-family="Segoe UI" font-size="12" lengthAdjust="spacing" textLength="38.2383" x="341.498" y="695.9043">paired</text><text fill="#94A3B8" font-family="Segoe UI" font-size="12" lengthAdjust="spacing" textLength="167.4492" x="341.498" y="709.873">{ waf: { id: "waf-a1b2c3...",</text><text fill="#94A3B8" font-family="Segoe UI" font-size="12" lengthAdjust="spacing" textLength="196.4004" x="349.127" y="723.8418">addresses: ["10.0.0.5:7891"] } }</text><polygon fill="#94A3B8" points="60.4883,780.5781,50.4883,784.5781,60.4883,788.5781,56.4883,784.5781" style="stroke:#94A3B8;stroke-width:1;"/><line style="stroke:#94A3B8;stroke-width:1;stroke-dasharray:2.0,2.0;" x1="54.4883" x2="328.498" y1="784.5781" y2="784.5781"/><text fill="#94A3B8" font-family="Segoe UI" font-size="12" lengthAdjust="spacing" textLength="38.2383" x="66.4883" y="751.8105">paired</text><text fill="#94A3B8" font-family="Segoe UI" font-size="12" lengthAdjust="spacing" textLength="156.2344" x="66.4883" y="765.7793">{ client: { id: "client-abc",</text><text fill="#94A3B8" font-family="Segoe UI" font-size="12" lengthAdjust="spacing" textLength="184.2188" x="74.1172" y="779.748">reflexiveAddress: "1.2.3.4" } }</text><!--SRC=[ZLLRRjf05FttAcvTjGeIMBOXJO949KAR2gcAK4YKZr9LWtrDffWPTsOWIQFyTW7TIRVGfNGblNu13WwA4B8zzyovZtF6VcLkS86Gn8mBot0J8rptp-02PrmRnGoN0jx28EOe38mOLrpCB4lFkKYOOWjui02cB9ZFb5oAS21ZgU2r6tb7FgD8Y15RnkPC2bE4ekE8HK4rTCwe0dkCCubmDRIhmJ7_YU3vj3Z67qiK0Nxc4Vq5daeLeYfus-sETtXOXtfQd8V-INjAo15JXWSyOSAy35J9DptsetTLG5sRVQNaRR5uqc6qhLpSGgy3vzBiAJYBrZQTHkgobyFuH7p9yyHLsDwnPf1zgJxm5QVzEybsc0hWBjUZPIMReO9DVhI1QRXbqRhc2c1yUNLEj6g5QY8ED9y95fDD6zakRPQYVjifYQ1HPQXfVhy6MhtUxZdezImhBQBrFcVjmZLEnpAOeu502e61iLXW-8ePp11FuIfZIwjy02LZx89D0Bi9FCnlMyoR-a7RSHoxEH406WE5XcBh5HQ62hL6tOKljkSwwU-mUtHyujbVCy023GkPOLruW91hEjZtwVbgPgSKHQZX4MZ2MKMRoYxvWYRMqYn2MD7qY04deZyQVXj_75nyl8H_ltwdkS78eWjrJxDUi3lmN3STbMwKfCIQjhrf5yEND9nM9SZ784d7bA6Ppn0o8UQ8YTwQjqnGE1Ixm6Bov0zkRW3l4YdeNSLPd7KieuXG1nxeh0M_k7QAAoNEhcsN5gYR9lpzuxlm1hvpGvKtyXGQYPuwJrd81teP1AH1j8nBsSaTZaN3XRI1p3p56tDG5fTwfpJPY_nJW7UK6g5g3KTRYI4cxKmX1jMUK8RXg56NhiP_GLPdgKZ-r6BJmAunIR-gFnJoW-kwZOauuzH_Z4oRLYnPY66gsqIatmp8UNE5IDajfvH5TY4XOEuKGgJkVUvGx3i2s-PU-t33dDUn9jzgDsDM6CLunrVOprCGn7Dyf-rqx9munEhvtdekzVeF]--></g></svg>