<svg xmlns="http://www.w3.org/2000/svg" xmlns:xlink="http://www.w3.org/1999/xlink" contentStyleType="text/css" height="1807px" preserveAspectRatio="none" style="width:1136px;height:1807px;background:#0F172A;" version="1.1" viewBox="0 0 1136 1807" width="1136px" zoomAndPan="magnify"><title>NAT Traversal &#8212; Hole Punching via STUN + ICE</title><defs/><g><rect fill="#0F172A" height="1807" style="stroke:none;stroke-width:1;" width="1136" x="0" y="0"/><text fill="#F8FAFC" font-family="Segoe UI" font-size="22" font-weight="bold" lengthAdjust="spacing" textLength="582.7529" x="275.5752" y="35.4209">NAT Traversal &#8212; Hole Punching via STUN + ICE</text><line style="stroke:#334155;stroke-width:1;" x1="126" x2="126" y1="94.5469" y2="1760.6406"/><line style="stroke:#334155;stroke-width:1;" x1="344.0469" x2="344.0469" y1="94.5469" y2="1760.6406"/><line style="stroke:#334155;stroke-width:1;" x1="449.5859" x2="449.5859" y1="94.5469" y2="1760.6406"/><line style="stroke:#334155;stroke-width:1;" x1="571.2988" x2="571.2988" y1="94.5469" y2="1760.6406"/><line style="stroke:#334155;stroke-width:1;" x1="765.5479" x2="765.5479" y1="94.5469" y2="1760.6406"/><line style="stroke:#334155;stroke-width:1;" x1="944.458" x2="944.458" y1="94.5469" y2="1760.6406"/><rect fill="#1E293B" height="41.9375" rx="2.5" ry="2.5" style="stroke:#3B82F6;stroke-width:1;" width="104.8789" x="74" y="51.6094"/><text fill="#F8FAFC" font-family="Segoe UI" font-size="12" lengthAdjust="spacing" textLength="48.8906" x="101.9941" y="69.748">Browser</text><text fill="#F8FAFC" font-family="Segoe UI" font-size="12" lengthAdjust="spacing" textLength="90.8789" x="81" y="83.7168">(behind NAT A)</text><rect fill="#1E293B" height="41.9375" rx="2.5" ry="2.5" style="stroke:#3B82F6;stroke-width:1;" width="104.8789" x="74" y="1759.6406"/><text fill="#F8FAFC" font-family="Segoe UI" font-size="12" lengthAdjust="spacing" textLength="48.8906" x="101.9941" y="1777.7793">Browser</text><text fill="#F8FAFC" font-family="Segoe UI" font-size="12" lengthAdjust="spacing" textLength="90.8789" x="81" y="1791.748">(behind NAT A)</text><rect fill="#1E293B" height="27.9688" rx="2.5" ry="2.5" style="stroke:#3B82F6;stroke-width:1;" width="50.5391" x="319.0469" y="65.5781"/><text fill="#F8FAFC" font-family="Segoe UI" font-size="12" lengthAdjust="spacing" textLength="36.5391" x="326.0469" y="83.7168">NAT A</text><rect fill="#1E293B" height="27.9688" rx="2.5" ry="2.5" style="stroke:#3B82F6;stroke-width:1;" width="50.5391" x="319.0469" y="1759.6406"/><text fill="#F8FAFC" font-family="Segoe UI" font-size="12" lengthAdjust="spacing" textLength="36.5391" x="326.0469" y="1777.7793">NAT A</text><rect fill="#1E293B" height="41.9375" rx="2.5" ry="2.5" style="stroke:#3B82F6;stroke-width:1;" width="100.7129" x="399.5859" y="51.6094"/><text fill="#F8FAFC" font-family="Segoe UI" font-size="12" lengthAdjust="spacing" textLength="80.0273" x="409.9287" y="69.748">Signal Server</text><text fill="#F8FAFC" font-family="Segoe UI" font-size="12" lengthAdjust="spacing" textLength="86.7129" x="406.5859" y="83.7168">(signaling WS)</text><rect fill="#1E293B" height="41.9375" rx="2.5" ry="2.5" style="stroke:#3B82F6;stroke-width:1;" width="100.7129" x="399.5859" y="1759.6406"/><text fill="#F8FAFC" font-family="Segoe UI" font-size="12" lengthAdjust="spacing" textLength="80.0273" x="409.9287" y="1777.7793">Signal Server</text><text fill="#F8FAFC" font-family="Segoe UI" font-size="12" lengthAdjust="spacing" textLength="86.7129" x="406.5859" y="1791.748">(signaling WS)</text><rect fill="#1E293B" height="41.9375" rx="2.5" ry="2.5" style="stroke:#3B82F6;stroke-width:1;" width="82.3145" x="530.2988" y="51.6094"/><text fill="#F8FAFC" font-family="Segoe UI" font-size="12" lengthAdjust="spacing" textLength="38.7891" x="552.0615" y="69.748">coturn</text><text fill="#F8FAFC" font-family="Segoe UI" font-size="12" lengthAdjust="spacing" textLength="68.3145" x="537.2988" y="83.7168">(port 3478)</text><rect fill="#1E293B" height="41.9375" rx="2.5" ry="2.5" style="stroke:#3B82F6;stroke-width:1;" width="82.3145" x="530.2988" y="1759.6406"/><text fill="#F8FAFC" font-family="Segoe UI" font-size="12" lengthAdjust="spacing" textLength="38.7891" x="552.0615" y="1777.7793">coturn</text><text fill="#F8FAFC" font-family="Segoe UI" font-size="12" lengthAdjust="spacing" textLength="68.3145" x="537.2988" y="1791.748">(port 3478)</text><rect fill="#1E293B" height="27.9688" rx="2.5" ry="2.5" style="stroke:#3B82F6;stroke-width:1;" width="50.5625" x="740.5479" y="65.5781"/><text fill="#F8FAFC" font-family="Segoe UI" font-size="12" lengthAdjust="spacing" textLength="36.5625" x="747.5479" y="83.7168">NAT B</text><rect fill="#1E293B" height="27.9688" rx="2.5" ry="2.5" style="stroke:#3B82F6;stroke-width:1;" width="50.5625" x="740.5479" y="1759.6406"/><text fill="#F8FAFC" font-family="Segoe UI" font-size="12" lengthAdjust="spacing" textLength="36.5625" x="747.5479" y="1777.7793">NAT B</text><rect fill="#1E293B" height="41.9375" rx="2.5" ry="2.5" style="stroke:#3B82F6;stroke-width:1;" width="104.9023" x="892.458" y="51.6094"/><text fill="#F8FAFC" font-family="Segoe UI" font-size="12" lengthAdjust="spacing" textLength="53.0098" x="918.4043" y="69.748">Gateway</text><text fill="#F8FAFC" font-family="Segoe UI" font-size="12" lengthAdjust="spacing" textLength="90.9023" x="899.458" y="83.7168">(behind NAT B)</text><rect fill="#1E293B" height="41.9375" rx="2.5" ry="2.5" style="stroke:#3B82F6;stroke-width:1;" width="104.9023" x="892.458" y="1759.6406"/><text fill="#F8FAFC" font-family="Segoe UI" font-size="12" lengthAdjust="spacing" textLength="53.0098" x="918.4043" y="1777.7793">Gateway</text><text fill="#F8FAFC" font-family="Segoe UI" font-size="12" lengthAdjust="spacing" textLength="90.9023" x="899.458" y="1791.748">(behind NAT B)</text><rect fill="#334155" height="3" style="stroke:#334155;stroke-width:1;" width="1124.9033" x="5" y="124.5313"/><line style="stroke:#000000;stroke-width:0.5;" x1="5" x2="1129.9033" y1="124.5313" y2="124.5313"/><line style="stroke:#000000;stroke-width:0.5;" x1="5" x2="1129.9033" y1="127.5313" y2="127.5313"/><rect fill="#334155" height="21.9688" style="stroke:#000000;stroke-width:1;" width="195.8984" x="469.5024" y="114.5469"/><text fill="#F8FAFC" font-family="Segoe UI" font-size="12" font-weight="bold" lengthAdjust="spacing" textLength="177.7207" x="475.5024" y="129.6855">1. Fetch TURN Credentials</text><polygon fill="#94A3B8" points="437.9424,162.4844,447.9424,166.4844,437.9424,170.4844,441.9424,166.4844" style="stroke:#94A3B8;stroke-width:1;"/><line style="stroke:#94A3B8;stroke-width:1;" x1="126.4395" x2="443.9424" y1="166.4844" y2="166.4844"/><text fill="#94A3B8" font-family="Segoe UI" font-size="12" lengthAdjust="spacing" textLength="179.0566" x="133.4395" y="161.6543">GET /webrtc-config (via relay)</text><polygon fill="#94A3B8" points="137.4395,204.4219,127.4395,208.4219,137.4395,212.4219,133.4395,208.4219" style="stroke:#94A3B8;stroke-width:1;"/><line style="stroke:#94A3B8;stroke-width:1;stroke-dasharray:2.0,2.0;" x1="131.4395" x2="448.9424" y1="208.4219" y2="208.4219"/><text fill="#94A3B8" font-family="Segoe UI" font-size="12" lengthAdjust="spacing" textLength="152.6133" x="143.4395" y="189.623">{ stunServer, turnServer,</text><text fill="#94A3B8" font-family="Segoe UI" font-size="12" lengthAdjust="spacing" textLength="186.9609" x="151.0684" y="203.5918">turnUsername, turnPassword }</text><path d="M313,221.4219 L313,272.4219 L586,272.4219 L586,231.4219 L576,221.4219 L313,221.4219 " fill="#1E293B" style="stroke:#334155;stroke-width:1;"/><path d="M576,221.4219 L576,231.4219 L586,231.4219 L576,221.4219 " fill="#1E293B" style="stroke:#334155;stroke-width:1;"/><text fill="#F8FAFC" font-family="Segoe UI" font-size="12" lengthAdjust="spacing" textLength="173.9707" x="319" y="237.5605">Credentials use HMAC-SHA1:</text><text fill="#F8FAFC" font-family="Segoe UI" font-size="12" lengthAdjust="spacing" textLength="112.9746" x="319" y="251.5293">user = unix_expiry</text><text fill="#F8FAFC" font-family="Segoe UI" font-size="12" lengthAdjust="spacing" textLength="252.2109" x="319" y="265.498">pass = Base64(HMAC-SHA1(secret, user))</text><rect fill="#334155" height="3" style="stroke:#334155;stroke-width:1;" width="1124.9033" x="5" y="298.3125"/><line style="stroke:#000000;stroke-width:0.5;" x1="5" x2="1129.9033" y1="298.3125" y2="298.3125"/><line style="stroke:#000000;stroke-width:0.5;" x1="5" x2="1129.9033" y1="301.3125" y2="301.3125"/><rect fill="#334155" height="21.9688" style="stroke:#000000;stroke-width:1;" width="225.1777" x="454.8628" y="288.3281"/><text fill="#F8FAFC" font-family="Segoe UI" font-size="12" font-weight="bold" lengthAdjust="spacing" textLength="207" x="460.8628" y="303.4668">2. SDP Offer/Answer Exchange</text><line style="stroke:#94A3B8;stroke-width:1;" x1="126.4395" x2="168.4395" y1="354.2344" y2="354.2344"/><line style="stroke:#94A3B8;stroke-width:1;" x1="168.4395" x2="168.4395" y1="354.2344" y2="367.2344"/><line style="stroke:#94A3B8;stroke-width:1;" x1="127.4395" x2="168.4395" y1="367.2344" y2="367.2344"/><polygon fill="#94A3B8" points="137.4395,363.2344,127.4395,367.2344,137.4395,371.2344,133.4395,367.2344" style="stroke:#94A3B8;stroke-width:1;"/><text fill="#94A3B8" font-family="Segoe UI" font-size="12" lengthAdjust="spacing" textLength="159.8145" x="133.4395" y="335.4355">new RTCPeerConnection({</text><text fill="#94A3B8" font-family="Segoe UI" font-size="12" lengthAdjust="spacing" textLength="154.916" x="141.0684" y="349.4043">iceServers: [stun, turn] })</text><line style="stroke:#94A3B8;stroke-width:1;" x1="126.4395" x2="168.4395" y1="395.2031" y2="395.2031"/><line style="stroke:#94A3B8;stroke-width:1;" x1="168.4395" x2="168.4395" y1="395.2031" y2="408.2031"/><line style="stroke:#94A3B8;stroke-width:1;" x1="127.4395" x2="168.4395" y1="408.2031" y2="408.2031"/><polygon fill="#94A3B8" points="137.4395,404.2031,127.4395,408.2031,137.4395,412.2031,133.4395,408.2031" style="stroke:#94A3B8;stroke-width:1;"/><text fill="#94A3B8" font-family="Segoe UI" font-size="12" lengthAdjust="spacing" textLength="203.877" x="133.4395" y="390.373">createDataChannel("http-tunnel")</text><line style="stroke:#94A3B8;stroke-width:1;" x1="126.4395" x2="168.4395" y1="436.1719" y2="436.1719"/><line style="stroke:#94A3B8;stroke-width:1;" x1="168.4395" x2="168.4395" y1="436.1719" y2="449.1719"/><line style="stroke:#94A3B8;stroke-width:1;" x1="127.4395" x2="168.4395" y1="449.1719" y2="449.1719"/><polygon fill="#94A3B8" points="137.4395,445.1719,127.4395,449.1719,137.4395,453.1719,133.4395,449.1719" style="stroke:#94A3B8;stroke-width:1;"/><text fill="#94A3B8" font-family="Segoe UI" font-size="12" lengthAdjust="spacing" textLength="119.707" x="133.4395" y="431.3418">createOffer() &#8594; SDP</text><polygon fill="#94A3B8" points="437.9424,473.1406,447.9424,477.1406,437.9424,481.1406,441.9424,477.1406" style="stroke:#94A3B8;stroke-width:1;"/><line style="stroke:#94A3B8;stroke-width:1;" x1="126.4395" x2="443.9424" y1="477.1406" y2="477.1406"/><text fill="#94A3B8" font-family="Segoe UI" font-size="12" lengthAdjust="spacing" textLength="206.25" x="133.4395" y="472.3105">sdp_offer { sdp, fromId, targetId }</text><polygon fill="#94A3B8" points="932.9092,501.1094,942.9092,505.1094,932.9092,509.1094,936.9092,505.1094" style="stroke:#94A3B8;stroke-width:1;"/><line style="stroke:#94A3B8;stroke-width:1;" x1="449.9424" x2="938.9092" y1="505.1094" y2="505.1094"/><text fill="#94A3B8" font-family="Segoe UI" font-size="12" lengthAdjust="spacing" textLength="105.627" x="456.9424" y="500.2793">forward sdp_offer</text><line style="stroke:#94A3B8;stroke-width:1;" x1="944.9092" x2="986.9092" y1="561.0156" y2="561.0156"/><line style="stroke:#94A3B8;stroke-width:1;" x1="986.9092" x2="986.9092" y1="561.0156" y2="574.0156"/><line style="stroke:#94A3B8;stroke-width:1;" x1="945.9092" x2="986.9092" y1="574.0156" y2="574.0156"/><polygon fill="#94A3B8" points="955.9092,570.0156,945.9092,574.0156,955.9092,578.0156,951.9092,574.0156" style="stroke:#94A3B8;stroke-width:1;"/><text fill="#94A3B8" font-family="Segoe UI" font-size="12" lengthAdjust="spacing" textLength="170.9941" x="951.9092" y="528.248">setRemoteDescription(offer)</text><text fill="#94A3B8" font-family="Segoe UI" font-size="12" lengthAdjust="spacing" textLength="149.5488" x="951.9092" y="542.2168">&#8594; generates SDP answer</text><text fill="#94A3B8" font-family="Segoe UI" font-size="12" lengthAdjust="spacing" textLength="99.6094" x="951.9092" y="556.1855">(max 200 peers)</text><polygon fill="#94A3B8" points="460.9424,597.9844,450.9424,601.9844,460.9424,605.9844,456.9424,601.9844" style="stroke:#94A3B8;stroke-width:1;"/><line style="stroke:#94A3B8;stroke-width:1;" x1="454.9424" x2="943.9092" y1="601.9844" y2="601.9844"/><text fill="#94A3B8" font-family="Segoe UI" font-size="12" lengthAdjust="spacing" textLength="166.002" x="466.9424" y="597.1543">sdp_answer { sdp, fromId }</text><polygon fill="#94A3B8" points="137.4395,625.9531,127.4395,629.9531,137.4395,633.9531,133.4395,629.9531" style="stroke:#94A3B8;stroke-width:1;"/><line style="stroke:#94A3B8;stroke-width:1;" x1="131.4395" x2="448.9424" y1="629.9531" y2="629.9531"/><text fill="#94A3B8" font-family="Segoe UI" font-size="12" lengthAdjust="spacing" textLength="120.8613" x="143.4395" y="625.123">forward sdp_answer</text><line style="stroke:#94A3B8;stroke-width:1;" x1="126.4395" x2="168.4395" y1="657.9219" y2="657.9219"/><line style="stroke:#94A3B8;stroke-width:1;" x1="168.4395" x2="168.4395" y1="657.9219" y2="670.9219"/><line style="stroke:#94A3B8;stroke-width:1;" x1="127.4395" x2="168.4395" y1="670.9219" y2="670.9219"/><polygon fill="#94A3B8" points="137.4395,666.9219,127.4395,670.9219,137.4395,674.9219,133.4395,670.9219" style="stroke:#94A3B8;stroke-width:1;"/><text fill="#94A3B8" font-family="Segoe UI" font-size="12" lengthAdjust="spacing" textLength="186.2285" x="133.4395" y="653.0918">setRemoteDescription(answer)</text><rect fill="#334155" height="3" style="stroke:#334155;stroke-width:1;" width="1124.9033" x="5" y="698.9063"/><line style="stroke:#000000;stroke-width:0.5;" x1="5" x2="1129.9033" y1="698.9063" y2="698.9063"/><line style="stroke:#000000;stroke-width:0.5;" x1="5" x2="1129.9033" y1="701.9063" y2="701.9063"/><rect fill="#334155" height="21.9688" style="stroke:#000000;stroke-width:1;" width="310.9355" x="411.9839" y="688.9219"/><text fill="#F8FAFC" font-family="Segoe UI" font-size="12" font-weight="bold" lengthAdjust="spacing" textLength="292.7578" x="417.9839" y="704.0605">3. STUN Binding &#8212; Discover Public Address</text><polygon fill="#94A3B8" points="332.3164,736.8594,342.3164,740.8594,332.3164,744.8594,336.3164,740.8594" style="stroke:#94A3B8;stroke-width:1;"/><line style="stroke:#94A3B8;stroke-width:1;" x1="126.4395" x2="338.3164" y1="740.8594" y2="740.8594"/><text fill="#94A3B8" font-family="Segoe UI" font-size="12" lengthAdjust="spacing" textLength="134.9648" x="133.4395" y="736.0293">STUN Binding Request</text><polygon fill="#94A3B8" points="559.4561,764.8281,569.4561,768.8281,559.4561,772.8281,563.4561,768.8281" style="stroke:#94A3B8;stroke-width:1;"/><line style="stroke:#94A3B8;stroke-width:1;" x1="344.3164" x2="565.4561" y1="768.8281" y2="768.8281"/><text fill="#94A3B8" font-family="Segoe UI" font-size="12" lengthAdjust="spacing" textLength="170.373" x="351.3164" y="763.998">(NAT assigns 5.6.7.8:54321)</text><line style="stroke:#94A3B8;stroke-width:1;" x1="571.4561" x2="613.4561" y1="796.7969" y2="796.7969"/><line style="stroke:#94A3B8;stroke-width:1;" x1="613.4561" x2="613.4561" y1="796.7969" y2="809.7969"/><line style="stroke:#94A3B8;stroke-width:1;" x1="572.4561" x2="613.4561" y1="809.7969" y2="809.7969"/><polygon fill="#94A3B8" points="582.4561,805.7969,572.4561,809.7969,582.4561,813.7969,578.4561,809.7969" style="stroke:#94A3B8;stroke-width:1;"/><text fill="#94A3B8" font-family="Segoe UI" font-size="12" lengthAdjust="spacing" textLength="166.6758" x="578.4561" y="791.9668">Read source: 5.6.7.8:54321</text><polygon fill="#94A3B8" points="355.3164,861.7031,345.3164,865.7031,355.3164,869.7031,351.3164,865.7031" style="stroke:#94A3B8;stroke-width:1;"/><line style="stroke:#94A3B8;stroke-width:1;stroke-dasharray:2.0,2.0;" x1="349.3164" x2="570.4561" y1="865.7031" y2="865.7031"/><text fill="#94A3B8" font-family="Segoe UI" font-size="12" lengthAdjust="spacing" textLength="97.4648" x="361.3164" y="832.9355">Binding Success</text><text fill="#94A3B8" font-family="Segoe UI" font-size="12" lengthAdjust="spacing" textLength="146.4082" x="361.3164" y="846.9043">XOR-MAPPED-ADDRESS:</text><text fill="#94A3B8" font-family="Segoe UI" font-size="12" lengthAdjust="spacing" textLength="84.1992" x="368.9453" y="860.873">5.6.7.8:54321</text><polygon fill="#94A3B8" points="137.4395,889.6719,127.4395,893.6719,137.4395,897.6719,133.4395,893.6719" style="stroke:#94A3B8;stroke-width:1;"/><line style="stroke:#94A3B8;stroke-width:1;stroke-dasharray:2.0,2.0;" x1="131.4395" x2="343.3164" y1="893.6719" y2="893.6719"/><text fill="#94A3B8" font-family="Segoe UI" font-size="12" lengthAdjust="spacing" textLength="155.0801" x="143.4395" y="888.8418">(server-reflexive address)</text><path d="M10,906.6719 L10,957.6719 L242,957.6719 L242,916.6719 L232,906.6719 L10,906.6719 " fill="#1E293B" style="stroke:#334155;stroke-width:1;"/><path d="M232,906.6719 L232,916.6719 L242,916.6719 L232,906.6719 " fill="#1E293B" style="stroke:#334155;stroke-width:1;"/><text fill="#F8FAFC" font-family="Segoe UI" font-size="12" lengthAdjust="spacing" textLength="123.2871" x="16" y="922.8105">Browser now knows:</text><text fill="#F8FAFC" font-family="Segoe UI" font-size="12" lengthAdjust="spacing" textLength="211.8809" x="16" y="936.7793">host candidate: 192.168.1.5:54321</text><text fill="#F8FAFC" font-family="Segoe UI" font-size="12" lengthAdjust="spacing" textLength="181.2832" x="16" y="950.748">srflx candidate: 5.6.7.8:54321</text><polygon fill="#94A3B8" points="776.8291,979.5469,766.8291,983.5469,776.8291,987.5469,772.8291,983.5469" style="stroke:#94A3B8;stroke-width:1;"/><line style="stroke:#94A3B8;stroke-width:1;" x1="770.8291" x2="943.9092" y1="983.5469" y2="983.5469"/><text fill="#94A3B8" font-family="Segoe UI" font-size="12" lengthAdjust="spacing" textLength="134.9648" x="782.8291" y="978.7168">STUN Binding Request</text><polygon fill="#94A3B8" points="582.4561,1007.5156,572.4561,1011.5156,582.4561,1015.5156,578.4561,1011.5156" style="stroke:#94A3B8;stroke-width:1;"/><line style="stroke:#94A3B8;stroke-width:1;" x1="576.4561" x2="764.8291" y1="1011.5156" y2="1011.5156"/><text fill="#94A3B8" font-family="Segoe UI" font-size="12" lengthAdjust="spacing" textLength="170.373" x="588.4561" y="1006.6855">(NAT assigns 9.8.7.6:12345)</text><polygon fill="#94A3B8" points="753.8291,1063.4219,763.8291,1067.4219,753.8291,1071.4219,757.8291,1067.4219" style="stroke:#94A3B8;stroke-width:1;"/><line style="stroke:#94A3B8;stroke-width:1;stroke-dasharray:2.0,2.0;" x1="571.4561" x2="759.8291" y1="1067.4219" y2="1067.4219"/><text fill="#94A3B8" font-family="Segoe UI" font-size="12" lengthAdjust="spacing" textLength="97.4648" x="578.4561" y="1034.6543">Binding Success</text><text fill="#94A3B8" font-family="Segoe UI" font-size="12" lengthAdjust="spacing" textLength="146.4082" x="578.4561" y="1048.623">XOR-MAPPED-ADDRESS:</text><text fill="#94A3B8" font-family="Segoe UI" font-size="12" lengthAdjust="spacing" textLength="84.1992" x="586.085" y="1062.5918">9.8.7.6:12345</text><polygon fill="#94A3B8" points="932.9092,1091.3906,942.9092,1095.3906,932.9092,1099.3906,936.9092,1095.3906" style="stroke:#94A3B8;stroke-width:1;"/><line style="stroke:#94A3B8;stroke-width:1;stroke-dasharray:2.0,2.0;" x1="765.8291" x2="938.9092" y1="1095.3906" y2="1095.3906"/><text fill="#94A3B8" font-family="Segoe UI" font-size="12" lengthAdjust="spacing" textLength="155.0801" x="772.8291" y="1090.5605">(server-reflexive address)</text><rect fill="#334155" height="3" style="stroke:#334155;stroke-width:1;" width="1124.9033" x="5" y="1123.375"/><line style="stroke:#000000;stroke-width:0.5;" x1="5" x2="1129.9033" y1="1123.375" y2="1123.375"/><line style="stroke:#000000;stroke-width:0.5;" x1="5" x2="1129.9033" y1="1126.375" y2="1126.375"/><rect fill="#334155" height="21.9688" style="stroke:#000000;stroke-width:1;" width="198.7637" x="468.0698" y="1113.3906"/><text fill="#F8FAFC" font-family="Segoe UI" font-size="12" font-weight="bold" lengthAdjust="spacing" textLength="180.5859" x="474.0698" y="1128.5293">4. ICE Candidate Exchange</text><polygon fill="#94A3B8" points="437.9424,1161.3281,447.9424,1165.3281,437.9424,1169.3281,441.9424,1165.3281" style="stroke:#94A3B8;stroke-width:1;"/><line style="stroke:#94A3B8;stroke-width:1;" x1="126.4395" x2="443.9424" y1="1165.3281" y2="1165.3281"/><text fill="#94A3B8" font-family="Segoe UI" font-size="12" lengthAdjust="spacing" textLength="204.1816" x="133.4395" y="1160.498">candidate { srflx: 5.6.7.8:54321 }</text><polygon fill="#94A3B8" points="932.9092,1189.2969,942.9092,1193.2969,932.9092,1197.2969,936.9092,1193.2969" style="stroke:#94A3B8;stroke-width:1;"/><line style="stroke:#94A3B8;stroke-width:1;" x1="449.9424" x2="938.9092" y1="1193.2969" y2="1193.2969"/><text fill="#94A3B8" font-family="Segoe UI" font-size="12" lengthAdjust="spacing" textLength="109.5996" x="456.9424" y="1188.4668">forward candidate</text><polygon fill="#94A3B8" points="460.9424,1217.2656,450.9424,1221.2656,460.9424,1225.2656,456.9424,1221.2656" style="stroke:#94A3B8;stroke-width:1;"/><line style="stroke:#94A3B8;stroke-width:1;" x1="454.9424" x2="943.9092" y1="1221.2656" y2="1221.2656"/><text fill="#94A3B8" font-family="Segoe UI" font-size="12" lengthAdjust="spacing" textLength="204.1816" x="466.9424" y="1216.4355">candidate { srflx: 9.8.7.6:12345 }</text><polygon fill="#94A3B8" points="137.4395,1245.2344,127.4395,1249.2344,137.4395,1253.2344,133.4395,1249.2344" style="stroke:#94A3B8;stroke-width:1;"/><line style="stroke:#94A3B8;stroke-width:1;" x1="131.4395" x2="448.9424" y1="1249.2344" y2="1249.2344"/><text fill="#94A3B8" font-family="Segoe UI" font-size="12" lengthAdjust="spacing" textLength="109.5996" x="143.4395" y="1244.4043">forward candidate</text><rect fill="#334155" height="3" style="stroke:#334155;stroke-width:1;" width="1124.9033" x="5" y="1277.2188"/><line style="stroke:#000000;stroke-width:0.5;" x1="5" x2="1129.9033" y1="1277.2188" y2="1277.2188"/><line style="stroke:#000000;stroke-width:0.5;" x1="5" x2="1129.9033" y1="1280.2188" y2="1280.2188"/><rect fill="#334155" height="21.9688" style="stroke:#000000;stroke-width:1;" width="310.1914" x="412.356" y="1267.2344"/><text fill="#F8FAFC" font-family="Segoe UI" font-size="12" font-weight="bold" lengthAdjust="spacing" textLength="292.0137" x="418.356" y="1282.373">5. ICE Connectivity Checks (Hole Punching)</text><path d="M66,1304.2031 L66,1355.2031 L1004,1355.2031 L1004,1314.2031 L994,1304.2031 L66,1304.2031 " fill="#334155" style="stroke:#334155;stroke-width:1;"/><path d="M994,1304.2031 L994,1314.2031 L1004,1314.2031 L994,1304.2031 " fill="#334155" style="stroke:#334155;stroke-width:1;"/><text fill="#F8FAFC" font-family="Segoe UI" font-size="12" lengthAdjust="spacing" textLength="277.7168" x="391.8218" y="1320.3418">Both peers simultaneously send STUN binding</text><text fill="#F8FAFC" font-family="Segoe UI" font-size="12" lengthAdjust="spacing" textLength="270.7441" x="391.8218" y="1334.3105">requests to each other's reflexive addresses.</text><text fill="#F8FAFC" font-family="Segoe UI" font-size="12" lengthAdjust="spacing" textLength="210.0059" x="391.8218" y="1348.2793">This "punches holes" in both NATs.</text><polygon fill="#94A3B8" points="332.3164,1377.0781,342.3164,1381.0781,332.3164,1385.0781,336.3164,1381.0781" style="stroke:#94A3B8;stroke-width:1;"/><line style="stroke:#94A3B8;stroke-width:1;" x1="126.4395" x2="338.3164" y1="1381.0781" y2="1381.0781"/><text fill="#94A3B8" font-family="Segoe UI" font-size="12" lengthAdjust="spacing" textLength="142.4883" x="133.4395" y="1376.248">packet &#8594; 9.8.7.6:12345</text><polygon fill="#94A3B8" points="753.8291,1405.0469,763.8291,1409.0469,753.8291,1413.0469,757.8291,1409.0469" style="stroke:#94A3B8;stroke-width:1;"/><line style="stroke:#94A3B8;stroke-width:1;" x1="344.3164" x2="759.8291" y1="1409.0469" y2="1409.0469"/><text fill="#94A3B8" font-family="Segoe UI" font-size="12" lengthAdjust="spacing" textLength="239.4316" x="351.3164" y="1404.2168">(creates NAT mapping for return traffic)</text><polygon fill="#94A3B8" points="776.8291,1433.0156,766.8291,1437.0156,776.8291,1441.0156,772.8291,1437.0156" style="stroke:#94A3B8;stroke-width:1;"/><line style="stroke:#94A3B8;stroke-width:1;" x1="770.8291" x2="943.9092" y1="1437.0156" y2="1437.0156"/><text fill="#94A3B8" font-family="Segoe UI" font-size="12" lengthAdjust="spacing" textLength="142.4883" x="782.8291" y="1432.1855">packet &#8594; 5.6.7.8:54321</text><polygon fill="#94A3B8" points="355.3164,1460.9844,345.3164,1464.9844,355.3164,1468.9844,351.3164,1464.9844" style="stroke:#94A3B8;stroke-width:1;"/><line style="stroke:#94A3B8;stroke-width:1;" x1="349.3164" x2="764.8291" y1="1464.9844" y2="1464.9844"/><text fill="#94A3B8" font-family="Segoe UI" font-size="12" lengthAdjust="spacing" textLength="239.4316" x="361.3164" y="1460.1543">(creates NAT mapping for return traffic)</text><polygon fill="#94A3B8" points="137.4395,1488.9531,127.4395,1492.9531,137.4395,1496.9531,133.4395,1492.9531" style="stroke:#94A3B8;stroke-width:1;"/><line style="stroke:#94A3B8;stroke-width:1;stroke-dasharray:2.0,2.0;" x1="131.4395" x2="343.3164" y1="1492.9531" y2="1492.9531"/><text fill="#94A3B8" font-family="Segoe UI" font-size="12" lengthAdjust="spacing" textLength="139.7109" x="143.4395" y="1488.123">return traffic now flows</text><polygon fill="#94A3B8" points="932.9092,1516.9219,942.9092,1520.9219,932.9092,1524.9219,936.9092,1520.9219" style="stroke:#94A3B8;stroke-width:1;"/><line style="stroke:#94A3B8;stroke-width:1;stroke-dasharray:2.0,2.0;" x1="765.8291" x2="938.9092" y1="1520.9219" y2="1520.9219"/><text fill="#94A3B8" font-family="Segoe UI" font-size="12" lengthAdjust="spacing" textLength="139.7109" x="772.8291" y="1516.0918">return traffic now flows</text><path d="M66,1533.9219 L66,1570.9219 L1004,1570.9219 L1004,1543.9219 L994,1533.9219 L66,1533.9219 " fill="#334155" style="stroke:#334155;stroke-width:1;"/><path d="M994,1533.9219 L994,1543.9219 L1004,1543.9219 L994,1533.9219 " fill="#334155" style="stroke:#334155;stroke-width:1;"/><text fill="#F8FAFC" font-family="Segoe UI" font-size="12" lengthAdjust="spacing" textLength="183.6621" x="400.0688" y="1550.0605">Bidirectional path established!</text><text fill="#F8FAFC" font-family="Segoe UI" font-size="12" lengthAdjust="spacing" textLength="261.2227" x="400.0688" y="1564.0293">NAT mappings allow direct communication.</text><rect fill="#334155" height="3" style="stroke:#334155;stroke-width:1;" width="1124.9033" x="5" y="1596.8438"/><line style="stroke:#000000;stroke-width:0.5;" x1="5" x2="1129.9033" y1="1596.8438" y2="1596.8438"/><line style="stroke:#000000;stroke-width:0.5;" x1="5" x2="1129.9033" y1="1599.8438" y2="1599.8438"/><rect fill="#334155" height="21.9688" style="stroke:#000000;stroke-width:1;" width="168.7344" x="483.0845" y="1586.8594"/><text fill="#F8FAFC" font-family="Segoe UI" font-size="12" font-weight="bold" lengthAdjust="spacing" textLength="150.5566" x="489.0845" y="1601.998">6. DataChannel Opens</text><polygon fill="#94A3B8" points="137.4395,1634.7969,127.4395,1638.7969,137.4395,1642.7969,133.4395,1638.7969" style="stroke:#94A3B8;stroke-width:1;"/><polygon fill="#94A3B8" points="932.9092,1634.7969,942.9092,1638.7969,932.9092,1642.7969,936.9092,1638.7969" style="stroke:#94A3B8;stroke-width:1;"/><line style="stroke:#94A3B8;stroke-width:1;" x1="131.4395" x2="938.9092" y1="1638.7969" y2="1638.7969"/><text fill="#94A3B8" font-family="Segoe UI" font-size="12" font-weight="bold" lengthAdjust="spacing" textLength="158.209" x="143.4395" y="1633.9668">P2P DataChannel OPEN</text><polygon fill="#94A3B8" points="460.9424,1676.7344,450.9424,1680.7344,460.9424,1684.7344,456.9424,1680.7344" style="stroke:#94A3B8;stroke-width:1;"/><line style="stroke:#94A3B8;stroke-width:1;" x1="454.9424" x2="943.9092" y1="1680.7344" y2="1680.7344"/><text fill="#94A3B8" font-family="Segoe UI" font-size="12" lengthAdjust="spacing" textLength="75.832" x="466.9424" y="1661.9355">client_status</text><text fill="#94A3B8" font-family="Segoe UI" font-size="12" lengthAdjust="spacing" textLength="211.957" x="466.9424" y="1675.9043">{ clientId, connectionType: "p2p" }</text><path d="M328,1693.7344 L328,1744.7344 L571,1744.7344 L571,1703.7344 L561,1693.7344 L328,1693.7344 " fill="#1E293B" style="stroke:#334155;stroke-width:1;"/><path d="M561,1693.7344 L561,1703.7344 L571,1703.7344 L561,1693.7344 " fill="#1E293B" style="stroke:#334155;stroke-width:1;"/><text fill="#F8FAFC" font-family="Segoe UI" font-size="12" lengthAdjust="spacing" textLength="169.8633" x="334" y="1709.873">Ownership verified: only the</text><text fill="#F8FAFC" font-family="Segoe UI" font-size="12" lengthAdjust="spacing" textLength="222.3398" x="334" y="1723.8418">paired gateway can update a client's</text><text fill="#F8FAFC" font-family="Segoe UI" font-size="12" lengthAdjust="spacing" textLength="110.6191" x="334" y="1737.8105">connection status.</text><!--SRC=[bLRRRjj647tdLqpKXuYknKOtnoRg0BeuYO765YGPBL0NmOeSIWjJItPtQTar0lIf7r3q2_CbdLrI5rgKcpvOC7VEp9ovxhxI2rmYf37Zmj5SnmXNlIbC9Rj7gLWCN__y1pucT3pAHB3WOWxtdC5aUdC5tyFbuC9nr1qNAPDi2KyEm8m5TtEPP28S974YuRitKVDjYv4an8XbiNwV25s8ejE8HK5PTCM8Jcs2ymJXvh9M5axu7mZD5XrEyFSCHO0_yOZ-1FOJ6Q8ixBRRdMQtMuLwJgw9hRFsZ90Z9ZKFUCg4_ZPGoT_ij1MTb05LOVQaJ5R5uLc7aThwS0Uz4Lmb-WN2LbePj95KULydumFPImyRBiDUJEkGttCIxzaw1DndzSLnqctEeDQdN2YKjw8-Gsgsq3PZpwq1Kp3BPHkg9KMBip31TAyQC-5pGHqzGNblNIZxRLhwvqdkWawgLOD4PrAGJff83UtEszD2GMVYCA7-cb2_6lE1QLonntAq_TpoVBNHSSxFeUd1UzJ10gOtuoiOI0nHQCvY1UVdZhDEJUET3S673nTJ-665Cwc3Hf28Y0xhPcubnkpHTGoeGU2rdWzFDfGyDSTWWYt-lnLWFsy89sWsS-68ARMYtW0geA1-WuImnZSLVPTSfX0-VkeD6fEFlQPFmiouEuTCy8VF-91o-KY7ALcZmpvJUDAfR_1rXO54VMoLNDT1of1nPXFIyc0o7C5r5A7yeIVKYknUF0GB9kRuF2VRC0MkO3mTZD0qjH0OQ9w8-fC9aWUOXwny-DKa8u_qD_ZYLjiYRbI_8TDiG5u5nlNQGkkqGQhqKNjHozAkk_3rhxzD61KLL67wEJ4eKvemFOP89ilBa4WnEKTzQL9lo_ZEj8eFKI9NZ0goqNCSEbzB5UenBYbtGrI1vAaDsyBSMs58p56W96BAPfNPV59VBja3jDwyWPGIfjoroIt375Yck2MsZNgNNQvJdPrAdhc2QylUzlAxfq_ZOYRNN4z3hWBRVwDi5lC0Uc4eKUrDXbqCVbbzR1QKqewLcSZCFFjGDuD8JKaBGa7NE_7UUgT-jzDkDMbs36GB7IEZi99C1kYNeKu1tRfUUvraGK04RyKlr-F6fzveT35iz8R3ySLaufjMB9l9kPNIH9DXEhKXCOhnWTyZi3ncTtSS2pmDMB5MQNfMS4S_oepY8b4Q0aQKGYgy3yspbjSyEVMQNhVm3A1a53_iWihKjXEPDuPTTOTJt3-KuZFlbAoU-CrMkzDrItdh_u-ybSmK3jSJy5BAgAywdddCm60TwS5TalV-9YEczKsEdcNcm71krCgJL66j5CfB4xLZaiBe5c4Kk-sUwqSOB32uKr0llU9S6zTUhnpRUsTpV_SJlSXddvWkwH7612QPYXzfKAdqjiwpl3Y4bdcb5UW4aD5THTeeNolOopagZ_3J1LTGImqZsZiBegTgm0NCZ5Tg3m9j6sn_a5DwTg2sAtIlyBsTRgpdArVPstN9qjIq4gMFQ9a53rgoAEA1-wo9TyplpMD_XyQtcwyOv3B6pcSKa_1Pynw4_NS5USXbVitHqoTbb5ag4QCzgHOOlZBFnIrj1Imciv2hG90ibtHH1yneU-NhzyI3dPiFhbCKvONxuvhxqT6eDIg3HnTNHqVFHY3cz6RuJDHqHWF-L1oO2o_ONDJJnvHMK2rjfRMgXyVrYkumjU0fq1cFE8O-98AQbThGlZ8eh13c-QFB30vagPqwLdXxhGYsTGSvcvt8_mK0]--></g></svg>