<svg xmlns="http://www.w3.org/2000/svg" xmlns:xlink="http://www.w3.org/1999/xlink" contentStyleType="text/css" height="905px" preserveAspectRatio="none" style="width:880px;height:905px;background:#0F172A;" version="1.1" viewBox="0 0 880 905" width="880px" zoomAndPan="magnify"><title>HTTP Relay &#8212; Request Tunneling via WebSocket</title><defs/><g><rect fill="#0F172A" height="905" style="stroke:none;stroke-width:1;" width="880" x="0" y="0"/><text fill="#F8FAFC" font-family="Segoe UI" font-size="22" font-weight="bold" lengthAdjust="spacing" textLength="602.0352" x="137.9219" y="35.4209">HTTP Relay &#8212; Request Tunneling via WebSocket</text><rect fill="#1E293B" height="360.4688" style="stroke:#334155;stroke-width:1;" width="10" x="358.7441" y="404.2031"/><rect fill="#1E293B" height="207.6875" style="stroke:#334155;stroke-width:1;" width="10" x="610.291" y="529.0156"/><line style="stroke:#334155;stroke-width:1;" x1="51" x2="51" y1="94.5469" y2="858.5469"/><line style="stroke:#334155;stroke-width:1;" x1="363.7305" x2="363.7305" y1="94.5469" y2="858.5469"/><line style="stroke:#334155;stroke-width:1;" x1="614.7861" x2="614.7861" y1="94.5469" y2="858.5469"/><line style="stroke:#334155;stroke-width:1;" x1="811.8828" x2="811.8828" y1="94.5469" y2="858.5469"/><rect fill="#1E293B" height="27.9688" rx="2.5" ry="2.5" style="stroke:#3B82F6;stroke-width:1;" width="62.8906" x="20" y="65.5781"/><text fill="#F8FAFC" font-family="Segoe UI" font-size="12" lengthAdjust="spacing" textLength="48.8906" x="27" y="83.7168">Browser</text><rect fill="#1E293B" height="27.9688" rx="2.5" ry="2.5" style="stroke:#3B82F6;stroke-width:1;" width="62.8906" x="20" y="857.5469"/><text fill="#F8FAFC" font-family="Segoe UI" font-size="12" lengthAdjust="spacing" textLength="48.8906" x="27" y="875.6855">Browser</text><rect fill="#1E293B" height="41.9375" rx="2.5" ry="2.5" style="stroke:#3B82F6;stroke-width:1;" width="94.0273" x="316.7305" y="51.6094"/><text fill="#F8FAFC" font-family="Segoe UI" font-size="12" lengthAdjust="spacing" textLength="80.0273" x="323.7305" y="69.748">Signal Server</text><text fill="#F8FAFC" font-family="Segoe UI" font-size="12" lengthAdjust="spacing" textLength="77.4492" x="325.0195" y="83.7168">(HTTP + WS)</text><rect fill="#1E293B" height="41.9375" rx="2.5" ry="2.5" style="stroke:#3B82F6;stroke-width:1;" width="94.0273" x="316.7305" y="857.5469"/><text fill="#F8FAFC" font-family="Segoe UI" font-size="12" lengthAdjust="spacing" textLength="80.0273" x="323.7305" y="875.6855">Signal Server</text><text fill="#F8FAFC" font-family="Segoe UI" font-size="12" lengthAdjust="spacing" textLength="77.4492" x="325.0195" y="889.6543">(HTTP + WS)</text><rect fill="#1E293B" height="27.9688" rx="2.5" ry="2.5" style="stroke:#3B82F6;stroke-width:1;" width="67.0098" x="581.7861" y="65.5781"/><text fill="#F8FAFC" font-family="Segoe UI" font-size="12" lengthAdjust="spacing" textLength="53.0098" x="588.7861" y="83.7168">Gateway</text><rect fill="#1E293B" height="27.9688" rx="2.5" ry="2.5" style="stroke:#3B82F6;stroke-width:1;" width="67.0098" x="581.7861" y="857.5469"/><text fill="#F8FAFC" font-family="Segoe UI" font-size="12" lengthAdjust="spacing" textLength="53.0098" x="588.7861" y="875.6855">Gateway</text><rect fill="#1E293B" height="27.9688" rx="2.5" ry="2.5" style="stroke:#3B82F6;stroke-width:1;" width="92.9961" x="765.8828" y="65.5781"/><text fill="#F8FAFC" font-family="Segoe UI" font-size="12" lengthAdjust="spacing" textLength="78.9961" x="772.8828" y="83.7168">Backend App</text><rect fill="#1E293B" height="27.9688" rx="2.5" ry="2.5" style="stroke:#3B82F6;stroke-width:1;" width="92.9961" x="765.8828" y="857.5469"/><text fill="#F8FAFC" font-family="Segoe UI" font-size="12" lengthAdjust="spacing" textLength="78.9961" x="772.8828" y="875.6855">Backend App</text><rect fill="#1E293B" height="360.4688" style="stroke:#334155;stroke-width:1;" width="10" x="358.7441" y="404.2031"/><rect fill="#1E293B" height="207.6875" style="stroke:#334155;stroke-width:1;" width="10" x="610.291" y="529.0156"/><rect fill="#334155" height="3" style="stroke:#334155;stroke-width:1;" width="868.8789" x="5" y="124.5313"/><line style="stroke:#000000;stroke-width:0.5;" x1="5" x2="873.8789" y1="124.5313" y2="124.5313"/><line style="stroke:#000000;stroke-width:0.5;" x1="5" x2="873.8789" y1="127.5313" y2="127.5313"/><rect fill="#334155" height="21.9688" style="stroke:#000000;stroke-width:1;" width="126.043" x="376.418" y="114.5469"/><text fill="#F8FAFC" font-family="Segoe UI" font-size="12" font-weight="bold" lengthAdjust="spacing" textLength="107.8652" x="382.418" y="129.6855">Portal Selection</text><polygon fill="#94A3B8" points="351.7441,162.4844,361.7441,166.4844,351.7441,170.4844,355.7441,166.4844" style="stroke:#94A3B8;stroke-width:1;"/><line style="stroke:#94A3B8;stroke-width:1;" x1="51.4453" x2="357.7441" y1="166.4844" y2="166.4844"/><text fill="#94A3B8" font-family="Segoe UI" font-size="12" lengthAdjust="spacing" textLength="67.3535" x="58.4453" y="161.6543">GET /portal</text><polygon fill="#94A3B8" points="62.4453,190.4531,52.4453,194.4531,62.4453,198.4531,58.4453,194.4531" style="stroke:#94A3B8;stroke-width:1;"/><line style="stroke:#94A3B8;stroke-width:1;stroke-dasharray:2.0,2.0;" x1="56.4453" x2="362.7441" y1="194.4531" y2="194.4531"/><text fill="#94A3B8" font-family="Segoe UI" font-size="12" lengthAdjust="spacing" textLength="66.4336" x="68.4453" y="189.623">portal.html</text><polygon fill="#94A3B8" points="351.7441,218.4219,361.7441,222.4219,351.7441,226.4219,355.7441,222.4219" style="stroke:#94A3B8;stroke-width:1;"/><line style="stroke:#94A3B8;stroke-width:1;" x1="51.4453" x2="357.7441" y1="222.4219" y2="222.4219"/><text fill="#94A3B8" font-family="Segoe UI" font-size="12" lengthAdjust="spacing" textLength="111.9961" x="58.4453" y="217.5918">GET /api/gateways</text><polygon fill="#94A3B8" points="62.4453,246.3906,52.4453,250.3906,62.4453,254.3906,58.4453,250.3906" style="stroke:#94A3B8;stroke-width:1;"/><line style="stroke:#94A3B8;stroke-width:1;stroke-dasharray:2.0,2.0;" x1="56.4453" x2="362.7441" y1="250.3906" y2="250.3906"/><text fill="#94A3B8" font-family="Segoe UI" font-size="12" lengthAdjust="spacing" textLength="282.1934" x="68.4453" y="245.5605">{ gateways: [{ id, displayName, backends }] }</text><polygon fill="#94A3B8" points="351.7441,274.3594,361.7441,278.3594,351.7441,282.3594,355.7441,278.3594" style="stroke:#94A3B8;stroke-width:1;"/><line style="stroke:#94A3B8;stroke-width:1;" x1="51.4453" x2="357.7441" y1="278.3594" y2="278.3594"/><text fill="#94A3B8" font-family="Segoe UI" font-size="12" lengthAdjust="spacing" textLength="288.2988" x="58.4453" y="273.5293">GET /api/select?gateway=gw-x&amp;backend=App1</text><polygon fill="#94A3B8" points="62.4453,316.2969,52.4453,320.2969,62.4453,324.2969,58.4453,320.2969" style="stroke:#94A3B8;stroke-width:1;"/><line style="stroke:#94A3B8;stroke-width:1;stroke-dasharray:2.0,2.0;" x1="56.4453" x2="362.7441" y1="320.2969" y2="320.2969"/><text fill="#94A3B8" font-family="Segoe UI" font-size="12" lengthAdjust="spacing" textLength="89.543" x="68.4453" y="301.498">302 /__b/App1/</text><text fill="#94A3B8" font-family="Segoe UI" font-size="12" lengthAdjust="spacing" textLength="198.9727" x="68.4453" y="315.4668">Set-Cookie: gateway_relay=gw-x</text><rect fill="#334155" height="3" style="stroke:#334155;stroke-width:1;" width="868.8789" x="5" y="348.2813"/><line style="stroke:#000000;stroke-width:0.5;" x1="5" x2="873.8789" y1="348.2813" y2="348.2813"/><line style="stroke:#000000;stroke-width:0.5;" x1="5" x2="873.8789" y1="351.2813" y2="351.2813"/><rect fill="#334155" height="21.9688" style="stroke:#000000;stroke-width:1;" width="313.1504" x="282.8643" y="338.2969"/><text fill="#F8FAFC" font-family="Segoe UI" font-size="12" font-weight="bold" lengthAdjust="spacing" textLength="294.9727" x="288.8643" y="353.4355">HTTP Relay (every request before WebRTC)</text><polygon fill="#94A3B8" points="346.7441,400.2031,356.7441,404.2031,346.7441,408.2031,350.7441,404.2031" style="stroke:#94A3B8;stroke-width:1;"/><line style="stroke:#94A3B8;stroke-width:1;" x1="51.4453" x2="352.7441" y1="404.2031" y2="404.2031"/><text fill="#94A3B8" font-family="Segoe UI" font-size="12" lengthAdjust="spacing" textLength="154.541" x="58.4453" y="385.4043">GET /__b/App1/dashboard</text><text fill="#94A3B8" font-family="Segoe UI" font-size="12" lengthAdjust="spacing" textLength="174.9375" x="58.4453" y="399.373">Cookie: gateway_relay=gw-x</text><line style="stroke:#94A3B8;stroke-width:1;" x1="368.7441" x2="410.7441" y1="446.1406" y2="446.1406"/><line style="stroke:#94A3B8;stroke-width:1;" x1="410.7441" x2="410.7441" y1="446.1406" y2="459.1406"/><line style="stroke:#94A3B8;stroke-width:1;" x1="369.7441" x2="410.7441" y1="459.1406" y2="459.1406"/><polygon fill="#94A3B8" points="379.7441,455.1406,369.7441,459.1406,379.7441,463.1406,375.7441,459.1406" style="stroke:#94A3B8;stroke-width:1;"/><text fill="#94A3B8" font-family="Segoe UI" font-size="12" lengthAdjust="spacing" textLength="131.2793" x="375.7441" y="427.3418">Cookie lookup &#8594; gw-x</text><text fill="#94A3B8" font-family="Segoe UI" font-size="12" lengthAdjust="spacing" textLength="106.0313" x="375.7441" y="441.3105">Body limit: 10 MB</text><polygon fill="#94A3B8" points="598.291,525.0156,608.291,529.0156,598.291,533.0156,602.291,529.0156" style="stroke:#94A3B8;stroke-width:1;"/><line style="stroke:#94A3B8;stroke-width:1;" x1="368.7441" x2="604.291" y1="529.0156" y2="529.0156"/><text fill="#94A3B8" font-family="Segoe UI" font-size="12" lengthAdjust="spacing" textLength="103.8516" x="375.7441" y="482.2793">WS: http_request</text><text fill="#94A3B8" font-family="Segoe UI" font-size="12" lengthAdjust="spacing" textLength="180.3164" x="375.7441" y="496.248">{ id: "uuid-1", method: "GET",</text><text fill="#94A3B8" font-family="Segoe UI" font-size="12" lengthAdjust="spacing" textLength="165.0996" x="383.373" y="510.2168">url: "/__b/App1/dashboard",</text><text fill="#94A3B8" font-family="Segoe UI" font-size="12" lengthAdjust="spacing" textLength="150.75" x="383.373" y="524.1855">headers: {...}, body: "" }</text><line style="stroke:#94A3B8;stroke-width:1;" x1="620.291" x2="662.291" y1="584.9219" y2="584.9219"/><line style="stroke:#94A3B8;stroke-width:1;" x1="662.291" x2="662.291" y1="584.9219" y2="597.9219"/><line style="stroke:#94A3B8;stroke-width:1;" x1="621.291" x2="662.291" y1="597.9219" y2="597.9219"/><polygon fill="#94A3B8" points="631.291,593.9219,621.291,597.9219,631.291,601.9219,627.291,597.9219" style="stroke:#94A3B8;stroke-width:1;"/><text fill="#94A3B8" font-family="Segoe UI" font-size="12" lengthAdjust="spacing" textLength="142.4297" x="627.291" y="552.1543">HTTP to 127.0.0.1:7891</text><text fill="#94A3B8" font-family="Segoe UI" font-size="12" lengthAdjust="spacing" textLength="163.0898" x="627.291" y="566.123">Validate method (whitelist)</text><text fill="#94A3B8" font-family="Segoe UI" font-size="12" lengthAdjust="spacing" textLength="125.6074" x="627.291" y="580.0918">30 s request timeout</text><line style="stroke:#94A3B8;stroke-width:1;" x1="620.291" x2="662.291" y1="653.8281" y2="653.8281"/><line style="stroke:#94A3B8;stroke-width:1;" x1="662.291" x2="662.291" y1="653.8281" y2="666.8281"/><line style="stroke:#94A3B8;stroke-width:1;" x1="621.291" x2="662.291" y1="666.8281" y2="666.8281"/><polygon fill="#94A3B8" points="631.291,662.8281,621.291,666.8281,631.291,670.8281,627.291,666.8281" style="stroke:#94A3B8;stroke-width:1;"/><text fill="#94A3B8" font-family="Segoe UI" font-size="12" lengthAdjust="spacing" textLength="129.2109" x="627.291" y="621.0605">Strip /__b/App1 prefix</text><text fill="#94A3B8" font-family="Segoe UI" font-size="12" lengthAdjust="spacing" textLength="142.7988" x="627.291" y="635.0293">Check JWT &#8594; not auth'd</text><text fill="#94A3B8" font-family="Segoe UI" font-size="12" lengthAdjust="spacing" textLength="105.1758" x="627.291" y="648.998">&#8594; 302 /auth/login</text><polygon fill="#94A3B8" points="379.7441,732.7031,369.7441,736.7031,379.7441,740.7031,375.7441,736.7031" style="stroke:#94A3B8;stroke-width:1;"/><line style="stroke:#94A3B8;stroke-width:1;stroke-dasharray:2.0,2.0;" x1="373.7441" x2="614.291" y1="736.7031" y2="736.7031"/><text fill="#94A3B8" font-family="Segoe UI" font-size="12" lengthAdjust="spacing" textLength="112.7402" x="385.7441" y="689.9668">WS: http_response</text><text fill="#94A3B8" font-family="Segoe UI" font-size="12" lengthAdjust="spacing" textLength="189.2227" x="385.7441" y="703.9355">{ id: "uuid-1", statusCode: 302,</text><text fill="#94A3B8" font-family="Segoe UI" font-size="12" lengthAdjust="spacing" textLength="209.918" x="393.373" y="717.9043">headers: {Location: "/auth/login"},</text><text fill="#94A3B8" font-family="Segoe UI" font-size="12" lengthAdjust="spacing" textLength="60.0234" x="393.373" y="731.873">body: "" }</text><polygon fill="#94A3B8" points="62.4453,760.6719,52.4453,764.6719,62.4453,768.6719,58.4453,764.6719" style="stroke:#94A3B8;stroke-width:1;"/><line style="stroke:#94A3B8;stroke-width:1;stroke-dasharray:2.0,2.0;" x1="56.4453" x2="362.7441" y1="764.6719" y2="764.6719"/><text fill="#94A3B8" font-family="Segoe UI" font-size="12" lengthAdjust="spacing" textLength="126.041" x="68.4453" y="759.8418">HTTP 302 /auth/login</text><path d="M194,777.6719 L194,842.6719 L532,842.6719 L532,787.6719 L522,777.6719 L194,777.6719 " fill="#1E293B" style="stroke:#334155;stroke-width:1;"/><path d="M522,777.6719 L522,787.6719 L532,787.6719 L522,777.6719 " fill="#1E293B" style="stroke:#334155;stroke-width:1;"/><text fill="#F8FAFC" font-family="Segoe UI" font-size="12" lengthAdjust="spacing" textLength="185.1563" x="200" y="793.8105">30 s relay timeout &#8594; HTTP 504</text><text fill="#F8FAFC" font-family="Segoe UI" font-size="12" lengthAdjust="spacing" textLength="171.5156" x="200" y="807.7793">Max 5 000 pending requests</text><text fill="#F8FAFC" font-family="Segoe UI" font-size="12" lengthAdjust="spacing" textLength="247.0957" x="200" y="821.748">Session affinity via gateway_relay cookie</text><text fill="#F8FAFC" font-family="Segoe UI" font-size="12" lengthAdjust="spacing" textLength="317.2266" x="200" y="835.7168">Pending requests cleaned up on gateway disconnect</text><!--SRC=[ZLNTRkj44BxtKmn6WbOqYPEqjBKKq6c00Zhdg3e9z8AWQcEFxLMSNRExRawe8d750o2Uy3m9isixFwqReIXATkURcM- -dPtzp6IuH2XoneLdkCaHVfnEx-03vcmDd_xwb_xzKQ8sC2s5m9oB51uvWtkSJsIqGEDvUi55mHHRmfC7C6VH8bMo5F5OvbB1vq7IlnmmiiIOi38tFqXXQbDobR0aEZIzPqJ7ds0g4NxvoJyqJlYV2Fq1RKuiAn7XMvxGL-2DL36gEkvmUDw_k6X3FIVNny7rS4x8EwOCZtZ1XFb_e8Dyywj1ylKXeAtCDqh9LRrvVSx8hTdSGsyDxwKvGjXPMuksbhRiZHYt5AzuFV0XxAYit_57JkONiLu3lcIryRnYfnduDwI5HkK3qp2l_c-f7G0dF1KifmJg4TLCdBYc_Ghk9wVELvjIj3lUCeChjdQeTDMEiGMXYE5DKLHCwdK3zaOZk9FAE08vHePB0QEHvpMKEzzK34Au_NuAlS9XFRVL8Li32w6oT3Epp5_rPWNlfHLhtHRZ2Hfh2Byz0O_F8EQQRlJQtgMpXhs6pU-mEPf5ksA-hSEDqbNdunUrzuYqwBTb7mO3w3qyp7iMq9k92PhEMCe5nx3XzQ3iC77Xd7Hx0-O4wVZMeEePCyT4AhJ3vSDqV7fCqct6cEbiBfcAP-98MaPdz4ZRBePNrx6DM3b2JZzb0P_-_WUiqqpSo7WDELzo4q8_W7StEqzgdP2wBOJCcEAXvZyJLluG_BBaSQVldy4IJIRj3f7spsO2e5GvBLluL-OC6LqKEicdRhUxeSCZ2eJtwUIsDQGhpwFy3Gidfv4q5o-x0NtwuUNLTNycVcKvZos-8W4dgumRck3QdCx4C02zbTtm9ShI74IT6CMBdSvGA4muQJBEC5h0p_TJfvEG1bXfiYz9VhjstM0tUhbCwKLn4NT2xmcc2oaqlbHC6sPAFPOnkjvw9ifR6J5xswo4kpJ-ni7sj8hnGAsMldMgFQUxvrOr2jM78Ab7gpL0hPljtLerfuEBTX6S4-8T-mWN40G157Hlx7jPowpTGDJQ3WkM95nmitPlwK6_GkIQqJucpzmXof49Z85wb4BKNlQkHvAUviXuTaPPnjv_]--></g></svg>