<svg xmlns="http://www.w3.org/2000/svg" xmlns:xlink="http://www.w3.org/1999/xlink" contentStyleType="text/css" height="905px" preserveAspectRatio="none" style="width:854px;height:905px;background:#0F172A;" version="1.1" viewBox="0 0 854 905" width="854px" zoomAndPan="magnify"><title>HTTP Relay &#8212; Request Tunneling via WebSocket</title><defs/><g><rect fill="#0F172A" height="905" style="stroke:none;stroke-width:1;" width="854" x="0" y="0"/><text fill="#F8FAFC" font-family="Segoe UI" font-size="22" font-weight="bold" lengthAdjust="spacing" textLength="602.0352" x="124.9346" y="35.4209">HTTP Relay &#8212; Request Tunneling via WebSocket</text><rect fill="#1E293B" height="360.4688" style="stroke:#334155;stroke-width:1;" width="10" x="332.7695" y="404.2031"/><rect fill="#1E293B" height="207.6875" style="stroke:#334155;stroke-width:1;" width="10" x="584.3164" y="529.0156"/><line style="stroke:#334155;stroke-width:1;" x1="51" x2="51" y1="94.5469" y2="858.5469"/><line style="stroke:#334155;stroke-width:1;" x1="337.0449" x2="337.0449" y1="94.5469" y2="858.5469"/><line style="stroke:#334155;stroke-width:1;" x1="588.8281" x2="588.8281" y1="94.5469" y2="858.5469"/><line style="stroke:#334155;stroke-width:1;" x1="785.9082" x2="785.9082" y1="94.5469" y2="858.5469"/><rect fill="#1E293B" height="27.9688" rx="2.5" ry="2.5" style="stroke:#3B82F6;stroke-width:1;" width="62.8906" x="20" y="65.5781"/><text fill="#F8FAFC" font-family="Segoe UI" font-size="12" lengthAdjust="spacing" textLength="48.8906" x="27" y="83.7168">Browser</text><rect fill="#1E293B" height="27.9688" rx="2.5" ry="2.5" style="stroke:#3B82F6;stroke-width:1;" width="62.8906" x="20" y="857.5469"/><text fill="#F8FAFC" font-family="Segoe UI" font-size="12" lengthAdjust="spacing" textLength="48.8906" x="27" y="875.6855">Browser</text><rect fill="#1E293B" height="41.9375" rx="2.5" ry="2.5" style="stroke:#3B82F6;stroke-width:1;" width="91.4492" x="292.0449" y="51.6094"/><text fill="#F8FAFC" font-family="Segoe UI" font-size="12" lengthAdjust="spacing" textLength="75.873" x="299.833" y="69.748">STUN Server</text><text fill="#F8FAFC" font-family="Segoe UI" font-size="12" lengthAdjust="spacing" textLength="77.4492" x="299.0449" y="83.7168">(HTTP + WS)</text><rect fill="#1E293B" height="41.9375" rx="2.5" ry="2.5" style="stroke:#3B82F6;stroke-width:1;" width="91.4492" x="292.0449" y="857.5469"/><text fill="#F8FAFC" font-family="Segoe UI" font-size="12" lengthAdjust="spacing" textLength="75.873" x="299.833" y="875.6855">STUN Server</text><text fill="#F8FAFC" font-family="Segoe UI" font-size="12" lengthAdjust="spacing" textLength="77.4492" x="299.0449" y="889.6543">(HTTP + WS)</text><rect fill="#1E293B" height="27.9688" rx="2.5" ry="2.5" style="stroke:#3B82F6;stroke-width:1;" width="40.9766" x="568.8281" y="65.5781"/><text fill="#F8FAFC" font-family="Segoe UI" font-size="12" lengthAdjust="spacing" textLength="26.9766" x="575.8281" y="83.7168">WAF</text><rect fill="#1E293B" height="27.9688" rx="2.5" ry="2.5" style="stroke:#3B82F6;stroke-width:1;" width="40.9766" x="568.8281" y="857.5469"/><text fill="#F8FAFC" font-family="Segoe UI" font-size="12" lengthAdjust="spacing" textLength="26.9766" x="575.8281" y="875.6855">WAF</text><rect fill="#1E293B" height="27.9688" rx="2.5" ry="2.5" style="stroke:#3B82F6;stroke-width:1;" width="92.9961" x="739.9082" y="65.5781"/><text fill="#F8FAFC" font-family="Segoe UI" font-size="12" lengthAdjust="spacing" textLength="78.9961" x="746.9082" y="83.7168">Backend App</text><rect fill="#1E293B" height="27.9688" rx="2.5" ry="2.5" style="stroke:#3B82F6;stroke-width:1;" width="92.9961" x="739.9082" y="857.5469"/><text fill="#F8FAFC" font-family="Segoe UI" font-size="12" lengthAdjust="spacing" textLength="78.9961" x="746.9082" y="875.6855">Backend App</text><rect fill="#1E293B" height="360.4688" style="stroke:#334155;stroke-width:1;" width="10" x="332.7695" y="404.2031"/><rect fill="#1E293B" height="207.6875" style="stroke:#334155;stroke-width:1;" width="10" x="584.3164" y="529.0156"/><rect fill="#334155" height="3" style="stroke:#334155;stroke-width:1;" width="842.9043" x="5" y="124.5313"/><line style="stroke:#000000;stroke-width:0.5;" x1="5" x2="847.9043" y1="124.5313" y2="124.5313"/><line style="stroke:#000000;stroke-width:0.5;" x1="5" x2="847.9043" y1="127.5313" y2="127.5313"/><rect fill="#334155" height="21.9688" style="stroke:#000000;stroke-width:1;" width="126.043" x="363.4307" y="114.5469"/><text fill="#F8FAFC" font-family="Segoe UI" font-size="12" font-weight="bold" lengthAdjust="spacing" textLength="107.8652" x="369.4307" y="129.6855">Portal Selection</text><polygon fill="#94A3B8" points="325.7695,162.4844,335.7695,166.4844,325.7695,170.4844,329.7695,166.4844" style="stroke:#94A3B8;stroke-width:1;"/><line style="stroke:#94A3B8;stroke-width:1;" x1="51.4453" x2="331.7695" y1="166.4844" y2="166.4844"/><text fill="#94A3B8" font-family="Segoe UI" font-size="12" lengthAdjust="spacing" textLength="67.3535" x="58.4453" y="161.6543">GET /portal</text><polygon fill="#94A3B8" points="62.4453,190.4531,52.4453,194.4531,62.4453,198.4531,58.4453,194.4531" style="stroke:#94A3B8;stroke-width:1;"/><line style="stroke:#94A3B8;stroke-width:1;stroke-dasharray:2.0,2.0;" x1="56.4453" x2="336.7695" y1="194.4531" y2="194.4531"/><text fill="#94A3B8" font-family="Segoe UI" font-size="12" lengthAdjust="spacing" textLength="66.4336" x="68.4453" y="189.623">portal.html</text><polygon fill="#94A3B8" points="325.7695,218.4219,335.7695,222.4219,325.7695,226.4219,329.7695,222.4219" style="stroke:#94A3B8;stroke-width:1;"/><line style="stroke:#94A3B8;stroke-width:1;" x1="51.4453" x2="331.7695" y1="222.4219" y2="222.4219"/><text fill="#94A3B8" font-family="Segoe UI" font-size="12" lengthAdjust="spacing" textLength="82.0605" x="58.4453" y="217.5918">GET /api/wafs</text><polygon fill="#94A3B8" points="62.4453,246.3906,52.4453,250.3906,62.4453,254.3906,58.4453,250.3906" style="stroke:#94A3B8;stroke-width:1;"/><line style="stroke:#94A3B8;stroke-width:1;stroke-dasharray:2.0,2.0;" x1="56.4453" x2="336.7695" y1="250.3906" y2="250.3906"/><text fill="#94A3B8" font-family="Segoe UI" font-size="12" lengthAdjust="spacing" textLength="252.2578" x="68.4453" y="245.5605">{ wafs: [{ id, displayName, backends }] }</text><polygon fill="#94A3B8" points="325.7695,274.3594,335.7695,278.3594,325.7695,282.3594,329.7695,278.3594" style="stroke:#94A3B8;stroke-width:1;"/><line style="stroke:#94A3B8;stroke-width:1;" x1="51.4453" x2="331.7695" y1="278.3594" y2="278.3594"/><text fill="#94A3B8" font-family="Segoe UI" font-size="12" lengthAdjust="spacing" textLength="262.3242" x="58.4453" y="273.5293">GET /api/select?waf=waf-x&amp;backend=App1</text><polygon fill="#94A3B8" points="62.4453,316.2969,52.4453,320.2969,62.4453,324.2969,58.4453,320.2969" style="stroke:#94A3B8;stroke-width:1;"/><line style="stroke:#94A3B8;stroke-width:1;stroke-dasharray:2.0,2.0;" x1="56.4453" x2="336.7695" y1="320.2969" y2="320.2969"/><text fill="#94A3B8" font-family="Segoe UI" font-size="12" lengthAdjust="spacing" textLength="89.543" x="68.4453" y="301.498">302 /__b/App1/</text><text fill="#94A3B8" font-family="Segoe UI" font-size="12" lengthAdjust="spacing" textLength="172.998" x="68.4453" y="315.4668">Set-Cookie: waf_relay=waf-x</text><rect fill="#334155" height="3" style="stroke:#334155;stroke-width:1;" width="842.9043" x="5" y="348.2813"/><line style="stroke:#000000;stroke-width:0.5;" x1="5" x2="847.9043" y1="348.2813" y2="348.2813"/><line style="stroke:#000000;stroke-width:0.5;" x1="5" x2="847.9043" y1="351.2813" y2="351.2813"/><rect fill="#334155" height="21.9688" style="stroke:#000000;stroke-width:1;" width="313.1504" x="269.877" y="338.2969"/><text fill="#F8FAFC" font-family="Segoe UI" font-size="12" font-weight="bold" lengthAdjust="spacing" textLength="294.9727" x="275.877" y="353.4355">HTTP Relay (every request before WebRTC)</text><polygon fill="#94A3B8" points="320.7695,400.2031,330.7695,404.2031,320.7695,408.2031,324.7695,404.2031" style="stroke:#94A3B8;stroke-width:1;"/><line style="stroke:#94A3B8;stroke-width:1;" x1="51.4453" x2="326.7695" y1="404.2031" y2="404.2031"/><text fill="#94A3B8" font-family="Segoe UI" font-size="12" lengthAdjust="spacing" textLength="154.541" x="58.4453" y="385.4043">GET /__b/App1/dashboard</text><text fill="#94A3B8" font-family="Segoe UI" font-size="12" lengthAdjust="spacing" textLength="148.9629" x="58.4453" y="399.373">Cookie: waf_relay=waf-x</text><line style="stroke:#94A3B8;stroke-width:1;" x1="342.7695" x2="384.7695" y1="446.1406" y2="446.1406"/><line style="stroke:#94A3B8;stroke-width:1;" x1="384.7695" x2="384.7695" y1="446.1406" y2="459.1406"/><line style="stroke:#94A3B8;stroke-width:1;" x1="343.7695" x2="384.7695" y1="459.1406" y2="459.1406"/><polygon fill="#94A3B8" points="353.7695,455.1406,343.7695,459.1406,353.7695,463.1406,349.7695,459.1406" style="stroke:#94A3B8;stroke-width:1;"/><text fill="#94A3B8" font-family="Segoe UI" font-size="12" lengthAdjust="spacing" textLength="135.2402" x="349.7695" y="427.3418">Cookie lookup &#8594; waf-x</text><text fill="#94A3B8" font-family="Segoe UI" font-size="12" lengthAdjust="spacing" textLength="106.0313" x="349.7695" y="441.3105">Body limit: 10 MB</text><polygon fill="#94A3B8" points="572.3164,525.0156,582.3164,529.0156,572.3164,533.0156,576.3164,529.0156" style="stroke:#94A3B8;stroke-width:1;"/><line style="stroke:#94A3B8;stroke-width:1;" x1="342.7695" x2="578.3164" y1="529.0156" y2="529.0156"/><text fill="#94A3B8" font-family="Segoe UI" font-size="12" lengthAdjust="spacing" textLength="103.8516" x="349.7695" y="482.2793">WS: http_request</text><text fill="#94A3B8" font-family="Segoe UI" font-size="12" lengthAdjust="spacing" textLength="180.3164" x="349.7695" y="496.248">{ id: "uuid-1", method: "GET",</text><text fill="#94A3B8" font-family="Segoe UI" font-size="12" lengthAdjust="spacing" textLength="165.0996" x="357.3984" y="510.2168">url: "/__b/App1/dashboard",</text><text fill="#94A3B8" font-family="Segoe UI" font-size="12" lengthAdjust="spacing" textLength="150.75" x="357.3984" y="524.1855">headers: {...}, body: "" }</text><line style="stroke:#94A3B8;stroke-width:1;" x1="594.3164" x2="636.3164" y1="584.9219" y2="584.9219"/><line style="stroke:#94A3B8;stroke-width:1;" x1="636.3164" x2="636.3164" y1="584.9219" y2="597.9219"/><line style="stroke:#94A3B8;stroke-width:1;" x1="595.3164" x2="636.3164" y1="597.9219" y2="597.9219"/><polygon fill="#94A3B8" points="605.3164,593.9219,595.3164,597.9219,605.3164,601.9219,601.3164,597.9219" style="stroke:#94A3B8;stroke-width:1;"/><text fill="#94A3B8" font-family="Segoe UI" font-size="12" lengthAdjust="spacing" textLength="142.4297" x="601.3164" y="552.1543">HTTP to 127.0.0.1:7891</text><text fill="#94A3B8" font-family="Segoe UI" font-size="12" lengthAdjust="spacing" textLength="163.0898" x="601.3164" y="566.123">Validate method (whitelist)</text><text fill="#94A3B8" font-family="Segoe UI" font-size="12" lengthAdjust="spacing" textLength="125.6074" x="601.3164" y="580.0918">30 s request timeout</text><line style="stroke:#94A3B8;stroke-width:1;" x1="594.3164" x2="636.3164" y1="653.8281" y2="653.8281"/><line style="stroke:#94A3B8;stroke-width:1;" x1="636.3164" x2="636.3164" y1="653.8281" y2="666.8281"/><line style="stroke:#94A3B8;stroke-width:1;" x1="595.3164" x2="636.3164" y1="666.8281" y2="666.8281"/><polygon fill="#94A3B8" points="605.3164,662.8281,595.3164,666.8281,605.3164,670.8281,601.3164,666.8281" style="stroke:#94A3B8;stroke-width:1;"/><text fill="#94A3B8" font-family="Segoe UI" font-size="12" lengthAdjust="spacing" textLength="129.2109" x="601.3164" y="621.0605">Strip /__b/App1 prefix</text><text fill="#94A3B8" font-family="Segoe UI" font-size="12" lengthAdjust="spacing" textLength="142.7988" x="601.3164" y="635.0293">Check JWT &#8594; not auth'd</text><text fill="#94A3B8" font-family="Segoe UI" font-size="12" lengthAdjust="spacing" textLength="105.1758" x="601.3164" y="648.998">&#8594; 302 /auth/login</text><polygon fill="#94A3B8" points="353.7695,732.7031,343.7695,736.7031,353.7695,740.7031,349.7695,736.7031" style="stroke:#94A3B8;stroke-width:1;"/><line style="stroke:#94A3B8;stroke-width:1;stroke-dasharray:2.0,2.0;" x1="347.7695" x2="588.3164" y1="736.7031" y2="736.7031"/><text fill="#94A3B8" font-family="Segoe UI" font-size="12" lengthAdjust="spacing" textLength="112.7402" x="359.7695" y="689.9668">WS: http_response</text><text fill="#94A3B8" font-family="Segoe UI" font-size="12" lengthAdjust="spacing" textLength="189.2227" x="359.7695" y="703.9355">{ id: "uuid-1", statusCode: 302,</text><text fill="#94A3B8" font-family="Segoe UI" font-size="12" lengthAdjust="spacing" textLength="209.918" x="367.3984" y="717.9043">headers: {Location: "/auth/login"},</text><text fill="#94A3B8" font-family="Segoe UI" font-size="12" lengthAdjust="spacing" textLength="60.0234" x="367.3984" y="731.873">body: "" }</text><polygon fill="#94A3B8" points="62.4453,760.6719,52.4453,764.6719,62.4453,768.6719,58.4453,764.6719" style="stroke:#94A3B8;stroke-width:1;"/><line style="stroke:#94A3B8;stroke-width:1;stroke-dasharray:2.0,2.0;" x1="56.4453" x2="336.7695" y1="764.6719" y2="764.6719"/><text fill="#94A3B8" font-family="Segoe UI" font-size="12" lengthAdjust="spacing" textLength="126.041" x="68.4453" y="759.8418">HTTP 302 /auth/login</text><path d="M180,777.6719 L180,842.6719 L493,842.6719 L493,787.6719 L483,777.6719 L180,777.6719 " fill="#1E293B" style="stroke:#334155;stroke-width:1;"/><path d="M483,777.6719 L483,787.6719 L493,787.6719 L483,777.6719 " fill="#1E293B" style="stroke:#334155;stroke-width:1;"/><text fill="#F8FAFC" font-family="Segoe UI" font-size="12" lengthAdjust="spacing" textLength="185.1563" x="186" y="793.8105">30 s relay timeout &#8594; HTTP 504</text><text fill="#F8FAFC" font-family="Segoe UI" font-size="12" lengthAdjust="spacing" textLength="171.5156" x="186" y="807.7793">Max 5 000 pending requests</text><text fill="#F8FAFC" font-family="Segoe UI" font-size="12" lengthAdjust="spacing" textLength="217.1602" x="186" y="821.748">Session affinity via waf_relay cookie</text><text fill="#F8FAFC" font-family="Segoe UI" font-size="12" lengthAdjust="spacing" textLength="292.875" x="186" y="835.7168">Pending requests cleaned up on WAF disconnect</text><!--SRC=[ZLNRRjiu47tNLyngWMw2ZMt9JZQ906-Hk9VjeWs2sjqyr8k0baOHOPdKabHIDp2mJ_s0eb_OB-cGagzHWi8GB77Ep9mv70v_CHdE48gSSU4PRdA4lqQZItYFEPl3z_-_qTj_9Me3er88pBcuWLlEu0edGnbFqNYUdd9HCCLcSEy1J5WylL6o5Cb0vbB1hq4Q7dSPMH9CMPcRLrAOsfIUf2oDjqqNZEZuGxoH21_U-Dl68V-C47PfSMXPYHZVyfGUWUTI9QZgkBtUONXqr8JQ9HTYzxGt8UGbKuR7l632_1neAz_af9l-iGreAlDCANbNBvuUCd9RBcwWLuOBQPuWxAoDHLjBK_Qb6AyfNl5uu6tOaxA-uBUSp0zYFGPyo6hXUSLQC_3FIGkDoWUcOLAzhwXj0OUZ3nSKNjsY6eizrxA_mzLmttbgKufcjwkpLmvnnz9cWAq5HG9dHL6HgB-NOA_VXqkf3CifUuwnuL90l-zvIxQjFwlq4Rn-EO9EuR2UMsgHRGcBeBAqCpFB7_Lc1UyGLTtaVs-Bq15yl0UU7432DHtYkJq-1qlM6XR_mkB9wDeLyPn2zUbfVNfMk_P9WB0fRI_eGkVwUjAnWCvO3D6q1b9EEKQMqBMoWwEAvSJQc2PxIBir1rKFb0ccKg6T9Ez7W_sdH5obIvZE9fAfP2mUoybeIswPGHV0gojOXQky8AU_ie3lNxw2yngBSvdC8USpRY880tXtldQrlH9HRqMG6LDSr_J7mkeUWL-MF6c5_W7Cq6JIhX1d_s0i04gLqsS3_SgS8QD3GLjutswt5xHhn87mFctPgWfAxdcMmOg84zH86eF7xO1-ONHySXgEnJyivubrgNZ0tbt63GriRVR7eXU0NWbl-0nbQNRY3etYnLfhA1Icd9GPP1XFuU-haPDBI0EiDDblj0NssxM3NUZayeQka2hcMl0DsNGXXSQ7kcd3JAa7Ca7NNJlIl9KniuVC2hdEuoySR4En1BSrQsXTfzmkuGs_gcEeGWH9dLfz0zJQsGwkbNDAk6X7mI4Xth5FS0H14411HyTUaRNKsir0hUsGO6dA1JTpTtskkXPYrv7sxjXnXJX79Z01QbHofybbptWiwHQEZMTdacNg_G00]--></g></svg>