<svg xmlns="http://www.w3.org/2000/svg" xmlns:xlink="http://www.w3.org/1999/xlink" contentStyleType="text/css" height="1237px" preserveAspectRatio="none" style="width:755px;height:1237px;background:#0F172A;" version="1.1" viewBox="0 0 755 1237" width="755px" zoomAndPan="magnify"><title>Multi-Backend Path-Based Routing</title><defs/><g><rect fill="#0F172A" height="1237" style="stroke:none;stroke-width:1;" width="755" x="0" y="0"/><text fill="#F8FAFC" font-family="Segoe UI" font-size="22" font-weight="bold" lengthAdjust="spacing" textLength="432.0615" x="160.3115" y="35.4209">Multi-Backend Path-Based Routing</text><rect fill="#1E293B" height="180.75" style="stroke:#334155;stroke-width:1;" width="10" x="246.6797" y="166.4844"/><rect fill="#1E293B" height="166.7813" style="stroke:#334155;stroke-width:1;" width="10" x="246.6797" y="400.2031"/><rect fill="#1E293B" height="222.6563" style="stroke:#334155;stroke-width:1;" width="10" x="246.6797" y="636.9219"/><rect fill="#1E293B" height="138.8438" style="stroke:#334155;stroke-width:1;" width="10" x="246.6797" y="929.5156"/><line style="stroke:#334155;stroke-width:1;" x1="69" x2="69" y1="94.5469" y2="1190.2344"/><line style="stroke:#334155;stroke-width:1;" x1="251.4102" x2="251.4102" y1="94.5469" y2="1190.2344"/><line style="stroke:#334155;stroke-width:1;" x1="549.79" x2="549.79" y1="94.5469" y2="1190.2344"/><line style="stroke:#334155;stroke-width:1;" x1="682.2373" x2="682.2373" y1="94.5469" y2="1190.2344"/><rect fill="#1E293B" height="27.9688" rx="2.5" ry="2.5" style="stroke:#3B82F6;stroke-width:1;" width="62.8906" x="38" y="65.5781"/><text fill="#F8FAFC" font-family="Segoe UI" font-size="12" lengthAdjust="spacing" textLength="48.8906" x="45" y="83.7168">Browser</text><rect fill="#1E293B" height="27.9688" rx="2.5" ry="2.5" style="stroke:#3B82F6;stroke-width:1;" width="62.8906" x="38" y="1189.2344"/><text fill="#F8FAFC" font-family="Segoe UI" font-size="12" lengthAdjust="spacing" textLength="48.8906" x="45" y="1207.373">Browser</text><rect fill="#1E293B" height="27.9688" rx="2.5" ry="2.5" style="stroke:#3B82F6;stroke-width:1;" width="104.5391" x="199.4102" y="65.5781"/><text fill="#F8FAFC" font-family="Segoe UI" font-size="12" lengthAdjust="spacing" textLength="90.5391" x="206.4102" y="83.7168">Gateway Proxy</text><rect fill="#1E293B" height="27.9688" rx="2.5" ry="2.5" style="stroke:#3B82F6;stroke-width:1;" width="104.5391" x="199.4102" y="1189.2344"/><text fill="#F8FAFC" font-family="Segoe UI" font-size="12" lengthAdjust="spacing" textLength="90.5391" x="206.4102" y="1207.373">Gateway Proxy</text><rect fill="#1E293B" height="41.9375" rx="2.5" ry="2.5" style="stroke:#3B82F6;stroke-width:1;" width="102.4473" x="498.79" y="51.6094"/><text fill="#F8FAFC" font-family="Segoe UI" font-size="12" lengthAdjust="spacing" textLength="31.0781" x="534.4746" y="69.748">App1</text><text fill="#F8FAFC" font-family="Segoe UI" font-size="12" lengthAdjust="spacing" textLength="88.4473" x="505.79" y="83.7168">localhost:3000</text><rect fill="#1E293B" height="41.9375" rx="2.5" ry="2.5" style="stroke:#3B82F6;stroke-width:1;" width="102.4473" x="498.79" y="1189.2344"/><text fill="#F8FAFC" font-family="Segoe UI" font-size="12" lengthAdjust="spacing" textLength="31.0781" x="534.4746" y="1207.373">App1</text><text fill="#F8FAFC" font-family="Segoe UI" font-size="12" lengthAdjust="spacing" textLength="88.4473" x="505.79" y="1221.3418">localhost:3000</text><rect fill="#1E293B" height="41.9375" rx="2.5" ry="2.5" style="stroke:#3B82F6;stroke-width:1;" width="102.4473" x="631.2373" y="51.6094"/><text fill="#F8FAFC" font-family="Segoe UI" font-size="12" lengthAdjust="spacing" textLength="58.7168" x="653.1025" y="69.748">MediaBox</text><text fill="#F8FAFC" font-family="Segoe UI" font-size="12" lengthAdjust="spacing" textLength="88.4473" x="638.2373" y="83.7168">localhost:8080</text><rect fill="#1E293B" height="41.9375" rx="2.5" ry="2.5" style="stroke:#3B82F6;stroke-width:1;" width="102.4473" x="631.2373" y="1189.2344"/><text fill="#F8FAFC" font-family="Segoe UI" font-size="12" lengthAdjust="spacing" textLength="58.7168" x="653.1025" y="1207.373">MediaBox</text><text fill="#F8FAFC" font-family="Segoe UI" font-size="12" lengthAdjust="spacing" textLength="88.4473" x="638.2373" y="1221.3418">localhost:8080</text><rect fill="#1E293B" height="180.75" style="stroke:#334155;stroke-width:1;" width="10" x="246.6797" y="166.4844"/><rect fill="#1E293B" height="166.7813" style="stroke:#334155;stroke-width:1;" width="10" x="246.6797" y="400.2031"/><rect fill="#1E293B" height="222.6563" style="stroke:#334155;stroke-width:1;" width="10" x="246.6797" y="636.9219"/><rect fill="#1E293B" height="138.8438" style="stroke:#334155;stroke-width:1;" width="10" x="246.6797" y="929.5156"/><rect fill="#334155" height="3" style="stroke:#334155;stroke-width:1;" width="743.6846" x="5" y="124.5313"/><line style="stroke:#000000;stroke-width:0.5;" x1="5" x2="748.6846" y1="124.5313" y2="124.5313"/><line style="stroke:#000000;stroke-width:0.5;" x1="5" x2="748.6846" y1="127.5313" y2="127.5313"/><rect fill="#334155" height="21.9688" style="stroke:#000000;stroke-width:1;" width="150.6406" x="301.522" y="114.5469"/><text fill="#F8FAFC" font-family="Segoe UI" font-size="12" font-weight="bold" lengthAdjust="spacing" textLength="132.4629" x="307.522" y="129.6855">Path Prefix Routing</text><polygon fill="#94A3B8" points="234.6797,162.4844,244.6797,166.4844,234.6797,170.4844,238.6797,166.4844" style="stroke:#94A3B8;stroke-width:1;"/><line style="stroke:#94A3B8;stroke-width:1;" x1="69.4453" x2="240.6797" y1="166.4844" y2="166.4844"/><text fill="#94A3B8" font-family="Segoe UI" font-size="12" lengthAdjust="spacing" textLength="145.623" x="76.4453" y="161.6543">GET /__b/App1/api/users</text><line style="stroke:#94A3B8;stroke-width:1;" x1="256.6797" x2="298.6797" y1="236.3594" y2="236.3594"/><line style="stroke:#94A3B8;stroke-width:1;" x1="298.6797" x2="298.6797" y1="236.3594" y2="249.3594"/><line style="stroke:#94A3B8;stroke-width:1;" x1="257.6797" x2="298.6797" y1="249.3594" y2="249.3594"/><polygon fill="#94A3B8" points="267.6797,245.3594,257.6797,249.3594,267.6797,253.3594,263.6797,249.3594" style="stroke:#94A3B8;stroke-width:1;"/><text fill="#94A3B8" font-family="Segoe UI" font-size="12" lengthAdjust="spacing" textLength="163.0898" x="263.6797" y="189.623">Validate method (whitelist)</text><text fill="#94A3B8" font-family="Segoe UI" font-size="12" lengthAdjust="spacing" textLength="145.0605" x="263.6797" y="203.5918">Detect prefix: /__b/App1</text><text fill="#94A3B8" font-family="Segoe UI" font-size="12" lengthAdjust="spacing" textLength="104.707" x="263.6797" y="217.5605">Strip &#8594; /api/users</text><text fill="#94A3B8" font-family="Segoe UI" font-size="12" lengthAdjust="spacing" textLength="90.6738" x="263.6797" y="231.5293">Backend: App1</text><polygon fill="#94A3B8" points="538.0137,287.2969,548.0137,291.2969,538.0137,295.2969,542.0137,291.2969" style="stroke:#94A3B8;stroke-width:1;"/><line style="stroke:#94A3B8;stroke-width:1;" x1="256.6797" x2="544.0137" y1="291.2969" y2="291.2969"/><text fill="#94A3B8" font-family="Segoe UI" font-size="12" lengthAdjust="spacing" textLength="86.8418" x="263.6797" y="272.498">GET /api/users</text><text fill="#94A3B8" font-family="Segoe UI" font-size="12" lengthAdjust="spacing" textLength="85.2773" x="263.6797" y="286.4668">(30 s timeout)</text><polygon fill="#94A3B8" points="267.6797,315.2656,257.6797,319.2656,267.6797,323.2656,263.6797,319.2656" style="stroke:#94A3B8;stroke-width:1;"/><line style="stroke:#94A3B8;stroke-width:1;stroke-dasharray:2.0,2.0;" x1="261.6797" x2="549.0137" y1="319.2656" y2="319.2656"/><text fill="#94A3B8" font-family="Segoe UI" font-size="12" lengthAdjust="spacing" textLength="110.707" x="273.6797" y="314.4355">200 { users: [...] }</text><polygon fill="#94A3B8" points="80.4453,343.2344,70.4453,347.2344,80.4453,351.2344,76.4453,347.2344" style="stroke:#94A3B8;stroke-width:1;"/><line style="stroke:#94A3B8;stroke-width:1;stroke-dasharray:2.0,2.0;" x1="74.4453" x2="250.6797" y1="347.2344" y2="347.2344"/><text fill="#94A3B8" font-family="Segoe UI" font-size="12" lengthAdjust="spacing" textLength="110.707" x="86.4453" y="342.4043">200 { users: [...] }</text><polygon fill="#94A3B8" points="234.6797,396.2031,244.6797,400.2031,234.6797,404.2031,238.6797,400.2031" style="stroke:#94A3B8;stroke-width:1;"/><line style="stroke:#94A3B8;stroke-width:1;" x1="69.4453" x2="240.6797" y1="400.2031" y2="400.2031"/><text fill="#94A3B8" font-family="Segoe UI" font-size="12" lengthAdjust="spacing" textLength="143.0156" x="76.4453" y="395.373">GET /__b/MediaBox/files</text><line style="stroke:#94A3B8;stroke-width:1;" x1="256.6797" x2="298.6797" y1="456.1094" y2="456.1094"/><line style="stroke:#94A3B8;stroke-width:1;" x1="298.6797" x2="298.6797" y1="456.1094" y2="469.1094"/><line style="stroke:#94A3B8;stroke-width:1;" x1="257.6797" x2="298.6797" y1="469.1094" y2="469.1094"/><polygon fill="#94A3B8" points="267.6797,465.1094,257.6797,469.1094,267.6797,473.1094,263.6797,469.1094" style="stroke:#94A3B8;stroke-width:1;"/><text fill="#94A3B8" font-family="Segoe UI" font-size="12" lengthAdjust="spacing" textLength="172.6992" x="263.6797" y="423.3418">Detect prefix: /__b/MediaBox</text><text fill="#94A3B8" font-family="Segoe UI" font-size="12" lengthAdjust="spacing" textLength="74.4609" x="263.6797" y="437.3105">Strip &#8594; /files</text><text fill="#94A3B8" font-family="Segoe UI" font-size="12" lengthAdjust="spacing" textLength="118.3125" x="263.6797" y="451.2793">Backend: MediaBox</text><polygon fill="#94A3B8" points="670.4609,507.0469,680.4609,511.0469,670.4609,515.0469,674.4609,511.0469" style="stroke:#94A3B8;stroke-width:1;"/><line style="stroke:#94A3B8;stroke-width:1;" x1="256.6797" x2="676.4609" y1="511.0469" y2="511.0469"/><text fill="#94A3B8" font-family="Segoe UI" font-size="12" lengthAdjust="spacing" textLength="56.5957" x="263.6797" y="492.248">GET /files</text><text fill="#94A3B8" font-family="Segoe UI" font-size="12" lengthAdjust="spacing" textLength="85.2773" x="263.6797" y="506.2168">(30 s timeout)</text><polygon fill="#94A3B8" points="267.6797,535.0156,257.6797,539.0156,267.6797,543.0156,263.6797,539.0156" style="stroke:#94A3B8;stroke-width:1;"/><line style="stroke:#94A3B8;stroke-width:1;stroke-dasharray:2.0,2.0;" x1="261.6797" x2="681.4609" y1="539.0156" y2="539.0156"/><text fill="#94A3B8" font-family="Segoe UI" font-size="12" lengthAdjust="spacing" textLength="94.3535" x="273.6797" y="534.1855">200 (file listing)</text><polygon fill="#94A3B8" points="80.4453,562.9844,70.4453,566.9844,80.4453,570.9844,76.4453,566.9844" style="stroke:#94A3B8;stroke-width:1;"/><line style="stroke:#94A3B8;stroke-width:1;stroke-dasharray:2.0,2.0;" x1="74.4453" x2="250.6797" y1="566.9844" y2="566.9844"/><text fill="#94A3B8" font-family="Segoe UI" font-size="12" lengthAdjust="spacing" textLength="94.3535" x="86.4453" y="562.1543">200 (file listing)</text><rect fill="#334155" height="3" style="stroke:#334155;stroke-width:1;" width="743.6846" x="5" y="594.9688"/><line style="stroke:#000000;stroke-width:0.5;" x1="5" x2="748.6846" y1="594.9688" y2="594.9688"/><line style="stroke:#000000;stroke-width:0.5;" x1="5" x2="748.6846" y1="597.9688" y2="597.9688"/><rect fill="#334155" height="21.9688" style="stroke:#000000;stroke-width:1;" width="125.6504" x="314.0171" y="584.9844"/><text fill="#F8FAFC" font-family="Segoe UI" font-size="12" font-weight="bold" lengthAdjust="spacing" textLength="107.4727" x="320.0171" y="600.123">HTML Rewriting</text><polygon fill="#94A3B8" points="234.6797,632.9219,244.6797,636.9219,234.6797,640.9219,238.6797,636.9219" style="stroke:#94A3B8;stroke-width:1;"/><line style="stroke:#94A3B8;stroke-width:1;" x1="69.4453" x2="240.6797" y1="636.9219" y2="636.9219"/><text fill="#94A3B8" font-family="Segoe UI" font-size="12" lengthAdjust="spacing" textLength="90.8496" x="76.4453" y="632.0918">GET /__b/App1/</text><polygon fill="#94A3B8" points="538.0137,660.8906,548.0137,664.8906,538.0137,668.8906,542.0137,664.8906" style="stroke:#94A3B8;stroke-width:1;"/><line style="stroke:#94A3B8;stroke-width:1;" x1="256.6797" x2="544.0137" y1="664.8906" y2="664.8906"/><text fill="#94A3B8" font-family="Segoe UI" font-size="12" lengthAdjust="spacing" textLength="32.0684" x="263.6797" y="660.0605">GET /</text><polygon fill="#94A3B8" points="267.6797,702.8281,257.6797,706.8281,267.6797,710.8281,263.6797,706.8281" style="stroke:#94A3B8;stroke-width:1;"/><line style="stroke:#94A3B8;stroke-width:1;stroke-dasharray:2.0,2.0;" x1="261.6797" x2="549.0137" y1="706.8281" y2="706.8281"/><text fill="#94A3B8" font-family="Segoe UI" font-size="12" lengthAdjust="spacing" textLength="81.9902" x="273.6797" y="688.0293">200 text/html</text><text fill="#94A3B8" font-family="Segoe UI" font-size="12" lengthAdjust="spacing" textLength="131.7949" x="273.6797" y="701.998">(max 50 MB buffered)</text><line style="stroke:#94A3B8;stroke-width:1;" x1="256.6797" x2="298.6797" y1="818.6094" y2="818.6094"/><line style="stroke:#94A3B8;stroke-width:1;" x1="298.6797" x2="298.6797" y1="818.6094" y2="831.6094"/><line style="stroke:#94A3B8;stroke-width:1;" x1="257.6797" x2="298.6797" y1="831.6094" y2="831.6094"/><polygon fill="#94A3B8" points="267.6797,827.6094,257.6797,831.6094,267.6797,835.6094,263.6797,831.6094" style="stroke:#94A3B8;stroke-width:1;"/><text fill="#94A3B8" font-family="Segoe UI" font-size="12" font-weight="bold" lengthAdjust="spacing" textLength="99.1641" x="263.6797" y="729.9668">Rewrite HTML:</text><text fill="#94A3B8" font-family="Segoe UI" font-size="12" lengthAdjust="spacing" textLength="259.541" x="263.6797" y="743.9355">1. href="/about" &#8594; href="/__b/App1/about"</text><text fill="#94A3B8" font-family="Segoe UI" font-size="12" lengthAdjust="spacing" textLength="264.334" x="263.6797" y="757.9043">2. src="/main.js" &#8594; src="/__b/App1/main.js"</text><text fill="#94A3B8" font-family="Segoe UI" font-size="12" lengthAdjust="spacing" textLength="261.6328" x="263.6797" y="771.873">3. http://localhost:3000/api &#8594; /__b/App1/api</text><text fill="#94A3B8" font-family="Segoe UI" font-size="12" lengthAdjust="spacing" textLength="188.4844" x="263.6797" y="785.8418">4. Inject fetch/XHR prefix patch</text><text fill="#94A3B8" font-family="Segoe UI" font-size="12" lengthAdjust="spacing" textLength="161.1504" x="263.6797" y="799.8105">5. Inject webrtc-upgrade.js</text><text fill="#94A3B8" font-family="Segoe UI" font-size="12" lengthAdjust="spacing" textLength="201.2871" x="263.6797" y="813.7793">6. Inject backend "Switch" button</text><polygon fill="#94A3B8" points="80.4453,855.5781,70.4453,859.5781,80.4453,863.5781,76.4453,859.5781" style="stroke:#94A3B8;stroke-width:1;"/><line style="stroke:#94A3B8;stroke-width:1;stroke-dasharray:2.0,2.0;" x1="74.4453" x2="250.6797" y1="859.5781" y2="859.5781"/><text fill="#94A3B8" font-family="Segoe UI" font-size="12" lengthAdjust="spacing" textLength="128.0859" x="86.4453" y="854.748">200 (rewritten HTML)</text><rect fill="#334155" height="3" style="stroke:#334155;stroke-width:1;" width="743.6846" x="5" y="887.5625"/><line style="stroke:#000000;stroke-width:0.5;" x1="5" x2="748.6846" y1="887.5625" y2="887.5625"/><line style="stroke:#000000;stroke-width:0.5;" x1="5" x2="748.6846" y1="890.5625" y2="890.5625"/><rect fill="#334155" height="21.9688" style="stroke:#000000;stroke-width:1;" width="144.8223" x="304.4312" y="877.5781"/><text fill="#F8FAFC" font-family="Segoe UI" font-size="12" font-weight="bold" lengthAdjust="spacing" textLength="126.6445" x="310.4312" y="892.7168">Redirect Rewriting</text><polygon fill="#94A3B8" points="234.6797,925.5156,244.6797,929.5156,234.6797,933.5156,238.6797,929.5156" style="stroke:#94A3B8;stroke-width:1;"/><line style="stroke:#94A3B8;stroke-width:1;" x1="69.4453" x2="240.6797" y1="929.5156" y2="929.5156"/><text fill="#94A3B8" font-family="Segoe UI" font-size="12" lengthAdjust="spacing" textLength="126.457" x="76.4453" y="924.6855">POST /__b/App1/form</text><polygon fill="#94A3B8" points="538.0137,953.4844,548.0137,957.4844,538.0137,961.4844,542.0137,957.4844" style="stroke:#94A3B8;stroke-width:1;"/><line style="stroke:#94A3B8;stroke-width:1;" x1="256.6797" x2="544.0137" y1="957.4844" y2="957.4844"/><text fill="#94A3B8" font-family="Segoe UI" font-size="12" lengthAdjust="spacing" textLength="67.6758" x="263.6797" y="952.6543">POST /form</text><polygon fill="#94A3B8" points="267.6797,981.4531,257.6797,985.4531,267.6797,989.4531,263.6797,985.4531" style="stroke:#94A3B8;stroke-width:1;"/><line style="stroke:#94A3B8;stroke-width:1;stroke-dasharray:2.0,2.0;" x1="261.6797" x2="549.0137" y1="985.4531" y2="985.4531"/><text fill="#94A3B8" font-family="Segoe UI" font-size="12" lengthAdjust="spacing" textLength="153.2754" x="273.6797" y="980.623">302 Location: /dashboard</text><line style="stroke:#94A3B8;stroke-width:1;" x1="256.6797" x2="298.6797" y1="1027.3906" y2="1027.3906"/><line style="stroke:#94A3B8;stroke-width:1;" x1="298.6797" x2="298.6797" y1="1027.3906" y2="1040.3906"/><line style="stroke:#94A3B8;stroke-width:1;" x1="257.6797" x2="298.6797" y1="1040.3906" y2="1040.3906"/><polygon fill="#94A3B8" points="267.6797,1036.3906,257.6797,1040.3906,267.6797,1044.3906,263.6797,1040.3906" style="stroke:#94A3B8;stroke-width:1;"/><text fill="#94A3B8" font-family="Segoe UI" font-size="12" lengthAdjust="spacing" textLength="100.6348" x="263.6797" y="1008.5918">Rewrite redirect:</text><text fill="#94A3B8" font-family="Segoe UI" font-size="12" lengthAdjust="spacing" textLength="211.9336" x="263.6797" y="1022.5605">/dashboard &#8594; /__b/App1/dashboard</text><polygon fill="#94A3B8" points="80.4453,1064.3594,70.4453,1068.3594,80.4453,1072.3594,76.4453,1068.3594" style="stroke:#94A3B8;stroke-width:1;"/><line style="stroke:#94A3B8;stroke-width:1;stroke-dasharray:2.0,2.0;" x1="74.4453" x2="250.6797" y1="1068.3594" y2="1068.3594"/><text fill="#94A3B8" font-family="Segoe UI" font-size="12" lengthAdjust="spacing" textLength="153.2344" x="86.4453" y="1063.5293">302 /__b/App1/dashboard</text><rect fill="#334155" height="3" style="stroke:#334155;stroke-width:1;" width="743.6846" x="5" y="1096.3438"/><line style="stroke:#000000;stroke-width:0.5;" x1="5" x2="748.6846" y1="1096.3438" y2="1096.3438"/><line style="stroke:#000000;stroke-width:0.5;" x1="5" x2="748.6846" y1="1099.3438" y2="1099.3438"/><rect fill="#334155" height="21.9688" style="stroke:#000000;stroke-width:1;" width="206.8613" x="273.4116" y="1086.3594"/><text fill="#F8FAFC" font-family="Segoe UI" font-size="12" font-weight="bold" lengthAdjust="spacing" textLength="188.6836" x="279.4116" y="1101.498">Backend Resolution Priority</text><path d="M10,1123.3281 L10,1174.3281 L311,1174.3281 L311,1133.3281 L301,1123.3281 L10,1123.3281 " fill="#334155" style="stroke:#334155;stroke-width:1;"/><path d="M301,1123.3281 L301,1133.3281 L311,1133.3281 L301,1123.3281 " fill="#334155" style="stroke:#334155;stroke-width:1;"/><text fill="#F8FAFC" font-family="Segoe UI" font-size="12" lengthAdjust="spacing" textLength="11.4492" x="16" y="1139.4668">1.</text><text fill="#F8FAFC" font-family="Segoe UI" font-size="12" font-weight="bold" lengthAdjust="spacing" textLength="91.1309" x="31.2637" y="1139.4668">/__b/&lt;name&gt;/</text><text fill="#F8FAFC" font-family="Segoe UI" font-size="12" lengthAdjust="spacing" textLength="170.4844" x="126.209" y="1139.4668">path prefix (highest priority)</text><text fill="#F8FAFC" font-family="Segoe UI" font-size="12" lengthAdjust="spacing" textLength="11.4492" x="16" y="1153.4355">2.</text><text fill="#F8FAFC" font-family="Segoe UI" font-size="12" font-weight="bold" lengthAdjust="spacing" textLength="132.3223" x="31.2637" y="1153.4355">x-gateway-backend</text><text fill="#F8FAFC" font-family="Segoe UI" font-size="12" lengthAdjust="spacing" textLength="42.2754" x="167.4004" y="1153.4355">header</text><text fill="#F8FAFC" font-family="Segoe UI" font-size="12" lengthAdjust="spacing" textLength="11.4492" x="16" y="1167.4043">3.</text><text fill="#F8FAFC" font-family="Segoe UI" font-size="12" font-weight="bold" lengthAdjust="spacing" textLength="49.8105" x="31.2637" y="1167.4043">Default</text><text fill="#F8FAFC" font-family="Segoe UI" font-size="12" lengthAdjust="spacing" textLength="155.8242" x="84.8887" y="1167.4043">(first configured backend)</text><!--SRC=[ZLR1Rjj64BtpAwRgnH8gaQBir16g057TEW7ir93Iea1P14joA6v2xRBBbIKtphKVq4_ibtHsIKgaJ1av2A1ctioyVM-NoszqYck4F6DSE9hh3E5sasa-dBFe4ueOxfXEwK-1CIpaHdEnSfpY4nSvKsmDdns0a90h9JSY_b5cKi6tNZB-tcUKYJ5XrEndANILIYuJbaJjr3j617fBN4c4Nz_ssiab_njXx5DmYNzjK4HumnFw2PnB5QEg-aucv-EBYoxKCRan-Yyd8I7lcD8yuZaJ-kj0hNdXfP-yQ0EwblbQARcjWY_F6PNLmGPwdtWdzJE4RRPpqIRJDRqMuvhwvQSRjs7Fodh5xpcbd_Gw1NpAwelZv0VDe3SdBGfKFM05XENpdbeBUCqqRja3t2cvUx3mrROR-JhFnu78PCIoL1PwEl4ypnOmIdINt6BCsLpkccMNtkM-pD-NEREPFHF40nE-gmy5p6QEK_CVlZBSfd3zqtjmFtm8NSF8PJbtDvGk71PfVa_B8PH3m1h-6yjuRC9hrAcCuMoRSeqPBtG_45UeCTAGswdJGzj0BBNYEVptpxzm6168wlnEmO2gANRz5Qq6z6pYGG6Qhv7MqdSiQbYJyZqFFeD5Jk6FqMZq9tonxGXGh_S4AiRcGft7nyTd9AeTS1EUuKc9kbGuUDTGmdPfg5233ahuzVGA-bG5lwt2cG62iOFyxdThS8GvKe2spfltjpUmmAtYNxbhEfHesjZXbiQTTbEzpcXDQxQ32mzkvn1kaWGLndsdgUTWK791Ismw60HYF8AKv9trN1QI4ZshPnKvx6MR2eG_Wa95b5dJ_J7wM9JeChG7rxb0JAYtrldKTTkdq-p6qhVcQGd4-GZUYe_6yGHrbBg_lrbKtaFEA128YprYYw7IqN2JhnIBaUO5uiK-6LQtMM-vvLJN8pcqbi8vuQAoecWKLfOk7nUqdvJf_BoNTxyicsOcKgrF6rg2IqpBrOddmmq9fhaKjEbZLgIXP2fkMLaRgIfcqq0Sa4VY7dLe2M26TI6VQb1_8YomaDd6aAEN8fV4ui6A8UXQ0dbFNQlktzbNzlwke9qs6DXHFmZw1dZb3WR6rhIs-2pbgnGBSzpBhdqgyatHRhWgRuDXPInLfaYsAq9C3EAg_8IWE1r9HJqYAHA-sf0wzMReEuQy8Udy3m00]--></g></svg>