<svg xmlns="http://www.w3.org/2000/svg" xmlns:xlink="http://www.w3.org/1999/xlink" contentStyleType="text/css" height="1351px" preserveAspectRatio="none" style="width:932px;height:1351px;background:#0F172A;" version="1.1" viewBox="0 0 932 1351" width="932px" zoomAndPan="magnify"><title>OIDC Login Flow (through HTTP Relay)</title><defs/><g><rect fill="#0F172A" height="1351" style="stroke:none;stroke-width:1;" width="932" x="0" y="0"/><text fill="#F8FAFC" font-family="Segoe UI" font-size="22" font-weight="bold" lengthAdjust="spacing" textLength="478.1455" x="225.6299" y="35.4209">OIDC Login Flow (through HTTP Relay)</text><rect fill="#1E293B" height="236.625" style="stroke:#334155;stroke-width:1;" width="10" x="599.2539" y="932.6094"/><line style="stroke:#334155;stroke-width:1;" x1="51" x2="51" y1="94.5469" y2="1305.0469"/><line style="stroke:#334155;stroke-width:1;" x1="331.6006" x2="331.6006" y1="94.5469" y2="1305.0469"/><line style="stroke:#334155;stroke-width:1;" x1="603.7656" x2="603.7656" y1="94.5469" y2="1305.0469"/><line style="stroke:#334155;stroke-width:1;" x1="873.3838" x2="873.3838" y1="94.5469" y2="1305.0469"/><rect fill="#1E293B" height="27.9688" rx="2.5" ry="2.5" style="stroke:#3B82F6;stroke-width:1;" width="62.8906" x="20" y="65.5781"/><text fill="#F8FAFC" font-family="Segoe UI" font-size="12" lengthAdjust="spacing" textLength="48.8906" x="27" y="83.7168">Browser</text><rect fill="#1E293B" height="27.9688" rx="2.5" ry="2.5" style="stroke:#3B82F6;stroke-width:1;" width="62.8906" x="20" y="1304.0469"/><text fill="#F8FAFC" font-family="Segoe UI" font-size="12" lengthAdjust="spacing" textLength="48.8906" x="27" y="1322.1855">Browser</text><rect fill="#1E293B" height="41.9375" rx="2.5" ry="2.5" style="stroke:#3B82F6;stroke-width:1;" width="89.873" x="287.6006" y="51.6094"/><text fill="#F8FAFC" font-family="Segoe UI" font-size="12" lengthAdjust="spacing" textLength="75.873" x="294.6006" y="69.748">STUN Server</text><text fill="#F8FAFC" font-family="Segoe UI" font-size="12" lengthAdjust="spacing" textLength="39.4688" x="312.8027" y="83.7168">(relay)</text><rect fill="#1E293B" height="41.9375" rx="2.5" ry="2.5" style="stroke:#3B82F6;stroke-width:1;" width="89.873" x="287.6006" y="1304.0469"/><text fill="#F8FAFC" font-family="Segoe UI" font-size="12" lengthAdjust="spacing" textLength="75.873" x="294.6006" y="1322.1855">STUN Server</text><text fill="#F8FAFC" font-family="Segoe UI" font-size="12" lengthAdjust="spacing" textLength="39.4688" x="312.8027" y="1336.1543">(relay)</text><rect fill="#1E293B" height="27.9688" rx="2.5" ry="2.5" style="stroke:#3B82F6;stroke-width:1;" width="40.9766" x="583.7656" y="65.5781"/><text fill="#F8FAFC" font-family="Segoe UI" font-size="12" lengthAdjust="spacing" textLength="26.9766" x="590.7656" y="83.7168">WAF</text><rect fill="#1E293B" height="27.9688" rx="2.5" ry="2.5" style="stroke:#3B82F6;stroke-width:1;" width="40.9766" x="583.7656" y="1304.0469"/><text fill="#F8FAFC" font-family="Segoe UI" font-size="12" lengthAdjust="spacing" textLength="26.9766" x="590.7656" y="1322.1855">WAF</text><rect fill="#1E293B" height="27.9688" rx="2.5" ry="2.5" style="stroke:#3B82F6;stroke-width:1;" width="73.0215" x="837.3838" y="65.5781"/><text fill="#F8FAFC" font-family="Segoe UI" font-size="12" lengthAdjust="spacing" textLength="59.0215" x="844.3838" y="83.7168">TideCloak</text><rect fill="#1E293B" height="27.9688" rx="2.5" ry="2.5" style="stroke:#3B82F6;stroke-width:1;" width="73.0215" x="837.3838" y="1304.0469"/><text fill="#F8FAFC" font-family="Segoe UI" font-size="12" lengthAdjust="spacing" textLength="59.0215" x="844.3838" y="1322.1855">TideCloak</text><rect fill="#1E293B" height="236.625" style="stroke:#334155;stroke-width:1;" width="10" x="599.2539" y="932.6094"/><rect fill="#334155" height="3" style="stroke:#334155;stroke-width:1;" width="920.4053" x="5" y="124.5313"/><line style="stroke:#000000;stroke-width:0.5;" x1="5" x2="925.4053" y1="124.5313" y2="124.5313"/><line style="stroke:#000000;stroke-width:0.5;" x1="5" x2="925.4053" y1="127.5313" y2="127.5313"/><rect fill="#334155" height="21.9688" style="stroke:#000000;stroke-width:1;" width="134.6387" x="397.8833" y="114.5469"/><text fill="#F8FAFC" font-family="Segoe UI" font-size="12" font-weight="bold" lengthAdjust="spacing" textLength="116.4609" x="403.8833" y="129.6855">Redirect to Login</text><polygon fill="#94A3B8" points="320.5371,162.4844,330.5371,166.4844,320.5371,170.4844,324.5371,166.4844" style="stroke:#94A3B8;stroke-width:1;"/><line style="stroke:#94A3B8;stroke-width:1;" x1="51.4453" x2="326.5371" y1="166.4844" y2="166.4844"/><text fill="#94A3B8" font-family="Segoe UI" font-size="12" lengthAdjust="spacing" textLength="223.6582" x="58.4453" y="161.6543">GET /auth/login?redirect=/dashboard</text><polygon fill="#94A3B8" points="592.2539,190.4531,602.2539,194.4531,592.2539,198.4531,596.2539,194.4531" style="stroke:#94A3B8;stroke-width:1;"/><line style="stroke:#94A3B8;stroke-width:1;" x1="332.5371" x2="598.2539" y1="194.4531" y2="194.4531"/><text fill="#94A3B8" font-family="Segoe UI" font-size="12" lengthAdjust="spacing" textLength="147.1348" x="339.5371" y="189.623">WS: http_request (relay)</text><line style="stroke:#94A3B8;stroke-width:1;" x1="604.2539" x2="646.2539" y1="264.3281" y2="264.3281"/><line style="stroke:#94A3B8;stroke-width:1;" x1="646.2539" x2="646.2539" y1="264.3281" y2="277.3281"/><line style="stroke:#94A3B8;stroke-width:1;" x1="605.2539" x2="646.2539" y1="277.3281" y2="277.3281"/><polygon fill="#94A3B8" points="615.2539,273.3281,605.2539,277.3281,615.2539,281.3281,611.2539,277.3281" style="stroke:#94A3B8;stroke-width:1;"/><text fill="#94A3B8" font-family="Segoe UI" font-size="12" lengthAdjust="spacing" textLength="141.0938" x="611.2539" y="217.5918">Sanitize redirect param</text><text fill="#94A3B8" font-family="Segoe UI" font-size="12" lengthAdjust="spacing" textLength="153.7969" x="611.2539" y="231.5605">(reject non-relative URLs)</text><text fill="#94A3B8" font-family="Segoe UI" font-size="12" lengthAdjust="spacing" textLength="151.6641" x="611.2539" y="245.5293">Build TideCloak auth URL</text><text fill="#94A3B8" font-family="Segoe UI" font-size="12" lengthAdjust="spacing" textLength="176.0449" x="611.2539" y="259.498">with state={nonce, redirect}</text><polygon fill="#94A3B8" points="343.5371,315.2656,333.5371,319.2656,343.5371,323.2656,339.5371,319.2656" style="stroke:#94A3B8;stroke-width:1;"/><line style="stroke:#94A3B8;stroke-width:1;stroke-dasharray:2.0,2.0;" x1="337.5371" x2="603.2539" y1="319.2656" y2="319.2656"/><text fill="#94A3B8" font-family="Segoe UI" font-size="12" lengthAdjust="spacing" textLength="139.459" x="349.5371" y="300.4668">WS: http_response 302</text><text fill="#94A3B8" font-family="Segoe UI" font-size="12" lengthAdjust="spacing" textLength="247.7168" x="349.5371" y="314.4355">Location: /realms/.../openid-connect/auth</text><polygon fill="#94A3B8" points="62.4453,343.2344,52.4453,347.2344,62.4453,351.2344,58.4453,347.2344" style="stroke:#94A3B8;stroke-width:1;"/><line style="stroke:#94A3B8;stroke-width:1;stroke-dasharray:2.0,2.0;" x1="56.4453" x2="331.5371" y1="347.2344" y2="347.2344"/><text fill="#94A3B8" font-family="Segoe UI" font-size="12" lengthAdjust="spacing" textLength="57.6387" x="68.4453" y="342.4043">HTTP 302</text><rect fill="#334155" height="3" style="stroke:#334155;stroke-width:1;" width="920.4053" x="5" y="375.2188"/><line style="stroke:#000000;stroke-width:0.5;" x1="5" x2="925.4053" y1="375.2188" y2="375.2188"/><line style="stroke:#000000;stroke-width:0.5;" x1="5" x2="925.4053" y1="378.2188" y2="378.2188"/><rect fill="#334155" height="21.9688" style="stroke:#000000;stroke-width:1;" width="285.4355" x="322.4849" y="365.2344"/><text fill="#F8FAFC" font-family="Segoe UI" font-size="12" font-weight="bold" lengthAdjust="spacing" textLength="267.2578" x="328.4849" y="380.373">TideCloak Login (proxied through WAF)</text><polygon fill="#94A3B8" points="320.5371,413.1719,330.5371,417.1719,320.5371,421.1719,324.5371,417.1719" style="stroke:#94A3B8;stroke-width:1;"/><line style="stroke:#94A3B8;stroke-width:1;" x1="51.4453" x2="326.5371" y1="417.1719" y2="417.1719"/><text fill="#94A3B8" font-family="Segoe UI" font-size="12" lengthAdjust="spacing" textLength="197.5898" x="58.4453" y="412.3418">GET /realms/.../auth?client_id=...</text><polygon fill="#94A3B8" points="592.2539,441.1406,602.2539,445.1406,592.2539,449.1406,596.2539,445.1406" style="stroke:#94A3B8;stroke-width:1;"/><line style="stroke:#94A3B8;stroke-width:1;" x1="332.5371" x2="598.2539" y1="445.1406" y2="445.1406"/><text fill="#94A3B8" font-family="Segoe UI" font-size="12" lengthAdjust="spacing" textLength="147.1348" x="339.5371" y="440.3105">WS: http_request (relay)</text><polygon fill="#94A3B8" points="861.8945,483.0781,871.8945,487.0781,861.8945,491.0781,865.8945,487.0781" style="stroke:#94A3B8;stroke-width:1;"/><line style="stroke:#94A3B8;stroke-width:1;" x1="604.2539" x2="867.8945" y1="487.0781" y2="487.0781"/><text fill="#94A3B8" font-family="Segoe UI" font-size="12" lengthAdjust="spacing" textLength="161.3848" x="611.2539" y="468.2793">Proxy: GET /realms/.../auth</text><text fill="#94A3B8" font-family="Segoe UI" font-size="12" lengthAdjust="spacing" textLength="85.2773" x="611.2539" y="482.248">(30 s timeout)</text><polygon fill="#94A3B8" points="615.2539,511.0469,605.2539,515.0469,615.2539,519.0469,611.2539,515.0469" style="stroke:#94A3B8;stroke-width:1;"/><line style="stroke:#94A3B8;stroke-width:1;stroke-dasharray:2.0,2.0;" x1="609.2539" x2="872.8945" y1="515.0469" y2="515.0469"/><text fill="#94A3B8" font-family="Segoe UI" font-size="12" lengthAdjust="spacing" textLength="103.5762" x="621.2539" y="510.2168">Login page HTML</text><line style="stroke:#94A3B8;stroke-width:1;" x1="604.2539" x2="646.2539" y1="556.9844" y2="556.9844"/><line style="stroke:#94A3B8;stroke-width:1;" x1="646.2539" x2="646.2539" y1="556.9844" y2="569.9844"/><line style="stroke:#94A3B8;stroke-width:1;" x1="605.2539" x2="646.2539" y1="569.9844" y2="569.9844"/><polygon fill="#94A3B8" points="615.2539,565.9844,605.2539,569.9844,615.2539,573.9844,611.2539,569.9844" style="stroke:#94A3B8;stroke-width:1;"/><text fill="#94A3B8" font-family="Segoe UI" font-size="12" lengthAdjust="spacing" textLength="161.0684" x="611.2539" y="538.1855">Rewrite TC URLs &#8594; /_idp/...</text><text fill="#94A3B8" font-family="Segoe UI" font-size="12" lengthAdjust="spacing" textLength="171.2344" x="611.2539" y="552.1543">Store TC cookies server-side</text><polygon fill="#94A3B8" points="343.5371,593.9531,333.5371,597.9531,343.5371,601.9531,339.5371,597.9531" style="stroke:#94A3B8;stroke-width:1;"/><line style="stroke:#94A3B8;stroke-width:1;stroke-dasharray:2.0,2.0;" x1="337.5371" x2="603.2539" y1="597.9531" y2="597.9531"/><text fill="#94A3B8" font-family="Segoe UI" font-size="12" lengthAdjust="spacing" textLength="139.459" x="349.5371" y="593.123">WS: http_response 200</text><polygon fill="#94A3B8" points="62.4453,621.9219,52.4453,625.9219,62.4453,629.9219,58.4453,625.9219" style="stroke:#94A3B8;stroke-width:1;"/><line style="stroke:#94A3B8;stroke-width:1;stroke-dasharray:2.0,2.0;" x1="56.4453" x2="331.5371" y1="625.9219" y2="625.9219"/><text fill="#94A3B8" font-family="Segoe UI" font-size="12" lengthAdjust="spacing" textLength="66.3691" x="68.4453" y="621.0918">Login page</text><line style="stroke:#94A3B8;stroke-width:1;" x1="51.4453" x2="93.4453" y1="653.8906" y2="653.8906"/><line style="stroke:#94A3B8;stroke-width:1;" x1="93.4453" x2="93.4453" y1="653.8906" y2="666.8906"/><line style="stroke:#94A3B8;stroke-width:1;" x1="52.4453" x2="93.4453" y1="666.8906" y2="666.8906"/><polygon fill="#94A3B8" points="62.4453,662.8906,52.4453,666.8906,62.4453,670.8906,58.4453,666.8906" style="stroke:#94A3B8;stroke-width:1;"/><text fill="#94A3B8" font-family="Segoe UI" font-size="12" lengthAdjust="spacing" textLength="139.7402" x="58.4453" y="649.0605">User enters credentials</text><polygon fill="#94A3B8" points="320.5371,690.8594,330.5371,694.8594,320.5371,698.8594,324.5371,694.8594" style="stroke:#94A3B8;stroke-width:1;"/><line style="stroke:#94A3B8;stroke-width:1;" x1="51.4453" x2="326.5371" y1="694.8594" y2="694.8594"/><text fill="#94A3B8" font-family="Segoe UI" font-size="12" lengthAdjust="spacing" textLength="257.0918" x="58.4453" y="690.0293">POST /realms/.../login-actions/authenticate</text><polygon fill="#94A3B8" points="592.2539,718.8281,602.2539,722.8281,592.2539,726.8281,596.2539,722.8281" style="stroke:#94A3B8;stroke-width:1;"/><line style="stroke:#94A3B8;stroke-width:1;" x1="332.5371" x2="598.2539" y1="722.8281" y2="722.8281"/><text fill="#94A3B8" font-family="Segoe UI" font-size="12" lengthAdjust="spacing" textLength="147.1348" x="339.5371" y="717.998">WS: http_request (relay)</text><polygon fill="#94A3B8" points="861.8945,746.7969,871.8945,750.7969,861.8945,754.7969,865.8945,750.7969" style="stroke:#94A3B8;stroke-width:1;"/><line style="stroke:#94A3B8;stroke-width:1;" x1="604.2539" x2="867.8945" y1="750.7969" y2="750.7969"/><text fill="#94A3B8" font-family="Segoe UI" font-size="12" lengthAdjust="spacing" textLength="153.3516" x="611.2539" y="745.9668">Proxy: POST authenticate</text><polygon fill="#94A3B8" points="615.2539,774.7656,605.2539,778.7656,615.2539,782.7656,611.2539,778.7656" style="stroke:#94A3B8;stroke-width:1;"/><line style="stroke:#94A3B8;stroke-width:1;stroke-dasharray:2.0,2.0;" x1="609.2539" x2="872.8945" y1="778.7656" y2="778.7656"/><text fill="#94A3B8" font-family="Segoe UI" font-size="12" lengthAdjust="spacing" textLength="177.0762" x="621.2539" y="773.9355">302 /auth/callback?code=xyz</text><polygon fill="#94A3B8" points="343.5371,802.7344,333.5371,806.7344,343.5371,810.7344,339.5371,806.7344" style="stroke:#94A3B8;stroke-width:1;"/><line style="stroke:#94A3B8;stroke-width:1;stroke-dasharray:2.0,2.0;" x1="337.5371" x2="603.2539" y1="806.7344" y2="806.7344"/><text fill="#94A3B8" font-family="Segoe UI" font-size="12" lengthAdjust="spacing" textLength="139.459" x="349.5371" y="801.9043">WS: http_response 302</text><polygon fill="#94A3B8" points="62.4453,830.7031,52.4453,834.7031,62.4453,838.7031,58.4453,834.7031" style="stroke:#94A3B8;stroke-width:1;"/><line style="stroke:#94A3B8;stroke-width:1;stroke-dasharray:2.0,2.0;" x1="56.4453" x2="331.5371" y1="834.7031" y2="834.7031"/><text fill="#94A3B8" font-family="Segoe UI" font-size="12" lengthAdjust="spacing" textLength="57.6387" x="68.4453" y="829.873">HTTP 302</text><rect fill="#334155" height="3" style="stroke:#334155;stroke-width:1;" width="920.4053" x="5" y="862.6875"/><line style="stroke:#000000;stroke-width:0.5;" x1="5" x2="925.4053" y1="862.6875" y2="862.6875"/><line style="stroke:#000000;stroke-width:0.5;" x1="5" x2="925.4053" y1="865.6875" y2="865.6875"/><rect fill="#334155" height="21.9688" style="stroke:#000000;stroke-width:1;" width="121.0977" x="404.6538" y="852.7031"/><text fill="#F8FAFC" font-family="Segoe UI" font-size="12" font-weight="bold" lengthAdjust="spacing" textLength="102.9199" x="410.6538" y="867.8418">Code Exchange</text><polygon fill="#94A3B8" points="320.5371,900.6406,330.5371,904.6406,320.5371,908.6406,324.5371,904.6406" style="stroke:#94A3B8;stroke-width:1;"/><line style="stroke:#94A3B8;stroke-width:1;" x1="51.4453" x2="326.5371" y1="904.6406" y2="904.6406"/><text fill="#94A3B8" font-family="Segoe UI" font-size="12" lengthAdjust="spacing" textLength="178.3828" x="58.4453" y="899.8105">GET /auth/callback?code=xyz</text><polygon fill="#94A3B8" points="587.2539,928.6094,597.2539,932.6094,587.2539,936.6094,591.2539,932.6094" style="stroke:#94A3B8;stroke-width:1;"/><line style="stroke:#94A3B8;stroke-width:1;" x1="332.5371" x2="593.2539" y1="932.6094" y2="932.6094"/><text fill="#94A3B8" font-family="Segoe UI" font-size="12" lengthAdjust="spacing" textLength="147.1348" x="339.5371" y="927.7793">WS: http_request (relay)</text><polygon fill="#94A3B8" points="861.8945,984.5156,871.8945,988.5156,861.8945,992.5156,865.8945,988.5156" style="stroke:#94A3B8;stroke-width:1;"/><line style="stroke:#94A3B8;stroke-width:1;" x1="609.2539" x2="867.8945" y1="988.5156" y2="988.5156"/><text fill="#94A3B8" font-family="Segoe UI" font-size="12" lengthAdjust="spacing" textLength="133.9453" x="616.2539" y="955.748">POST /realms/.../token</text><text fill="#94A3B8" font-family="Segoe UI" font-size="12" lengthAdjust="spacing" textLength="202.5996" x="616.2539" y="969.7168">{ grant_type: authorization_code,</text><text fill="#94A3B8" font-family="Segoe UI" font-size="12" lengthAdjust="spacing" textLength="68.748" x="623.8828" y="983.6855">code: xyz }</text><polygon fill="#94A3B8" points="620.2539,1012.4844,610.2539,1016.4844,620.2539,1020.4844,616.2539,1016.4844" style="stroke:#94A3B8;stroke-width:1;"/><line style="stroke:#94A3B8;stroke-width:1;stroke-dasharray:2.0,2.0;" x1="614.2539" x2="872.8945" y1="1016.4844" y2="1016.4844"/><text fill="#94A3B8" font-family="Segoe UI" font-size="12" lengthAdjust="spacing" textLength="193.6465" x="626.2539" y="1011.6543">{ access_token, refresh_token }</text><line style="stroke:#94A3B8;stroke-width:1;" x1="609.2539" x2="651.2539" y1="1086.3594" y2="1086.3594"/><line style="stroke:#94A3B8;stroke-width:1;" x1="651.2539" x2="651.2539" y1="1086.3594" y2="1099.3594"/><line style="stroke:#94A3B8;stroke-width:1;" x1="610.2539" x2="651.2539" y1="1099.3594" y2="1099.3594"/><polygon fill="#94A3B8" points="620.2539,1095.3594,610.2539,1099.3594,620.2539,1103.3594,616.2539,1099.3594" style="stroke:#94A3B8;stroke-width:1;"/><text fill="#94A3B8" font-family="Segoe UI" font-size="12" lengthAdjust="spacing" textLength="72.7617" x="616.2539" y="1039.623">Set cookies:</text><text fill="#94A3B8" font-family="Segoe UI" font-size="12" lengthAdjust="spacing" textLength="174.9609" x="623.8828" y="1053.5918">waf_access = JWT (HttpOnly)</text><text fill="#94A3B8" font-family="Segoe UI" font-size="12" lengthAdjust="spacing" textLength="228.0117" x="623.8828" y="1067.5605">waf_refresh = token (HttpOnly, Strict)</text><text fill="#94A3B8" font-family="Segoe UI" font-size="12" lengthAdjust="spacing" textLength="164.5488" x="616.2539" y="1081.5293">Sanitize redirect from state</text><polygon fill="#94A3B8" points="343.5371,1165.2344,333.5371,1169.2344,343.5371,1173.2344,339.5371,1169.2344" style="stroke:#94A3B8;stroke-width:1;"/><line style="stroke:#94A3B8;stroke-width:1;stroke-dasharray:2.0,2.0;" x1="337.5371" x2="603.2539" y1="1169.2344" y2="1169.2344"/><text fill="#94A3B8" font-family="Segoe UI" font-size="12" lengthAdjust="spacing" textLength="139.459" x="349.5371" y="1122.498">WS: http_response 302</text><text fill="#94A3B8" font-family="Segoe UI" font-size="12" lengthAdjust="spacing" textLength="126.5566" x="349.5371" y="1136.4668">Location: /dashboard</text><text fill="#94A3B8" font-family="Segoe UI" font-size="12" lengthAdjust="spacing" textLength="161.9473" x="349.5371" y="1150.4355">Set-Cookie: waf_access=...</text><text fill="#94A3B8" font-family="Segoe UI" font-size="12" lengthAdjust="spacing" textLength="164.2266" x="349.5371" y="1164.4043">Set-Cookie: waf_refresh=...</text><polygon fill="#94A3B8" points="62.4453,1193.2031,52.4453,1197.2031,62.4453,1201.2031,58.4453,1197.2031" style="stroke:#94A3B8;stroke-width:1;"/><line style="stroke:#94A3B8;stroke-width:1;stroke-dasharray:2.0,2.0;" x1="56.4453" x2="331.5371" y1="1197.2031" y2="1197.2031"/><text fill="#94A3B8" font-family="Segoe UI" font-size="12" lengthAdjust="spacing" textLength="120.5215" x="68.4453" y="1192.373">HTTP 302 + cookies</text><path d="M17,1210.2031 L17,1289.2031 L636,1289.2031 L636,1220.2031 L626,1210.2031 L17,1210.2031 " fill="#1E293B" style="stroke:#334155;stroke-width:1;"/><path d="M626,1210.2031 L626,1220.2031 L636,1220.2031 L626,1210.2031 " fill="#1E293B" style="stroke:#334155;stroke-width:1;"/><text fill="#F8FAFC" font-family="Segoe UI" font-size="12" lengthAdjust="spacing" textLength="310.1719" x="148.6113" y="1226.3418">All subsequent requests include waf_access cookie.</text><text fill="#F8FAFC" font-family="Segoe UI" font-size="12" lengthAdjust="spacing" textLength="221.7598" x="148.6113" y="1240.3105">WAF validates JWT on every request.</text><text fill="#F8FAFC" font-family="Segoe UI" font-size="12" lengthAdjust="spacing" textLength="304.3477" x="148.6113" y="1254.2793">Transparent refresh via waf_refresh when expired.</text><text fill="#F8FAFC" font-family="Segoe UI" font-size="12" lengthAdjust="spacing" textLength="347.5195" x="148.6113" y="1268.248">Session token endpoint returns JWT for DataChannel auth</text><text fill="#F8FAFC" font-family="Segoe UI" font-size="12" lengthAdjust="spacing" textLength="156.2168" x="148.6113" y="1282.2168">(Cache-Control: no-store).</text><!--SRC=[fLLHJoCt47xVNp6bBqGb2IHtxTrAAJh2qRkA0qI2U8aKETxPn8rZRsqd8I1UxmVq9_QNTEpTJLWI0QS-83QURxwP-MOy_ibDS8QGIIPKv8IJ29TVJxjmhiT2mPdKIzXt4wFdumbywVUlu1ebMzMYo4w5ofXXCtY804QCJyU4KabNIstWvyFqwBSM8qk2APjBTwQLAqpfXvIbl6gwO9J4NW_76k7cwrxLs1Ft24SjEkpXttDK7Cz5IdyAJxH9q1IyxVQxe_VlTw6U9tU4hO_j4I6lc762YumfzpPG9TxeGolzjGhOLUOdO_IoEFpuZf5RUVW4lJPSQFT2mi6wisXlsHMz5EDKB0IvRL5lgLO0jxaUeoZRL0fx9rI1HRC7pC8e_rvdMW7s-ZSNH6yMQ0PgtuG12bxMpTLkbzjFPm6nPEbkG9zox4hDfW7c-1eLTJeqeuamo1quNGnofnD5POxrt_F0CVpnkGzDDdUJflIeOrFuTPe9ivEHPYQ90fHSV2OntFPYc3YN3OrNopeeoecyUOtgCIMS7zgI4C9D2SN_vNyghUhUqOa5pVlrkQqDrCbSo0JMTO7Fozi6QYdeophciFD0dXmFriIFUU1DIKyIj9bM5g5zs1geSyqfc5OnD0qoERFDHgFHr1agaTIvLeguWX95lKHOoXNdzvveWhQR17DbzpEZxmGcK6u9Qbtj9RsVnFS1ZxaKgDnG91qw-a6vgUynN542gztaf7Zx46W-n0prtDKYSgYlsVC2CZP6Al7RURM7rxWqmY7qkw51yE_tVw19MMQUVA1wJfjWv5fF1T8iX_ckMvBdzPwq3Wzt2Rr9gABU1d3Z_v5QQ2nmcW7w54pQNLfVNVQgUeGHhpFkny06TRmtZGN-3z53b0fNHM4QckA2SIQbVoIEkKwmSxUwVzFWlZgDNMA3ptTymXHryRLRlft46oltgYseEe-BgZeybzdfAQg1Ue2neKKrTAiCuw2GDk8-tC6XZtumK03-8mRA0nwhkZq0unoj7GOsVzrJacMI_oJmitM3hXp3sDFIwJ3tXmxyUTk7_IzKrAMIgrffBWZ9dbEk4GVGSqPmHyZjBPOQFSiNKVJZUsUzKeaPNRqR4ewV9Dl9BzOpMv5fM0u9LXlnmdJ0BwKaKQJeQGHDjxF47GHtUeIb13iVsV3oEIYwRa4eBkS9FXKo9skG4-qtM30f4ah31dcr0YJsLKdWKNtglgMjd_FcOYy4guY_f5i3U9UHk4aZlC3MabP5Ir0bcHR1tSsDoaEbz1wVCiUwDF0APHWiyjplCZv1qaqvesLCxqlT-WLLQqH40rw0w3y0]--></g></svg>