<svg xmlns="http://www.w3.org/2000/svg" xmlns:xlink="http://www.w3.org/1999/xlink" contentStyleType="text/css" height="1893px" preserveAspectRatio="none" style="width:1129px;height:1893px;background:#0F172A;" version="1.1" viewBox="0 0 1129 1893" width="1129px" zoomAndPan="magnify"><title>Service Worker DataChannel Tunneling</title><defs/><g><rect fill="#0F172A" height="1893" style="stroke:none;stroke-width:1;" width="1129" x="0" y="0"/><text fill="#F8FAFC" font-family="Segoe UI" font-size="22" font-weight="bold" lengthAdjust="spacing" textLength="487.3838" x="319.7778" y="35.4209">Service Worker DataChannel Tunneling</text><rect fill="#1E293B" height="1323.9688" style="stroke:#334155;stroke-width:1;" width="10" x="182.4902" y="415.2344"/><rect fill="#1E293B" height="949.5625" style="stroke:#334155;stroke-width:1;" width="10" x="417.5684" y="692.7656"/><rect fill="#1E293B" height="630.0938" style="stroke:#334155;stroke-width:1;" width="10" x="668.6563" y="887.4219"/><rect fill="#1E293B" height="582.1563" style="stroke:#334155;stroke-width:1;" width="10" x="860.25" y="915.3906"/><rect fill="#FFFFFF" height="269.5625" style="stroke:#334155;stroke-width:1;" width="327.7158" x="607.6973" y="1220.9844"/><rect fill="#FFFFFF" height="197.6875" style="stroke:none;stroke-width:1;" width="327.7158" x="607.6973" y="1292.8594"/><line style="stroke:#334155;stroke-width:1;" x1="59" x2="59" y1="94.5469" y2="1847.0469"/><line style="stroke:#334155;stroke-width:1;" x1="187.3154" x2="187.3154" y1="94.5469" y2="1847.0469"/><line style="stroke:#334155;stroke-width:1;" x1="421.8047" x2="421.8047" y1="94.5469" y2="1847.0469"/><line style="stroke:#334155;stroke-width:1;" x1="672.6973" x2="672.6973" y1="94.5469" y2="1847.0469"/><line style="stroke:#334155;stroke-width:1;" x1="865.0869" x2="865.0869" y1="94.5469" y2="1847.0469"/><line style="stroke:#334155;stroke-width:1;" x1="1074.2012" x2="1074.2012" y1="94.5469" y2="1847.0469"/><rect fill="#1E293B" height="41.9375" rx="2.5" ry="2.5" style="stroke:#3B82F6;stroke-width:1;" width="68.3047" x="25" y="51.6094"/><text fill="#F8FAFC" font-family="Segoe UI" font-size="12" lengthAdjust="spacing" textLength="54.123" x="32.0908" y="69.748">Web App</text><text fill="#F8FAFC" font-family="Segoe UI" font-size="12" lengthAdjust="spacing" textLength="54.3047" x="32" y="83.7168">(page JS)</text><rect fill="#1E293B" height="41.9375" rx="2.5" ry="2.5" style="stroke:#3B82F6;stroke-width:1;" width="68.3047" x="25" y="1846.0469"/><text fill="#F8FAFC" font-family="Segoe UI" font-size="12" lengthAdjust="spacing" textLength="54.123" x="32.0908" y="1864.1855">Web App</text><text fill="#F8FAFC" font-family="Segoe UI" font-size="12" lengthAdjust="spacing" textLength="54.3047" x="32" y="1878.1543">(page JS)</text><rect fill="#1E293B" height="41.9375" rx="2.5" ry="2.5" style="stroke:#3B82F6;stroke-width:1;" width="58.3496" x="158.3154" y="51.6094"/><text fill="#F8FAFC" font-family="Segoe UI" font-size="12" lengthAdjust="spacing" textLength="44.3496" x="165.3154" y="69.748">Service</text><text fill="#F8FAFC" font-family="Segoe UI" font-size="12" lengthAdjust="spacing" textLength="43.4063" x="165.7871" y="83.7168">Worker</text><rect fill="#1E293B" height="41.9375" rx="2.5" ry="2.5" style="stroke:#3B82F6;stroke-width:1;" width="58.3496" x="158.3154" y="1846.0469"/><text fill="#F8FAFC" font-family="Segoe UI" font-size="12" lengthAdjust="spacing" textLength="44.3496" x="165.3154" y="1864.1855">Service</text><text fill="#F8FAFC" font-family="Segoe UI" font-size="12" lengthAdjust="spacing" textLength="43.4063" x="165.7871" y="1878.1543">Worker</text><rect fill="#1E293B" height="41.9375" rx="2.5" ry="2.5" style="stroke:#3B82F6;stroke-width:1;" width="77.5273" x="383.8047" y="51.6094"/><text fill="#F8FAFC" font-family="Segoe UI" font-size="12" lengthAdjust="spacing" textLength="45.3809" x="399.8779" y="69.748">webrtc-</text><text fill="#F8FAFC" font-family="Segoe UI" font-size="12" lengthAdjust="spacing" textLength="63.5273" x="390.8047" y="83.7168">upgrade.js</text><rect fill="#1E293B" height="41.9375" rx="2.5" ry="2.5" style="stroke:#3B82F6;stroke-width:1;" width="77.5273" x="383.8047" y="1846.0469"/><text fill="#F8FAFC" font-family="Segoe UI" font-size="12" lengthAdjust="spacing" textLength="45.3809" x="399.8779" y="1864.1855">webrtc-</text><text fill="#F8FAFC" font-family="Segoe UI" font-size="12" lengthAdjust="spacing" textLength="63.5273" x="390.8047" y="1878.1543">upgrade.js</text><rect fill="#1E293B" height="27.9688" rx="2.5" ry="2.5" style="stroke:#3B82F6;stroke-width:1;" width="91.918" x="627.6973" y="65.5781"/><text fill="#F8FAFC" font-family="Segoe UI" font-size="12" lengthAdjust="spacing" textLength="77.918" x="634.6973" y="83.7168">DataChannel</text><rect fill="#1E293B" height="27.9688" rx="2.5" ry="2.5" style="stroke:#3B82F6;stroke-width:1;" width="91.918" x="627.6973" y="1846.0469"/><text fill="#F8FAFC" font-family="Segoe UI" font-size="12" lengthAdjust="spacing" textLength="77.918" x="634.6973" y="1864.1855">DataChannel</text><rect fill="#1E293B" height="41.9375" rx="2.5" ry="2.5" style="stroke:#3B82F6;stroke-width:1;" width="100.3262" x="815.0869" y="51.6094"/><text fill="#F8FAFC" font-family="Segoe UI" font-size="12" lengthAdjust="spacing" textLength="53.0098" x="838.7451" y="69.748">Gateway</text><text fill="#F8FAFC" font-family="Segoe UI" font-size="12" lengthAdjust="spacing" textLength="86.3262" x="822.0869" y="83.7168">(peer handler)</text><rect fill="#1E293B" height="41.9375" rx="2.5" ry="2.5" style="stroke:#3B82F6;stroke-width:1;" width="100.3262" x="815.0869" y="1846.0469"/><text fill="#F8FAFC" font-family="Segoe UI" font-size="12" lengthAdjust="spacing" textLength="53.0098" x="838.7451" y="1864.1855">Gateway</text><text fill="#F8FAFC" font-family="Segoe UI" font-size="12" lengthAdjust="spacing" textLength="86.3262" x="822.0869" y="1878.1543">(peer handler)</text><rect fill="#1E293B" height="27.9688" rx="2.5" ry="2.5" style="stroke:#3B82F6;stroke-width:1;" width="65.7383" x="1042.2012" y="65.5781"/><text fill="#F8FAFC" font-family="Segoe UI" font-size="12" lengthAdjust="spacing" textLength="51.7383" x="1049.2012" y="83.7168">Backend</text><rect fill="#1E293B" height="27.9688" rx="2.5" ry="2.5" style="stroke:#3B82F6;stroke-width:1;" width="65.7383" x="1042.2012" y="1846.0469"/><text fill="#F8FAFC" font-family="Segoe UI" font-size="12" lengthAdjust="spacing" textLength="51.7383" x="1049.2012" y="1864.1855">Backend</text><rect fill="#1E293B" height="1323.9688" style="stroke:#334155;stroke-width:1;" width="10" x="182.4902" y="415.2344"/><rect fill="#1E293B" height="949.5625" style="stroke:#334155;stroke-width:1;" width="10" x="417.5684" y="692.7656"/><rect fill="#1E293B" height="630.0938" style="stroke:#334155;stroke-width:1;" width="10" x="668.6563" y="887.4219"/><rect fill="#1E293B" height="582.1563" style="stroke:#334155;stroke-width:1;" width="10" x="860.25" y="915.3906"/><rect fill="#334155" height="3" style="stroke:#334155;stroke-width:1;" width="1117.9395" x="5" y="124.5313"/><line style="stroke:#000000;stroke-width:0.5;" x1="5" x2="1122.9395" y1="124.5313" y2="124.5313"/><line style="stroke:#000000;stroke-width:0.5;" x1="5" x2="1122.9395" y1="127.5313" y2="127.5313"/><rect fill="#334155" height="21.9688" style="stroke:#000000;stroke-width:1;" width="241.7773" x="443.0811" y="114.5469"/><text fill="#F8FAFC" font-family="Segoe UI" font-size="12" font-weight="bold" lengthAdjust="spacing" textLength="223.5996" x="449.0811" y="129.6855">Setup (after DataChannel opens)</text><line style="stroke:#94A3B8;stroke-width:1;" x1="422.5684" x2="464.5684" y1="180.4531" y2="180.4531"/><line style="stroke:#94A3B8;stroke-width:1;" x1="464.5684" x2="464.5684" y1="180.4531" y2="193.4531"/><line style="stroke:#94A3B8;stroke-width:1;" x1="423.5684" x2="464.5684" y1="193.4531" y2="193.4531"/><polygon fill="#94A3B8" points="433.5684,189.4531,423.5684,193.4531,433.5684,197.4531,429.5684,193.4531" style="stroke:#94A3B8;stroke-width:1;"/><text fill="#94A3B8" font-family="Segoe UI" font-size="12" lengthAdjust="spacing" textLength="146.1152" x="429.5684" y="161.6543">GET /auth/session-token</text><text fill="#94A3B8" font-family="Segoe UI" font-size="12" lengthAdjust="spacing" textLength="237.0879" x="429.5684" y="175.623">(via HTTP relay, reads HttpOnly cookie)</text><line style="stroke:#94A3B8;stroke-width:1;" x1="422.5684" x2="464.5684" y1="221.4219" y2="221.4219"/><line style="stroke:#94A3B8;stroke-width:1;" x1="464.5684" x2="464.5684" y1="221.4219" y2="234.4219"/><line style="stroke:#94A3B8;stroke-width:1;" x1="423.5684" x2="464.5684" y1="234.4219" y2="234.4219"/><polygon fill="#94A3B8" points="433.5684,230.4219,423.5684,234.4219,433.5684,238.4219,429.5684,234.4219" style="stroke:#94A3B8;stroke-width:1;"/><text fill="#94A3B8" font-family="Segoe UI" font-size="12" lengthAdjust="spacing" textLength="133.8984" x="429.5684" y="216.5918">Store JWT for injection</text><polygon fill="#94A3B8" points="198.4902,272.3594,188.4902,276.3594,198.4902,280.3594,194.4902,276.3594" style="stroke:#94A3B8;stroke-width:1;"/><line style="stroke:#94A3B8;stroke-width:1;" x1="192.4902" x2="421.5684" y1="276.3594" y2="276.3594"/><text fill="#94A3B8" font-family="Segoe UI" font-size="12" lengthAdjust="spacing" textLength="97.4941" x="204.4902" y="257.5605">register /js/sw.js</text><text fill="#94A3B8" font-family="Segoe UI" font-size="12" lengthAdjust="spacing" textLength="67.4941" x="204.4902" y="271.5293">(scope: "/")</text><polygon fill="#94A3B8" points="198.4902,300.3281,188.4902,304.3281,198.4902,308.3281,194.4902,304.3281" style="stroke:#94A3B8;stroke-width:1;"/><line style="stroke:#94A3B8;stroke-width:1;" x1="192.4902" x2="421.5684" y1="304.3281" y2="304.3281"/><text fill="#94A3B8" font-family="Segoe UI" font-size="12" lengthAdjust="spacing" textLength="211.0781" x="204.4902" y="299.498">postMessage({ type: "dc_ready" })</text><line style="stroke:#94A3B8;stroke-width:1;" x1="187.4902" x2="229.4902" y1="332.2969" y2="332.2969"/><line style="stroke:#94A3B8;stroke-width:1;" x1="229.4902" x2="229.4902" y1="332.2969" y2="345.2969"/><line style="stroke:#94A3B8;stroke-width:1;" x1="188.4902" x2="229.4902" y1="345.2969" y2="345.2969"/><polygon fill="#94A3B8" points="198.4902,341.2969,188.4902,345.2969,198.4902,349.2969,194.4902,345.2969" style="stroke:#94A3B8;stroke-width:1;"/><text fill="#94A3B8" font-family="Segoe UI" font-size="12" lengthAdjust="spacing" textLength="157.2539" x="194.4902" y="327.4668">Add client to dcClients set</text><rect fill="#334155" height="3" style="stroke:#334155;stroke-width:1;" width="1117.9395" x="5" y="373.2813"/><line style="stroke:#000000;stroke-width:0.5;" x1="5" x2="1122.9395" y1="373.2813" y2="373.2813"/><line style="stroke:#000000;stroke-width:0.5;" x1="5" x2="1122.9395" y1="376.2813" y2="376.2813"/><rect fill="#334155" height="21.9688" style="stroke:#000000;stroke-width:1;" width="143.3633" x="492.2881" y="363.2969"/><text fill="#F8FAFC" font-family="Segoe UI" font-size="12" font-weight="bold" lengthAdjust="spacing" textLength="125.1855" x="498.2881" y="378.4355">Fetch Interception</text><polygon fill="#94A3B8" points="170.4902,411.2344,180.4902,415.2344,170.4902,419.2344,174.4902,415.2344" style="stroke:#94A3B8;stroke-width:1;"/><line style="stroke:#94A3B8;stroke-width:1;" x1="59.1523" x2="176.4902" y1="415.2344" y2="415.2344"/><text fill="#94A3B8" font-family="Segoe UI" font-size="12" lengthAdjust="spacing" textLength="104.3379" x="66.1523" y="410.4043">fetch("/api/data")</text><line style="stroke:#94A3B8;stroke-width:1;" x1="192.4902" x2="234.4902" y1="513.0469" y2="513.0469"/><line style="stroke:#94A3B8;stroke-width:1;" x1="234.4902" x2="234.4902" y1="513.0469" y2="526.0469"/><line style="stroke:#94A3B8;stroke-width:1;" x1="193.4902" x2="234.4902" y1="526.0469" y2="526.0469"/><polygon fill="#94A3B8" points="203.4902,522.0469,193.4902,526.0469,203.4902,530.0469,199.4902,526.0469" style="stroke:#94A3B8;stroke-width:1;"/><text fill="#94A3B8" font-family="Segoe UI" font-size="12" lengthAdjust="spacing" textLength="55.1309" x="199.4902" y="438.373">Decision:</text><text fill="#94A3B8" font-family="Segoe UI" font-size="12" lengthAdjust="spacing" textLength="94.9277" x="207.1191" y="452.3418">navigate? &#8594; NO</text><text fill="#94A3B8" font-family="Segoe UI" font-size="12" lengthAdjust="spacing" textLength="112.3477" x="207.1191" y="466.3105">cross-origin? &#8594; NO</text><text fill="#94A3B8" font-family="Segoe UI" font-size="12" lengthAdjust="spacing" textLength="126.5801" x="207.1191" y="480.2793">Gateway path? &#8594; NO</text><text fill="#94A3B8" font-family="Segoe UI" font-size="12" lengthAdjust="spacing" textLength="180.293" x="207.1191" y="494.248">dcClients.has(clientId)? &#8594; YES</text><text fill="#94A3B8" font-family="Segoe UI" font-size="12" lengthAdjust="spacing" textLength="152.5781" x="207.1191" y="508.2168">&#8594; Route via DataChannel</text><line style="stroke:#94A3B8;stroke-width:1;" x1="192.4902" x2="234.4902" y1="581.9531" y2="581.9531"/><line style="stroke:#94A3B8;stroke-width:1;" x1="234.4902" x2="234.4902" y1="581.9531" y2="594.9531"/><line style="stroke:#94A3B8;stroke-width:1;" x1="193.4902" x2="234.4902" y1="594.9531" y2="594.9531"/><polygon fill="#94A3B8" points="203.4902,590.9531,193.4902,594.9531,203.4902,598.9531,199.4902,594.9531" style="stroke:#94A3B8;stroke-width:1;"/><text fill="#94A3B8" font-family="Segoe UI" font-size="12" lengthAdjust="spacing" textLength="115.9629" x="199.4902" y="549.1855">Rewrite URL prefix:</text><text fill="#94A3B8" font-family="Segoe UI" font-size="12" lengthAdjust="spacing" textLength="123.9258" x="199.4902" y="563.1543">page at /__b/App1/...</text><text fill="#94A3B8" font-family="Segoe UI" font-size="12" lengthAdjust="spacing" textLength="126.0703" x="199.4902" y="577.123">&#8594; /__b/App1/api/data</text><polygon fill="#94A3B8" points="405.5684,688.7656,415.5684,692.7656,405.5684,696.7656,409.5684,692.7656" style="stroke:#94A3B8;stroke-width:1;"/><line style="stroke:#94A3B8;stroke-width:1;" x1="192.4902" x2="411.5684" y1="692.7656" y2="692.7656"/><text fill="#94A3B8" font-family="Segoe UI" font-size="12" lengthAdjust="spacing" textLength="83.1914" x="199.4902" y="618.0918">postMessage(</text><text fill="#94A3B8" font-family="Segoe UI" font-size="12" lengthAdjust="spacing" textLength="111.6973" x="207.1191" y="632.0605">{ type: "dc_fetch",</text><text fill="#94A3B8" font-family="Segoe UI" font-size="12" lengthAdjust="spacing" textLength="150.7852" x="214.748" y="646.0293">url: "/__b/App1/api/data",</text><text fill="#94A3B8" font-family="Segoe UI" font-size="12" lengthAdjust="spacing" textLength="93.2637" x="214.748" y="659.998">method: "GET",</text><text fill="#94A3B8" font-family="Segoe UI" font-size="12" lengthAdjust="spacing" textLength="98.3613" x="214.748" y="673.9668">headers: {...} },</text><text fill="#94A3B8" font-family="Segoe UI" font-size="12" lengthAdjust="spacing" textLength="90.8555" x="207.1191" y="687.9355">[MessagePort])</text><line style="stroke:#94A3B8;stroke-width:1;" x1="427.5684" x2="469.5684" y1="734.7031" y2="734.7031"/><line style="stroke:#94A3B8;stroke-width:1;" x1="469.5684" x2="469.5684" y1="734.7031" y2="747.7031"/><line style="stroke:#94A3B8;stroke-width:1;" x1="428.5684" x2="469.5684" y1="747.7031" y2="747.7031"/><polygon fill="#94A3B8" points="438.5684,743.7031,428.5684,747.7031,438.5684,751.7031,434.5684,747.7031" style="stroke:#94A3B8;stroke-width:1;"/><text fill="#94A3B8" font-family="Segoe UI" font-size="12" lengthAdjust="spacing" textLength="107.9473" x="434.5684" y="715.9043">Inject session JWT</text><text fill="#94A3B8" font-family="Segoe UI" font-size="12" lengthAdjust="spacing" textLength="111.8379" x="434.5684" y="729.873">into cookie header</text><polygon fill="#94A3B8" points="656.6563,883.4219,666.6563,887.4219,656.6563,891.4219,660.6563,887.4219" style="stroke:#94A3B8;stroke-width:1;"/><line style="stroke:#94A3B8;stroke-width:1;" x1="427.5684" x2="662.6563" y1="887.4219" y2="887.4219"/><text fill="#94A3B8" font-family="Segoe UI" font-size="12" lengthAdjust="spacing" textLength="128.3555" x="434.5684" y="770.8418">send(JSON.stringify({</text><text fill="#94A3B8" font-family="Segoe UI" font-size="12" lengthAdjust="spacing" textLength="126.0293" x="442.1973" y="784.8105">type: "http_request",</text><text fill="#94A3B8" font-family="Segoe UI" font-size="12" lengthAdjust="spacing" textLength="71.7891" x="442.1973" y="798.7793">id: "uuid-1",</text><text fill="#94A3B8" font-family="Segoe UI" font-size="12" lengthAdjust="spacing" textLength="93.2637" x="442.1973" y="812.748">method: "GET",</text><text fill="#94A3B8" font-family="Segoe UI" font-size="12" lengthAdjust="spacing" textLength="150.7852" x="442.1973" y="826.7168">url: "/__b/App1/api/data",</text><text fill="#94A3B8" font-family="Segoe UI" font-size="12" lengthAdjust="spacing" textLength="64.0195" x="442.1973" y="840.6855">headers: {</text><text fill="#94A3B8" font-family="Segoe UI" font-size="12" lengthAdjust="spacing" textLength="203.625" x="449.8262" y="854.6543">cookie: "gateway_access=&lt;jwt&gt;"</text><text fill="#94A3B8" font-family="Segoe UI" font-size="12" lengthAdjust="spacing" textLength="11.4492" x="442.1973" y="868.623">},</text><text fill="#94A3B8" font-family="Segoe UI" font-size="12" lengthAdjust="spacing" textLength="69.3867" x="442.1973" y="882.5918">body: "" }))</text><polygon fill="#94A3B8" points="848.25,911.3906,858.25,915.3906,848.25,919.3906,852.25,915.3906" style="stroke:#94A3B8;stroke-width:1;"/><line style="stroke:#94A3B8;stroke-width:1;" x1="678.6563" x2="854.25" y1="915.3906" y2="915.3906"/><text fill="#94A3B8" font-family="Segoe UI" font-size="12" lengthAdjust="spacing" textLength="135.6621" x="685.6563" y="910.5605">DataChannel message</text><line style="stroke:#94A3B8;stroke-width:1;" x1="870.25" x2="912.25" y1="971.2969" y2="971.2969"/><line style="stroke:#94A3B8;stroke-width:1;" x1="912.25" x2="912.25" y1="971.2969" y2="984.2969"/><line style="stroke:#94A3B8;stroke-width:1;" x1="871.25" x2="912.25" y1="984.2969" y2="984.2969"/><polygon fill="#94A3B8" points="881.25,980.2969,871.25,984.2969,881.25,988.2969,877.25,984.2969" style="stroke:#94A3B8;stroke-width:1;"/><text fill="#94A3B8" font-family="Segoe UI" font-size="12" lengthAdjust="spacing" textLength="134.1797" x="877.25" y="938.5293">Validate HTTP method</text><text fill="#94A3B8" font-family="Segoe UI" font-size="12" lengthAdjust="spacing" textLength="142.4297" x="877.25" y="952.498">HTTP to 127.0.0.1:7891</text><text fill="#94A3B8" font-family="Segoe UI" font-size="12" lengthAdjust="spacing" textLength="85.2773" x="877.25" y="966.4668">(30 s timeout)</text><line style="stroke:#94A3B8;stroke-width:1;" x1="870.25" x2="912.25" y1="1054.1719" y2="1054.1719"/><line style="stroke:#94A3B8;stroke-width:1;" x1="912.25" x2="912.25" y1="1054.1719" y2="1067.1719"/><line style="stroke:#94A3B8;stroke-width:1;" x1="871.25" x2="912.25" y1="1067.1719" y2="1067.1719"/><polygon fill="#94A3B8" points="881.25,1063.1719,871.25,1067.1719,881.25,1071.1719,877.25,1067.1719" style="stroke:#94A3B8;stroke-width:1;"/><text fill="#94A3B8" font-family="Segoe UI" font-size="12" lengthAdjust="spacing" textLength="129.2109" x="877.25" y="1007.4355">Strip /__b/App1 prefix</text><text fill="#94A3B8" font-family="Segoe UI" font-size="12" lengthAdjust="spacing" textLength="96.7324" x="877.25" y="1021.4043">Verify JWT &#8594; OK</text><text fill="#94A3B8" font-family="Segoe UI" font-size="12" lengthAdjust="spacing" textLength="150.2988" x="877.25" y="1035.373">Inject backend cookie jar</text><text fill="#94A3B8" font-family="Segoe UI" font-size="12" lengthAdjust="spacing" textLength="116.168" x="877.25" y="1049.3418">(keyed by JWT sub)</text><polygon fill="#94A3B8" points="1063.0703,1105.1094,1073.0703,1109.1094,1063.0703,1113.1094,1067.0703,1109.1094" style="stroke:#94A3B8;stroke-width:1;"/><line style="stroke:#94A3B8;stroke-width:1;" x1="870.25" x2="1069.0703" y1="1109.1094" y2="1109.1094"/><text fill="#94A3B8" font-family="Segoe UI" font-size="12" lengthAdjust="spacing" textLength="81.4453" x="877.25" y="1090.3105">GET /api/data</text><text fill="#94A3B8" font-family="Segoe UI" font-size="12" lengthAdjust="spacing" textLength="180.8203" x="877.25" y="1104.2793">(with stored backend cookies)</text><polygon fill="#94A3B8" points="881.25,1147.0469,871.25,1151.0469,881.25,1155.0469,877.25,1151.0469" style="stroke:#94A3B8;stroke-width:1;"/><line style="stroke:#94A3B8;stroke-width:1;stroke-dasharray:2.0,2.0;" x1="875.25" x2="1074.0703" y1="1151.0469" y2="1151.0469"/><text fill="#94A3B8" font-family="Segoe UI" font-size="12" lengthAdjust="spacing" textLength="105.3105" x="887.25" y="1132.248">200 { data: [...] }</text><text fill="#94A3B8" font-family="Segoe UI" font-size="12" lengthAdjust="spacing" textLength="125.2441" x="887.25" y="1146.2168">+ Set-Cookie (if any)</text><line style="stroke:#94A3B8;stroke-width:1;" x1="870.25" x2="912.25" y1="1192.9844" y2="1192.9844"/><line style="stroke:#94A3B8;stroke-width:1;" x1="912.25" x2="912.25" y1="1192.9844" y2="1205.9844"/><line style="stroke:#94A3B8;stroke-width:1;" x1="871.25" x2="912.25" y1="1205.9844" y2="1205.9844"/><polygon fill="#94A3B8" points="881.25,1201.9844,871.25,1205.9844,881.25,1209.9844,877.25,1205.9844" style="stroke:#94A3B8;stroke-width:1;"/><text fill="#94A3B8" font-family="Segoe UI" font-size="12" lengthAdjust="spacing" textLength="100.5586" x="877.25" y="1174.1855">Store Set-Cookie</text><text fill="#94A3B8" font-family="Segoe UI" font-size="12" lengthAdjust="spacing" textLength="128.0742" x="877.25" y="1188.1543">in backend cookie jar</text><path d="M607.6973,1220.9844 L670.6445,1220.9844 L670.6445,1226.9531 L660.6445,1236.9531 L607.6973,1236.9531 L607.6973,1220.9844 " fill="#1E293B" style="stroke:#334155;stroke-width:1;"/><rect fill="none" height="269.5625" style="stroke:#334155;stroke-width:1;" width="327.7158" x="607.6973" y="1220.9844"/><text fill="#F8FAFC" font-family="Segoe UI" font-size="12" font-weight="bold" lengthAdjust="spacing" textLength="17.9473" x="622.6973" y="1233.123">alt</text><text fill="#F8FAFC" font-family="Segoe UI" font-size="12" font-weight="bold" lengthAdjust="spacing" textLength="138.0527" x="685.6445" y="1234.123">[Response &lt; 200KB]</text><polygon fill="#94A3B8" points="689.6563,1280.8594,679.6563,1284.8594,689.6563,1288.8594,685.6563,1284.8594" style="stroke:#94A3B8;stroke-width:1;"/><line style="stroke:#94A3B8;stroke-width:1;" x1="683.6563" x2="859.25" y1="1284.8594" y2="1284.8594"/><text fill="#94A3B8" font-family="Segoe UI" font-size="12" lengthAdjust="spacing" textLength="85.4004" x="695.6563" y="1252.0918">http_response</text><text fill="#94A3B8" font-family="Segoe UI" font-size="12" lengthAdjust="spacing" textLength="132.1992" x="695.6563" y="1266.0605">{ id, statusCode: 200,</text><text fill="#94A3B8" font-family="Segoe UI" font-size="12" lengthAdjust="spacing" textLength="149.0156" x="703.2852" y="1280.0293">headers, body: base64 }</text><line style="stroke:#334155;stroke-width:1;stroke-dasharray:2.0,2.0;" x1="607.6973" x2="935.4131" y1="1293.8594" y2="1293.8594"/><text fill="#F8FAFC" font-family="Segoe UI" font-size="12" font-weight="bold" lengthAdjust="spacing" textLength="210.6504" x="612.6973" y="1304.998">[Response &gt; 200KB (chunked)]</text><polygon fill="#94A3B8" points="689.6563,1352.7344,679.6563,1356.7344,689.6563,1360.7344,685.6563,1356.7344" style="stroke:#94A3B8;stroke-width:1;"/><line style="stroke:#94A3B8;stroke-width:1;" x1="683.6563" x2="859.25" y1="1356.7344" y2="1356.7344"/><text fill="#94A3B8" font-family="Segoe UI" font-size="12" lengthAdjust="spacing" textLength="119.3496" x="695.6563" y="1323.9668">http_response_start</text><text fill="#94A3B8" font-family="Segoe UI" font-size="12" lengthAdjust="spacing" textLength="157.5938" x="695.6563" y="1337.9355">{ id, statusCode, headers,</text><text fill="#94A3B8" font-family="Segoe UI" font-size="12" lengthAdjust="spacing" textLength="98.7773" x="703.2852" y="1351.9043">totalChunks: 3 }</text><polygon fill="#94A3B8" points="689.6563,1394.6719,679.6563,1398.6719,689.6563,1402.6719,685.6563,1398.6719" style="stroke:#94A3B8;stroke-width:1;"/><line style="stroke:#94A3B8;stroke-width:1;" x1="683.6563" x2="859.25" y1="1398.6719" y2="1398.6719"/><text fill="#94A3B8" font-family="Segoe UI" font-size="12" lengthAdjust="spacing" textLength="127.7637" x="695.6563" y="1379.873">http_response_chunk</text><text fill="#94A3B8" font-family="Segoe UI" font-size="12" lengthAdjust="spacing" textLength="155.0098" x="695.6563" y="1393.8418">{ id, index: 0, data: "..." }</text><polygon fill="#94A3B8" points="689.6563,1436.6094,679.6563,1440.6094,689.6563,1444.6094,685.6563,1440.6094" style="stroke:#94A3B8;stroke-width:1;"/><line style="stroke:#94A3B8;stroke-width:1;" x1="683.6563" x2="859.25" y1="1440.6094" y2="1440.6094"/><text fill="#94A3B8" font-family="Segoe UI" font-size="12" lengthAdjust="spacing" textLength="127.7637" x="695.6563" y="1421.8105">http_response_chunk</text><text fill="#94A3B8" font-family="Segoe UI" font-size="12" lengthAdjust="spacing" textLength="155.0098" x="695.6563" y="1435.7793">{ id, index: 1, data: "..." }</text><polygon fill="#94A3B8" points="689.6563,1478.5469,679.6563,1482.5469,689.6563,1486.5469,685.6563,1482.5469" style="stroke:#94A3B8;stroke-width:1;"/><line style="stroke:#94A3B8;stroke-width:1;" x1="683.6563" x2="859.25" y1="1482.5469" y2="1482.5469"/><text fill="#94A3B8" font-family="Segoe UI" font-size="12" lengthAdjust="spacing" textLength="127.7637" x="695.6563" y="1463.748">http_response_chunk</text><text fill="#94A3B8" font-family="Segoe UI" font-size="12" lengthAdjust="spacing" textLength="155.0098" x="695.6563" y="1477.7168">{ id, index: 2, data: "..." }</text><polygon fill="#94A3B8" points="438.5684,1513.5156,428.5684,1517.5156,438.5684,1521.5156,434.5684,1517.5156" style="stroke:#94A3B8;stroke-width:1;"/><line style="stroke:#94A3B8;stroke-width:1;" x1="432.5684" x2="672.6563" y1="1517.5156" y2="1517.5156"/><text fill="#94A3B8" font-family="Segoe UI" font-size="12" lengthAdjust="spacing" textLength="68.877" x="444.5684" y="1512.6855">onmessage</text><line style="stroke:#94A3B8;stroke-width:1;" x1="427.5684" x2="469.5684" y1="1559.4531" y2="1559.4531"/><line style="stroke:#94A3B8;stroke-width:1;" x1="469.5684" x2="469.5684" y1="1559.4531" y2="1572.4531"/><line style="stroke:#94A3B8;stroke-width:1;" x1="428.5684" x2="469.5684" y1="1572.4531" y2="1572.4531"/><polygon fill="#94A3B8" points="438.5684,1568.4531,428.5684,1572.4531,438.5684,1576.4531,434.5684,1572.4531" style="stroke:#94A3B8;stroke-width:1;"/><text fill="#94A3B8" font-family="Segoe UI" font-size="12" lengthAdjust="spacing" textLength="93.252" x="434.5684" y="1540.6543">Decode base64</text><text fill="#94A3B8" font-family="Segoe UI" font-size="12" lengthAdjust="spacing" textLength="141.4629" x="434.5684" y="1554.623">(or reassemble chunks)</text><polygon fill="#94A3B8" points="203.4902,1638.3281,193.4902,1642.3281,203.4902,1646.3281,199.4902,1642.3281" style="stroke:#94A3B8;stroke-width:1;"/><line style="stroke:#94A3B8;stroke-width:1;" x1="197.4902" x2="421.5684" y1="1642.3281" y2="1642.3281"/><text fill="#94A3B8" font-family="Segoe UI" font-size="12" lengthAdjust="spacing" textLength="119.2383" x="209.4902" y="1595.5918">port.postMessage({</text><text fill="#94A3B8" font-family="Segoe UI" font-size="12" lengthAdjust="spacing" textLength="102.1699" x="217.1191" y="1609.5605">statusCode: 200,</text><text fill="#94A3B8" font-family="Segoe UI" font-size="12" lengthAdjust="spacing" textLength="86.9121" x="217.1191" y="1623.5293">headers: {...},</text><text fill="#94A3B8" font-family="Segoe UI" font-size="12" lengthAdjust="spacing" textLength="97.541" x="217.1191" y="1637.498">body: base64 })</text><line style="stroke:#94A3B8;stroke-width:1;" x1="192.4902" x2="234.4902" y1="1698.2344" y2="1698.2344"/><line style="stroke:#94A3B8;stroke-width:1;" x1="234.4902" x2="234.4902" y1="1698.2344" y2="1711.2344"/><line style="stroke:#94A3B8;stroke-width:1;" x1="193.4902" x2="234.4902" y1="1711.2344" y2="1711.2344"/><polygon fill="#94A3B8" points="203.4902,1707.2344,193.4902,1711.2344,203.4902,1715.2344,199.4902,1711.2344" style="stroke:#94A3B8;stroke-width:1;"/><text fill="#94A3B8" font-family="Segoe UI" font-size="12" lengthAdjust="spacing" textLength="91.4707" x="199.4902" y="1665.4668">new Response(</text><text fill="#94A3B8" font-family="Segoe UI" font-size="12" lengthAdjust="spacing" textLength="67.166" x="207.1191" y="1679.4355">bodyBytes,</text><text fill="#94A3B8" font-family="Segoe UI" font-size="12" lengthAdjust="spacing" textLength="120.6094" x="207.1191" y="1693.4043">{ status, headers })</text><polygon fill="#94A3B8" points="70.1523,1735.2031,60.1523,1739.2031,70.1523,1743.2031,66.1523,1739.2031" style="stroke:#94A3B8;stroke-width:1;"/><line style="stroke:#94A3B8;stroke-width:1;stroke-dasharray:2.0,2.0;" x1="64.1523" x2="186.4902" y1="1739.2031" y2="1739.2031"/><text fill="#94A3B8" font-family="Segoe UI" font-size="12" lengthAdjust="spacing" textLength="98.9648" x="76.1523" y="1734.373">Response object</text><path d="M10,1752.2031 L10,1831.2031 L915,1831.2031 L915,1762.2031 L905,1752.2031 L10,1752.2031 " fill="#334155" style="stroke:#334155;stroke-width:1;"/><path d="M905,1752.2031 L905,1762.2031 L915,1762.2031 L905,1752.2031 " fill="#334155" style="stroke:#334155;stroke-width:1;"/><text fill="#F8FAFC" font-family="Segoe UI" font-size="12" lengthAdjust="spacing" textLength="283.7051" x="278.0659" y="1768.3418">Page navigations bypass SW &#8594; use HTTP relay.</text><text fill="#F8FAFC" font-family="Segoe UI" font-size="12" lengthAdjust="spacing" textLength="335.332" x="278.0659" y="1782.3105">Sub-resource fetches &#8594; DataChannel (only if dc_ready).</text><text fill="#F8FAFC" font-family="Segoe UI" font-size="12" lengthAdjust="spacing" textLength="349.2246" x="278.0659" y="1796.2793">No dc_ready &#8594; browser handles natively (proper cookies).</text><text fill="#F8FAFC" font-family="Segoe UI" font-size="12" lengthAdjust="spacing" textLength="228.6914" x="278.0659" y="1810.248">10 s timeout &#8594; fallback to HTTP relay.</text><text fill="#F8FAFC" font-family="Segoe UI" font-size="12" lengthAdjust="spacing" textLength="360.2813" x="278.0659" y="1824.2168">Backend Set-Cookie stored server-side (SW can't set them).</text><!--SRC=[fLVRRXit47tVhvYg3rsXkbXohaAS8d5kJbBRY9mOHHGOtENiYlQQt99SAwhXrtv0Fx5VqY7tefKi6oqAmx14dfavd3apf7-mSxn4o3CcP625pH2cgAz4Z72gz0LgUCKisvypAJ63ayBz4J8D0dCXPCuqkuJh021YyKMgLI7vligKXXztaj7ZCQCTZWahClj6ILjj9KyIbiJhMuUCI7Icc2g4pmUTzSsf-0DXDAR5AVvUe8pneqZeL-9BfJdgok_kxeFHmuVRK9laHZX-kXiHyfXfAsAHCsd_7MWjNlHad3nQ1smxvWkjrQ9QVFg0aLczs48t6uVAtaFOxsuzjDlP5hrEnblobz_jU1rsRrfVYIj1sxTytGMypUec2F9Lpg1pYX6yoFEP37EM8hoVTZl03B0yRnYkuIk5pcGfKGysY-tO1KRQnlsPBF9KCuw3S-FnjBZTeALt3-HtuDuoYmksTAIHseGiU8QwP9xUGSRb32NtcAZyt023lJtAd2ro25bYDnfFvIXD5_RsWi0Hxp_t_2VmzlK935bXvqE3nWWb-rQHLo9r9HYyEpav1eqPM_Re3-C6tbcR7ybi2R5I5mAxwzwcLcbA_-a995Gj8SynjkIpYKavdf2ZL1Z7RtXkXcP1-QHe9YQ64-WCEzqrSAwC_PMOKLd3Qx1B3-BncMEpxC1DDo1O3Nx1ESIPGCgKLPJtVV-PIelMP-SDsdWE1vA2nvWxPZuXJYQrYyH1miwGvMB8ANz4Xz4PhgXM10ZQqLvXB5p69ZC98DcLI0dq2_pzvrzmUEJMOgsCwIijKY7RwrNX8MTstbvl20_cp8JbGGvujuJyzdhgCExZ9rKG6rUVLeNNg7t2XHQ4-Vpf8-GQ4_6TIFhMO1Q6PsVHaBfbD1mC1ZFfFAwMwdFNxigwjglWMBGhuJFMwRbbW49dheYttDNxbsZdYXE4T5UlpQcKgCq4hedF3TpuvQzLk6EbxRTM3OZFXe8FlCgWagyJtqmAIVKl5LgvRuouip7KD-7xwT7Xm5XDjv58bk6r2riTQqug9udH53Asf2aSwQ8Gl3yg5swVvFwphqvPdhfaHmPfgOOp5iTqXBrdvmlxlECmPI8YnPU4Sb9lfO5J5hW_J-gbsEhqop9nAsnAiaqN3VOBomHtwxwvosFCfFz2IHkD7mzsw6SqUVpawOWQStS735XnYIIwRjlFb3ANhvHJwMmclw2cTFeXuAHrz64cgnBL0wigp3dJvFy2byWXAWrC4NLhiZMwdb5LDiba8UmSZ1irVCEdwGRrGh_cETxP8Rqwqmby9OLzWvkP_DbDolv-IIGK2J2vt3YTcsGhaDFKbWFGyCWijPl9bJG8proq3o_f2YjTUR5LOYeXCtbDMkeHVMOBiwyuUePjYVIgcaVCuAC7S1DWHgwR6C_B6136yq9U8E_U4-sCmcXxEsQlYUL5hopBzfqtakSk1Rp7eGzQEnIIu_S9xFIgz7OelPt_RZ_wd_RZJNkg4RK7hdK0RuqC9UicQO7uvc2X-Kwfgif0igCRZMuTO_0oeaUk9q9wsxYjj1siNLakl_VKkXfwhKwlgzvjS_DJhpNV9IuQGOIrxSkbnRAWrrN8fipEdRSd1-wscwpaf2BNc-rWxfgJz1W4TKMNDC5x_ZdIlCwEtJrItNSqSUaXiimfBJ0zzGrV66oz6mRkELT4VIgWAkZMBIzOD1xQ7bkXSgyAwiJwSkyE_AEq-Uuj8dhqckQnP8W6aKOo37DD3mZTp05dF6gDBc-Ti2npFUm6tJh5wbtLdWhLWA5eb8Q-eOSeX7J4cCcVt6r3JmpwnuVYE3ENhk0V]--></g></svg>