<svg xmlns="http://www.w3.org/2000/svg" xmlns:xlink="http://www.w3.org/1999/xlink" contentStyleType="text/css" height="1741px" preserveAspectRatio="none" style="width:1096px;height:1741px;background:#0F172A;" version="1.1" viewBox="0 0 1096 1741" width="1096px" zoomAndPan="magnify"><title>Service Worker DataChannel Tunneling</title><defs/><g><rect fill="#0F172A" height="1741" style="stroke:none;stroke-width:1;" width="1096" x="0" y="0"/><text fill="#F8FAFC" font-family="Segoe UI" font-size="22" font-weight="bold" lengthAdjust="spacing" textLength="487.3838" x="303.0825" y="35.4209">Service Worker DataChannel Tunneling</text><rect fill="#1E293B" height="1199.1875" style="stroke:#334155;stroke-width:1;" width="10" x="182.4902" y="415.2344"/><rect fill="#1E293B" height="838.75" style="stroke:#334155;stroke-width:1;" width="10" x="417.5684" y="678.7969"/><rect fill="#1E293B" height="519.2813" style="stroke:#334155;stroke-width:1;" width="10" x="668.6563" y="873.4531"/><rect fill="#1E293B" height="471.3438" style="stroke:#334155;stroke-width:1;" width="10" x="860.25" y="901.4219"/><rect fill="#FFFFFF" height="269.5625" style="stroke:#334155;stroke-width:1;" width="327.7158" x="607.6973" y="1096.2031"/><rect fill="#FFFFFF" height="197.6875" style="stroke:none;stroke-width:1;" width="327.7158" x="607.6973" y="1168.0781"/><line style="stroke:#334155;stroke-width:1;" x1="59" x2="59" y1="94.5469" y2="1694.3281"/><line style="stroke:#334155;stroke-width:1;" x1="187.3154" x2="187.3154" y1="94.5469" y2="1694.3281"/><line style="stroke:#334155;stroke-width:1;" x1="421.8047" x2="421.8047" y1="94.5469" y2="1694.3281"/><line style="stroke:#334155;stroke-width:1;" x1="672.6973" x2="672.6973" y1="94.5469" y2="1694.3281"/><line style="stroke:#334155;stroke-width:1;" x1="865.0869" x2="865.0869" y1="94.5469" y2="1694.3281"/><line style="stroke:#334155;stroke-width:1;" x1="1040.8105" x2="1040.8105" y1="94.5469" y2="1694.3281"/><rect fill="#1E293B" height="41.9375" rx="2.5" ry="2.5" style="stroke:#3B82F6;stroke-width:1;" width="68.3047" x="25" y="51.6094"/><text fill="#F8FAFC" font-family="Segoe UI" font-size="12" lengthAdjust="spacing" textLength="54.123" x="32.0908" y="69.748">Web App</text><text fill="#F8FAFC" font-family="Segoe UI" font-size="12" lengthAdjust="spacing" textLength="54.3047" x="32" y="83.7168">(page JS)</text><rect fill="#1E293B" height="41.9375" rx="2.5" ry="2.5" style="stroke:#3B82F6;stroke-width:1;" width="68.3047" x="25" y="1693.3281"/><text fill="#F8FAFC" font-family="Segoe UI" font-size="12" lengthAdjust="spacing" textLength="54.123" x="32.0908" y="1711.4668">Web App</text><text fill="#F8FAFC" font-family="Segoe UI" font-size="12" lengthAdjust="spacing" textLength="54.3047" x="32" y="1725.4355">(page JS)</text><rect fill="#1E293B" height="41.9375" rx="2.5" ry="2.5" style="stroke:#3B82F6;stroke-width:1;" width="58.3496" x="158.3154" y="51.6094"/><text fill="#F8FAFC" font-family="Segoe UI" font-size="12" lengthAdjust="spacing" textLength="44.3496" x="165.3154" y="69.748">Service</text><text fill="#F8FAFC" font-family="Segoe UI" font-size="12" lengthAdjust="spacing" textLength="43.4063" x="165.7871" y="83.7168">Worker</text><rect fill="#1E293B" height="41.9375" rx="2.5" ry="2.5" style="stroke:#3B82F6;stroke-width:1;" width="58.3496" x="158.3154" y="1693.3281"/><text fill="#F8FAFC" font-family="Segoe UI" font-size="12" lengthAdjust="spacing" textLength="44.3496" x="165.3154" y="1711.4668">Service</text><text fill="#F8FAFC" font-family="Segoe UI" font-size="12" lengthAdjust="spacing" textLength="43.4063" x="165.7871" y="1725.4355">Worker</text><rect fill="#1E293B" height="41.9375" rx="2.5" ry="2.5" style="stroke:#3B82F6;stroke-width:1;" width="77.5273" x="383.8047" y="51.6094"/><text fill="#F8FAFC" font-family="Segoe UI" font-size="12" lengthAdjust="spacing" textLength="45.3809" x="399.8779" y="69.748">webrtc-</text><text fill="#F8FAFC" font-family="Segoe UI" font-size="12" lengthAdjust="spacing" textLength="63.5273" x="390.8047" y="83.7168">upgrade.js</text><rect fill="#1E293B" height="41.9375" rx="2.5" ry="2.5" style="stroke:#3B82F6;stroke-width:1;" width="77.5273" x="383.8047" y="1693.3281"/><text fill="#F8FAFC" font-family="Segoe UI" font-size="12" lengthAdjust="spacing" textLength="45.3809" x="399.8779" y="1711.4668">webrtc-</text><text fill="#F8FAFC" font-family="Segoe UI" font-size="12" lengthAdjust="spacing" textLength="63.5273" x="390.8047" y="1725.4355">upgrade.js</text><rect fill="#1E293B" height="27.9688" rx="2.5" ry="2.5" style="stroke:#3B82F6;stroke-width:1;" width="91.918" x="627.6973" y="65.5781"/><text fill="#F8FAFC" font-family="Segoe UI" font-size="12" lengthAdjust="spacing" textLength="77.918" x="634.6973" y="83.7168">DataChannel</text><rect fill="#1E293B" height="27.9688" rx="2.5" ry="2.5" style="stroke:#3B82F6;stroke-width:1;" width="91.918" x="627.6973" y="1693.3281"/><text fill="#F8FAFC" font-family="Segoe UI" font-size="12" lengthAdjust="spacing" textLength="77.918" x="634.6973" y="1711.4668">DataChannel</text><rect fill="#1E293B" height="41.9375" rx="2.5" ry="2.5" style="stroke:#3B82F6;stroke-width:1;" width="100.3262" x="815.0869" y="51.6094"/><text fill="#F8FAFC" font-family="Segoe UI" font-size="12" lengthAdjust="spacing" textLength="26.9766" x="851.7617" y="69.748">WAF</text><text fill="#F8FAFC" font-family="Segoe UI" font-size="12" lengthAdjust="spacing" textLength="86.3262" x="822.0869" y="83.7168">(peer handler)</text><rect fill="#1E293B" height="41.9375" rx="2.5" ry="2.5" style="stroke:#3B82F6;stroke-width:1;" width="100.3262" x="815.0869" y="1693.3281"/><text fill="#F8FAFC" font-family="Segoe UI" font-size="12" lengthAdjust="spacing" textLength="26.9766" x="851.7617" y="1711.4668">WAF</text><text fill="#F8FAFC" font-family="Segoe UI" font-size="12" lengthAdjust="spacing" textLength="86.3262" x="822.0869" y="1725.4355">(peer handler)</text><rect fill="#1E293B" height="27.9688" rx="2.5" ry="2.5" style="stroke:#3B82F6;stroke-width:1;" width="65.7383" x="1008.8105" y="65.5781"/><text fill="#F8FAFC" font-family="Segoe UI" font-size="12" lengthAdjust="spacing" textLength="51.7383" x="1015.8105" y="83.7168">Backend</text><rect fill="#1E293B" height="27.9688" rx="2.5" ry="2.5" style="stroke:#3B82F6;stroke-width:1;" width="65.7383" x="1008.8105" y="1693.3281"/><text fill="#F8FAFC" font-family="Segoe UI" font-size="12" lengthAdjust="spacing" textLength="51.7383" x="1015.8105" y="1711.4668">Backend</text><rect fill="#1E293B" height="1199.1875" style="stroke:#334155;stroke-width:1;" width="10" x="182.4902" y="415.2344"/><rect fill="#1E293B" height="838.75" style="stroke:#334155;stroke-width:1;" width="10" x="417.5684" y="678.7969"/><rect fill="#1E293B" height="519.2813" style="stroke:#334155;stroke-width:1;" width="10" x="668.6563" y="873.4531"/><rect fill="#1E293B" height="471.3438" style="stroke:#334155;stroke-width:1;" width="10" x="860.25" y="901.4219"/><rect fill="#334155" height="3" style="stroke:#334155;stroke-width:1;" width="1084.5488" x="5" y="124.5313"/><line style="stroke:#000000;stroke-width:0.5;" x1="5" x2="1089.5488" y1="124.5313" y2="124.5313"/><line style="stroke:#000000;stroke-width:0.5;" x1="5" x2="1089.5488" y1="127.5313" y2="127.5313"/><rect fill="#334155" height="21.9688" style="stroke:#000000;stroke-width:1;" width="241.7773" x="426.3857" y="114.5469"/><text fill="#F8FAFC" font-family="Segoe UI" font-size="12" font-weight="bold" lengthAdjust="spacing" textLength="223.5996" x="432.3857" y="129.6855">Setup (after DataChannel opens)</text><line style="stroke:#94A3B8;stroke-width:1;" x1="422.5684" x2="464.5684" y1="180.4531" y2="180.4531"/><line style="stroke:#94A3B8;stroke-width:1;" x1="464.5684" x2="464.5684" y1="180.4531" y2="193.4531"/><line style="stroke:#94A3B8;stroke-width:1;" x1="423.5684" x2="464.5684" y1="193.4531" y2="193.4531"/><polygon fill="#94A3B8" points="433.5684,189.4531,423.5684,193.4531,433.5684,197.4531,429.5684,193.4531" style="stroke:#94A3B8;stroke-width:1;"/><text fill="#94A3B8" font-family="Segoe UI" font-size="12" lengthAdjust="spacing" textLength="146.1152" x="429.5684" y="161.6543">GET /auth/session-token</text><text fill="#94A3B8" font-family="Segoe UI" font-size="12" lengthAdjust="spacing" textLength="237.0879" x="429.5684" y="175.623">(via HTTP relay, reads HttpOnly cookie)</text><line style="stroke:#94A3B8;stroke-width:1;" x1="422.5684" x2="464.5684" y1="221.4219" y2="221.4219"/><line style="stroke:#94A3B8;stroke-width:1;" x1="464.5684" x2="464.5684" y1="221.4219" y2="234.4219"/><line style="stroke:#94A3B8;stroke-width:1;" x1="423.5684" x2="464.5684" y1="234.4219" y2="234.4219"/><polygon fill="#94A3B8" points="433.5684,230.4219,423.5684,234.4219,433.5684,238.4219,429.5684,234.4219" style="stroke:#94A3B8;stroke-width:1;"/><text fill="#94A3B8" font-family="Segoe UI" font-size="12" lengthAdjust="spacing" textLength="133.8984" x="429.5684" y="216.5918">Store JWT for injection</text><polygon fill="#94A3B8" points="198.4902,272.3594,188.4902,276.3594,198.4902,280.3594,194.4902,276.3594" style="stroke:#94A3B8;stroke-width:1;"/><line style="stroke:#94A3B8;stroke-width:1;" x1="192.4902" x2="421.5684" y1="276.3594" y2="276.3594"/><text fill="#94A3B8" font-family="Segoe UI" font-size="12" lengthAdjust="spacing" textLength="97.4941" x="204.4902" y="257.5605">register /js/sw.js</text><text fill="#94A3B8" font-family="Segoe UI" font-size="12" lengthAdjust="spacing" textLength="67.4941" x="204.4902" y="271.5293">(scope: "/")</text><polygon fill="#94A3B8" points="198.4902,300.3281,188.4902,304.3281,198.4902,308.3281,194.4902,304.3281" style="stroke:#94A3B8;stroke-width:1;"/><line style="stroke:#94A3B8;stroke-width:1;" x1="192.4902" x2="421.5684" y1="304.3281" y2="304.3281"/><text fill="#94A3B8" font-family="Segoe UI" font-size="12" lengthAdjust="spacing" textLength="211.0781" x="204.4902" y="299.498">postMessage({ type: "dc_ready" })</text><line style="stroke:#94A3B8;stroke-width:1;" x1="187.4902" x2="229.4902" y1="332.2969" y2="332.2969"/><line style="stroke:#94A3B8;stroke-width:1;" x1="229.4902" x2="229.4902" y1="332.2969" y2="345.2969"/><line style="stroke:#94A3B8;stroke-width:1;" x1="188.4902" x2="229.4902" y1="345.2969" y2="345.2969"/><polygon fill="#94A3B8" points="198.4902,341.2969,188.4902,345.2969,198.4902,349.2969,194.4902,345.2969" style="stroke:#94A3B8;stroke-width:1;"/><text fill="#94A3B8" font-family="Segoe UI" font-size="12" lengthAdjust="spacing" textLength="157.2539" x="194.4902" y="327.4668">Add client to dcClients set</text><rect fill="#334155" height="3" style="stroke:#334155;stroke-width:1;" width="1084.5488" x="5" y="373.2813"/><line style="stroke:#000000;stroke-width:0.5;" x1="5" x2="1089.5488" y1="373.2813" y2="373.2813"/><line style="stroke:#000000;stroke-width:0.5;" x1="5" x2="1089.5488" y1="376.2813" y2="376.2813"/><rect fill="#334155" height="21.9688" style="stroke:#000000;stroke-width:1;" width="143.3633" x="475.5928" y="363.2969"/><text fill="#F8FAFC" font-family="Segoe UI" font-size="12" font-weight="bold" lengthAdjust="spacing" textLength="125.1855" x="481.5928" y="378.4355">Fetch Interception</text><polygon fill="#94A3B8" points="170.4902,411.2344,180.4902,415.2344,170.4902,419.2344,174.4902,415.2344" style="stroke:#94A3B8;stroke-width:1;"/><line style="stroke:#94A3B8;stroke-width:1;" x1="59.1523" x2="176.4902" y1="415.2344" y2="415.2344"/><text fill="#94A3B8" font-family="Segoe UI" font-size="12" lengthAdjust="spacing" textLength="104.3379" x="66.1523" y="410.4043">fetch("/api/data")</text><line style="stroke:#94A3B8;stroke-width:1;" x1="192.4902" x2="234.4902" y1="499.0781" y2="499.0781"/><line style="stroke:#94A3B8;stroke-width:1;" x1="234.4902" x2="234.4902" y1="499.0781" y2="512.0781"/><line style="stroke:#94A3B8;stroke-width:1;" x1="193.4902" x2="234.4902" y1="512.0781" y2="512.0781"/><polygon fill="#94A3B8" points="203.4902,508.0781,193.4902,512.0781,203.4902,516.0781,199.4902,512.0781" style="stroke:#94A3B8;stroke-width:1;"/><text fill="#94A3B8" font-family="Segoe UI" font-size="12" lengthAdjust="spacing" textLength="55.1309" x="199.4902" y="438.373">Decision:</text><text fill="#94A3B8" font-family="Segoe UI" font-size="12" lengthAdjust="spacing" textLength="94.9277" x="207.1191" y="452.3418">navigate? &#8594; NO</text><text fill="#94A3B8" font-family="Segoe UI" font-size="12" lengthAdjust="spacing" textLength="112.3477" x="207.1191" y="466.3105">cross-origin? &#8594; NO</text><text fill="#94A3B8" font-family="Segoe UI" font-size="12" lengthAdjust="spacing" textLength="100.5469" x="207.1191" y="480.2793">WAF path? &#8594; NO</text><text fill="#94A3B8" font-family="Segoe UI" font-size="12" lengthAdjust="spacing" textLength="152.5781" x="207.1191" y="494.248">&#8594; Route via DataChannel</text><line style="stroke:#94A3B8;stroke-width:1;" x1="192.4902" x2="234.4902" y1="567.9844" y2="567.9844"/><line style="stroke:#94A3B8;stroke-width:1;" x1="234.4902" x2="234.4902" y1="567.9844" y2="580.9844"/><line style="stroke:#94A3B8;stroke-width:1;" x1="193.4902" x2="234.4902" y1="580.9844" y2="580.9844"/><polygon fill="#94A3B8" points="203.4902,576.9844,193.4902,580.9844,203.4902,584.9844,199.4902,580.9844" style="stroke:#94A3B8;stroke-width:1;"/><text fill="#94A3B8" font-family="Segoe UI" font-size="12" lengthAdjust="spacing" textLength="115.9629" x="199.4902" y="535.2168">Rewrite URL prefix:</text><text fill="#94A3B8" font-family="Segoe UI" font-size="12" lengthAdjust="spacing" textLength="123.9258" x="199.4902" y="549.1855">page at /__b/App1/...</text><text fill="#94A3B8" font-family="Segoe UI" font-size="12" lengthAdjust="spacing" textLength="126.0703" x="199.4902" y="563.1543">&#8594; /__b/App1/api/data</text><polygon fill="#94A3B8" points="405.5684,674.7969,415.5684,678.7969,405.5684,682.7969,409.5684,678.7969" style="stroke:#94A3B8;stroke-width:1;"/><line style="stroke:#94A3B8;stroke-width:1;" x1="192.4902" x2="411.5684" y1="678.7969" y2="678.7969"/><text fill="#94A3B8" font-family="Segoe UI" font-size="12" lengthAdjust="spacing" textLength="83.1914" x="199.4902" y="604.123">postMessage(</text><text fill="#94A3B8" font-family="Segoe UI" font-size="12" lengthAdjust="spacing" textLength="111.6973" x="207.1191" y="618.0918">{ type: "dc_fetch",</text><text fill="#94A3B8" font-family="Segoe UI" font-size="12" lengthAdjust="spacing" textLength="150.7852" x="214.748" y="632.0605">url: "/__b/App1/api/data",</text><text fill="#94A3B8" font-family="Segoe UI" font-size="12" lengthAdjust="spacing" textLength="93.2637" x="214.748" y="646.0293">method: "GET",</text><text fill="#94A3B8" font-family="Segoe UI" font-size="12" lengthAdjust="spacing" textLength="98.3613" x="214.748" y="659.998">headers: {...} },</text><text fill="#94A3B8" font-family="Segoe UI" font-size="12" lengthAdjust="spacing" textLength="90.8555" x="207.1191" y="673.9668">[MessagePort])</text><line style="stroke:#94A3B8;stroke-width:1;" x1="427.5684" x2="469.5684" y1="720.7344" y2="720.7344"/><line style="stroke:#94A3B8;stroke-width:1;" x1="469.5684" x2="469.5684" y1="720.7344" y2="733.7344"/><line style="stroke:#94A3B8;stroke-width:1;" x1="428.5684" x2="469.5684" y1="733.7344" y2="733.7344"/><polygon fill="#94A3B8" points="438.5684,729.7344,428.5684,733.7344,438.5684,737.7344,434.5684,733.7344" style="stroke:#94A3B8;stroke-width:1;"/><text fill="#94A3B8" font-family="Segoe UI" font-size="12" lengthAdjust="spacing" textLength="107.9473" x="434.5684" y="701.9355">Inject session JWT</text><text fill="#94A3B8" font-family="Segoe UI" font-size="12" lengthAdjust="spacing" textLength="111.8379" x="434.5684" y="715.9043">into cookie header</text><polygon fill="#94A3B8" points="656.6563,869.4531,666.6563,873.4531,656.6563,877.4531,660.6563,873.4531" style="stroke:#94A3B8;stroke-width:1;"/><line style="stroke:#94A3B8;stroke-width:1;" x1="427.5684" x2="662.6563" y1="873.4531" y2="873.4531"/><text fill="#94A3B8" font-family="Segoe UI" font-size="12" lengthAdjust="spacing" textLength="128.3555" x="434.5684" y="756.873">send(JSON.stringify({</text><text fill="#94A3B8" font-family="Segoe UI" font-size="12" lengthAdjust="spacing" textLength="126.0293" x="442.1973" y="770.8418">type: "http_request",</text><text fill="#94A3B8" font-family="Segoe UI" font-size="12" lengthAdjust="spacing" textLength="71.7891" x="442.1973" y="784.8105">id: "uuid-1",</text><text fill="#94A3B8" font-family="Segoe UI" font-size="12" lengthAdjust="spacing" textLength="93.2637" x="442.1973" y="798.7793">method: "GET",</text><text fill="#94A3B8" font-family="Segoe UI" font-size="12" lengthAdjust="spacing" textLength="150.7852" x="442.1973" y="812.748">url: "/__b/App1/api/data",</text><text fill="#94A3B8" font-family="Segoe UI" font-size="12" lengthAdjust="spacing" textLength="64.0195" x="442.1973" y="826.7168">headers: {</text><text fill="#94A3B8" font-family="Segoe UI" font-size="12" lengthAdjust="spacing" textLength="173.6895" x="449.8262" y="840.6855">cookie: "waf_access=&lt;jwt&gt;"</text><text fill="#94A3B8" font-family="Segoe UI" font-size="12" lengthAdjust="spacing" textLength="11.4492" x="442.1973" y="854.6543">},</text><text fill="#94A3B8" font-family="Segoe UI" font-size="12" lengthAdjust="spacing" textLength="69.3867" x="442.1973" y="868.623">body: "" }))</text><polygon fill="#94A3B8" points="848.25,897.4219,858.25,901.4219,848.25,905.4219,852.25,901.4219" style="stroke:#94A3B8;stroke-width:1;"/><line style="stroke:#94A3B8;stroke-width:1;" x1="678.6563" x2="854.25" y1="901.4219" y2="901.4219"/><text fill="#94A3B8" font-family="Segoe UI" font-size="12" lengthAdjust="spacing" textLength="135.6621" x="685.6563" y="896.5918">DataChannel message</text><line style="stroke:#94A3B8;stroke-width:1;" x1="870.25" x2="912.25" y1="957.3281" y2="957.3281"/><line style="stroke:#94A3B8;stroke-width:1;" x1="912.25" x2="912.25" y1="957.3281" y2="970.3281"/><line style="stroke:#94A3B8;stroke-width:1;" x1="871.25" x2="912.25" y1="970.3281" y2="970.3281"/><polygon fill="#94A3B8" points="881.25,966.3281,871.25,970.3281,881.25,974.3281,877.25,970.3281" style="stroke:#94A3B8;stroke-width:1;"/><text fill="#94A3B8" font-family="Segoe UI" font-size="12" lengthAdjust="spacing" textLength="134.1797" x="877.25" y="924.5605">Validate HTTP method</text><text fill="#94A3B8" font-family="Segoe UI" font-size="12" lengthAdjust="spacing" textLength="142.4297" x="877.25" y="938.5293">HTTP to 127.0.0.1:7891</text><text fill="#94A3B8" font-family="Segoe UI" font-size="12" lengthAdjust="spacing" textLength="85.2773" x="877.25" y="952.498">(30 s timeout)</text><line style="stroke:#94A3B8;stroke-width:1;" x1="870.25" x2="912.25" y1="1012.2656" y2="1012.2656"/><line style="stroke:#94A3B8;stroke-width:1;" x1="912.25" x2="912.25" y1="1012.2656" y2="1025.2656"/><line style="stroke:#94A3B8;stroke-width:1;" x1="871.25" x2="912.25" y1="1025.2656" y2="1025.2656"/><polygon fill="#94A3B8" points="881.25,1021.2656,871.25,1025.2656,881.25,1029.2656,877.25,1025.2656" style="stroke:#94A3B8;stroke-width:1;"/><text fill="#94A3B8" font-family="Segoe UI" font-size="12" lengthAdjust="spacing" textLength="129.2109" x="877.25" y="993.4668">Strip /__b/App1 prefix</text><text fill="#94A3B8" font-family="Segoe UI" font-size="12" lengthAdjust="spacing" textLength="96.7324" x="877.25" y="1007.4355">Verify JWT &#8594; OK</text><polygon fill="#94A3B8" points="1029.6797,1049.2344,1039.6797,1053.2344,1029.6797,1057.2344,1033.6797,1053.2344" style="stroke:#94A3B8;stroke-width:1;"/><line style="stroke:#94A3B8;stroke-width:1;" x1="870.25" x2="1035.6797" y1="1053.2344" y2="1053.2344"/><text fill="#94A3B8" font-family="Segoe UI" font-size="12" lengthAdjust="spacing" textLength="81.4453" x="877.25" y="1048.4043">GET /api/data</text><polygon fill="#94A3B8" points="881.25,1077.2031,871.25,1081.2031,881.25,1085.2031,877.25,1081.2031" style="stroke:#94A3B8;stroke-width:1;"/><line style="stroke:#94A3B8;stroke-width:1;stroke-dasharray:2.0,2.0;" x1="875.25" x2="1040.6797" y1="1081.2031" y2="1081.2031"/><text fill="#94A3B8" font-family="Segoe UI" font-size="12" lengthAdjust="spacing" textLength="105.3105" x="887.25" y="1076.373">200 { data: [...] }</text><path d="M607.6973,1096.2031 L670.6445,1096.2031 L670.6445,1102.1719 L660.6445,1112.1719 L607.6973,1112.1719 L607.6973,1096.2031 " fill="#1E293B" style="stroke:#334155;stroke-width:1;"/><rect fill="none" height="269.5625" style="stroke:#334155;stroke-width:1;" width="327.7158" x="607.6973" y="1096.2031"/><text fill="#F8FAFC" font-family="Segoe UI" font-size="12" font-weight="bold" lengthAdjust="spacing" textLength="17.9473" x="622.6973" y="1108.3418">alt</text><text fill="#F8FAFC" font-family="Segoe UI" font-size="12" font-weight="bold" lengthAdjust="spacing" textLength="138.0527" x="685.6445" y="1109.3418">[Response &lt; 200KB]</text><polygon fill="#94A3B8" points="689.6563,1156.0781,679.6563,1160.0781,689.6563,1164.0781,685.6563,1160.0781" style="stroke:#94A3B8;stroke-width:1;"/><line style="stroke:#94A3B8;stroke-width:1;" x1="683.6563" x2="859.25" y1="1160.0781" y2="1160.0781"/><text fill="#94A3B8" font-family="Segoe UI" font-size="12" lengthAdjust="spacing" textLength="85.4004" x="695.6563" y="1127.3105">http_response</text><text fill="#94A3B8" font-family="Segoe UI" font-size="12" lengthAdjust="spacing" textLength="132.1992" x="695.6563" y="1141.2793">{ id, statusCode: 200,</text><text fill="#94A3B8" font-family="Segoe UI" font-size="12" lengthAdjust="spacing" textLength="149.0156" x="703.2852" y="1155.248">headers, body: base64 }</text><line style="stroke:#334155;stroke-width:1;stroke-dasharray:2.0,2.0;" x1="607.6973" x2="935.4131" y1="1169.0781" y2="1169.0781"/><text fill="#F8FAFC" font-family="Segoe UI" font-size="12" font-weight="bold" lengthAdjust="spacing" textLength="210.6504" x="612.6973" y="1180.2168">[Response &gt; 200KB (chunked)]</text><polygon fill="#94A3B8" points="689.6563,1227.9531,679.6563,1231.9531,689.6563,1235.9531,685.6563,1231.9531" style="stroke:#94A3B8;stroke-width:1;"/><line style="stroke:#94A3B8;stroke-width:1;" x1="683.6563" x2="859.25" y1="1231.9531" y2="1231.9531"/><text fill="#94A3B8" font-family="Segoe UI" font-size="12" lengthAdjust="spacing" textLength="119.3496" x="695.6563" y="1199.1855">http_response_start</text><text fill="#94A3B8" font-family="Segoe UI" font-size="12" lengthAdjust="spacing" textLength="157.5938" x="695.6563" y="1213.1543">{ id, statusCode, headers,</text><text fill="#94A3B8" font-family="Segoe UI" font-size="12" lengthAdjust="spacing" textLength="98.7773" x="703.2852" y="1227.123">totalChunks: 3 }</text><polygon fill="#94A3B8" points="689.6563,1269.8906,679.6563,1273.8906,689.6563,1277.8906,685.6563,1273.8906" style="stroke:#94A3B8;stroke-width:1;"/><line style="stroke:#94A3B8;stroke-width:1;" x1="683.6563" x2="859.25" y1="1273.8906" y2="1273.8906"/><text fill="#94A3B8" font-family="Segoe UI" font-size="12" lengthAdjust="spacing" textLength="127.7637" x="695.6563" y="1255.0918">http_response_chunk</text><text fill="#94A3B8" font-family="Segoe UI" font-size="12" lengthAdjust="spacing" textLength="155.0098" x="695.6563" y="1269.0605">{ id, index: 0, data: "..." }</text><polygon fill="#94A3B8" points="689.6563,1311.8281,679.6563,1315.8281,689.6563,1319.8281,685.6563,1315.8281" style="stroke:#94A3B8;stroke-width:1;"/><line style="stroke:#94A3B8;stroke-width:1;" x1="683.6563" x2="859.25" y1="1315.8281" y2="1315.8281"/><text fill="#94A3B8" font-family="Segoe UI" font-size="12" lengthAdjust="spacing" textLength="127.7637" x="695.6563" y="1297.0293">http_response_chunk</text><text fill="#94A3B8" font-family="Segoe UI" font-size="12" lengthAdjust="spacing" textLength="155.0098" x="695.6563" y="1310.998">{ id, index: 1, data: "..." }</text><polygon fill="#94A3B8" points="689.6563,1353.7656,679.6563,1357.7656,689.6563,1361.7656,685.6563,1357.7656" style="stroke:#94A3B8;stroke-width:1;"/><line style="stroke:#94A3B8;stroke-width:1;" x1="683.6563" x2="859.25" y1="1357.7656" y2="1357.7656"/><text fill="#94A3B8" font-family="Segoe UI" font-size="12" lengthAdjust="spacing" textLength="127.7637" x="695.6563" y="1338.9668">http_response_chunk</text><text fill="#94A3B8" font-family="Segoe UI" font-size="12" lengthAdjust="spacing" textLength="155.0098" x="695.6563" y="1352.9355">{ id, index: 2, data: "..." }</text><polygon fill="#94A3B8" points="438.5684,1388.7344,428.5684,1392.7344,438.5684,1396.7344,434.5684,1392.7344" style="stroke:#94A3B8;stroke-width:1;"/><line style="stroke:#94A3B8;stroke-width:1;" x1="432.5684" x2="672.6563" y1="1392.7344" y2="1392.7344"/><text fill="#94A3B8" font-family="Segoe UI" font-size="12" lengthAdjust="spacing" textLength="68.877" x="444.5684" y="1387.9043">onmessage</text><line style="stroke:#94A3B8;stroke-width:1;" x1="427.5684" x2="469.5684" y1="1434.6719" y2="1434.6719"/><line style="stroke:#94A3B8;stroke-width:1;" x1="469.5684" x2="469.5684" y1="1434.6719" y2="1447.6719"/><line style="stroke:#94A3B8;stroke-width:1;" x1="428.5684" x2="469.5684" y1="1447.6719" y2="1447.6719"/><polygon fill="#94A3B8" points="438.5684,1443.6719,428.5684,1447.6719,438.5684,1451.6719,434.5684,1447.6719" style="stroke:#94A3B8;stroke-width:1;"/><text fill="#94A3B8" font-family="Segoe UI" font-size="12" lengthAdjust="spacing" textLength="93.252" x="434.5684" y="1415.873">Decode base64</text><text fill="#94A3B8" font-family="Segoe UI" font-size="12" lengthAdjust="spacing" textLength="141.4629" x="434.5684" y="1429.8418">(or reassemble chunks)</text><polygon fill="#94A3B8" points="203.4902,1513.5469,193.4902,1517.5469,203.4902,1521.5469,199.4902,1517.5469" style="stroke:#94A3B8;stroke-width:1;"/><line style="stroke:#94A3B8;stroke-width:1;" x1="197.4902" x2="421.5684" y1="1517.5469" y2="1517.5469"/><text fill="#94A3B8" font-family="Segoe UI" font-size="12" lengthAdjust="spacing" textLength="119.2383" x="209.4902" y="1470.8105">port.postMessage({</text><text fill="#94A3B8" font-family="Segoe UI" font-size="12" lengthAdjust="spacing" textLength="102.1699" x="217.1191" y="1484.7793">statusCode: 200,</text><text fill="#94A3B8" font-family="Segoe UI" font-size="12" lengthAdjust="spacing" textLength="86.9121" x="217.1191" y="1498.748">headers: {...},</text><text fill="#94A3B8" font-family="Segoe UI" font-size="12" lengthAdjust="spacing" textLength="97.541" x="217.1191" y="1512.7168">body: base64 })</text><line style="stroke:#94A3B8;stroke-width:1;" x1="192.4902" x2="234.4902" y1="1573.4531" y2="1573.4531"/><line style="stroke:#94A3B8;stroke-width:1;" x1="234.4902" x2="234.4902" y1="1573.4531" y2="1586.4531"/><line style="stroke:#94A3B8;stroke-width:1;" x1="193.4902" x2="234.4902" y1="1586.4531" y2="1586.4531"/><polygon fill="#94A3B8" points="203.4902,1582.4531,193.4902,1586.4531,203.4902,1590.4531,199.4902,1586.4531" style="stroke:#94A3B8;stroke-width:1;"/><text fill="#94A3B8" font-family="Segoe UI" font-size="12" lengthAdjust="spacing" textLength="91.4707" x="199.4902" y="1540.6855">new Response(</text><text fill="#94A3B8" font-family="Segoe UI" font-size="12" lengthAdjust="spacing" textLength="67.166" x="207.1191" y="1554.6543">bodyBytes,</text><text fill="#94A3B8" font-family="Segoe UI" font-size="12" lengthAdjust="spacing" textLength="120.6094" x="207.1191" y="1568.623">{ status, headers })</text><polygon fill="#94A3B8" points="70.1523,1610.4219,60.1523,1614.4219,70.1523,1618.4219,66.1523,1614.4219" style="stroke:#94A3B8;stroke-width:1;"/><line style="stroke:#94A3B8;stroke-width:1;stroke-dasharray:2.0,2.0;" x1="64.1523" x2="186.4902" y1="1614.4219" y2="1614.4219"/><text fill="#94A3B8" font-family="Segoe UI" font-size="12" lengthAdjust="spacing" textLength="98.9648" x="76.1523" y="1609.5918">Response object</text><path d="M10,1627.4219 L10,1678.4219 L915,1678.4219 L915,1637.4219 L905,1627.4219 L10,1627.4219 " fill="#334155" style="stroke:#334155;stroke-width:1;"/><path d="M905,1627.4219 L905,1637.4219 L915,1637.4219 L905,1627.4219 " fill="#334155" style="stroke:#334155;stroke-width:1;"/><text fill="#F8FAFC" font-family="Segoe UI" font-size="12" lengthAdjust="spacing" textLength="283.7051" x="305.7222" y="1643.5605">Page navigations bypass SW &#8594; use HTTP relay.</text><text fill="#F8FAFC" font-family="Segoe UI" font-size="12" lengthAdjust="spacing" textLength="304.9688" x="305.7222" y="1657.5293">Sub-resource fetches (API, assets) &#8594; DataChannel.</text><text fill="#F8FAFC" font-family="Segoe UI" font-size="12" lengthAdjust="spacing" textLength="228.6914" x="305.7222" y="1671.498">10 s timeout &#8594; fallback to HTTP relay.</text><!--SRC=[fLRRKYCt47sVh-WuBtQLBzYm2xWMKbp2BhiRe32xFAotA7ccnnQCfOcaiTTnyPeFo2VcIzBIN3nZZ2kL54LXfAFkezEdM_x9J72A44UC2yzm4o4CKCsuZt0lrHCgE6U6dKsO41Z1NMB_S37sFFt4HSmKcyBI0nWn_sciP2A2Cnb91J_lXDtz7gET04EMHEP22fDjXGSX2_tgrXKZ4hK1ZYN2byjQTNF0_q3ezcXnWBydA7pyp4Fw5NWgLO0gYxkxkzTzysOJQfrS5tk7koD2tZ1bkCzZ9io_0rNoZGvwuTigODCrJvIIyspnS8_HiNonX2ushgJPGjZjRhoqtTcKFHVZFSMBNmzSXMsLzPpFE6s_YFKQy2MhPy-BLvf1xHv7S1B7Gr6FsHZXuw1H0wQ1nN71i8BF73eKgKKTMCytO-SuKiPl3KKIZnKBiFse7PuMDnye-Tq1WrTmzoSNbZ1IYn0wY52bhESit7p02eOYSA1H-ha0UaT799j9OgYpqAnrdOnHw0OS7NcUPTqwTkJxyFxNE-Ymn4mw6hNcKhICfAZ4QiOPVBYxkm654LiqwGyBD7mm9huMqG9yAPyuDghH1aOgqlx-3a8g5HUFw1kAMUGaWViKQCorvTTvr1qz9p4fc_Q9OHzgdLgZ0ewbDhyHCwffVGbcuK21_s3PB6hmtF08beDFWW3yY2CfPII9VkO-KrtHE7KkqFWJk1IKtCVOCdE2M8_a8K8BgTSwBEQTWFGZEepkC6C62U2LivsZpwrY_Q4046p6nmJw1Vx-yo-ukhPhlf9QjwJYOoxAwrHrY9cPbDVifrkPK1QhUwbobPItE5USC5zkFqEiCEG_ABdpEpFGUNWOTQW5kfrskpqKDk9gARzF7YwjLrbTowAii5EYrhJB08cAR75UXCltfsWcCY08-IbVcr29KEa-B8dFCpoxvMzPkXkfpFUIjiHdpPcNpZsGsTAQQYYueBgcpil25uS2UqPJFzG_3gwlsjeeUc9ukAWlRThiMXDoBrc7HeisAKrkIIS93rhTTE7bJRRVVNNBzDOfEpf0FVp0V9_e7xrxd9lZcjrFHHZ9O448Qz-I104f4BYxsFRlLzftcggs0XF4yookW7zb4G_ibclQz1f3uVuXqRgz_VOE_NJx-mU7NMgutHtGOFWKoNIDQgG1QHUll9CvRIY-eY91NNjRSrr_AXZaeoYV9xdPylLM4RktiqCkivjz-4Q- -0uqo5baoDewba8ZlBEOJwVq1cJ1NMMpogMOeLXIuPgW3JE9FfC1ki3bUZGpaKTCuzizIe8HnIwI7AT9eEvF4l64GMDRkWVAeypBfCqYcREOD2mwi-783BkKSLj4bpQFo4M0F_gmqynqgP4kjVyGeFj_0_JM0r3jo9DOTLrGQb8fScUMKC5wAzEa9BcoMf3tw6sW-QqrJaVqNT4nqGrlRUuhqwuCVwlnbe9dOwRKNtdf6sLkRiwK9gh0UU6AUdxsT64mBUeoIrcKsePpvoc0VJVwAq_9aHrOvMJsmH3qdGhaZ9uxWZVJbxtubdDZHtVsTD2GepTz4PCkCBXt7PPeB3t1RVkrA1crg8GoeGSiVQjGG_tavh89Laz3JxmzM1eTzbItrEjkFsHHP7lJJePo0jkhbh3t3m00]--></g></svg>