<svg xmlns="http://www.w3.org/2000/svg" xmlns:xlink="http://www.w3.org/1999/xlink" contentStyleType="text/css" height="485px" preserveAspectRatio="none" style="width:1195px;height:485px;background:#0F172A;" version="1.1" viewBox="0 0 1195 485" width="1195px" zoomAndPan="magnify"><title>Punch'd &#8212; System Overview</title><defs/><g><rect fill="#0F172A" height="485" style="stroke:none;stroke-width:1;" width="1195" x="0" y="0"/><text fill="#F8FAFC" font-family="Segoe UI" font-size="22" font-weight="bold" lengthAdjust="spacing" textLength="351.1943" x="416.4028" y="35.4209">Punch'd &#8212; System Overview</text><!--cluster stun--><g id="cluster_stun"><path d="M21.5,235.1094 L181.8198,235.1094 A3.75,3.75 0 0 1 184.3198,237.6094 L191.3198,256.2422 L342.5,256.2422 A2.5,2.5 0 0 1 345,258.7422 L345,474.1094 A2.5,2.5 0 0 1 342.5,476.6094 L21.5,476.6094 A2.5,2.5 0 0 1 19,474.1094 L19,237.6094 A2.5,2.5 0 0 1 21.5,235.1094 " fill="#FFFFFF" style="stroke:#000000;stroke-width:1;"/><line style="stroke:#000000;stroke-width:1;" x1="19" x2="191.3198" y1="256.2422" y2="256.2422"/><text fill="#F8FAFC" font-family="Segoe UI" font-size="13" font-weight="bold" lengthAdjust="spacing" textLength="159.3198" x="23" y="249.1763">Signal Server (public)</text></g><!--cluster coturnpkg--><g id="cluster_coturnpkg"><path d="M355.5,235.1094 L473.8872,235.1094 A3.75,3.75 0 0 1 476.3872,237.6094 L483.3872,256.2422 L735.5,256.2422 A2.5,2.5 0 0 1 738,258.7422 L738,344.6094 A2.5,2.5 0 0 1 735.5,347.1094 L355.5,347.1094 A2.5,2.5 0 0 1 353,344.6094 L353,237.6094 A2.5,2.5 0 0 1 355.5,235.1094 " fill="#FFFFFF" style="stroke:#000000;stroke-width:1;"/><line style="stroke:#000000;stroke-width:1;" x1="353" x2="483.3872" y1="256.2422" y2="256.2422"/><text fill="#F8FAFC" font-family="Segoe UI" font-size="13" font-weight="bold" lengthAdjust="spacing" textLength="117.3872" x="357" y="249.1763">coturn (sidecar)</text></g><!--cluster priv--><g id="cluster_priv"><path d="M748.5,235.1094 L868.6074,235.1094 A3.75,3.75 0 0 1 871.1074,237.6094 L878.1074,256.2422 L1185.5,256.2422 A2.5,2.5 0 0 1 1188,258.7422 L1188,474.6094 A2.5,2.5 0 0 1 1185.5,477.1094 L748.5,477.1094 A2.5,2.5 0 0 1 746,474.6094 L746,237.6094 A2.5,2.5 0 0 1 748.5,235.1094 " fill="#FFFFFF" style="stroke:#000000;stroke-width:1;"/><line style="stroke:#000000;stroke-width:1;" x1="746" x2="878.1074" y1="256.2422" y2="256.2422"/><text fill="#F8FAFC" font-family="Segoe UI" font-size="13" font-weight="bold" lengthAdjust="spacing" textLength="119.1074" x="750" y="249.1763">Private Network</text></g><!--cluster tc--><g id="cluster_tc"><path d="M817.2649,64.6661 C820.9609,59.2978 824.946,58.3337 829.4202,63.7924 C833.0558,57.5496 836.7713,56.3378 841.8504,62.3253 C845.1915,56.4666 850.1073,57.8354 853.1004,62.6908 C855.4832,56.5759 861.062,56.6122 864.5978,61.4842 C868.2199,55.7949 873.3232,56.7505 876.4158,62.0534 C880.5686,56.9551 884.3358,56.8634 888.0421,62.5354 C891.4447,57.6736 895.8721,57.054 899.2154,62.599 C902.3026,57.619 907.6856,55.9177 911.0274,62.3351 C916.0512,57.8169 919.9602,57.2449 923.3132,64.1344 C927.3139,60.1817 930.5027,59.9826 933.4004,65.3306 C940.7644,67.5501 940.68,73.4235 935.6703,77.8809 C943.021,80.2229 945.2003,85.6357 939.0871,91.3844 C945.9835,95.1871 946.009,101.1667 939.05,104.9314 C945.4817,109.5122 945.3046,114.9884 938.2167,118.7543 C943.5808,123.8696 942.0148,128.7805 935.3815,131.152 C941.535,135.738 942.2188,143.0945 934.0238,146.4033 C930.7196,151.3363 926.2672,151.5274 922.8859,146.4895 C918.4248,150.9356 914.7358,151.9425 911.222,145.4769 C907.9564,151.213 902.0073,151.9915 898.6078,145.6163 C895.6964,150.69 891.9726,152.229 887.6863,147.0862 C884.7154,151.5757 880.0244,153.0052 876.9794,147.1629 C873.8531,153.6943 867.668,154.5783 864.0841,147.5997 C859.7062,152.2161 855.3929,153.4328 851.8365,146.7124 C848.7519,151.9422 844.8935,152.272 841.5687,146.9461 C836.5377,153.38 832.2746,152.3028 828.6595,145.559 C825.9758,150.8879 821.2157,152.0224 817.6089,146.4989 C811.2964,142.6019 810.5277,136.7349 817.1469,132.4138 C811.4335,128.0646 812.6954,122.6047 818.3013,119.2481 C812.0115,116.0736 810.325,111.6085 815.9747,106.2902 C810.0286,102.0658 809.7942,95.3649 817.4977,92.6664 C811.0948,88.8844 811.316,82.7743 817.3718,78.8785 C810.4655,75.0123 810.5678,68.6345 817.2649,64.6661 " fill="#1E293B" style="stroke:#334155;stroke-width:1;"/><text fill="#F8FAFC" font-family="Segoe UI" font-size="13" font-weight="bold" lengthAdjust="spacing" textLength="71.792" x="839.104" y="80.6763">TideCloak</text></g><!--entity browser--><g id="elem_browser"><ellipse cx="552.9824" cy="93.1094" fill="#3B82F6" rx="8" ry="8" style="stroke:#3B82F6;stroke-width:1;"/><path d="M552.9824,101.1094 L552.9824,128.1094 M539.9824,109.1094 L565.9824,109.1094 M552.9824,128.1094 L539.9824,143.1094 M552.9824,128.1094 L565.9824,143.1094 " fill="none" style="stroke:#3B82F6;stroke-width:1;"/><text fill="#F8FAFC" font-family="Segoe UI" font-size="13" lengthAdjust="spacing" textLength="52.9648" x="526.5" y="157.1763">Browser</text></g><!--entity inet--><g id="elem_inet"><path d="M959.2436,107.6523 C962.2925,101.7993 967.9821,101.6554 971.8182,106.7479 C974.362,101.99 978.9264,101.5789 982.2155,105.8936 C985.1187,100.7321 989.6351,99.8109 993.8268,104.3516 C997.6382,100.6062 1000.7344,100.1812 1003.1421,105.7548 C1007.9835,100.3882 1012.2158,100.7519 1014.9048,107.795 C1019.0305,102.8979 1022.7772,102.3627 1026.1021,108.6003 C1034.8609,108.3881 1039.4495,115.1981 1034.4239,122.9692 C1039.5747,132.1154 1036.0312,137.7059 1025.718,137.734 C1023.7999,143.201 1019.8167,143.7327 1015.8692,139.8781 C1014.8656,146.1324 1009.5616,148.8999 1004.3591,144.3522 C1002.5407,149.9427 998.4589,151.4916 994.1215,146.88 C989.8848,151.0707 985.53,150.4915 982.9897,144.9414 C977.5564,148.7654 973.4705,147.9161 971.8284,141.0011 C966.3129,145.4775 962.5125,144.1259 960.9664,137.2148 C952.8599,135.955 950.1966,130.5402 955.8849,123.9828 C948.6234,116.8866 950.8872,111.5363 959.2436,107.6523 " fill="#1E293B" style="stroke:#334155;stroke-width:1;"/><text fill="#F8FAFC" font-family="Segoe UI" font-size="13" lengthAdjust="spacing" textLength="51.8477" x="966" y="126.6763">Internet</text></g><!--entity sig--><g id="elem_sig"><rect fill="#1E293B" height="60.2656" rx="2.5" ry="2.5" style="stroke:#334155;stroke-width:1;" width="139.2456" x="27.5" y="279.1094"/><rect fill="#1E293B" height="10" style="stroke:#334155;stroke-width:1;" width="15" x="146.7456" y="284.1094"/><rect fill="#1E293B" height="2" style="stroke:#334155;stroke-width:1;" width="4" x="144.7456" y="286.1094"/><rect fill="#1E293B" height="2" style="stroke:#334155;stroke-width:1;" width="4" x="144.7456" y="290.1094"/><text fill="#F8FAFC" font-family="Segoe UI" font-size="13" lengthAdjust="spacing" textLength="60.0361" x="42.5" y="311.1763">Signaling</text><text fill="#F8FAFC" font-family="Segoe UI" font-size="13" lengthAdjust="spacing" textLength="99.2456" x="42.5" y="326.3091">(WS port 9090)</text></g><!--entity portal--><g id="elem_portal"><rect fill="#1E293B" height="60.2656" rx="2.5" ry="2.5" style="stroke:#334155;stroke-width:1;" width="151.6362" x="185" y="279.1094"/><rect fill="#1E293B" height="10" style="stroke:#334155;stroke-width:1;" width="15" x="316.6362" y="284.1094"/><rect fill="#1E293B" height="2" style="stroke:#334155;stroke-width:1;" width="4" x="314.6362" y="286.1094"/><rect fill="#1E293B" height="2" style="stroke:#334155;stroke-width:1;" width="4" x="314.6362" y="290.1094"/><text fill="#F8FAFC" font-family="Segoe UI" font-size="13" lengthAdjust="spacing" textLength="97.8745" x="200" y="311.1763">Portal &amp; Admin</text><text fill="#F8FAFC" font-family="Segoe UI" font-size="13" lengthAdjust="spacing" textLength="111.6362" x="200" y="326.3091">(HTTP port 9090)</text></g><!--entity reg--><g id="elem_reg"><path d="M51.5,419.6094 C51.5,409.6094 97.0405,409.6094 97.0405,409.6094 C97.0405,409.6094 142.5811,409.6094 142.5811,419.6094 L142.5811,458.875 C142.5811,468.875 97.0405,468.875 97.0405,468.875 C97.0405,468.875 51.5,468.875 51.5,458.875 L51.5,419.6094 " fill="#1E293B" style="stroke:#334155;stroke-width:1;"/><path d="M51.5,419.6094 C51.5,429.6094 97.0405,429.6094 97.0405,429.6094 C97.0405,429.6094 142.5811,429.6094 142.5811,419.6094 " fill="none" style="stroke:#334155;stroke-width:1;"/><text fill="#F8FAFC" font-family="Segoe UI" font-size="13" lengthAdjust="spacing" textLength="71.0811" x="61.5" y="445.6763">In-memory</text><text fill="#F8FAFC" font-family="Segoe UI" font-size="13" lengthAdjust="spacing" textLength="53.8027" x="61.5" y="460.8091">Registry</text></g><!--entity stunproto--><g id="elem_stunproto"><rect fill="#1E293B" height="60.2656" rx="2.5" ry="2.5" style="stroke:#334155;stroke-width:1;" width="181.2544" x="361.5" y="279.1094"/><rect fill="#1E293B" height="10" style="stroke:#334155;stroke-width:1;" width="15" x="522.7544" y="284.1094"/><rect fill="#1E293B" height="2" style="stroke:#334155;stroke-width:1;" width="4" x="520.7544" y="286.1094"/><rect fill="#1E293B" height="2" style="stroke:#334155;stroke-width:1;" width="4" x="520.7544" y="290.1094"/><text fill="#F8FAFC" font-family="Segoe UI" font-size="13" lengthAdjust="spacing" textLength="76.0259" x="376.5" y="311.1763">STUN/TURN</text><text fill="#F8FAFC" font-family="Segoe UI" font-size="13" lengthAdjust="spacing" textLength="141.2544" x="376.5" y="326.3091">(UDP+TCP port 3478)</text></g><!--entity relay--><g id="elem_relay"><rect fill="#1E293B" height="60.2656" rx="2.5" ry="2.5" style="stroke:#334155;stroke-width:1;" width="169.0415" x="560.5" y="279.1094"/><rect fill="#1E293B" height="10" style="stroke:#334155;stroke-width:1;" width="15" x="709.5415" y="284.1094"/><rect fill="#1E293B" height="2" style="stroke:#334155;stroke-width:1;" width="4" x="707.5415" y="286.1094"/><rect fill="#1E293B" height="2" style="stroke:#334155;stroke-width:1;" width="4" x="707.5415" y="290.1094"/><text fill="#F8FAFC" font-family="Segoe UI" font-size="13" lengthAdjust="spacing" textLength="76.6479" x="575.5" y="311.1763">TURN Relay</text><text fill="#F8FAFC" font-family="Segoe UI" font-size="13" lengthAdjust="spacing" textLength="129.0415" x="575.5" y="326.3091">(UDP 49152-65535)</text></g><!--entity gw--><g id="elem_gw"><rect fill="#1E293B" height="60.2656" rx="2.5" ry="2.5" style="stroke:#334155;stroke-width:1;" width="114.0073" x="766" y="279.1094"/><rect fill="#1E293B" height="10" style="stroke:#334155;stroke-width:1;" width="15" x="860.0073" y="284.1094"/><rect fill="#1E293B" height="2" style="stroke:#334155;stroke-width:1;" width="4" x="858.0073" y="286.1094"/><rect fill="#1E293B" height="2" style="stroke:#334155;stroke-width:1;" width="4" x="858.0073" y="290.1094"/><text fill="#F8FAFC" font-family="Segoe UI" font-size="13" lengthAdjust="spacing" textLength="57.4272" x="781" y="311.1763">Gateway</text><text fill="#F8FAFC" font-family="Segoe UI" font-size="13" lengthAdjust="spacing" textLength="74.0073" x="781" y="326.3091">(port 7891)</text></g><!--entity app1--><g id="elem_app1"><rect fill="#1E293B" height="60.2656" rx="2.5" ry="2.5" style="stroke:#334155;stroke-width:1;" width="137.9824" x="754" y="409.1094"/><rect fill="#1E293B" height="10" style="stroke:#334155;stroke-width:1;" width="15" x="871.9824" y="414.1094"/><rect fill="#1E293B" height="2" style="stroke:#334155;stroke-width:1;" width="4" x="869.9824" y="416.1094"/><rect fill="#1E293B" height="2" style="stroke:#334155;stroke-width:1;" width="4" x="869.9824" y="420.1094"/><text fill="#F8FAFC" font-family="Segoe UI" font-size="13" lengthAdjust="spacing" textLength="97.9824" x="769" y="441.1763">Backend App 1</text><text fill="#F8FAFC" font-family="Segoe UI" font-size="13" lengthAdjust="spacing" textLength="74.0073" x="769" y="456.3091">(port 3000)</text></g><!--entity app2--><g id="elem_app2"><rect fill="#1E293B" height="60.2656" rx="2.5" ry="2.5" style="stroke:#334155;stroke-width:1;" width="137.9824" x="910" y="409.1094"/><rect fill="#1E293B" height="10" style="stroke:#334155;stroke-width:1;" width="15" x="1027.9824" y="414.1094"/><rect fill="#1E293B" height="2" style="stroke:#334155;stroke-width:1;" width="4" x="1025.9824" y="416.1094"/><rect fill="#1E293B" height="2" style="stroke:#334155;stroke-width:1;" width="4" x="1025.9824" y="420.1094"/><text fill="#F8FAFC" font-family="Segoe UI" font-size="13" lengthAdjust="spacing" textLength="97.9824" x="925" y="441.1763">Backend App 2</text><text fill="#F8FAFC" font-family="Segoe UI" font-size="13" lengthAdjust="spacing" textLength="74.0073" x="925" y="456.3091">(port 8080)</text></g><!--entity rdpsrv--><g id="elem_rdpsrv"><rect fill="#1E293B" height="60.2656" rx="2.5" ry="2.5" style="stroke:#334155;stroke-width:1;" width="114.0073" x="1066" y="409.1094"/><rect fill="#1E293B" height="10" style="stroke:#334155;stroke-width:1;" width="15" x="1160.0073" y="414.1094"/><rect fill="#1E293B" height="2" style="stroke:#334155;stroke-width:1;" width="4" x="1158.0073" y="416.1094"/><rect fill="#1E293B" height="2" style="stroke:#334155;stroke-width:1;" width="4" x="1158.0073" y="420.1094"/><text fill="#F8FAFC" font-family="Segoe UI" font-size="13" lengthAdjust="spacing" textLength="73.6455" x="1081" y="441.1763">RDP Server</text><text fill="#F8FAFC" font-family="Segoe UI" font-size="13" lengthAdjust="spacing" textLength="74.0073" x="1081" y="456.3091">(port 3389)</text></g><!--entity oidc--><g id="elem_oidc"><rect fill="#1E293B" height="45.1328" rx="2.5" ry="2.5" style="stroke:#334155;stroke-width:1;" width="116.2671" x="817" y="99.6094"/><rect fill="#1E293B" height="10" style="stroke:#334155;stroke-width:1;" width="15" x="913.2671" y="104.6094"/><rect fill="#1E293B" height="2" style="stroke:#334155;stroke-width:1;" width="4" x="911.2671" y="106.6094"/><rect fill="#1E293B" height="2" style="stroke:#334155;stroke-width:1;" width="4" x="911.2671" y="110.6094"/><text fill="#F8FAFC" font-family="Segoe UI" font-size="13" lengthAdjust="spacing" textLength="76.2671" x="832" y="131.6763">OIDC / Auth</text></g><polygon fill="#94A3B8" points="249.7533,278.9685,250.8769,269.1839,248.2571,274.1976,243.2435,271.5778,249.7533,278.9685" style="stroke:#94A3B8;stroke-width:1;"/><path d="M526.427,123.8681 C460.1469,126.376 290.373,136.7866 256,178.1094 C232.8178,205.9787 238.8739,244.2766 247.9579,273.2434 " fill="none" style="stroke:#94A3B8;stroke-width:1;"/><text fill="#94A3B8" font-family="Segoe UI" font-size="13" lengthAdjust="spacing" textLength="104.2222" x="258" y="199.6763">1. Pick Gateway</text><text fill="#94A3B8" font-family="Segoe UI" font-size="13" lengthAdjust="spacing" textLength="43.6401" x="288.291" y="214.8091">(HTTP)</text><polygon fill="#94A3B8" points="89.2346,278.9159,91.3892,269.3056,88.2526,274.0133,83.545,270.8767,89.2346,278.9159" style="stroke:#94A3B8;stroke-width:1;"/><path d="M526.3701,124.4275 C434.3856,129.2411 134.0669,147.2225 105,178.1094 C79.9729,204.7036 82.1607,243.5981 88.0562,273.0327 " fill="none" style="stroke:#94A3B8;stroke-width:1;"/><text fill="#94A3B8" font-family="Segoe UI" font-size="13" lengthAdjust="spacing" textLength="86.7788" x="128.0012" y="199.6763">2. HTTP relay</text><text fill="#94A3B8" font-family="Segoe UI" font-size="13" lengthAdjust="spacing" textLength="128.7813" x="107" y="214.8091">(WebSocket tunnel)</text><polygon fill="#94A3B8" points="465.774,279.0482,473.1995,272.5781,467.8848,274.5155,465.9474,269.2008,465.774,279.0482" style="stroke:#94A3B8;stroke-width:1;"/><path d="M526.4239,152.1059 C519.8587,160.1571 513.2195,169.1563 508,178.1094 C496.2359,198.2882 498.0786,205.5882 489,227.1094 C481.669,244.4878 475.4552,258.2593 468.307,273.609 " fill="none" style="stroke:#94A3B8;stroke-width:1;"/><text fill="#94A3B8" font-family="Segoe UI" font-size="13" lengthAdjust="spacing" textLength="105.2251" x="510" y="199.6763">3. STUN Binding</text><text fill="#94A3B8" font-family="Segoe UI" font-size="13" lengthAdjust="spacing" textLength="103.3018" x="510.9617" y="214.8091">(NAT discovery)</text><polygon fill="#94A3B8" points="579.5479,138.0819,584.8586,146.3762,583.7218,140.8348,589.2633,139.698,579.5479,138.0819" style="stroke:#94A3B8;stroke-width:1;"/><polygon fill="#94A3B8" points="645.2826,278.9799,648.9635,269.8448,645.1067,273.983,640.9684,270.1263,645.2826,278.9799" style="stroke:#94A3B8;stroke-width:1;"/><path d="M584.5566,141.3854 C599.0726,150.9595 611.0639,161.406 621,178.1094 C639.4801,209.1759 644.0943,245.2265 645.0715,272.9836 " fill="none" style="stroke:#94A3B8;stroke-width:1;"/><text fill="#94A3B8" font-family="Segoe UI" font-size="13" lengthAdjust="spacing" textLength="89.4956" x="641.9998" y="199.6763">5. TURN relay</text><text fill="#94A3B8" font-family="Segoe UI" font-size="13" lengthAdjust="spacing" textLength="91.4951" x="641" y="214.8091">(NAT fallback)</text><polygon fill="#94A3B8" points="579.7591,124.0202,588.4607,128.6335,584.7471,124.3663,589.0144,120.6527,579.7591,124.0202" style="stroke:#94A3B8;stroke-width:1;"/><polygon fill="#94A3B8" points="796.1058,278.8583,793.2848,269.4221,792.8515,275.0623,787.2112,274.629,796.1058,278.8583" style="stroke:#94A3B8;stroke-width:1;"/><path d="M585.7447,124.4355 C625.1704,127.1708 693.0549,137.3888 738,178.1094 C755.4316,193.9025 746.0706,206.8369 758,227.1094 C768.7903,245.4461 779.5382,259.5331 792.2006,274.3031 " fill="none" style="stroke:#94A3B8;stroke-width:1;"/><text fill="#94A3B8" font-family="Segoe UI" font-size="13" lengthAdjust="spacing" textLength="129.0288" x="760" y="199.6763">4. P2P DataChannel</text><text fill="#94A3B8" font-family="Segoe UI" font-size="13" lengthAdjust="spacing" textLength="99.0044" x="775.0122" y="214.8091">(hole-punched)</text><polygon fill="#94A3B8" points="121.3841,279.0636,130.4168,275.138,124.7651,275.38,124.5231,269.7284,121.3841,279.0636" style="stroke:#94A3B8;stroke-width:1;"/><polygon fill="#94A3B8" points="798.3764,279.0924,795.171,269.7797,794.9692,275.433,789.316,275.2312,798.3764,279.0924" style="stroke:#94A3B8;stroke-width:1;"/><path d="M125.4413,274.6433 C139.7204,259.0864 154.9906,245.6174 176,235.1094 C253.7027,196.2456 281.9519,208.6939 368.5,201.1094 C534.55,186.5578 590.9454,164.6336 742,235.1094 C763.7491,245.2566 779.6224,258.9503 794.2878,274.7011 " fill="none" style="stroke:#94A3B8;stroke-width:1;"/><text fill="#94A3B8" font-family="Segoe UI" font-size="13" lengthAdjust="spacing" textLength="90.0098" x="383.1953" y="192.1763">Persistent WS</text><text fill="#94A3B8" font-family="Segoe UI" font-size="13" lengthAdjust="spacing" textLength="95.3862" x="380.5071" y="207.3091">(registration +</text><text fill="#94A3B8" font-family="Segoe UI" font-size="13" lengthAdjust="spacing" textLength="115.4004" x="370.5" y="222.4419">relay + signaling)</text><polygon fill="#94A3B8" points="97,409.1791,101,400.1791,97,404.1791,93,400.1791,97,409.1791" style="stroke:#94A3B8;stroke-width:1;"/><path d="M97,339.1546 C97,360.1025 97,382.2576 97,403.1791 " fill="none" style="stroke:#94A3B8;stroke-width:1;"/><polygon fill="#94A3B8" points="823,408.7361,827,399.7361,823,403.7361,819,399.7361,823,408.7361" style="stroke:#94A3B8;stroke-width:1;"/><path d="M823,339.1546 C823,359.955 823,381.8614 823,402.7361 " fill="none" style="stroke:#94A3B8;stroke-width:1;"/><text fill="#94A3B8" font-family="Segoe UI" font-size="13" lengthAdjust="spacing" textLength="74.1533" x="825" y="378.6763">HTTP Proxy</text><polygon fill="#94A3B8" points="956.27,409.043,953.5662,399.5726,953.063,405.207,947.4286,404.7038,956.27,409.043" style="stroke:#94A3B8;stroke-width:1;"/><path d="M879.2224,339.2149 C888.1572,344.7113 897.0607,350.7481 905,357.1094 C924.0267,372.3542 938.6782,388.001 952.4216,404.4398 " fill="none" style="stroke:#94A3B8;stroke-width:1;"/><text fill="#94A3B8" font-family="Segoe UI" font-size="13" lengthAdjust="spacing" textLength="74.1533" x="942" y="378.6763">HTTP Proxy</text><polygon fill="#94A3B8" points="1094.0643,409.0599,1090.1553,400.02,1090.3869,405.6721,1084.7348,405.9037,1094.0643,409.0599" style="stroke:#94A3B8;stroke-width:1;"/><path d="M880.1605,316.7538 C921.2155,323.1316 977.0153,335.1604 1022,357.1094 C1048.867,370.2184 1070.6659,387.5039 1089.6514,404.9945 " fill="none" style="stroke:#94A3B8;stroke-width:1;"/><text fill="#94A3B8" font-family="Segoe UI" font-size="13" lengthAdjust="spacing" textLength="85.0776" x="1074" y="371.1763">RDCleanPath</text><text fill="#94A3B8" font-family="Segoe UI" font-size="13" lengthAdjust="spacing" textLength="69.3291" x="1081.8743" y="386.3091">(TCP+TLS)</text><polygon fill="#94A3B8" points="885.913,144.8185,885.7996,154.6667,887.8909,149.4107,893.147,151.502,885.913,144.8185" style="stroke:#94A3B8;stroke-width:1;"/><path d="M888.2865,150.3291 C897.5315,171.7932 905.3893,199.7834 895,227.1094 C887.5111,246.8066 872.7938,264.7726 858.6063,278.7521 " fill="none" style="stroke:#94A3B8;stroke-width:1;"/><text fill="#94A3B8" font-family="Segoe UI" font-size="13" lengthAdjust="spacing" textLength="33.1538" x="934.9316" y="199.6763">OIDC</text><text fill="#94A3B8" font-family="Segoe UI" font-size="13" lengthAdjust="spacing" textLength="99.0171" x="902" y="214.8091">code exchange</text><polygon fill="#94A3B8" points="816.8998,122.1094,807.8998,118.1094,811.8998,122.1094,807.8998,126.1094,816.8998,122.1094" style="stroke:#94A3B8;stroke-width:1;"/><path d="M579.6246,122.1094 C631.3824,122.1094 740.6416,122.1094 810.8998,122.1094 " fill="none" style="stroke:#94A3B8;stroke-width:1;"/><text fill="#94A3B8" font-family="Segoe UI" font-size="13" lengthAdjust="spacing" textLength="35.2993" x="680.6223" y="99.1763">Login</text><text fill="#94A3B8" font-family="Segoe UI" font-size="13" lengthAdjust="spacing" textLength="132.0439" x="632.25" y="114.3091">(via Gateway proxy)</text><!--SRC=[VLLTRzfA47tthvXofJPHH8fjQA2gAX6Yjf4gQW5HNlAosCEomjwrrciehQvqVqH_ON_9dVK7nCJa3Npcd3spSyP-OzQO8AGn4z9vash64mOnswlSG9QWOP8vHfWO8SXbk7uNmT___i1ydnbCuCSMzLRWpd6oZP0fqoo1tmx0aeKRhbKkeucAbOP_UYltncE4HBXYUMo-A6agQ3LSiLNOXAQCB7Nco1N2mtsd2Sx5BmJNfuTZhTMkaXdrcRySrW-VwH-0gJ9uUshCHM_aBsjKwGXrXVX-tnqCAgJDxqGbgP8epNdHOqchyW5kaxzZXYrPzehbGqMhU8ssMezL7hrYku3RBLkeJNA68MM5nsVS7E6pfnvAskJ7eL6wARqSUgiF1-YiR06_bFpNSPX5e7DBUSbGTu1bi2n_7zITqFOBdNjfK4iqHP6W7nHpKaZfLCPjL0MNB8OvhGEnBz9y6OlmigZEJ2wBfGZhQTVbGl8dUV4uXrHf0wFUg5Sn16-M1uIJ-biOHucGnFcsM0IdhBGeigjI3TwwxYQOABr_aZFa8ZDwNvHgv0tteJAvbd2HYGX3fakzyc6wuI_CBnwcxnSFioaPURWBhXQJoelVlnaUUqwrCgh9j2GQCxrTIYhqH-x0wtuO3Fp1PUMCm8QtG8ijCmXJD3kbDsMhzEpKrLSgsXN2XPURuSWj9VckMMYJWZA2SPg2MvVxlLvrZInDtVC4hoOCUyCZmMiIPjHPcOI3l3ySLGr6QQQtjiCgMGkwSregLdPcmjE-VjpVJU0zZ7EpBYgKY8hmradjHcedkv-hySD7wBZN48Xm0ySRiN6vxBoWKCvilNSDHPvqDPX7NCuLjMo0fYWnRcFMyxLy_nfi9E1MoAYCz7IyW4XaeQ8hs3-ZVwhvnL6MExY68XJrsPQvOd5iFo0DeXPyROZ9TvRMfnQze7Z5JTRCcYJkMiNOJUr72YFYEhQzKsA0EgCzi3VxE2UEBjU26Q4aN3t9qjYLlPfoGKd8wXoDSySXgVg_JOlLBIumqEhdldC2Uw_0PHXimUnk4YEJ0JDhSaKRTRNuFhyiYsDSsGRiu6sf3SIJ35M4W3z3wfxZim7LxTRLtnKltXXRmUf0qFgG4HB_7m00]--></g></svg>