<svg xmlns="http://www.w3.org/2000/svg" xmlns:xlink="http://www.w3.org/1999/xlink" contentStyleType="text/css" height="1559px" preserveAspectRatio="none" style="width:1038px;height:1559px;background:#0F172A;" version="1.1" viewBox="0 0 1038 1559" width="1038px" zoomAndPan="magnify"><title>TURN Relay Fallback (when P2P fails)</title><defs/><g><rect fill="#0F172A" height="1559" style="stroke:none;stroke-width:1;" width="1038" x="0" y="0"/><text fill="#F8FAFC" font-family="Segoe UI" font-size="22" font-weight="bold" lengthAdjust="spacing" textLength="465.1582" x="284.9312" y="35.4209">TURN Relay Fallback (when P2P fails)</text><rect fill="#1E293B" height="869.9375" style="stroke:#334155;stroke-width:1;" width="10" x="616.6055" y="520.8906"/><line style="stroke:#334155;stroke-width:1;" x1="51" x2="51" y1="94.5469" y2="1512.6719"/><line style="stroke:#334155;stroke-width:1;" x1="314.8193" x2="314.8193" y1="94.5469" y2="1512.6719"/><line style="stroke:#334155;stroke-width:1;" x1="620.6465" x2="620.6465" y1="94.5469" y2="1512.6719"/><line style="stroke:#334155;stroke-width:1;" x1="744.5645" x2="744.5645" y1="94.5469" y2="1512.6719"/><line style="stroke:#334155;stroke-width:1;" x1="982.0107" x2="982.0107" y1="94.5469" y2="1512.6719"/><rect fill="#1E293B" height="27.9688" rx="2.5" ry="2.5" style="stroke:#3B82F6;stroke-width:1;" width="62.8906" x="20" y="65.5781"/><text fill="#F8FAFC" font-family="Segoe UI" font-size="12" lengthAdjust="spacing" textLength="48.8906" x="27" y="83.7168">Browser</text><rect fill="#1E293B" height="27.9688" rx="2.5" ry="2.5" style="stroke:#3B82F6;stroke-width:1;" width="62.8906" x="20" y="1511.6719"/><text fill="#F8FAFC" font-family="Segoe UI" font-size="12" lengthAdjust="spacing" textLength="48.8906" x="27" y="1529.8105">Browser</text><rect fill="#1E293B" height="41.9375" rx="2.5" ry="2.5" style="stroke:#3B82F6;stroke-width:1;" width="82.3145" x="273.8193" y="51.6094"/><text fill="#F8FAFC" font-family="Segoe UI" font-size="12" lengthAdjust="spacing" textLength="38.7891" x="295.582" y="69.748">coturn</text><text fill="#F8FAFC" font-family="Segoe UI" font-size="12" lengthAdjust="spacing" textLength="68.3145" x="280.8193" y="83.7168">(port 3478)</text><rect fill="#1E293B" height="41.9375" rx="2.5" ry="2.5" style="stroke:#3B82F6;stroke-width:1;" width="82.3145" x="273.8193" y="1511.6719"/><text fill="#F8FAFC" font-family="Segoe UI" font-size="12" lengthAdjust="spacing" textLength="38.7891" x="295.582" y="1529.8105">coturn</text><text fill="#F8FAFC" font-family="Segoe UI" font-size="12" lengthAdjust="spacing" textLength="68.3145" x="280.8193" y="1543.7793">(port 3478)</text><rect fill="#1E293B" height="41.9375" rx="2.5" ry="2.5" style="stroke:#3B82F6;stroke-width:1;" width="91.918" x="575.6465" y="51.6094"/><text fill="#F8FAFC" font-family="Segoe UI" font-size="12" lengthAdjust="spacing" textLength="77.918" x="582.6465" y="69.748">Relay Socket</text><text fill="#F8FAFC" font-family="Segoe UI" font-size="12" lengthAdjust="spacing" textLength="75.9492" x="583.6309" y="83.7168">(port 54000)</text><rect fill="#1E293B" height="41.9375" rx="2.5" ry="2.5" style="stroke:#3B82F6;stroke-width:1;" width="91.918" x="575.6465" y="1511.6719"/><text fill="#F8FAFC" font-family="Segoe UI" font-size="12" lengthAdjust="spacing" textLength="77.918" x="582.6465" y="1529.8105">Relay Socket</text><text fill="#F8FAFC" font-family="Segoe UI" font-size="12" lengthAdjust="spacing" textLength="75.9492" x="583.6309" y="1543.7793">(port 54000)</text><rect fill="#1E293B" height="41.9375" rx="2.5" ry="2.5" style="stroke:#3B82F6;stroke-width:1;" width="94.0273" x="697.5645" y="51.6094"/><text fill="#F8FAFC" font-family="Segoe UI" font-size="12" lengthAdjust="spacing" textLength="80.0273" x="704.5645" y="69.748">Signal Server</text><text fill="#F8FAFC" font-family="Segoe UI" font-size="12" lengthAdjust="spacing" textLength="63.416" x="712.8701" y="83.7168">(signaling)</text><rect fill="#1E293B" height="41.9375" rx="2.5" ry="2.5" style="stroke:#3B82F6;stroke-width:1;" width="94.0273" x="697.5645" y="1511.6719"/><text fill="#F8FAFC" font-family="Segoe UI" font-size="12" lengthAdjust="spacing" textLength="80.0273" x="704.5645" y="1529.8105">Signal Server</text><text fill="#F8FAFC" font-family="Segoe UI" font-size="12" lengthAdjust="spacing" textLength="63.416" x="712.8701" y="1543.7793">(signaling)</text><rect fill="#1E293B" height="27.9688" rx="2.5" ry="2.5" style="stroke:#3B82F6;stroke-width:1;" width="67.0098" x="949.0107" y="65.5781"/><text fill="#F8FAFC" font-family="Segoe UI" font-size="12" lengthAdjust="spacing" textLength="53.0098" x="956.0107" y="83.7168">Gateway</text><rect fill="#1E293B" height="27.9688" rx="2.5" ry="2.5" style="stroke:#3B82F6;stroke-width:1;" width="67.0098" x="949.0107" y="1511.6719"/><text fill="#F8FAFC" font-family="Segoe UI" font-size="12" lengthAdjust="spacing" textLength="53.0098" x="956.0107" y="1529.8105">Gateway</text><rect fill="#1E293B" height="869.9375" style="stroke:#334155;stroke-width:1;" width="10" x="616.6055" y="520.8906"/><path d="M11,109.5469 L11,160.5469 L1022,160.5469 L1022,119.5469 L1012,109.5469 L11,109.5469 " fill="#334155" style="stroke:#334155;stroke-width:1;"/><path d="M1012,109.5469 L1012,119.5469 L1022,119.5469 L1012,109.5469 " fill="#334155" style="stroke:#334155;stroke-width:1;"/><text fill="#F8FAFC" font-family="Segoe UI" font-size="12" lengthAdjust="spacing" textLength="181.5938" x="400.5005" y="125.6855">P2P connectivity checks failed</text><text fill="#F8FAFC" font-family="Segoe UI" font-size="12" lengthAdjust="spacing" textLength="223.0195" x="400.5005" y="139.6543">(symmetric NAT or firewall blocking).</text><text fill="#F8FAFC" font-family="Segoe UI" font-size="12" lengthAdjust="spacing" textLength="175.541" x="400.5005" y="153.623">ICE agent falls back to TURN.</text><rect fill="#334155" height="3" style="stroke:#334155;stroke-width:1;" width="1026.0205" x="5" y="186.4375"/><line style="stroke:#000000;stroke-width:0.5;" x1="5" x2="1031.0205" y1="186.4375" y2="186.4375"/><line style="stroke:#000000;stroke-width:0.5;" x1="5" x2="1031.0205" y1="189.4375" y2="189.4375"/><rect fill="#334155" height="21.9688" style="stroke:#000000;stroke-width:1;" width="131.498" x="452.2612" y="176.4531"/><text fill="#F8FAFC" font-family="Segoe UI" font-size="12" font-weight="bold" lengthAdjust="spacing" textLength="113.3203" x="458.2612" y="191.5918">1. TURN Allocate</text><polygon fill="#94A3B8" points="302.9766,238.3594,312.9766,242.3594,302.9766,246.3594,306.9766,242.3594" style="stroke:#94A3B8;stroke-width:1;"/><line style="stroke:#94A3B8;stroke-width:1;" x1="51.4453" x2="308.9766" y1="242.3594" y2="242.3594"/><text fill="#94A3B8" font-family="Segoe UI" font-size="12" lengthAdjust="spacing" textLength="101.3555" x="58.4453" y="223.5605">Allocate Request</text><text fill="#94A3B8" font-family="Segoe UI" font-size="12" lengthAdjust="spacing" textLength="94.623" x="58.4453" y="237.5293">(no credentials)</text><polygon fill="#94A3B8" points="62.4453,294.2656,52.4453,298.2656,62.4453,302.2656,58.4453,298.2656" style="stroke:#94A3B8;stroke-width:1;"/><line style="stroke:#94A3B8;stroke-width:1;stroke-dasharray:2.0,2.0;" x1="56.4453" x2="313.9766" y1="298.2656" y2="298.2656"/><text fill="#94A3B8" font-family="Segoe UI" font-size="12" lengthAdjust="spacing" textLength="107.2852" x="68.4453" y="265.498">401 Unauthorized</text><text fill="#94A3B8" font-family="Segoe UI" font-size="12" lengthAdjust="spacing" textLength="112.3242" x="68.4453" y="279.4668">REALM: "keylessh"</text><text fill="#94A3B8" font-family="Segoe UI" font-size="12" lengthAdjust="spacing" textLength="106.7285" x="68.4453" y="293.4355">NONCE: "abc123"</text><polygon fill="#94A3B8" points="302.9766,378.1094,312.9766,382.1094,302.9766,386.1094,306.9766,382.1094" style="stroke:#94A3B8;stroke-width:1;"/><line style="stroke:#94A3B8;stroke-width:1;" x1="51.4453" x2="308.9766" y1="382.1094" y2="382.1094"/><text fill="#94A3B8" font-family="Segoe UI" font-size="12" lengthAdjust="spacing" textLength="101.3555" x="58.4453" y="321.4043">Allocate Request</text><text fill="#94A3B8" font-family="Segoe UI" font-size="12" lengthAdjust="spacing" textLength="156.627" x="58.4453" y="335.373">Username: "1708000000"</text><text fill="#94A3B8" font-family="Segoe UI" font-size="12" lengthAdjust="spacing" textLength="109.2539" x="58.4453" y="349.3418">Realm: "keylessh"</text><text fill="#94A3B8" font-family="Segoe UI" font-size="12" lengthAdjust="spacing" textLength="101.2734" x="58.4453" y="363.3105">Nonce: "abc123"</text><text fill="#94A3B8" font-family="Segoe UI" font-size="12" lengthAdjust="spacing" textLength="125.8535" x="58.4453" y="377.2793">MESSAGE-INTEGRITY</text><line style="stroke:#94A3B8;stroke-width:1;" x1="314.9766" x2="356.9766" y1="465.9531" y2="465.9531"/><line style="stroke:#94A3B8;stroke-width:1;" x1="356.9766" x2="356.9766" y1="465.9531" y2="478.9531"/><line style="stroke:#94A3B8;stroke-width:1;" x1="315.9766" x2="356.9766" y1="478.9531" y2="478.9531"/><polygon fill="#94A3B8" points="325.9766,474.9531,315.9766,478.9531,325.9766,482.9531,321.9766,478.9531" style="stroke:#94A3B8;stroke-width:1;"/><text fill="#94A3B8" font-family="Segoe UI" font-size="12" lengthAdjust="spacing" textLength="53.332" x="321.9766" y="405.248">Validate:</text><text fill="#94A3B8" font-family="Segoe UI" font-size="12" lengthAdjust="spacing" textLength="210.8203" x="321.9766" y="419.2168">1. timestamp &gt; now? (not expired)</text><text fill="#94A3B8" font-family="Segoe UI" font-size="12" lengthAdjust="spacing" textLength="292.6289" x="321.9766" y="433.1855">2. password = HMAC-SHA256(secret, username)</text><text fill="#94A3B8" font-family="Segoe UI" font-size="12" lengthAdjust="spacing" textLength="187.4004" x="321.9766" y="447.1543">3. key = MD5(user:realm:pass)</text><text fill="#94A3B8" font-family="Segoe UI" font-size="12" lengthAdjust="spacing" textLength="179.0098" x="321.9766" y="461.123">4. verify MESSAGE-INTEGRITY</text><polygon fill="#94A3B8" points="604.6055,516.8906,614.6055,520.8906,604.6055,524.8906,608.6055,520.8906" style="stroke:#94A3B8;stroke-width:1;"/><line style="stroke:#94A3B8;stroke-width:1;" x1="314.9766" x2="610.6055" y1="520.8906" y2="520.8906"/><text fill="#94A3B8" font-family="Segoe UI" font-size="12" lengthAdjust="spacing" textLength="98.9063" x="321.9766" y="502.0918">Bind UDP socket</text><text fill="#94A3B8" font-family="Segoe UI" font-size="12" lengthAdjust="spacing" textLength="178.207" x="321.9766" y="516.0605">on random port 49152-65535</text><polygon fill="#94A3B8" points="62.4453,586.7656,52.4453,590.7656,62.4453,594.7656,58.4453,590.7656" style="stroke:#94A3B8;stroke-width:1;"/><line style="stroke:#94A3B8;stroke-width:1;stroke-dasharray:2.0,2.0;" x1="56.4453" x2="313.9766" y1="590.7656" y2="590.7656"/><text fill="#94A3B8" font-family="Segoe UI" font-size="12" lengthAdjust="spacing" textLength="100.377" x="68.4453" y="544.0293">Allocate Success</text><text fill="#94A3B8" font-family="Segoe UI" font-size="12" lengthAdjust="spacing" textLength="239.5313" x="68.4453" y="557.998">XOR-RELAYED-ADDRESS: 5.6.7.8:54000</text><text fill="#94A3B8" font-family="Segoe UI" font-size="12" lengthAdjust="spacing" textLength="211.7637" x="68.4453" y="571.9668">XOR-MAPPED-ADDRESS: (reflexive)</text><text fill="#94A3B8" font-family="Segoe UI" font-size="12" lengthAdjust="spacing" textLength="84.2754" x="68.4453" y="585.9355">LIFETIME: 600</text><rect fill="#334155" height="3" style="stroke:#334155;stroke-width:1;" width="1026.0205" x="5" y="618.75"/><line style="stroke:#000000;stroke-width:0.5;" x1="5" x2="1031.0205" y1="618.75" y2="618.75"/><line style="stroke:#000000;stroke-width:0.5;" x1="5" x2="1031.0205" y1="621.75" y2="621.75"/><rect fill="#334155" height="21.9688" style="stroke:#000000;stroke-width:1;" width="158.9316" x="438.5444" y="608.7656"/><text fill="#F8FAFC" font-family="Segoe UI" font-size="12" font-weight="bold" lengthAdjust="spacing" textLength="140.7539" x="444.5444" y="623.9043">2. Create Permission</text><polygon fill="#94A3B8" points="302.9766,670.6719,312.9766,674.6719,302.9766,678.6719,306.9766,674.6719" style="stroke:#94A3B8;stroke-width:1;"/><line style="stroke:#94A3B8;stroke-width:1;" x1="51.4453" x2="308.9766" y1="674.6719" y2="674.6719"/><text fill="#94A3B8" font-family="Segoe UI" font-size="12" lengthAdjust="spacing" textLength="105.498" x="58.4453" y="655.873">CreatePermission</text><text fill="#94A3B8" font-family="Segoe UI" font-size="12" lengthAdjust="spacing" textLength="186.4453" x="58.4453" y="669.8418">{ peer: Gateway's IP address }</text><line style="stroke:#94A3B8;stroke-width:1;" x1="314.9766" x2="356.9766" y1="716.6094" y2="716.6094"/><line style="stroke:#94A3B8;stroke-width:1;" x1="356.9766" x2="356.9766" y1="716.6094" y2="729.6094"/><line style="stroke:#94A3B8;stroke-width:1;" x1="315.9766" x2="356.9766" y1="729.6094" y2="729.6094"/><polygon fill="#94A3B8" points="325.9766,725.6094,315.9766,729.6094,325.9766,733.6094,321.9766,729.6094" style="stroke:#94A3B8;stroke-width:1;"/><text fill="#94A3B8" font-family="Segoe UI" font-size="12" lengthAdjust="spacing" textLength="105.6797" x="321.9766" y="697.8105">Install permission</text><text fill="#94A3B8" font-family="Segoe UI" font-size="12" lengthAdjust="spacing" textLength="101.0918" x="321.9766" y="711.7793">(expires in 300s)</text><polygon fill="#94A3B8" points="62.4453,753.5781,52.4453,757.5781,62.4453,761.5781,58.4453,757.5781" style="stroke:#94A3B8;stroke-width:1;"/><line style="stroke:#94A3B8;stroke-width:1;stroke-dasharray:2.0,2.0;" x1="56.4453" x2="313.9766" y1="757.5781" y2="757.5781"/><text fill="#94A3B8" font-family="Segoe UI" font-size="12" lengthAdjust="spacing" textLength="157.6172" x="68.4453" y="752.748">CreatePermission Success</text><rect fill="#334155" height="3" style="stroke:#334155;stroke-width:1;" width="1026.0205" x="5" y="785.5625"/><line style="stroke:#000000;stroke-width:0.5;" x1="5" x2="1031.0205" y1="785.5625" y2="785.5625"/><line style="stroke:#000000;stroke-width:0.5;" x1="5" x2="1031.0205" y1="788.5625" y2="788.5625"/><rect fill="#334155" height="21.9688" style="stroke:#000000;stroke-width:1;" width="325.4375" x="355.2915" y="775.5781"/><text fill="#F8FAFC" font-family="Segoe UI" font-size="12" font-weight="bold" lengthAdjust="spacing" textLength="307.2598" x="361.2915" y="790.7168">3. Channel Bind (optional, reduces overhead)</text><polygon fill="#94A3B8" points="302.9766,851.4531,312.9766,855.4531,302.9766,859.4531,306.9766,855.4531" style="stroke:#94A3B8;stroke-width:1;"/><line style="stroke:#94A3B8;stroke-width:1;" x1="51.4453" x2="308.9766" y1="855.4531" y2="855.4531"/><text fill="#94A3B8" font-family="Segoe UI" font-size="12" lengthAdjust="spacing" textLength="76.0547" x="58.4453" y="822.6855">ChannelBind</text><text fill="#94A3B8" font-family="Segoe UI" font-size="12" lengthAdjust="spacing" textLength="115.8809" x="58.4453" y="836.6543">{ channel: 0x4001,</text><text fill="#94A3B8" font-family="Segoe UI" font-size="12" lengthAdjust="spacing" textLength="142.8633" x="66.0742" y="850.623">peer: Gateway IP:port }</text><line style="stroke:#94A3B8;stroke-width:1;" x1="314.9766" x2="356.9766" y1="883.4219" y2="883.4219"/><line style="stroke:#94A3B8;stroke-width:1;" x1="356.9766" x2="356.9766" y1="883.4219" y2="896.4219"/><line style="stroke:#94A3B8;stroke-width:1;" x1="315.9766" x2="356.9766" y1="896.4219" y2="896.4219"/><polygon fill="#94A3B8" points="325.9766,892.4219,315.9766,896.4219,325.9766,900.4219,321.9766,896.4219" style="stroke:#94A3B8;stroke-width:1;"/><text fill="#94A3B8" font-family="Segoe UI" font-size="12" lengthAdjust="spacing" textLength="170.7129" x="321.9766" y="878.5918">Map channel 0x4001 &#8594; peer</text><polygon fill="#94A3B8" points="62.4453,920.3906,52.4453,924.3906,62.4453,928.3906,58.4453,924.3906" style="stroke:#94A3B8;stroke-width:1;"/><line style="stroke:#94A3B8;stroke-width:1;stroke-dasharray:2.0,2.0;" x1="56.4453" x2="313.9766" y1="924.3906" y2="924.3906"/><text fill="#94A3B8" font-family="Segoe UI" font-size="12" lengthAdjust="spacing" textLength="128.1738" x="68.4453" y="919.5605">ChannelBind Success</text><rect fill="#334155" height="3" style="stroke:#334155;stroke-width:1;" width="1026.0205" x="5" y="952.375"/><line style="stroke:#000000;stroke-width:0.5;" x1="5" x2="1031.0205" y1="952.375" y2="952.375"/><line style="stroke:#000000;stroke-width:0.5;" x1="5" x2="1031.0205" y1="955.375" y2="955.375"/><rect fill="#334155" height="21.9688" style="stroke:#000000;stroke-width:1;" width="198.7637" x="418.6284" y="942.3906"/><text fill="#F8FAFC" font-family="Segoe UI" font-size="12" font-weight="bold" lengthAdjust="spacing" textLength="180.5859" x="424.6284" y="957.5293">4. ICE Candidate Exchange</text><polygon fill="#94A3B8" points="732.5781,1004.2969,742.5781,1008.2969,732.5781,1012.2969,736.5781,1008.2969" style="stroke:#94A3B8;stroke-width:1;"/><line style="stroke:#94A3B8;stroke-width:1;" x1="51.4453" x2="738.5781" y1="1008.2969" y2="1008.2969"/><text fill="#94A3B8" font-family="Segoe UI" font-size="12" lengthAdjust="spacing" textLength="154.4531" x="58.4453" y="989.498">candidate { type: "relay",</text><text fill="#94A3B8" font-family="Segoe UI" font-size="12" lengthAdjust="spacing" textLength="150.9141" x="66.0742" y="1003.4668">address: 5.6.7.8:54000 }</text><polygon fill="#94A3B8" points="970.5156,1032.2656,980.5156,1036.2656,970.5156,1040.2656,974.5156,1036.2656" style="stroke:#94A3B8;stroke-width:1;"/><line style="stroke:#94A3B8;stroke-width:1;" x1="744.5781" x2="976.5156" y1="1036.2656" y2="1036.2656"/><text fill="#94A3B8" font-family="Segoe UI" font-size="12" lengthAdjust="spacing" textLength="109.5996" x="751.5781" y="1031.4355">forward candidate</text><path d="M11,1049.2656 L11,1114.2656 L1022,1114.2656 L1022,1059.2656 L1012,1049.2656 L11,1049.2656 " fill="#1E293B" style="stroke:#334155;stroke-width:1;"/><path d="M1012,1049.2656 L1012,1059.2656 L1022,1059.2656 L1012,1049.2656 " fill="#1E293B" style="stroke:#334155;stroke-width:1;"/><text fill="#F8FAFC" font-family="Segoe UI" font-size="12" lengthAdjust="spacing" textLength="218.4316" x="386.1802" y="1065.4043">Gateway also gets TURN credentials</text><text fill="#F8FAFC" font-family="Segoe UI" font-size="12" lengthAdjust="spacing" textLength="251.6602" x="386.1802" y="1079.373">(HMAC-SHA256) and may allocate its own</text><text fill="#F8FAFC" font-family="Segoe UI" font-size="12" lengthAdjust="spacing" textLength="189.8496" x="386.1802" y="1093.3418">relay, or connect directly to the</text><text fill="#F8FAFC" font-family="Segoe UI" font-size="12" lengthAdjust="spacing" textLength="146.7832" x="386.1802" y="1107.3105">browser's relay address.</text><rect fill="#334155" height="3" style="stroke:#334155;stroke-width:1;" width="1026.0205" x="5" y="1140.125"/><line style="stroke:#000000;stroke-width:0.5;" x1="5" x2="1031.0205" y1="1140.125" y2="1140.125"/><line style="stroke:#000000;stroke-width:0.5;" x1="5" x2="1031.0205" y1="1143.125" y2="1143.125"/><rect fill="#334155" height="21.9688" style="stroke:#000000;stroke-width:1;" width="108.7461" x="463.6372" y="1130.1406"/><text fill="#F8FAFC" font-family="Segoe UI" font-size="12" font-weight="bold" lengthAdjust="spacing" textLength="90.5684" x="469.6372" y="1145.2793">5. Data Relay</text><polygon fill="#94A3B8" points="302.9766,1192.0469,312.9766,1196.0469,302.9766,1200.0469,306.9766,1196.0469" style="stroke:#94A3B8;stroke-width:1;"/><line style="stroke:#94A3B8;stroke-width:1;" x1="51.4453" x2="308.9766" y1="1196.0469" y2="1196.0469"/><text fill="#94A3B8" font-family="Segoe UI" font-size="12" lengthAdjust="spacing" textLength="77.918" x="58.4453" y="1177.248">ChannelData</text><text fill="#94A3B8" font-family="Segoe UI" font-size="12" lengthAdjust="spacing" textLength="163.9512" x="58.4453" y="1191.2168">[0x4001 | length | payload]</text><path d="M319,1171.0938 L319,1194.0938 L468,1194.0938 L468,1181.0938 L458,1171.0938 L319,1171.0938 " fill="#1E293B" style="stroke:#334155;stroke-width:1;"/><path d="M458,1171.0938 L458,1181.0938 L468,1181.0938 L458,1171.0938 " fill="#1E293B" style="stroke:#334155;stroke-width:1;"/><text fill="#F8FAFC" font-family="Segoe UI" font-size="12" lengthAdjust="spacing" textLength="128.502" x="325" y="1187.2324">4-byte overhead only</text><polygon fill="#94A3B8" points="604.6055,1220.0156,614.6055,1224.0156,604.6055,1228.0156,608.6055,1224.0156" style="stroke:#94A3B8;stroke-width:1;"/><line style="stroke:#94A3B8;stroke-width:1;" x1="314.9766" x2="610.6055" y1="1224.0156" y2="1224.0156"/><text fill="#94A3B8" font-family="Segoe UI" font-size="12" lengthAdjust="spacing" textLength="94.3125" x="321.9766" y="1219.1855">extract payload</text><polygon fill="#94A3B8" points="970.5156,1247.9844,980.5156,1251.9844,970.5156,1255.9844,974.5156,1251.9844" style="stroke:#94A3B8;stroke-width:1;"/><line style="stroke:#94A3B8;stroke-width:1;" x1="626.6055" x2="976.5156" y1="1251.9844" y2="1251.9844"/><text fill="#94A3B8" font-family="Segoe UI" font-size="12" lengthAdjust="spacing" textLength="80.8359" x="633.6055" y="1247.1543">UDP: payload</text><polygon fill="#94A3B8" points="637.6055,1275.9531,627.6055,1279.9531,637.6055,1283.9531,633.6055,1279.9531" style="stroke:#94A3B8;stroke-width:1;"/><line style="stroke:#94A3B8;stroke-width:1;" x1="631.6055" x2="981.5156" y1="1279.9531" y2="1279.9531"/><text fill="#94A3B8" font-family="Segoe UI" font-size="12" lengthAdjust="spacing" textLength="87.8848" x="643.6055" y="1275.123">UDP: response</text><polygon fill="#94A3B8" points="325.9766,1303.9219,315.9766,1307.9219,325.9766,1311.9219,321.9766,1307.9219" style="stroke:#94A3B8;stroke-width:1;"/><line style="stroke:#94A3B8;stroke-width:1;" x1="319.9766" x2="615.6055" y1="1307.9219" y2="1307.9219"/><text fill="#94A3B8" font-family="Segoe UI" font-size="12" lengthAdjust="spacing" textLength="114.8672" x="331.9766" y="1303.0918">received from peer</text><line style="stroke:#94A3B8;stroke-width:1;" x1="314.9766" x2="356.9766" y1="1335.8906" y2="1335.8906"/><line style="stroke:#94A3B8;stroke-width:1;" x1="356.9766" x2="356.9766" y1="1335.8906" y2="1348.8906"/><line style="stroke:#94A3B8;stroke-width:1;" x1="315.9766" x2="356.9766" y1="1348.8906" y2="1348.8906"/><polygon fill="#94A3B8" points="325.9766,1344.8906,315.9766,1348.8906,325.9766,1352.8906,321.9766,1348.8906" style="stroke:#94A3B8;stroke-width:1;"/><text fill="#94A3B8" font-family="Segoe UI" font-size="12" lengthAdjust="spacing" textLength="141.1523" x="321.9766" y="1331.0605">lookup channel by peer</text><polygon fill="#94A3B8" points="62.4453,1386.8281,52.4453,1390.8281,62.4453,1394.8281,58.4453,1390.8281" style="stroke:#94A3B8;stroke-width:1;"/><line style="stroke:#94A3B8;stroke-width:1;stroke-dasharray:2.0,2.0;" x1="56.4453" x2="313.9766" y1="1390.8281" y2="1390.8281"/><text fill="#94A3B8" font-family="Segoe UI" font-size="12" lengthAdjust="spacing" textLength="77.918" x="68.4453" y="1372.0293">ChannelData</text><text fill="#94A3B8" font-family="Segoe UI" font-size="12" lengthAdjust="spacing" textLength="171" x="68.4453" y="1385.998">[0x4001 | length | response]</text><path d="M11,1403.8281 L11,1454.8281 L1022,1454.8281 L1022,1413.8281 L1012,1403.8281 L11,1403.8281 " fill="#334155" style="stroke:#334155;stroke-width:1;"/><path d="M1012,1403.8281 L1012,1413.8281 L1022,1413.8281 L1012,1403.8281 " fill="#334155" style="stroke:#334155;stroke-width:1;"/><text fill="#F8FAFC" font-family="Segoe UI" font-size="12" lengthAdjust="spacing" textLength="247.1484" x="382.5737" y="1419.9668">DataChannel established via TURN relay.</text><text fill="#F8FAFC" font-family="Segoe UI" font-size="12" lengthAdjust="spacing" textLength="258.873" x="382.5737" y="1433.9355">Higher latency than P2P but works through</text><text fill="#F8FAFC" font-family="Segoe UI" font-size="12" lengthAdjust="spacing" textLength="185.373" x="382.5737" y="1447.9043">any NAT/firewall configuration.</text><polygon fill="#94A3B8" points="755.5781,1490.6719,745.5781,1494.6719,755.5781,1498.6719,751.5781,1494.6719" style="stroke:#94A3B8;stroke-width:1;"/><line style="stroke:#94A3B8;stroke-width:1;" x1="749.5781" x2="981.5156" y1="1494.6719" y2="1494.6719"/><text fill="#94A3B8" font-family="Segoe UI" font-size="12" lengthAdjust="spacing" textLength="75.832" x="761.5781" y="1475.873">client_status</text><text fill="#94A3B8" font-family="Segoe UI" font-size="12" lengthAdjust="spacing" textLength="213.9375" x="761.5781" y="1489.8418">{ clientId, connectionType: "turn" }</text><!--SRC=[ZLRRRkCs47tNLqpTXtK0s_Kr5m7Pmh6Tn43iDUoawA9U5BH4oKHeKajHSTHqN_i1_SH-IOUKv5kSx0O8a73E36VEd1dg9xsaAmeH9qmuccbEuVvXEeOfvII5QyBvWdYFK5ulgO19Sm81OJm-SPpuaOc8ABA25mV0W48b4-7t99SAVgu7ZRCcGOjF0v9mVIs5pat1UK02Rzyq9fX4QKP3IU5XMDetpjXV51fDF9pHhmaL7hrZ0VuAUYMLJrKUjzLgDpgTOwZ3v1gqUT5Q8792b6OUYuZGFmRQkszntWnEzm77okmg9TVvuKMRe5jnk8FU6CPIlvEmjHujsbYEtLwGSOFnehS3xyFUfRNFdXYQNyLw2_Wwgs-E4sqvWz8LSX5JLG8ImoBxUvFQ7j2JEb5YBigHL1fQxRFp4-iKwqGSzyXqF9FU8zM5NwTThzSpHsNDHprdB1I4Op7gYIfqZUt_J8JvbImyxdT3D5sJr8B2zGRZ26mGI8nLb5YnvWrhPhWyAGJrDFAcK_2Mr7kCxS1H7m7bE5sjg5RCWt7t7f3FW2cyYdDOS2pGf5P3tB0t019Ip2L0Msnd4xIqSrrpgF31fE8ubvVGg6NJtkKO0FE6oql7AJfG_PZnwcxDKzFPs10f97YA-dWB8za-CD0g-XJkBhJh3NWG9D5BgN24_RcO3hft8nTAZpJbD8wNfRaOVnht1dX45bwZsIhzsFKF212uCj2lSLO_hziV33QbXAyEuajKuZR-N8m6irdtPb0TZky7DzFX_USYzyrzls6RVRpFdGiaIBCLtabM4Nn4ujQ_0jQkWJv7IBv_CXVD6aGaZjSuCt09jwDkhpgxxJOxf-MO8aMw0acUBO9RDS3S43VgTyhct5KsPHC1pUqQe41OaC8xMMQQTU6AOIiV-XE8StLB0Oe8Nwx0ohnzqUWqgwUTJglZ42CgGw5rFjgj3SkpnFEGlBdu_TEqEXtSTJyF-jLklp_5b5per4vhPxLprmvHXXbr9vDTI5dHWDDdzcGglXjU3-w78spnQRrkHOU4zR1gl6b2rOh5CSF4ZmilmsrXS_424KNM89-o3p4C9q1yNs76yEsmaqE1dSFvY7OYbBFMnS04jEfrrEuHCWulBaYn1M0JUqk2aygp7fHbf153U0NfzHF4sJbVKkAVl5LOvc_SJKrUzgyBzMUajL6P2zYl4wjqRLDVbJWYKU6UUyD___nhlOyMjhruhoPKdjaRFTIFrJuCdatKyFLAmBtdWhV1lO1E8pDWLbabcthUZmEncDpH6MFWtdCXa6fDS6OseTvOaRZH2X9mqqW8gOwphRMpWCnwt1cz4y2WiB8kkQePUicrGA1Dj6BsPxvkmKSzU9gdPalYzv3vdidk_r2y47b51-kpKuC-qIJ_M7gtqmOt5t_a7VeRE1MXNk8V4Kcv9FwNh7Z5mgN6pLbTf3aLHaKW1KzVBm3wh1KETX72oSuBVd4pk1kJWqSxdjQ61KLIn7JhbwUCP50SNXy2PNR9LaaR19VoCTdgRf5-JszlbbyaySLnV7gufRxtP9genIIQ7RtWB5vYta-CP0gnSSoRU8kyOXYEmOM7VKOd- -0k4WsukV6PrKlybWcNY2KYDG_iBvlN5MKIi31Hn4pvhWGoKlE9u0or-2TcePFOphGz6FgLpQiknNqsAkOZfeJZy3y0]--></g></svg>